<?xml version="1.0" encoding="UTF-8"?>
<svg width="17px" height="9px" viewBox="0 0 17 9" version="1.1" xmlns="http://www.w3.org/2000/svg" xmlns:xlink="http://www.w3.org/1999/xlink">
    <!-- Generator: Sketch 50.2 (55047) - http://www.bohemiancoding.com/sketch -->
    <title>VK</title>
    <desc>Created with Sketch.</desc>
    <defs></defs>
    <g id="Page-1" stroke="none" stroke-width="1" fill="none" fill-rule="evenodd">
        <g id="VK" transform="translate(0.500000, 0.000000)" fill="#FFFFFF">
            <path d="M8.78466401,8.96238287 C8.78466401,8.96238287 9.07342887,8.93074776 9.22133283,8.77411538 C9.35671581,8.6306 9.35202045,8.35977259 9.35202045,8.35977259 C9.35202045,8.35977259 9.33402155,7.09513973 9.92955017,6.90841541 C10.5164706,6.72477745 11.2700765,8.13138252 12.0698534,8.67226576 C12.6739902,9.08120744 13.1325707,8.99170322 13.1325707,8.99170322 L15.2697437,8.96238287 C15.2697437,8.96238287 16.3872402,8.89448312 15.8574467,8.02798971 C15.8136233,7.95700361 15.5483353,7.38680002 14.2688487,6.21552932 C12.9283224,4.98947587 13.1083113,5.187774 14.7219513,3.06667838 C15.7048474,1.77503994 16.0976928,0.986476926 15.9748308,0.649292936 C15.8582293,0.32676912 15.1351433,0.412415397 15.1351433,0.412415397 L12.729552,0.42707557 C12.729552,0.42707557 12.5511282,0.40315634 12.4188754,0.481086736 C12.2897529,0.557473955 12.2060189,0.735710801 12.2060189,0.735710801 C12.2060189,0.735710801 11.8256945,1.73491736 11.3178127,2.58520742 C10.2464872,4.37837811 9.81842656,4.47328344 9.64313299,4.36217476 C9.23541892,4.10214958 9.33715179,3.31898768 9.33715179,2.76267268 C9.33715179,1.02428474 9.60478752,0.299763538 8.816749,0.112267635 C8.55537376,0.0497690008 8.36286385,0.00887483275 7.69377454,0.00193054006 C6.83530556,-0.00655692878 6.10908932,0.00501689237 5.69746245,0.203315028 C5.42356624,0.335256589 5.21227488,0.630003234 5.34139738,0.646978172 C5.50025718,0.66781105 5.86023505,0.742655094 6.05117984,0.998822335 C6.29768643,1.32983362 6.28907826,2.07210135 6.28907826,2.07210135 C6.28907826,2.07210135 6.43072173,4.11835293 5.95805513,4.37220541 C5.63407504,4.54658431 5.18958062,4.19088221 4.23407413,2.56360295 C3.74497376,1.73028783 3.37560515,0.809011668 3.37560515,0.809011668 C3.37560515,0.809011668 3.30439214,0.636947527 3.17683476,0.544356958 C3.02267032,0.432476687 2.80746616,0.397755223 2.80746616,0.397755223 L0.52160665,0.412415397 C0.52160665,0.412415397 0.178062547,0.421674454 0.0520702904,0.569047776 C-0.0598358753,0.699446161 0.0434621238,0.970273576 0.0434621238,0.970273576 C0.0434621238,0.970273576 1.83317821,5.09904137 3.86001016,7.18001442 C5.71859159,9.08738014 7.82837496,8.96238287 7.82837496,8.96238287 L8.78466401,8.96238287 Z" id="Shape"></path>
        </g>
    </g>
</svg>