<?xml version="1.0" encoding="UTF-8"?>
<svg width="16px" height="16px" viewBox="0 0 16 16" version="1.1" xmlns="http://www.w3.org/2000/svg" xmlns:xlink="http://www.w3.org/1999/xlink">
    <!-- Generator: Sketch 50.2 (55047) - http://www.bohemiancoding.com/sketch -->
    <title>phone</title>
    <desc>Created with Sketch.</desc>
    <defs></defs>
    <g id="Page-1" stroke="none" stroke-width="1" fill="none" fill-rule="evenodd" stroke-linecap="round" stroke-linejoin="round">
        <g id="phone" transform="translate(1.000000, 1.000000)" stroke="#47455E" stroke-width="1.2">
            <polyline id="Shape" points="11.3333333 0 14 2.66666667 11.3333333 5.33333333"></polyline>
            <path d="M8.66666667,2.66666667 L14,2.66666667" id="Shape"></path>
            <path d="M13.3333333,10.6133333 L13.3333333,12.6133333 C13.3348572,12.9887634 13.178032,13.3474389 12.9013852,13.6012433 C12.6247385,13.8550476 12.2539093,13.9804587 11.88,13.9466667 C9.82855591,13.7237605 7.85799944,13.022763 6.12666667,11.9 C4.51588541,10.8764426 3.1502241,9.51078125 2.12666667,7.9 C0.999985372,6.16080265 0.298828668,4.18066304 0.08,2.12 C0.0463154735,1.74724822 0.170848005,1.37750162 0.423177186,1.1010807 C0.675506367,0.824659792 1.03239616,0.667019127 1.40666667,0.666666667 L3.40666667,0.666666667 C4.07590937,0.660079895 4.6463339,1.15064499 4.74,1.81333333 C4.82441534,2.45337763 4.9809663,3.08181792 5.20666667,3.68666667 C5.38982334,4.17391669 5.27267671,4.72320418 4.90666667,5.09333333 L4.06,5.94 C5.00903698,7.60903055 6.39096945,8.99096302 8.06,9.94 L8.90666667,9.09333333 C9.27679582,8.72732329 9.82608331,8.61017666 10.3133333,8.79333333 C10.9181821,9.0190337 11.5466224,9.17558466 12.1866667,9.26 C12.8570418,9.35457354 13.3501267,9.93652839 13.3333333,10.6133333 Z" id="Shape"></path>
        </g>
    </g>
</svg>