<?xml version="1.0" encoding="UTF-8"?>
<svg width="25px" height="24px" viewBox="0 0 25 24" version="1.1" xmlns="http://www.w3.org/2000/svg" xmlns:xlink="http://www.w3.org/1999/xlink">
    <!-- Generator: Sketch 50.2 (55047) - http://www.bohemiancoding.com/sketch -->
    <title>settings</title>
    <desc>Created with Sketch.</desc>
    <defs></defs>
    <g id="Page-1" stroke="none" stroke-width="1" fill="none" fill-rule="evenodd" stroke-linecap="round" stroke-linejoin="round">
        <g id="settings" transform="translate(1.000000, 1.000000)" stroke="#47455E" stroke-width="2">
            <ellipse id="Oval" cx="11.5" cy="11" rx="3.13636364" ry="3"></ellipse>
            <path d="M19.2363636,14 C18.9516378,14.6170901 19.0882584,15.3378133 19.5813636,15.82 L19.6440909,15.88 C20.0367156,16.2551365 20.2573266,16.7641815 20.2573266,17.295 C20.2573266,17.8258185 20.0367156,18.3348635 19.6440909,18.71 C19.2519027,19.0855541 18.7197193,19.2965733 18.1647727,19.2965733 C17.6098261,19.2965733 17.0776427,19.0855541 16.6854545,18.71 L16.6227273,18.65 C16.118623,18.1783341 15.3651396,18.0476535 14.72,18.32 C14.0880535,18.5790683 13.6772876,19.1723571 13.6745455,19.83 L13.6745455,20 C13.6745455,21.1045695 12.7384136,22 11.5836364,22 C10.4288592,22 9.49272727,21.1045695 9.49272727,20 L9.49272727,19.91 C9.47616372,19.2326708 9.0284114,18.6338652 8.36363636,18.4 C7.71849675,18.1276535 6.9650134,18.2583341 6.46090909,18.73 L6.39818182,18.79 C6.00599364,19.1655541 5.47381025,19.3765733 4.91886364,19.3765733 C4.36391703,19.3765733 3.83173363,19.1655541 3.43954545,18.79 C3.04692073,18.4148635 2.82630972,17.9058185 2.82630972,17.375 C2.82630972,16.8441815 3.04692073,16.3351365 3.43954545,15.96 L3.50227273,15.9 C3.99537796,15.4178133 4.13199857,14.6970901 3.84727273,14.08 C3.57642861,13.4755294 2.95617215,13.0826229 2.26863636,13.08 L2.09090909,13.08 C0.936131887,13.08 2.32137542e-16,12.1845695 0,11.08 C-1.16068771e-16,9.9754305 0.936131887,9.08 2.09090909,9.08 L2.185,9.08 C2.89311687,9.0641566 3.51914095,8.63587177 3.76363636,8 C4.0483622,7.38290993 3.9117416,6.66218673 3.41863636,6.18 L3.35590909,6.12 C2.96328436,5.74486349 2.74267335,5.2358185 2.74267335,4.705 C2.74267335,4.1741815 2.96328436,3.66513651 3.35590909,3.29 C3.74809726,2.91444591 4.28028066,2.70342669 4.83522727,2.70342669 C5.39017388,2.70342669 5.92235728,2.91444591 6.31454545,3.29 L6.37727273,3.35 C6.88137704,3.82166588 7.63486038,3.95234646 8.28,3.68 L8.36363636,3.68 C8.99558291,3.42093172 9.40634878,2.82764292 9.40909091,2.17 L9.40909091,2 C9.40909091,0.8954305 10.3452228,2.22044605e-16 11.5,0 C12.6547772,0 13.5909091,0.8954305 13.5909091,2 L13.5909091,2.09 C13.5936512,2.74764292 14.0044171,3.34093172 14.6363636,3.6 C15.2815033,3.87234646 16.0349866,3.74166588 16.5390909,3.27 L16.6018182,3.21 C16.9940064,2.83444591 17.5261898,2.62342669 18.0811364,2.62342669 C18.636083,2.62342669 19.1682664,2.83444591 19.5604545,3.21 C19.9530793,3.58513651 20.1736903,4.0941815 20.1736903,4.625 C20.1736903,5.1558185 19.9530793,5.66486349 19.5604545,6.04 L19.4977273,6.1 C19.004622,6.58218673 18.8680014,7.30290993 19.1527273,7.92 L19.1527273,8 C19.4235714,8.60447061 20.0438279,8.99737709 20.7313636,9 L20.9090909,9 C22.0638681,9 23,9.8954305 23,11 C23,12.1045695 22.0638681,13 20.9090909,13 L20.815,13 C20.1274642,13.0026229 19.5072078,13.3955294 19.2363636,14 Z" id="Shape"></path>
        </g>
    </g>
</svg>