<?xml version="1.0" encoding="UTF-8"?>
<svg width="85px" height="83px" viewBox="0 0 85 83" version="1.1" xmlns="http://www.w3.org/2000/svg" xmlns:xlink="http://www.w3.org/1999/xlink">
    <!-- Generator: Sketch 50.2 (55047) - http://www.bohemiancoding.com/sketch -->
    <title>colored_bank-77</title>
    <desc>Created with Sketch.</desc>
    <defs></defs>
    <g id="Page-1" stroke="none" stroke-width="1" fill="none" fill-rule="evenodd">
        <g id="colored_bank-77" transform="translate(2.000000, 0.000000)">
            <rect id="Rectangle-path" fill="#FFFFFF" fill-rule="nonzero" opacity="0.0800000057" x="13" y="0" width="70" height="70" rx="35"></rect>
            <path d="M0,81 L70,81" id="Shape" stroke="#FFFFFF" stroke-width="4" stroke-linecap="round" stroke-linejoin="round"></path>
            <path d="M65,41 L65,67" id="Shape" stroke="#FFFFFF" stroke-width="4" stroke-linecap="round" stroke-linejoin="round"></path>
            <path d="M52,41 L52,75" id="Shape" stroke="#FFFFFF" stroke-width="4" stroke-linecap="round" stroke-linejoin="round"></path>
            <path d="M18,41 L18,75" id="Shape" stroke="#FFFFFF" stroke-width="4" stroke-linecap="round" stroke-linejoin="round"></path>
            <path d="M5,67 L5,41" id="Shape" stroke="#FFFFFF" stroke-width="4" stroke-linecap="round" stroke-linejoin="round"></path>
            <path d="M65,75 L5,75" id="Shape" stroke="#FFFFFF" stroke-width="4" stroke-linecap="round" stroke-linejoin="round"></path>
            <path d="M7,40 L67.36,40 C68.3309249,39.9783552 69.1616806,39.2967765 69.372607,38.3487926 C69.5835335,37.4008086 69.1201483,36.4312836 68.25,36 L37.5,21.49 C36.2473987,20.8338212 34.7526013,20.8338212 33.5,21.49 L2.75,36 C1.87985169,36.4312836 1.41646655,37.4008086 1.62739298,38.3487926 C1.83831942,39.2967765 2.66907513,39.9783552 3.64,40 L7,40" id="Shape" stroke="#FFFFFF" stroke-width="4" stroke-linecap="round" stroke-linejoin="round"></path>
            <path d="M40,73 L40,54 C40.05706,52.7005499 39.5832166,51.4337678 38.6873586,50.4907593 C37.7915006,49.5477509 36.5506668,49.0096096 35.25,49 L35.12,49 C32.3363434,48.9939076 30.0599156,51.2169816 30,54 L30,67" id="Shape" stroke="#FFFFFF" stroke-width="4" stroke-linecap="round" stroke-linejoin="round"></path>
        </g>
    </g>
</svg>