<?xml version="1.0" encoding="UTF-8"?>
<svg width="81px" height="83px" viewBox="0 0 81 83" version="1.1" xmlns="http://www.w3.org/2000/svg" xmlns:xlink="http://www.w3.org/1999/xlink">
    <!-- Generator: Sketch 50.2 (55047) - http://www.bohemiancoding.com/sketch -->
    <title>colored_wallet-54</title>
    <desc>Created with Sketch.</desc>
    <defs></defs>
    <g id="Page-1" stroke="none" stroke-width="1" fill="none" fill-rule="evenodd">
        <g id="colored_wallet-54" transform="translate(2.000000, 0.000000)">
            <rect id="Rectangle-path" fill="#FFFFFF" fill-rule="nonzero" opacity="0.0800000057" x="9" y="0" width="70" height="70" rx="35"></rect>
            <path d="M55,81 L55,71" id="Shape" stroke="#FFFFFF" stroke-width="4" stroke-linecap="round" stroke-linejoin="round"></path>
            <path d="M55,49 L55,39" id="Shape" stroke="#FFFFFF" stroke-width="4" stroke-linecap="round" stroke-linejoin="round"></path>
            <path d="M68,77 C67.7209987,79.0826744 66.0826744,80.7209987 64,81 L4,81 C2.21,81 0,79.2 0,77.38 L0,44" id="Shape" stroke="#FFFFFF" stroke-width="4" stroke-linecap="round" stroke-linejoin="round"></path>
            <path d="M0,49 L0,43.38 C0,40.92 1.33,39 4,39 L64,39 C65.79,39 68,41.56 68,43.38 L68,69.69" id="Shape" stroke="#FFFFFF" stroke-width="4" stroke-linecap="round" stroke-linejoin="round"></path>
            <path d="M0,45.5 L0,35.38 C0,33.56 1.33,31 4,31 L55,31" id="Shape" stroke="#FFFFFF" stroke-width="4" stroke-linecap="round" stroke-linejoin="round"></path>
            <path d="M66,50 L40,50 C27,50 27,70 40,70 L68,70" id="Shape" stroke="#FFFFFF" stroke-width="4" stroke-linecap="round" stroke-linejoin="round"></path>
            <circle id="Oval" fill="#FFFFFF" fill-rule="nonzero" transform="translate(41.001270, 60.275935) rotate(-30.000000) translate(-41.001270, -60.275935) " cx="41.0012702" cy="60.2759351" r="3"></circle>
        </g>
    </g>
</svg>