<?xml version="1.0" encoding="UTF-8"?>
<svg width="89px" height="82px" viewBox="0 0 89 82" version="1.1" xmlns="http://www.w3.org/2000/svg" xmlns:xlink="http://www.w3.org/1999/xlink">
    <!-- Generator: Sketch 50.2 (55047) - http://www.bohemiancoding.com/sketch -->
    <title>colored_investor-71</title>
    <desc>Created with Sketch.</desc>
    <defs></defs>
    <g id="Page-1" stroke="none" stroke-width="1" fill="none" fill-rule="evenodd">
        <g id="colored_investor-71" transform="translate(2.000000, 0.000000)">
            <circle id="Oval" fill="#FFFFFF" fill-rule="nonzero" opacity="0.0800000057" cx="52" cy="35" r="35"></circle>
            <path d="M61,63 L62.16,63 C65.3214029,63.0211463 68.3449145,64.2973255 70.5653605,66.5477776 C72.7858066,68.7982297 74.0212887,71.8385981 74,75 C68.09,81.71 6,81.63 1.46573292e-15,75 C-0.0212886652,71.8385981 1.21419342,68.7982297 3.43463947,66.5477776 C5.65508552,64.2973255 8.67859714,63.0211463 11.84,63 L13,63" id="Shape" stroke="#FFFFFF" stroke-width="4" stroke-linecap="round" stroke-linejoin="round"></path>
            <path d="M55,45 L55,44 C56.4193723,43.1986867 57.2105727,41.6162858 57,40 L57,36 C57,34.7 57,33.6 55,33.19 L55,25" id="Shape" stroke="#FFFFFF" stroke-width="4" stroke-linecap="round" stroke-linejoin="round"></path>
            <path d="M17,28 L17,33.19 C15.8487467,33.6645196 15.0713009,34.7568309 15,36 L15,40 C14.9562438,41.583797 15.7067087,43.0847268 17,44 L17,45" id="Shape" stroke="#FFFFFF" stroke-width="4" stroke-linecap="round" stroke-linejoin="round"></path>
            <path d="M14,16 L14,18 C14,26.28 21.22,33 29.5,33 C35.1935388,33.0091445 40.4510951,29.9524257 43.26,25 L55,25 L55,21 C55,18.79 54.21,17 52,17 L45,17 C44.7799973,13.6583811 43.4414434,10.4881218 41.2,8 L14,8" id="Shape" stroke="#FFFFFF" stroke-width="4" stroke-linecap="round" stroke-linejoin="round"></path>
            <path d="M17,44 L17,51 C17,60.94 25.51,71 36,71 C46.49,71 55,60.94 55,51 L55,44 L47.06,49 L40.5,45 L32.78,45 L25.95,49 L17,44 Z" id="Shape" stroke="#FFFFFF" stroke-width="4" stroke-linecap="round" stroke-linejoin="round"></path>
            <path d="M34,52 L38,52" id="Shape" stroke="#FFFFFF" stroke-width="4" stroke-linecap="round" stroke-linejoin="round"></path>
            <path d="M36,71 L36,79" id="Shape" stroke="#FFFFFF" stroke-width="4" stroke-linecap="round" stroke-linejoin="round"></path>
        </g>
    </g>
</svg>