<svg xmlns="http://www.w3.org/2000/svg" xmlns:xlink="http://www.w3.org/1999/xlink" width="1440" height="1238" viewBox="0 0 1440 1238">
  <defs>
    <linearGradient id="bg-3-b" x1="50%" x2="50%" y1="2.549%" y2="100%">
      <stop offset="0%" stop-color="#4762E2"/>
      <stop offset="100%" stop-color="#2611C9"/>
    </linearGradient>
    <path id="bg-3-a" d="M1440,680.670396 L1440,1237.66523 C1254.10938,1097.66295 1111.29427,1030.41541 1011.55469,1035.9226 C714.124821,1052.34539 681.131816,1122.24384 419.234375,1132.94189 C258.776042,1139.49633 119.03125,1069.89696 0,924.143763 L0,680.670396 L-1.8189894e-12,0.0973828373 C85.8597478,116.651924 179.794,172.58666 281.802757,167.901593 C791.888667,144.47432 551.935752,424.895534 1011.55469,402.334778 C1171.84395,394.466853 1314.65906,421.933853 1440,484.735777 L1440,680.670396 Z"/>
  </defs>
  <g fill="none" fill-rule="evenodd" transform="matrix(-1 0 0 1 1440 0)">
    <mask id="bg-3-c" fill="#fff">
      <use xlink:href="#bg-3-a"/>
    </mask>
    <use fill="url(#bg-3-b)" xlink:href="#bg-3-a"/>
    <g fill="#FFF" mask="url(#bg-3-c)" opacity=".1">
      <path d="M1055,0 C1494.77545,6.41767475 1771.95786,188.116465 2469.93748,414.537487 C2935.25722,565.484835 3689.94473,618.117888 4734,572.436646 C3329.95044,1081.14225 2103.61711,1063.24628 1055,518.748735" transform="translate(-1967 310)"/>
    </g>
  </g>
</svg>
