<?xml version="1.0" encoding="UTF-8"?>
<svg width="1707px" height="962px" viewBox="0 0 1707 962" version="1.1" xmlns="http://www.w3.org/2000/svg" xmlns:xlink="http://www.w3.org/1999/xlink">
    <!-- Generator: Sketch 50.2 (55047) - http://www.bohemiancoding.com/sketch -->
    <title>bg-header</title>
    <desc>Created with Sketch.</desc>
    <defs>
        <linearGradient x1="50%" y1="2.54922327%" x2="50%" y2="100%" id="linearGradient-1">
            <stop stop-color="#4762E2" offset="0%"></stop>
            <stop stop-color="#2611C9" offset="100%"></stop>
        </linearGradient>
        <path d="M620.227099,406.26901 L154.471708,1204.63317 C767.631342,1639.76797 1409.70415,1651.80435 2080.69013,1240.74232 L1581.99543,955.800215 L620.227099,406.26901 Z" id="path-2"></path>
        <linearGradient x1="100%" y1="50%" x2="0%" y2="50%" id="linearGradient-4">
            <stop stop-color="#FE9A8B" offset="0%"></stop>
            <stop stop-color="#FD868C" offset="40.8502073%"></stop>
            <stop stop-color="#F9748F" offset="73.1505102%"></stop>
            <stop stop-color="#F78CA0" offset="100%"></stop>
        </linearGradient>
    </defs>
    <g id="Page-1" stroke="none" stroke-width="1" fill="none" fill-rule="evenodd">
        <g id="bg-header" transform="translate(-389.000000, -713.000000)">
            <mask id="mask-3" fill="white">
                <use xlink:href="#path-2"></use>
            </mask>
            <use id="Mask-Copy-4" fill="url(#linearGradient-1)" transform="translate(1117.580917, 973.268687) rotate(-30.000000) translate(-1117.580917, -973.268687) " xlink:href="#path-2"></use>
            <g id="Group-154" mask="url(#mask-3)" fill="url(#linearGradient-4)" opacity="0.188688859">
                <g transform="translate(711.000000, 1102.000000)">
                    <path d="M26.4124918,277.30559 C12.9619238,275.422248 8.79484003,264.95623 17.1711362,254.095066 L54.1347612,206.072386 C62.4740458,195.226396 76.2378895,177.423522 84.5698215,166.59511 L121.516125,118.564969 C129.90239,107.728844 140.910459,109.244676 146.004669,122.039258 L209.482913,281.470771 C214.592076,294.302911 207.726168,303.190502 194.255662,301.257082 L134.8091,292.775732 C121.402896,290.859639 99.3148543,287.755514 85.8763751,285.794402 L26.4124918,277.30559 Z" id="Fill-5-Copy-3" style="mix-blend-mode: color-burn;" transform="translate(112.010005, 206.431629) rotate(-8.000000) translate(-112.010005, -206.431629) "></path>
                    <path d="M90.506822,227.565432 C73.4561311,225.178002 68.1737031,211.910693 78.7919638,198.142476 L125.649118,137.266245 C136.220461,123.517263 153.668278,100.949347 164.2303,87.2226471 L211.065496,26.336958 C221.696394,12.600481 235.650837,14.5220347 242.108542,30.7411615 L322.577107,232.845448 C329.053768,249.112184 320.350159,260.37859 303.274194,257.92768 L227.916414,247.176247 C210.921961,244.7473 182.921926,240.812338 165.88656,238.326323 L90.506822,227.565432 Z" id="Fill-5-Copy-4" style="mix-blend-mode: color-burn;" transform="translate(199.015007, 137.721642) rotate(-8.000000) translate(-199.015007, -137.721642) "></path>
                </g>
            </g>
        </g>
    </g>
</svg>