<?xml version="1.0" encoding="UTF-8"?>
<svg width="17px" height="14px" viewBox="0 0 17 14" version="1.1" xmlns="http://www.w3.org/2000/svg" xmlns:xlink="http://www.w3.org/1999/xlink">
    <!-- Generator: Sketch 50.2 (55047) - http://www.bohemiancoding.com/sketch -->
    <title>twitter-logo-silhouette (1)</title>
    <desc>Created with Sketch.</desc>
    <defs></defs>
    <g id="Page-1" stroke="none" stroke-width="1" fill="none" fill-rule="evenodd">
        <path d="M17,1.65608771 C16.377158,1.93614157 15.7025232,2.130025 14.997344,2.21484901 C15.7184595,1.77726486 16.2682603,1.08386228 16.5325365,0.257164839 C15.8579017,0.662435084 15.1115538,0.957299481 14.312085,1.11482977 C13.6799469,0.430852087 12.7715803,0 11.7702523,0 C9.84594954,0 8.28419655,1.58338142 8.28419655,3.53433353 C8.28419655,3.81304097 8.31606906,4.08097711 8.37317397,4.33948836 C5.47277556,4.19138296 2.90571049,2.78707444 1.18326693,0.64627813 C0.881806109,1.16733987 0.710491368,1.77726486 0.710491368,2.4248894 C0.710491368,3.65012502 1.32802125,4.73398731 2.26162019,5.36410848 C1.69057105,5.34929794 1.15670651,5.186382 0.685258964,4.92248509 L0.685258964,4.9655703 C0.685258964,6.67955376 1.88844622,8.10944412 3.48074369,8.43662243 C3.18990704,8.51471437 2.87915007,8.55645316 2.56308101,8.55645316 C2.33997344,8.55645316 2.12217795,8.53625697 1.90438247,8.49451818 C2.35059761,9.8988267 3.63612218,10.9180612 5.16201859,10.9503751 C3.96812749,11.8969033 2.46347942,12.4597038 0.83001328,12.4597038 C0.549800797,12.4597038 0.274900398,12.4435468 0,12.4125793 C1.54581673,13.4170033 3.37715803,14 5.34794157,14 C11.7596282,14 15.2669323,8.61434891 15.2669323,3.94498942 L15.2563081,3.48720908 C15.9415671,2.98768994 16.5325365,2.36699365 17,1.65608771 Z" id="twitter-logo-silhouette-(1)" fill="#FFFFFF"></path>
    </g>
</svg>