<?xml version="1.0" encoding="UTF-8"?>
<svg width="1440px" height="1238px" viewBox="0 0 1440 1238" version="1.1" xmlns="http://www.w3.org/2000/svg" xmlns:xlink="http://www.w3.org/1999/xlink">
    <!-- Generator: Sketch 50.2 (55047) - http://www.bohemiancoding.com/sketch -->
    <title>bg-3</title>
    <desc>Created with Sketch.</desc>
    <defs>
        <linearGradient x1="50%" y1="2.54922327%" x2="50%" y2="100%" id="linearGradient-1">
            <stop stop-color="#4762E2" offset="0%"></stop>
            <stop stop-color="#2611C9" offset="100%"></stop>
        </linearGradient>
        <path d="M1440,680.670396 L1440,1237.66523 C1254.10938,1097.66295 1111.29427,1030.41541 1011.55469,1035.9226 C714.124821,1052.34539 681.131816,1122.24384 419.234375,1132.94189 C258.776042,1139.49633 119.03125,1069.89696 0,924.143763 L0,680.670396 L-1.8189894e-12,0.0973828373 C85.8597478,116.651924 179.794,172.58666 281.802757,167.901593 C791.888667,144.47432 551.935752,424.895534 1011.55469,402.334778 C1171.84395,394.466853 1314.65906,421.933853 1440,484.735777 L1440,680.670396 Z" id="path-2"></path>
    </defs>
    <g id="Page-1" stroke="none" stroke-width="1" fill="none" fill-rule="evenodd">
        <g id="bg-3" transform="translate(720.000000, 619.000000) scale(-1, 1) translate(-720.000000, -619.000000) ">
            <g id="Group-89">
                <mask id="mask-3" fill="white">
                    <use xlink:href="#path-2"></use>
                </mask>
                <use id="Combined-Shape" fill="url(#linearGradient-1)" xlink:href="#path-2"></use>
                <g id="Group-88" mask="url(#mask-3)" fill="#FFFFFF" opacity="0.100000001">
                    <g transform="translate(-1967.000000, 310.000000)">
                        <path d="M1055,0 C1494.77545,6.41767475 1771.95786,188.116465 2469.93748,414.537487 C2935.25722,565.484835 3689.94473,618.117888 4734,572.436646 C3329.95044,1081.14225 2103.61711,1063.24628 1055,518.748735" id="Path-2-Copy"></path>
                        <path d="M0,846.981846 C1196.88403,534.206887 2200.29228,344.369148 3010.22474,277.468629 C3820.1572,210.56811 4793.41562,241.053523 5930,368.92487 C5606.64948,379.022079 4791.92078,559.354162 3485.81391,909.921119 C2179.70703,1260.48808 1017.76906,1239.50832 0,846.981846 Z" id="Path-3"></path>
                    </g>
                </g>
            </g>
        </g>
    </g>
</svg>