<svg xmlns="http://www.w3.org/2000/svg" xmlns:xlink="http://www.w3.org/1999/xlink" width="1687" height="942" viewBox="0 0 1687 942">
  <defs>
    <linearGradient id="bg-header-a" x1="50%" x2="50%" y1="2.549%" y2="100%">
      <stop offset="0%" stop-color="#4762E2"/>
      <stop offset="100%" stop-color="#2611C9"/>
    </linearGradient>
    <path id="bg-header-b" d="M466.227099,0.26901 L0.471708,798.63317 C613.631342,1233.76797 1255.70415,1245.80435 1926.69013,834.74232 L1427.99543,549.800215 L466.227099,0.26901 Z"/>
  </defs>
  <g fill="none" fill-rule="evenodd" transform="translate(-400 -723)">
    <path fill="url(#bg-header-a)" fill-rule="nonzero" d="M466.227099,0.26901 L0.471708,798.63317 C613.631342,1233.76797 1255.70415,1245.80435 1926.69013,834.74232 L1427.99543,549.800215 L466.227099,0.26901 Z" transform="rotate(-30 1798.687 481.035)"/>
    <g transform="translate(155 406)">
      <mask id="bg-header-c" fill="#fff">
        <use xlink:href="#bg-header-b"/>
      </mask>
    </g>
    <g fill="#202020" opacity=".079" transform="translate(712 1102)">
      <path d="M26.4124918,277.30559 C12.9619238,275.422248 8.79484003,264.95623 17.1711362,254.095066 L54.1347612,206.072386 C62.4740458,195.226396 76.2378895,177.423522 84.5698215,166.59511 L121.516125,118.564969 C129.90239,107.728844 140.910459,109.244676 146.004669,122.039258 L209.482913,281.470771 C214.592076,294.302911 207.726168,303.190502 194.255662,301.257082 L134.8091,292.775732 C121.402896,290.859639 99.3148543,287.755514 85.8763751,285.794402 L26.4124918,277.30559 Z" transform="rotate(-8 112.01 206.432)"/>
      <path d="M90.506822,227.565432 C73.4561311,225.178002 68.1737031,211.910693 78.7919638,198.142476 L125.649118,137.266245 C136.220461,123.517263 153.668278,100.949347 164.2303,87.2226471 L211.065496,26.336958 C221.696394,12.600481 235.650837,14.5220347 242.108542,30.7411615 L322.577107,232.845448 C329.053768,249.112184 320.350159,260.37859 303.274194,257.92768 L227.916414,247.176247 C210.921961,244.7473 182.921926,240.812338 165.88656,238.326323 L90.506822,227.565432 Z" transform="rotate(-8 199.015 137.722)"/>
    </g>
  </g>
</svg>
