<?xml version="1.0" encoding="UTF-8"?>
<svg width="540px" height="417px" viewBox="0 0 540 417" version="1.1" xmlns="http://www.w3.org/2000/svg" xmlns:xlink="http://www.w3.org/1999/xlink">
    <!-- Generator: Sketch 50.2 (55047) - http://www.bohemiancoding.com/sketch -->
    <title>Group 157</title>
    <desc>Created with Sketch.</desc>
    <defs>
        <linearGradient x1="99.522444%" y1="49.522444%" x2="0.477555997%" y2="49.522444%" id="linearGradient-1">
            <stop stop-color="#3943CF" stop-opacity="0.05" offset="0%"></stop>
            <stop stop-color="#4D68F3" stop-opacity="0.05" offset="100%"></stop>
        </linearGradient>
    </defs>
    <g id="Page-1" stroke="none" stroke-width="1" fill="none" fill-rule="evenodd">
        <g id="Group-157" transform="translate(1.000000, 0.000000)" fill="url(#linearGradient-1)">
            <path d="M-0.230144631,208.5 C-0.230144631,239.242857 4.38609153,266.911429 12.8491912,292.274286 C22.0816635,318.405714 36.6997447,341.462857 55.1646893,360.677143 C74.3990067,379.891429 97.4801875,393.725714 124.408232,402.948571 C149.028158,412.171429 177.494948,416.782857 208.269855,416.782857 L329.830741,416.782857 C360.605649,416.782857 389.072438,412.171429 413.692365,402.948571 C440.620409,393.725714 463.70159,379.891429 482.166534,360.677143 C501.400852,341.462857 516.018933,318.405714 525.251405,292.274286 C533.714505,266.911429 538.330741,239.242857 538.330741,208.5 C538.330741,177.757143 533.714505,150.088571 525.251405,124.725714 C516.018933,98.5942857 501.400852,74.7685714 482.166534,56.3228571 C463.70159,37.1085714 440.620409,23.2742857 413.692365,14.0514286 C389.072438,4.82857143 360.605649,0.217142857 329.830741,0.217142857 L208.269855,0.217142857 C177.494948,0.217142857 149.028158,4.82857143 124.408232,14.0514286 C97.4801875,23.2742857 74.3990067,37.1085714 55.1646893,56.3228571 C36.6997447,74.7685714 22.0816635,98.5942857 12.8491912,124.725714 C4.38609153,150.088571 -0.230144631,177.757143 -0.230144631,208.5 Z M427.541073,208.5 C427.541073,174.682857 419.847346,150.088571 404.459892,134.717143 C389.072438,119.345714 363.68314,110.891429 329.830741,110.891429 L208.269855,110.891429 C174.417457,110.891429 149.797531,119.345714 133.640704,134.717143 C118.25325,150.088571 110.559523,174.682857 110.559523,208.5 C110.559523,242.317143 118.25325,266.911429 133.640704,282.282857 C149.797531,297.654286 174.417457,306.108571 208.269855,306.108571 L329.830741,306.108571 C363.68314,306.108571 389.072438,297.654286 404.459892,282.282857 C419.847346,266.911429 427.541073,242.317143 427.541073,208.5 Z" id="D0F-Copy-5"></path>
        </g>
    </g>
</svg>