<?xml version="1.0" encoding="utf-8"?>
<!-- Generator: Adobe Illustrator 21.0.0, SVG Export Plug-In . SVG Version: 6.00 Build 0)  -->
<svg version="1.1" id="_x2014_лой_x5F_1" xmlns="http://www.w3.org/2000/svg" xmlns:xlink="http://www.w3.org/1999/xlink"
	 x="0px" y="0px" viewBox="0 0 432.3 400" style="enable-background:new 0 0 432.3 400;" xml:space="preserve">
<style type="text/css">
	.st0{display:none;fill:url(#SVGID_1_);}
	.st1{opacity:0.67;}
	.st2{fill:#0F054C;}
	.st3{opacity:0.9;}
	.st4{fill:#080344;}
	.st5{opacity:0.3;fill:url(#SVGID_2_);}
	.st6{fill:url(#SVGID_3_);}
	.st7{fill:url(#SVGID_4_);}
	.st8{opacity:0.5;fill:#FFFFFF;}
	.st9{opacity:0.5;fill:url(#SVGID_5_);}
	.st10{opacity:0.5;fill:url(#SVGID_6_);}
	.st11{opacity:0.5;fill:url(#SVGID_7_);}
	.st12{opacity:0.5;fill:url(#SVGID_8_);}
	.st13{opacity:0.5;fill:url(#SVGID_9_);}
	.st14{opacity:0.5;fill:url(#SVGID_10_);}
	.st15{fill:url(#SVGID_11_);}
	.st16{fill:url(#SVGID_12_);}
	.st17{opacity:0.5;fill:url(#SVGID_13_);}
	.st18{opacity:0.5;fill:url(#SVGID_14_);}
	.st19{opacity:0.5;fill:url(#SVGID_15_);}
	.st20{opacity:0.5;fill:url(#SVGID_16_);}
	.st21{opacity:0.5;fill:url(#SVGID_17_);}
	.st22{opacity:0.5;fill:url(#SVGID_18_);}
	.st23{fill:#BCBEFF;}
	.st24{fill:url(#SVGID_19_);}
	.st25{fill:#FFFFFF;}
	.st26{fill:url(#SVGID_20_);}
	.st27{fill:#24126A;}
	.st28{opacity:0.51;}
	.st29{fill:#453C9E;}
	.st30{filter:url(#Adobe_OpacityMaskFilter);}
	.st31{filter:url(#Adobe_OpacityMaskFilter_1_);}
	.st32{mask:url(#SVGID_21_);fill:url(#SVGID_22_);}
	.st33{opacity:0.78;fill:url(#SVGID_23_);}
	.st34{fill:url(#SVGID_24_);}
	.st35{fill:url(#SVGID_25_);}
	.st36{fill:url(#SVGID_26_);}
	.st37{fill:#3F21D3;}
	.st38{fill:url(#SVGID_27_);}
	.st39{fill:url(#SVGID_28_);}
	.st40{fill:url(#SVGID_29_);}
	.st41{fill:url(#SVGID_30_);}
	.st42{fill:url(#SVGID_31_);}
	.st43{fill:url(#SVGID_32_);}
	.st44{fill:url(#SVGID_33_);}
	.st45{fill:url(#SVGID_34_);}
	.st46{fill:url(#SVGID_35_);}
	.st47{fill:url(#SVGID_36_);}
	.st48{fill:url(#SVGID_37_);}
	.st49{fill:url(#SVGID_38_);}
	.st50{opacity:0.2;}
	.st51{clip-path:url(#SVGID_40_);}
	.st52{fill:url(#SVGID_41_);}
	.st53{fill:url(#SVGID_42_);}
	.st54{opacity:0.5;fill:url(#SVGID_43_);}
	.st55{opacity:0.5;fill:url(#SVGID_44_);}
	.st56{opacity:0.5;fill:url(#SVGID_45_);}
	.st57{opacity:0.5;fill:url(#SVGID_46_);}
	.st58{opacity:0.5;fill:url(#SVGID_47_);}
	.st59{opacity:0.5;fill:url(#SVGID_48_);}
	.st60{opacity:0.5;fill:url(#SVGID_49_);}
	.st61{filter:url(#Adobe_OpacityMaskFilter_2_);}
	.st62{filter:url(#Adobe_OpacityMaskFilter_3_);}
	.st63{mask:url(#SVGID_50_);fill:url(#SVGID_51_);}
	.st64{fill:url(#SVGID_52_);}
	.st65{fill:url(#SVGID_53_);}
	.st66{fill:url(#SVGID_54_);}
	.st67{opacity:0.5;fill:url(#SVGID_55_);}
	.st68{opacity:0.5;fill:url(#SVGID_56_);}
	.st69{opacity:0.5;fill:url(#SVGID_57_);}
	.st70{opacity:0.5;fill:url(#SVGID_58_);}
	.st71{opacity:0.5;fill:url(#SVGID_59_);}
	.st72{opacity:0.5;fill:url(#SVGID_60_);}
	.st73{opacity:0.5;fill:url(#SVGID_61_);}
	.st74{opacity:0.5;fill:url(#SVGID_62_);}
	.st75{filter:url(#Adobe_OpacityMaskFilter_4_);}
	.st76{filter:url(#Adobe_OpacityMaskFilter_5_);}
	.st77{mask:url(#SVGID_63_);fill:url(#SVGID_64_);}
	.st78{fill:url(#SVGID_65_);}
	.st79{fill:url(#SVGID_66_);}
	.st80{fill:#42E8E0;}
	.st81{opacity:0.3;fill:url(#SVGID_67_);}
</style>
<radialGradient id="SVGID_1_" cx="141.0885" cy="136.0028" r="256.7875" fx="-101.0728" fy="50.576" gradientUnits="userSpaceOnUse">
	<stop  offset="0" style="stop-color:#2B237C"/>
	<stop  offset="1" style="stop-color:#180D5B"/>
</radialGradient>
<rect x="0.1" y="0" class="st0" width="599.9" height="400"/>
<g class="st1">
	<polygon class="st2" points="196,350.2 29,253.8 196,157.4 363,253.8 	"/>
</g>
<g class="st1">
	<polygon class="st2" points="196,335.3 54.9,253.8 196,172.3 337.1,253.8 	"/>
</g>
<g class="st3">
	<polygon class="st4" points="196,317.9 85,253.8 196,189.7 307,253.8 	"/>
</g>
<g>
	<linearGradient id="SVGID_2_" gradientUnits="userSpaceOnUse" x1="247.454" y1="213.1744" x2="351.7402" y2="213.1744">
		<stop  offset="0" style="stop-color:#5761D7"/>
		<stop  offset="7.257640e-02" style="stop-color:#5472D8"/>
		<stop  offset="0.2791" style="stop-color:#4E9CDB"/>
		<stop  offset="0.4801" style="stop-color:#49BDDD"/>
		<stop  offset="0.6715" style="stop-color:#45D5DF"/>
		<stop  offset="0.8493" style="stop-color:#43E3E0"/>
		<stop  offset="1" style="stop-color:#42E8E0"/>
	</linearGradient>
	<path class="st5" d="M299.6,243.7c-0.2,0-0.3,0-0.5-0.1L248,214c-0.3-0.2-0.5-0.5-0.5-0.9c0-0.4,0.2-0.7,0.5-0.9l51.1-29.5
		c0.3-0.2,0.7-0.2,1,0l51.1,29.5c0.3,0.2,0.5,0.5,0.5,0.9c0,0.4-0.2,0.7-0.5,0.9l-51.1,29.5C299.9,243.7,299.8,243.7,299.6,243.7z
		 M250.5,213.2l49.1,28.4l49.1-28.4l-49.1-28.4L250.5,213.2z"/>
	<linearGradient id="SVGID_3_" gradientUnits="userSpaceOnUse" x1="253.5232" y1="211.1236" x2="319.1851" y2="211.1236">
		<stop  offset="0.2473" style="stop-color:#5761D7"/>
		<stop  offset="0.4363" style="stop-color:#6C74DF"/>
		<stop  offset="0.8245" style="stop-color:#A2A6F5"/>
		<stop  offset="1" style="stop-color:#BCBEFF"/>
	</linearGradient>
	<polygon class="st6" points="345.7,202.5 345.7,193.2 299.6,218.6 253.5,193.2 253.5,202.5 299.6,229.1 	"/>
	<linearGradient id="SVGID_4_" gradientUnits="userSpaceOnUse" x1="253.5232" y1="193.1743" x2="345.6711" y2="193.1743">
		<stop  offset="0" style="stop-color:#C0BFF6"/>
		<stop  offset="0.2938" style="stop-color:#C5C4F7"/>
		<stop  offset="0.6399" style="stop-color:#D3D2F9"/>
		<stop  offset="1" style="stop-color:#E9E9FD"/>
	</linearGradient>
	<polygon class="st7" points="299.6,219.8 253.5,193.2 299.6,166.6 345.7,193.2 	"/>
	<polygon class="st8" points="299.6,219 254.2,192.8 253.5,193.2 299.6,219.8 345.7,193.2 345,192.8 	"/>
	<polygon class="st2" points="299.6,214.8 262.1,193.2 299.6,171.5 337.1,193.2 	"/>
	<g>
		<linearGradient id="SVGID_5_" gradientUnits="userSpaceOnUse" x1="271.1135" y1="193.1747" x2="328.0808" y2="193.1747">
			<stop  offset="0" style="stop-color:#42E8E0"/>
			<stop  offset="0.1507" style="stop-color:#43E3E0"/>
			<stop  offset="0.3285" style="stop-color:#45D5DF"/>
			<stop  offset="0.5199" style="stop-color:#49BDDD"/>
			<stop  offset="0.7209" style="stop-color:#4E9CDB"/>
			<stop  offset="0.9274" style="stop-color:#5472D8"/>
			<stop  offset="1" style="stop-color:#5761D7"/>
		</linearGradient>
		<polygon class="st9" points="299.6,209.6 271.1,193.2 299.6,176.7 328.1,193.2 		"/>
		<g>
			<linearGradient id="SVGID_6_" gradientUnits="userSpaceOnUse" x1="299.5967" y1="173.4489" x2="328.0808" y2="173.4489">
				<stop  offset="0" style="stop-color:#42E8E0"/>
				<stop  offset="0.1507" style="stop-color:#43E3E0"/>
				<stop  offset="0.3285" style="stop-color:#45D5DF"/>
				<stop  offset="0.5199" style="stop-color:#49BDDD"/>
				<stop  offset="0.7209" style="stop-color:#4E9CDB"/>
				<stop  offset="0.9274" style="stop-color:#5472D8"/>
				<stop  offset="1" style="stop-color:#5761D7"/>
			</linearGradient>
			<polygon class="st10" points="299.6,153.7 328.1,170.2 328.1,193.2 299.6,176.7 			"/>
			<linearGradient id="SVGID_7_" gradientUnits="userSpaceOnUse" x1="271.1135" y1="173.4487" x2="299.5976" y2="173.4487">
				<stop  offset="0" style="stop-color:#42E8E0"/>
				<stop  offset="0.1507" style="stop-color:#43E3E0"/>
				<stop  offset="0.3285" style="stop-color:#45D5DF"/>
				<stop  offset="0.5199" style="stop-color:#49BDDD"/>
				<stop  offset="0.7209" style="stop-color:#4E9CDB"/>
				<stop  offset="0.9274" style="stop-color:#5472D8"/>
				<stop  offset="1" style="stop-color:#5761D7"/>
			</linearGradient>
			<polygon class="st11" points="299.6,176.7 271.1,193.2 271.1,170.2 299.6,153.7 			"/>
			<linearGradient id="SVGID_8_" gradientUnits="userSpaceOnUse" x1="271.1135" y1="170.1684" x2="328.0808" y2="170.1684">
				<stop  offset="0" style="stop-color:#42E8E0"/>
				<stop  offset="0.1507" style="stop-color:#43E3E0"/>
				<stop  offset="0.3285" style="stop-color:#45D5DF"/>
				<stop  offset="0.5199" style="stop-color:#49BDDD"/>
				<stop  offset="0.7209" style="stop-color:#4E9CDB"/>
				<stop  offset="0.9274" style="stop-color:#5472D8"/>
				<stop  offset="1" style="stop-color:#5761D7"/>
			</linearGradient>
			<polygon class="st12" points="299.6,186.6 271.1,170.2 299.6,153.7 328.1,170.2 			"/>
			<linearGradient id="SVGID_9_" gradientUnits="userSpaceOnUse" x1="299.5976" y1="189.894" x2="328.0808" y2="189.894">
				<stop  offset="0" style="stop-color:#42E8E0"/>
				<stop  offset="0.1507" style="stop-color:#43E3E0"/>
				<stop  offset="0.3285" style="stop-color:#45D5DF"/>
				<stop  offset="0.5199" style="stop-color:#49BDDD"/>
				<stop  offset="0.7209" style="stop-color:#4E9CDB"/>
				<stop  offset="0.9274" style="stop-color:#5472D8"/>
				<stop  offset="1" style="stop-color:#5761D7"/>
			</linearGradient>
			<polygon class="st13" points="299.6,186.6 299.6,209.6 328.1,193.2 328.1,170.2 			"/>
		</g>
		<linearGradient id="SVGID_10_" gradientUnits="userSpaceOnUse" x1="271.1135" y1="189.8938" x2="299.5976" y2="189.8938">
			<stop  offset="0" style="stop-color:#42E8E0"/>
			<stop  offset="0.1507" style="stop-color:#43E3E0"/>
			<stop  offset="0.3285" style="stop-color:#45D5DF"/>
			<stop  offset="0.5199" style="stop-color:#49BDDD"/>
			<stop  offset="0.7209" style="stop-color:#4E9CDB"/>
			<stop  offset="0.9274" style="stop-color:#5472D8"/>
			<stop  offset="1" style="stop-color:#5761D7"/>
		</linearGradient>
		<polygon class="st14" points="271.1,170.2 271.1,193.2 299.6,209.6 299.6,186.6 		"/>
	</g>
</g>
<g>
	<linearGradient id="SVGID_11_" gradientUnits="userSpaceOnUse" x1="51.5063" y1="203.3573" x2="117.1683" y2="203.3573">
		<stop  offset="0.2473" style="stop-color:#5761D7"/>
		<stop  offset="0.4363" style="stop-color:#6C74DF"/>
		<stop  offset="0.8245" style="stop-color:#A2A6F5"/>
		<stop  offset="1" style="stop-color:#BCBEFF"/>
	</linearGradient>
	<polygon class="st15" points="143.7,194.7 143.7,185.4 97.6,210.8 51.5,185.4 51.5,194.7 97.6,221.3 	"/>
	<linearGradient id="SVGID_12_" gradientUnits="userSpaceOnUse" x1="51.5063" y1="185.4081" x2="143.6543" y2="185.4081">
		<stop  offset="0" style="stop-color:#C0BFF6"/>
		<stop  offset="0.2938" style="stop-color:#C5C4F7"/>
		<stop  offset="0.6399" style="stop-color:#D3D2F9"/>
		<stop  offset="1" style="stop-color:#E9E9FD"/>
	</linearGradient>
	<polygon class="st16" points="97.6,212 51.5,185.4 97.6,158.8 143.7,185.4 	"/>
	<polygon class="st8" points="97.6,211.2 52.2,185 51.5,185.4 97.6,212 143.7,185.4 143,185 	"/>
	<polygon class="st2" points="97.6,207.1 60.1,185.4 97.6,163.8 135.1,185.4 	"/>
	<g>
		<linearGradient id="SVGID_13_" gradientUnits="userSpaceOnUse" x1="69.0967" y1="185.4084" x2="126.0639" y2="185.4084">
			<stop  offset="0" style="stop-color:#42E8E0"/>
			<stop  offset="0.1507" style="stop-color:#43E3E0"/>
			<stop  offset="0.3285" style="stop-color:#45D5DF"/>
			<stop  offset="0.5199" style="stop-color:#49BDDD"/>
			<stop  offset="0.7209" style="stop-color:#4E9CDB"/>
			<stop  offset="0.9274" style="stop-color:#5472D8"/>
			<stop  offset="1" style="stop-color:#5761D7"/>
		</linearGradient>
		<polygon class="st17" points="97.6,201.9 69.1,185.4 97.6,169 126.1,185.4 		"/>
		<g>
			<linearGradient id="SVGID_14_" gradientUnits="userSpaceOnUse" x1="97.5799" y1="165.6827" x2="126.0639" y2="165.6827">
				<stop  offset="0" style="stop-color:#42E8E0"/>
				<stop  offset="0.1507" style="stop-color:#43E3E0"/>
				<stop  offset="0.3285" style="stop-color:#45D5DF"/>
				<stop  offset="0.5199" style="stop-color:#49BDDD"/>
				<stop  offset="0.7209" style="stop-color:#4E9CDB"/>
				<stop  offset="0.9274" style="stop-color:#5472D8"/>
				<stop  offset="1" style="stop-color:#5761D7"/>
			</linearGradient>
			<polygon class="st18" points="97.6,146 126.1,162.4 126.1,185.4 97.6,169 			"/>
			<linearGradient id="SVGID_15_" gradientUnits="userSpaceOnUse" x1="69.0967" y1="165.6824" x2="97.5807" y2="165.6824">
				<stop  offset="0" style="stop-color:#42E8E0"/>
				<stop  offset="0.1507" style="stop-color:#43E3E0"/>
				<stop  offset="0.3285" style="stop-color:#45D5DF"/>
				<stop  offset="0.5199" style="stop-color:#49BDDD"/>
				<stop  offset="0.7209" style="stop-color:#4E9CDB"/>
				<stop  offset="0.9274" style="stop-color:#5472D8"/>
				<stop  offset="1" style="stop-color:#5761D7"/>
			</linearGradient>
			<polygon class="st19" points="97.6,169 69.1,185.4 69.1,162.4 97.6,146 			"/>
			<linearGradient id="SVGID_16_" gradientUnits="userSpaceOnUse" x1="69.0967" y1="162.4021" x2="126.0639" y2="162.4021">
				<stop  offset="0" style="stop-color:#42E8E0"/>
				<stop  offset="0.1507" style="stop-color:#43E3E0"/>
				<stop  offset="0.3285" style="stop-color:#45D5DF"/>
				<stop  offset="0.5199" style="stop-color:#49BDDD"/>
				<stop  offset="0.7209" style="stop-color:#4E9CDB"/>
				<stop  offset="0.9274" style="stop-color:#5472D8"/>
				<stop  offset="1" style="stop-color:#5761D7"/>
			</linearGradient>
			<polygon class="st20" points="97.6,178.8 69.1,162.4 97.6,146 126.1,162.4 			"/>
			<linearGradient id="SVGID_17_" gradientUnits="userSpaceOnUse" x1="97.5807" y1="182.1277" x2="126.0639" y2="182.1277">
				<stop  offset="0" style="stop-color:#42E8E0"/>
				<stop  offset="0.1507" style="stop-color:#43E3E0"/>
				<stop  offset="0.3285" style="stop-color:#45D5DF"/>
				<stop  offset="0.5199" style="stop-color:#49BDDD"/>
				<stop  offset="0.7209" style="stop-color:#4E9CDB"/>
				<stop  offset="0.9274" style="stop-color:#5472D8"/>
				<stop  offset="1" style="stop-color:#5761D7"/>
			</linearGradient>
			<polygon class="st21" points="97.6,178.8 97.6,201.9 126.1,185.4 126.1,162.4 			"/>
		</g>
		<linearGradient id="SVGID_18_" gradientUnits="userSpaceOnUse" x1="69.0967" y1="182.1275" x2="97.5807" y2="182.1275">
			<stop  offset="0" style="stop-color:#42E8E0"/>
			<stop  offset="0.1507" style="stop-color:#43E3E0"/>
			<stop  offset="0.3285" style="stop-color:#45D5DF"/>
			<stop  offset="0.5199" style="stop-color:#49BDDD"/>
			<stop  offset="0.7209" style="stop-color:#4E9CDB"/>
			<stop  offset="0.9274" style="stop-color:#5472D8"/>
			<stop  offset="1" style="stop-color:#5761D7"/>
		</linearGradient>
		<polygon class="st22" points="69.1,162.4 69.1,185.4 97.6,201.9 97.6,178.8 		"/>
	</g>
</g>
<g>
	<polygon class="st23" points="196,115.2 128.1,76 196,36.8 263.9,76 	"/>
	<linearGradient id="SVGID_19_" gradientUnits="userSpaceOnUse" x1="118.5951" y1="253.8215" x2="273.3612" y2="253.8215">
		<stop  offset="0" style="stop-color:#5761D7"/>
		<stop  offset="7.257640e-02" style="stop-color:#5472D8"/>
		<stop  offset="0.2791" style="stop-color:#4E9CDB"/>
		<stop  offset="0.4801" style="stop-color:#49BDDD"/>
		<stop  offset="0.6715" style="stop-color:#45D5DF"/>
		<stop  offset="0.8493" style="stop-color:#43E3E0"/>
		<stop  offset="1" style="stop-color:#42E8E0"/>
	</linearGradient>
	<path class="st24" d="M196,298.8c-0.8,0-1.5-0.2-2.2-0.6l-74.3-42.9c-0.5-0.3-0.9-0.9-0.9-1.5c0-0.6,0.3-1.2,0.9-1.5l74.3-42.9
		c1.3-0.8,3.1-0.8,4.5,0l74.3,42.9c0.5,0.3,0.9,0.9,0.9,1.5c0,0.6-0.3,1.2-0.9,1.5l-74.3,42.9C197.5,298.6,196.8,298.8,196,298.8z
		 M120.9,253.8l73.9,42.7c0.8,0.4,1.7,0.4,2.5,0l73.9-42.7l-73.9-42.7c-0.7-0.4-1.7-0.4-2.5,0L120.9,253.8z"/>
	<polygon class="st25" points="196,265.7 128.1,226.5 196,187.3 263.9,226.5 	"/>
	<linearGradient id="SVGID_20_" gradientUnits="userSpaceOnUse" x1="229.9344" y1="223.3092" x2="229.9344" y2="79.9934">
		<stop  offset="0" style="stop-color:#C0BFF6"/>
		<stop  offset="0.2938" style="stop-color:#C5C4F7"/>
		<stop  offset="0.6399" style="stop-color:#D3D2F9"/>
		<stop  offset="1" style="stop-color:#E9E9FD"/>
	</linearGradient>
	<polygon class="st26" points="263.9,76 263.9,226.5 196,265.7 196,115.2 	"/>
	<polygon class="st27" points="128.1,76 128.1,226.5 196,265.7 196,115.2 	"/>
	<g class="st28">
		<polygon class="st29" points="132.7,86 132.7,221.2 191.4,255.1 191.4,119.9 		"/>
	</g>
	<polygon class="st29" points="253.7,112.3 253.7,116.3 206.2,143.8 206.2,139.8 	"/>
	<polygon class="st29" points="253.7,129.2 253.7,133.1 206.2,160.6 206.2,156.6 	"/>
	<polygon class="st29" points="253.7,146 253.7,150 206.2,177.4 206.2,173.4 	"/>
	<polygon class="st29" points="253.7,162.8 253.7,166.8 206.2,194.2 206.2,190.2 	"/>
	<polygon class="st29" points="253.7,179.6 253.7,183.6 206.2,211 206.2,207.1 	"/>
	<polygon class="st29" points="253.7,196.4 253.7,200.4 206.2,227.9 206.2,223.9 	"/>
	<defs>
		<filter id="Adobe_OpacityMaskFilter" filterUnits="userSpaceOnUse" x="128.1" y="44.5" width="67.9" height="60.4">
			<feFlood  style="flood-color:white;flood-opacity:1" result="back"/>
			<feBlend  in="SourceGraphic" in2="back" mode="normal"/>
		</filter>
	</defs>
	<mask maskUnits="userSpaceOnUse" x="128.1" y="44.5" width="67.9" height="60.4" id="SVGID_21_">
		<g class="st30">
			<defs>
				<filter id="Adobe_OpacityMaskFilter_1_" filterUnits="userSpaceOnUse" x="128.1" y="44.5" width="67.9" height="60.4">
					<feFlood  style="flood-color:white;flood-opacity:1" result="back"/>
					<feBlend  in="SourceGraphic" in2="back" mode="normal"/>
				</filter>
			</defs>
			<mask maskUnits="userSpaceOnUse" x="128.1" y="44.5" width="67.9" height="60.4" id="SVGID_21_">
				<g class="st31">
				</g>
			</mask>
			<linearGradient id="SVGID_22_" gradientUnits="userSpaceOnUse" x1="128.0655" y1="74.6948" x2="195.9785" y2="74.6948">
				<stop  offset="0" style="stop-color:#000000"/>
				<stop  offset="4.693538e-02" style="stop-color:#2F2F2F"/>
				<stop  offset="9.814870e-02" style="stop-color:#5A5A5A"/>
				<stop  offset="0.155" style="stop-color:#828282"/>
				<stop  offset="0.2161" style="stop-color:#A4A4A4"/>
				<stop  offset="0.2828" style="stop-color:#C0C0C0"/>
				<stop  offset="0.3571" style="stop-color:#D7D7D7"/>
				<stop  offset="0.442" style="stop-color:#E9E9E9"/>
				<stop  offset="0.5443" style="stop-color:#F6F6F6"/>
				<stop  offset="0.6813" style="stop-color:#FDFDFD"/>
				<stop  offset="1" style="stop-color:#FFFFFF"/>
			</linearGradient>
			<polygon class="st32" points="196,104.9 178.1,104.9 128.1,76 182.5,44.5 196,44.5 			"/>
		</g>
	</mask>
	<linearGradient id="SVGID_23_" gradientUnits="userSpaceOnUse" x1="128.0655" y1="74.6948" x2="195.9785" y2="74.6948">
		<stop  offset="0" style="stop-color:#E9E9FD"/>
		<stop  offset="3.739363e-02" style="stop-color:#D3D5F7"/>
		<stop  offset="0.1056" style="stop-color:#B2B6EF"/>
		<stop  offset="0.1817" style="stop-color:#969BE7"/>
		<stop  offset="0.2663" style="stop-color:#7F86E1"/>
		<stop  offset="0.3632" style="stop-color:#6D75DD"/>
		<stop  offset="0.4798" style="stop-color:#606AD9"/>
		<stop  offset="0.6363" style="stop-color:#5963D8"/>
		<stop  offset="1" style="stop-color:#5761D7"/>
	</linearGradient>
	<polygon class="st33" points="196,104.9 178.1,104.9 128.1,76 182.5,44.5 196,44.5 	"/>
	<g>
		<linearGradient id="SVGID_24_" gradientUnits="userSpaceOnUse" x1="146.7018" y1="72.9649" x2="245.2538" y2="72.9649">
			<stop  offset="0" style="stop-color:#C0BFF6"/>
			<stop  offset="0.2938" style="stop-color:#C5C4F7"/>
			<stop  offset="0.6399" style="stop-color:#D3D2F9"/>
			<stop  offset="1" style="stop-color:#E9E9FD"/>
		</linearGradient>
		<polygon class="st34" points="196,101.4 146.7,73 196,44.5 245.3,73 		"/>
		<linearGradient id="SVGID_25_" gradientUnits="userSpaceOnUse" x1="226.9763" y1="100.0245" x2="214.9962" y2="79.1074">
			<stop  offset="0" style="stop-color:#C0BFF6"/>
			<stop  offset="0.2938" style="stop-color:#C5C4F7"/>
			<stop  offset="0.6399" style="stop-color:#D3D2F9"/>
			<stop  offset="1" style="stop-color:#E9E9FD"/>
		</linearGradient>
		<polygon class="st35" points="245.3,73 245.3,76.4 196,104.9 196,101.4 		"/>
		<linearGradient id="SVGID_26_" gradientUnits="userSpaceOnUse" x1="171.3401" y1="90.0996" x2="171.3401" y2="58.1897">
			<stop  offset="0" style="stop-color:#5761D7"/>
			<stop  offset="0.1779" style="stop-color:#5C66D9"/>
			<stop  offset="0.3876" style="stop-color:#6A73DF"/>
			<stop  offset="0.6134" style="stop-color:#8289E8"/>
			<stop  offset="0.849" style="stop-color:#A3A7F5"/>
			<stop  offset="1" style="stop-color:#BCBEFF"/>
		</linearGradient>
		<polygon class="st36" points="146.7,73 146.7,76.4 196,104.9 196,101.4 		"/>
	</g>
	<g>
		<g>
			<polygon class="st37" points="176.9,73.4 174.7,72.2 174.9,71.1 195.1,59.4 197.9,60.7 197.4,61.6 			"/>
			<linearGradient id="SVGID_27_" gradientUnits="userSpaceOnUse" x1="173.2816" y1="65.4243" x2="198.8012" y2="65.4243">
				<stop  offset="0" style="stop-color:#5761D7"/>
				<stop  offset="0.1779" style="stop-color:#5C66D9"/>
				<stop  offset="0.3876" style="stop-color:#6A73DF"/>
				<stop  offset="0.6134" style="stop-color:#8289E8"/>
				<stop  offset="0.849" style="stop-color:#A3A7F5"/>
				<stop  offset="1" style="stop-color:#BCBEFF"/>
			</linearGradient>
			<polygon class="st38" points="195.2,60.3 197.4,61.6 198.8,60.8 195.2,58.7 173.3,71.4 174.7,72.2 			"/>
		</g>
		<g>
			<polygon class="st37" points="183.5,77.2 181.3,76 181.5,74.9 201.7,63.2 204.5,64.5 204,65.4 			"/>
			<linearGradient id="SVGID_28_" gradientUnits="userSpaceOnUse" x1="179.9059" y1="69.2369" x2="205.4255" y2="69.2369">
				<stop  offset="0" style="stop-color:#5761D7"/>
				<stop  offset="0.1779" style="stop-color:#5C66D9"/>
				<stop  offset="0.3876" style="stop-color:#6A73DF"/>
				<stop  offset="0.6134" style="stop-color:#8289E8"/>
				<stop  offset="0.849" style="stop-color:#A3A7F5"/>
				<stop  offset="1" style="stop-color:#BCBEFF"/>
			</linearGradient>
			<polygon class="st39" points="201.8,64.1 204,65.4 205.4,64.6 201.8,62.5 179.9,75.2 181.3,76 			"/>
		</g>
		<g>
			<polygon class="st37" points="190.1,81 187.9,79.8 188.1,78.8 208.4,67 211.2,68.3 210.6,69.2 			"/>
			<linearGradient id="SVGID_29_" gradientUnits="userSpaceOnUse" x1="186.5301" y1="73.0495" x2="212.0497" y2="73.0495">
				<stop  offset="0" style="stop-color:#5761D7"/>
				<stop  offset="0.1779" style="stop-color:#5C66D9"/>
				<stop  offset="0.3876" style="stop-color:#6A73DF"/>
				<stop  offset="0.6134" style="stop-color:#8289E8"/>
				<stop  offset="0.849" style="stop-color:#A3A7F5"/>
				<stop  offset="1" style="stop-color:#BCBEFF"/>
			</linearGradient>
			<polygon class="st40" points="208.5,67.9 210.6,69.2 212,68.4 208.5,66.3 186.5,79 187.9,79.8 			"/>
		</g>
		<g>
			<polygon class="st37" points="196.7,84.9 194.6,83.6 194.7,82.6 215,70.8 217.8,72.1 217.3,73 			"/>
			<linearGradient id="SVGID_30_" gradientUnits="userSpaceOnUse" x1="193.1544" y1="76.8621" x2="218.674" y2="76.8621">
				<stop  offset="0" style="stop-color:#5761D7"/>
				<stop  offset="0.1779" style="stop-color:#5C66D9"/>
				<stop  offset="0.3876" style="stop-color:#6A73DF"/>
				<stop  offset="0.6134" style="stop-color:#8289E8"/>
				<stop  offset="0.849" style="stop-color:#A3A7F5"/>
				<stop  offset="1" style="stop-color:#BCBEFF"/>
			</linearGradient>
			<polygon class="st41" points="215.1,71.7 217.3,73 218.7,72.2 215.1,70.1 193.2,82.8 194.6,83.6 			"/>
		</g>
	</g>
	<g class="st28">
		<polygon class="st29" points="128.1,202.7 196,161.7 196,115.2 128.1,76 		"/>
	</g>
	<g>
		<linearGradient id="SVGID_31_" gradientUnits="userSpaceOnUse" x1="186.7534" y1="120.8473" x2="193.2881" y2="120.8473">
			<stop  offset="0" style="stop-color:#C0BFF6"/>
			<stop  offset="0.2938" style="stop-color:#C5C4F7"/>
			<stop  offset="0.6399" style="stop-color:#D3D2F9"/>
			<stop  offset="1" style="stop-color:#E9E9FD"/>
		</linearGradient>
		<path class="st42" d="M193.3,121.9c0-1.7-1.2-3.8-2.7-4.7c-0.8-0.4-1.4-0.5-1.9-0.2l0,0l-1.9,1.1l1.2,0c0,0.2-0.1,0.4-0.1,0.6
			c0,1.7,1.2,3.8,2.7,4.7c0.2,0.1,0.4,0.2,0.6,0.3l-0.6,1l1.9-1.1l0,0C193,123.4,193.3,122.8,193.3,121.9z"/>
		<linearGradient id="SVGID_32_" gradientUnits="userSpaceOnUse" x1="185.9579" y1="121.513" x2="191.3621" y2="121.513">
			<stop  offset="0" style="stop-color:#5761D7"/>
			<stop  offset="0.1779" style="stop-color:#5C66D9"/>
			<stop  offset="0.3876" style="stop-color:#6A73DF"/>
			<stop  offset="0.6134" style="stop-color:#8289E8"/>
			<stop  offset="0.849" style="stop-color:#A3A7F5"/>
			<stop  offset="1" style="stop-color:#BCBEFF"/>
		</linearGradient>
		<path class="st43" d="M191.4,123.1c0,1.7-1.2,2.4-2.7,1.6c-1.5-0.9-2.7-3-2.7-4.7c0-1.7,1.2-2.4,2.7-1.6
			C190.2,119.3,191.4,121.3,191.4,123.1z"/>
		<path class="st37" d="M190.2,122.4c0,1-0.7,1.4-1.6,0.9c-0.9-0.5-1.6-1.7-1.6-2.7c0-1,0.7-1.4,1.6-0.9
			C189.5,120.2,190.2,121.4,190.2,122.4z"/>
	</g>
	<g>
		<linearGradient id="SVGID_33_" gradientUnits="userSpaceOnUse" x1="129.7963" y1="85.8514" x2="136.3311" y2="85.8514">
			<stop  offset="0" style="stop-color:#C0BFF6"/>
			<stop  offset="0.2938" style="stop-color:#C5C4F7"/>
			<stop  offset="0.6399" style="stop-color:#D3D2F9"/>
			<stop  offset="1" style="stop-color:#E9E9FD"/>
		</linearGradient>
		<path class="st44" d="M136.3,87c0-1.7-1.2-3.8-2.7-4.7c-0.8-0.4-1.4-0.5-1.9-0.2l0,0l-1.9,1.1l1.2,0c0,0.2-0.1,0.4-0.1,0.6
			c0,1.7,1.2,3.8,2.7,4.7c0.2,0.1,0.4,0.2,0.6,0.3l-0.6,1l1.9-1.1l0,0C136,88.4,136.3,87.8,136.3,87z"/>
		<linearGradient id="SVGID_34_" gradientUnits="userSpaceOnUse" x1="129.0008" y1="86.5172" x2="134.4051" y2="86.5172">
			<stop  offset="0" style="stop-color:#5761D7"/>
			<stop  offset="0.1779" style="stop-color:#5C66D9"/>
			<stop  offset="0.3876" style="stop-color:#6A73DF"/>
			<stop  offset="0.6134" style="stop-color:#8289E8"/>
			<stop  offset="0.849" style="stop-color:#A3A7F5"/>
			<stop  offset="1" style="stop-color:#BCBEFF"/>
		</linearGradient>
		<path class="st45" d="M134.4,88.1c0,1.7-1.2,2.4-2.7,1.6c-1.5-0.9-2.7-3-2.7-4.7c0-1.7,1.2-2.4,2.7-1.6
			C133.2,84.3,134.4,86.4,134.4,88.1z"/>
		<path class="st37" d="M133.3,87.4c0,1-0.7,1.4-1.6,0.9c-0.9-0.5-1.6-1.7-1.6-2.7c0-1,0.7-1.4,1.6-0.9
			C132.6,85.2,133.3,86.4,133.3,87.4z"/>
	</g>
	<g>
		<linearGradient id="SVGID_35_" gradientUnits="userSpaceOnUse" x1="186.7534" y1="255.6371" x2="193.2881" y2="255.6371">
			<stop  offset="0" style="stop-color:#C0BFF6"/>
			<stop  offset="0.2938" style="stop-color:#C5C4F7"/>
			<stop  offset="0.6399" style="stop-color:#D3D2F9"/>
			<stop  offset="1" style="stop-color:#E9E9FD"/>
		</linearGradient>
		<path class="st46" d="M193.3,256.7c0-1.7-1.2-3.8-2.7-4.7c-0.8-0.4-1.4-0.5-1.9-0.2l0,0l-1.9,1.1l1.2,0c0,0.2-0.1,0.4-0.1,0.6
			c0,1.7,1.2,3.8,2.7,4.7c0.2,0.1,0.4,0.2,0.6,0.3l-0.6,1l1.9-1.1l0,0C193,258.2,193.3,257.6,193.3,256.7z"/>
		<linearGradient id="SVGID_36_" gradientUnits="userSpaceOnUse" x1="185.9579" y1="256.3029" x2="191.3621" y2="256.3029">
			<stop  offset="0" style="stop-color:#5761D7"/>
			<stop  offset="0.1779" style="stop-color:#5C66D9"/>
			<stop  offset="0.3876" style="stop-color:#6A73DF"/>
			<stop  offset="0.6134" style="stop-color:#8289E8"/>
			<stop  offset="0.849" style="stop-color:#A3A7F5"/>
			<stop  offset="1" style="stop-color:#BCBEFF"/>
		</linearGradient>
		<path class="st47" d="M191.4,257.9c0,1.7-1.2,2.4-2.7,1.6c-1.5-0.9-2.7-3-2.7-4.7c0-1.7,1.2-2.4,2.7-1.6
			C190.2,254,191.4,256.1,191.4,257.9z"/>
		<path class="st37" d="M190.2,257.2c0,1-0.7,1.4-1.6,0.9c-0.9-0.5-1.6-1.7-1.6-2.7s0.7-1.4,1.6-0.9
			C189.5,255,190.2,256.2,190.2,257.2z"/>
	</g>
	<g>
		<linearGradient id="SVGID_37_" gradientUnits="userSpaceOnUse" x1="129.7963" y1="220.6412" x2="136.3311" y2="220.6412">
			<stop  offset="0" style="stop-color:#C0BFF6"/>
			<stop  offset="0.2938" style="stop-color:#C5C4F7"/>
			<stop  offset="0.6399" style="stop-color:#D3D2F9"/>
			<stop  offset="1" style="stop-color:#E9E9FD"/>
		</linearGradient>
		<path class="st48" d="M136.3,221.7c0-1.7-1.2-3.8-2.7-4.7c-0.8-0.4-1.4-0.5-1.9-0.2l0,0l-1.9,1.1l1.2,0c0,0.2-0.1,0.4-0.1,0.6
			c0,1.7,1.2,3.8,2.7,4.7c0.2,0.1,0.4,0.2,0.6,0.3l-0.6,1l1.9-1.1l0,0C136,223.2,136.3,222.6,136.3,221.7z"/>
		<linearGradient id="SVGID_38_" gradientUnits="userSpaceOnUse" x1="129.0008" y1="221.3069" x2="134.4051" y2="221.3069">
			<stop  offset="0" style="stop-color:#5761D7"/>
			<stop  offset="0.1779" style="stop-color:#5C66D9"/>
			<stop  offset="0.3876" style="stop-color:#6A73DF"/>
			<stop  offset="0.6134" style="stop-color:#8289E8"/>
			<stop  offset="0.849" style="stop-color:#A3A7F5"/>
			<stop  offset="1" style="stop-color:#BCBEFF"/>
		</linearGradient>
		<path class="st49" d="M134.4,222.9c0,1.7-1.2,2.4-2.7,1.6c-1.5-0.9-2.7-3-2.7-4.7c0-1.7,1.2-2.4,2.7-1.6
			C133.2,219,134.4,221.1,134.4,222.9z"/>
		<path class="st37" d="M133.3,222.2c0,1-0.7,1.4-1.6,0.9c-0.9-0.5-1.6-1.7-1.6-2.7s0.7-1.4,1.6-0.9
			C132.6,220,133.3,221.2,133.3,222.2z"/>
	</g>
</g>
<g class="st50">
	<defs>
		<polygon id="SVGID_39_" class="st50" points="132.7,86 132.7,221.2 191.4,255.1 191.4,119.9 		"/>
	</defs>
	<clipPath id="SVGID_40_">
		<use xlink:href="#SVGID_39_"  style="overflow:visible;"/>
	</clipPath>
	<g class="st51">
		<linearGradient id="SVGID_41_" gradientUnits="userSpaceOnUse" x1="139.8839" y1="278.0262" x2="205.5459" y2="278.0262">
			<stop  offset="0.2473" style="stop-color:#5761D7"/>
			<stop  offset="0.4363" style="stop-color:#6C74DF"/>
			<stop  offset="0.8245" style="stop-color:#A2A6F5"/>
			<stop  offset="1" style="stop-color:#BCBEFF"/>
		</linearGradient>
		<polygon class="st52" points="232,269.4 232,260.1 186,285.5 139.9,260.1 139.9,269.4 186,296 		"/>
		<linearGradient id="SVGID_42_" gradientUnits="userSpaceOnUse" x1="139.8839" y1="260.0769" x2="232.0319" y2="260.0769">
			<stop  offset="0" style="stop-color:#C0BFF6"/>
			<stop  offset="0.2938" style="stop-color:#C5C4F7"/>
			<stop  offset="0.6399" style="stop-color:#D3D2F9"/>
			<stop  offset="1" style="stop-color:#E9E9FD"/>
		</linearGradient>
		<polygon class="st53" points="186,286.7 139.9,260.1 186,233.5 232,260.1 		"/>
		<polygon class="st8" points="186,285.9 140.5,259.7 139.9,260.1 186,286.7 232,260.1 231.4,259.7 		"/>
		<polygon class="st2" points="186,281.7 148.5,260.1 186,238.4 223.5,260.1 		"/>
		<g>
			<linearGradient id="SVGID_43_" gradientUnits="userSpaceOnUse" x1="157.4743" y1="260.0772" x2="214.4416" y2="260.0772">
				<stop  offset="0" style="stop-color:#42E8E0"/>
				<stop  offset="0.1507" style="stop-color:#43E3E0"/>
				<stop  offset="0.3285" style="stop-color:#45D5DF"/>
				<stop  offset="0.5199" style="stop-color:#49BDDD"/>
				<stop  offset="0.7209" style="stop-color:#4E9CDB"/>
				<stop  offset="0.9274" style="stop-color:#5472D8"/>
				<stop  offset="1" style="stop-color:#5761D7"/>
			</linearGradient>
			<polygon class="st54" points="186,276.5 157.5,260.1 186,243.6 214.4,260.1 			"/>
			<g>
				<linearGradient id="SVGID_44_" gradientUnits="userSpaceOnUse" x1="185.9575" y1="218.8559" x2="214.4416" y2="218.8559">
					<stop  offset="0" style="stop-color:#42E8E0"/>
					<stop  offset="0.1507" style="stop-color:#43E3E0"/>
					<stop  offset="0.3285" style="stop-color:#45D5DF"/>
					<stop  offset="0.5199" style="stop-color:#49BDDD"/>
					<stop  offset="0.7209" style="stop-color:#4E9CDB"/>
					<stop  offset="0.9274" style="stop-color:#5472D8"/>
					<stop  offset="1" style="stop-color:#5761D7"/>
				</linearGradient>
				<polygon class="st55" points="186,177.6 214.4,194.1 214.4,260.1 186,243.6 				"/>
				<linearGradient id="SVGID_45_" gradientUnits="userSpaceOnUse" x1="157.4743" y1="218.8557" x2="185.9583" y2="218.8557">
					<stop  offset="0" style="stop-color:#42E8E0"/>
					<stop  offset="0.1507" style="stop-color:#43E3E0"/>
					<stop  offset="0.3285" style="stop-color:#45D5DF"/>
					<stop  offset="0.5199" style="stop-color:#49BDDD"/>
					<stop  offset="0.7209" style="stop-color:#4E9CDB"/>
					<stop  offset="0.9274" style="stop-color:#5472D8"/>
					<stop  offset="1" style="stop-color:#5761D7"/>
				</linearGradient>
				<polygon class="st56" points="186,243.6 157.5,260.1 157.5,194.1 186,177.6 				"/>
				<linearGradient id="SVGID_46_" gradientUnits="userSpaceOnUse" x1="157.4743" y1="194.0796" x2="214.4416" y2="194.0796">
					<stop  offset="0" style="stop-color:#42E8E0"/>
					<stop  offset="0.1507" style="stop-color:#43E3E0"/>
					<stop  offset="0.3285" style="stop-color:#45D5DF"/>
					<stop  offset="0.5199" style="stop-color:#49BDDD"/>
					<stop  offset="0.7209" style="stop-color:#4E9CDB"/>
					<stop  offset="0.9274" style="stop-color:#5472D8"/>
					<stop  offset="1" style="stop-color:#5761D7"/>
				</linearGradient>
				<polygon class="st57" points="186,210.5 157.5,194.1 186,177.6 214.4,194.1 				"/>
				<linearGradient id="SVGID_47_" gradientUnits="userSpaceOnUse" x1="185.9583" y1="235.3009" x2="214.4416" y2="235.3009">
					<stop  offset="0" style="stop-color:#42E8E0"/>
					<stop  offset="0.1507" style="stop-color:#43E3E0"/>
					<stop  offset="0.3285" style="stop-color:#45D5DF"/>
					<stop  offset="0.5199" style="stop-color:#49BDDD"/>
					<stop  offset="0.7209" style="stop-color:#4E9CDB"/>
					<stop  offset="0.9274" style="stop-color:#5472D8"/>
					<stop  offset="1" style="stop-color:#5761D7"/>
				</linearGradient>
				<polygon class="st58" points="186,210.5 186,276.5 214.4,260.1 214.4,194.1 				"/>
			</g>
			<linearGradient id="SVGID_48_" gradientUnits="userSpaceOnUse" x1="157.4743" y1="235.3006" x2="185.9583" y2="235.3006">
				<stop  offset="0" style="stop-color:#42E8E0"/>
				<stop  offset="0.1507" style="stop-color:#43E3E0"/>
				<stop  offset="0.3285" style="stop-color:#45D5DF"/>
				<stop  offset="0.5199" style="stop-color:#49BDDD"/>
				<stop  offset="0.7209" style="stop-color:#4E9CDB"/>
				<stop  offset="0.9274" style="stop-color:#5472D8"/>
				<stop  offset="1" style="stop-color:#5761D7"/>
			</linearGradient>
			<polygon class="st59" points="157.5,194.1 157.5,260.1 186,276.5 186,210.5 			"/>
		</g>
		<linearGradient id="SVGID_49_" gradientUnits="userSpaceOnUse" x1="174.9215" y1="194.0793" x2="196.9954" y2="194.0793">
			<stop  offset="0" style="stop-color:#42E8E0"/>
			<stop  offset="1" style="stop-color:#42E8E0"/>
		</linearGradient>
		<path class="st60" d="M193.8,198.6c-4.3,2.5-11.3,2.5-15.6,0c-4.3-2.5-4.3-6.5,0-9c4.3-2.5,11.3-2.5,15.6,0
			C198.1,192.1,198.1,196.1,193.8,198.6z"/>
		<defs>
			<filter id="Adobe_OpacityMaskFilter_2_" filterUnits="userSpaceOnUse" x="185" y="7" width="1.9" height="188">
				<feFlood  style="flood-color:white;flood-opacity:1" result="back"/>
				<feBlend  in="SourceGraphic" in2="back" mode="normal"/>
			</filter>
		</defs>
		<mask maskUnits="userSpaceOnUse" x="185" y="7" width="1.9" height="188" id="SVGID_50_">
			<g class="st61">
				<defs>
					<filter id="Adobe_OpacityMaskFilter_3_" filterUnits="userSpaceOnUse" x="185" y="7" width="1.9" height="188">
						<feFlood  style="flood-color:white;flood-opacity:1" result="back"/>
						<feBlend  in="SourceGraphic" in2="back" mode="normal"/>
					</filter>
				</defs>
				<mask maskUnits="userSpaceOnUse" x="185" y="7" width="1.9" height="188" id="SVGID_50_">
					<g class="st62">
					</g>
				</mask>
				<linearGradient id="SVGID_51_" gradientUnits="userSpaceOnUse" x1="185.9585" y1="195.0101" x2="185.9585" y2="6.9866">
					<stop  offset="0" style="stop-color:#FFFFFF"/>
					<stop  offset="0.1048" style="stop-color:#FAFAFA"/>
					<stop  offset="0.2285" style="stop-color:#ECECEC"/>
					<stop  offset="0.3617" style="stop-color:#D4D4D4"/>
					<stop  offset="0.5017" style="stop-color:#B3B3B3"/>
					<stop  offset="0.647" style="stop-color:#888888"/>
					<stop  offset="0.7968" style="stop-color:#545454"/>
					<stop  offset="0.9474" style="stop-color:#171717"/>
					<stop  offset="1" style="stop-color:#000000"/>
				</linearGradient>
				<path class="st63" d="M186,195c-0.5,0-0.9-0.4-0.9-0.9V7.9c0-0.5,0.4-0.9,0.9-0.9s0.9,0.4,0.9,0.9v186.2
					C186.9,194.6,186.5,195,186,195z"/>
			</g>
		</mask>
		<linearGradient id="SVGID_52_" gradientUnits="userSpaceOnUse" x1="185.9585" y1="195.0101" x2="185.9585" y2="6.9866">
			<stop  offset="0" style="stop-color:#42E8E0"/>
			<stop  offset="0.1507" style="stop-color:#43E3E0"/>
			<stop  offset="0.3285" style="stop-color:#45D5DF"/>
			<stop  offset="0.5199" style="stop-color:#49BDDD"/>
			<stop  offset="0.7209" style="stop-color:#4E9CDB"/>
			<stop  offset="0.9274" style="stop-color:#5472D8"/>
			<stop  offset="1" style="stop-color:#5761D7"/>
		</linearGradient>
		<path class="st64" d="M186,195c-0.5,0-0.9-0.4-0.9-0.9V7.9c0-0.5,0.4-0.9,0.9-0.9s0.9,0.4,0.9,0.9v186.2
			C186.9,194.6,186.5,195,186,195z"/>
	</g>
</g>
<g>
	<linearGradient id="SVGID_53_" gradientUnits="userSpaceOnUse" x1="60.0804" y1="322.6338" x2="125.7424" y2="322.6338">
		<stop  offset="0.2473" style="stop-color:#5761D7"/>
		<stop  offset="0.4363" style="stop-color:#6C74DF"/>
		<stop  offset="0.8245" style="stop-color:#A2A6F5"/>
		<stop  offset="1" style="stop-color:#BCBEFF"/>
	</linearGradient>
	<polygon class="st65" points="152.2,314 152.2,304.7 106.2,330.1 60.1,304.7 60.1,314 106.2,340.6 	"/>
	<linearGradient id="SVGID_54_" gradientUnits="userSpaceOnUse" x1="60.0804" y1="304.6845" x2="152.2284" y2="304.6845">
		<stop  offset="0" style="stop-color:#C0BFF6"/>
		<stop  offset="0.2938" style="stop-color:#C5C4F7"/>
		<stop  offset="0.6399" style="stop-color:#D3D2F9"/>
		<stop  offset="1" style="stop-color:#E9E9FD"/>
	</linearGradient>
	<polygon class="st66" points="106.2,331.3 60.1,304.7 106.2,278.1 152.2,304.7 	"/>
	<polygon class="st8" points="106.2,330.5 60.7,304.3 60.1,304.7 106.2,331.3 152.2,304.7 151.6,304.3 	"/>
	<polygon class="st2" points="106.2,326.3 68.7,304.7 106.2,283 143.7,304.7 	"/>
	<g>
		<linearGradient id="SVGID_55_" gradientUnits="userSpaceOnUse" x1="77.6707" y1="304.6848" x2="134.638" y2="304.6848">
			<stop  offset="0" style="stop-color:#42E8E0"/>
			<stop  offset="0.1507" style="stop-color:#43E3E0"/>
			<stop  offset="0.3285" style="stop-color:#45D5DF"/>
			<stop  offset="0.5199" style="stop-color:#49BDDD"/>
			<stop  offset="0.7209" style="stop-color:#4E9CDB"/>
			<stop  offset="0.9274" style="stop-color:#5472D8"/>
			<stop  offset="1" style="stop-color:#5761D7"/>
		</linearGradient>
		<polygon class="st67" points="106.2,321.1 77.7,304.7 106.2,288.2 134.6,304.7 		"/>
		<g>
			<linearGradient id="SVGID_56_" gradientUnits="userSpaceOnUse" x1="106.154" y1="263.4636" x2="134.638" y2="263.4636">
				<stop  offset="0" style="stop-color:#42E8E0"/>
				<stop  offset="0.1507" style="stop-color:#43E3E0"/>
				<stop  offset="0.3285" style="stop-color:#45D5DF"/>
				<stop  offset="0.5199" style="stop-color:#49BDDD"/>
				<stop  offset="0.7209" style="stop-color:#4E9CDB"/>
				<stop  offset="0.9274" style="stop-color:#5472D8"/>
				<stop  offset="1" style="stop-color:#5761D7"/>
			</linearGradient>
			<polygon class="st68" points="106.2,222.2 134.6,238.7 134.6,304.7 106.2,288.2 			"/>
			<linearGradient id="SVGID_57_" gradientUnits="userSpaceOnUse" x1="77.6707" y1="263.4633" x2="106.1548" y2="263.4633">
				<stop  offset="0" style="stop-color:#42E8E0"/>
				<stop  offset="0.1507" style="stop-color:#43E3E0"/>
				<stop  offset="0.3285" style="stop-color:#45D5DF"/>
				<stop  offset="0.5199" style="stop-color:#49BDDD"/>
				<stop  offset="0.7209" style="stop-color:#4E9CDB"/>
				<stop  offset="0.9274" style="stop-color:#5472D8"/>
				<stop  offset="1" style="stop-color:#5761D7"/>
			</linearGradient>
			<polygon class="st69" points="106.2,288.2 77.7,304.7 77.7,238.7 106.2,222.2 			"/>
			<linearGradient id="SVGID_58_" gradientUnits="userSpaceOnUse" x1="77.6707" y1="238.6873" x2="134.638" y2="238.6873">
				<stop  offset="0" style="stop-color:#42E8E0"/>
				<stop  offset="0.1507" style="stop-color:#43E3E0"/>
				<stop  offset="0.3285" style="stop-color:#45D5DF"/>
				<stop  offset="0.5199" style="stop-color:#49BDDD"/>
				<stop  offset="0.7209" style="stop-color:#4E9CDB"/>
				<stop  offset="0.9274" style="stop-color:#5472D8"/>
				<stop  offset="1" style="stop-color:#5761D7"/>
			</linearGradient>
			<polygon class="st70" points="106.2,255.1 77.7,238.7 106.2,222.2 134.6,238.7 			"/>
			<linearGradient id="SVGID_59_" gradientUnits="userSpaceOnUse" x1="89.1678" y1="238.6873" x2="123.141" y2="238.6873">
				<stop  offset="0" style="stop-color:#42E8E0"/>
				<stop  offset="1" style="stop-color:#42E8E0"/>
			</linearGradient>
			<polygon class="st71" points="106.2,248.5 89.2,238.7 106.2,228.9 123.1,238.7 			"/>
			<linearGradient id="SVGID_60_" gradientUnits="userSpaceOnUse" x1="89.1677" y1="234.582" x2="123.141" y2="234.582">
				<stop  offset="0" style="stop-color:#42E8E0"/>
				<stop  offset="0.1507" style="stop-color:#43E3E0"/>
				<stop  offset="0.3285" style="stop-color:#45D5DF"/>
				<stop  offset="0.5199" style="stop-color:#49BDDD"/>
				<stop  offset="0.7209" style="stop-color:#4E9CDB"/>
				<stop  offset="0.9274" style="stop-color:#5472D8"/>
				<stop  offset="1" style="stop-color:#5761D7"/>
			</linearGradient>
			<polygon class="st72" points="106.2,232.1 120.4,240.3 123.1,238.7 106.2,228.9 89.2,238.7 91.9,240.3 			"/>
			<linearGradient id="SVGID_61_" gradientUnits="userSpaceOnUse" x1="106.1548" y1="279.9086" x2="134.638" y2="279.9086">
				<stop  offset="0" style="stop-color:#42E8E0"/>
				<stop  offset="0.1507" style="stop-color:#43E3E0"/>
				<stop  offset="0.3285" style="stop-color:#45D5DF"/>
				<stop  offset="0.5199" style="stop-color:#49BDDD"/>
				<stop  offset="0.7209" style="stop-color:#4E9CDB"/>
				<stop  offset="0.9274" style="stop-color:#5472D8"/>
				<stop  offset="1" style="stop-color:#5761D7"/>
			</linearGradient>
			<polygon class="st73" points="106.2,255.1 106.2,321.1 134.6,304.7 134.6,238.7 			"/>
		</g>
		<linearGradient id="SVGID_62_" gradientUnits="userSpaceOnUse" x1="77.6707" y1="279.9084" x2="106.1548" y2="279.9084">
			<stop  offset="0" style="stop-color:#42E8E0"/>
			<stop  offset="0.1507" style="stop-color:#43E3E0"/>
			<stop  offset="0.3285" style="stop-color:#45D5DF"/>
			<stop  offset="0.5199" style="stop-color:#49BDDD"/>
			<stop  offset="0.7209" style="stop-color:#4E9CDB"/>
			<stop  offset="0.9274" style="stop-color:#5472D8"/>
			<stop  offset="1" style="stop-color:#5761D7"/>
		</linearGradient>
		<polygon class="st74" points="77.7,238.7 77.7,304.7 106.2,321.1 106.2,255.1 		"/>
	</g>
	<defs>
		<filter id="Adobe_OpacityMaskFilter_4_" filterUnits="userSpaceOnUse" x="105.2" y="51.6" width="1.9" height="188">
			<feFlood  style="flood-color:white;flood-opacity:1" result="back"/>
			<feBlend  in="SourceGraphic" in2="back" mode="normal"/>
		</filter>
	</defs>
	<mask maskUnits="userSpaceOnUse" x="105.2" y="51.6" width="1.9" height="188" id="SVGID_63_">
		<g class="st75">
			<defs>
				<filter id="Adobe_OpacityMaskFilter_5_" filterUnits="userSpaceOnUse" x="105.2" y="51.6" width="1.9" height="188">
					<feFlood  style="flood-color:white;flood-opacity:1" result="back"/>
					<feBlend  in="SourceGraphic" in2="back" mode="normal"/>
				</filter>
			</defs>
			<mask maskUnits="userSpaceOnUse" x="105.2" y="51.6" width="1.9" height="188" id="SVGID_63_">
				<g class="st76">
				</g>
			</mask>
			<linearGradient id="SVGID_64_" gradientUnits="userSpaceOnUse" x1="106.1547" y1="239.6185" x2="106.1547" y2="51.594">
				<stop  offset="0" style="stop-color:#FFFFFF"/>
				<stop  offset="0.1048" style="stop-color:#FAFAFA"/>
				<stop  offset="0.2285" style="stop-color:#ECECEC"/>
				<stop  offset="0.3617" style="stop-color:#D4D4D4"/>
				<stop  offset="0.5017" style="stop-color:#B3B3B3"/>
				<stop  offset="0.647" style="stop-color:#888888"/>
				<stop  offset="0.7968" style="stop-color:#545454"/>
				<stop  offset="0.9474" style="stop-color:#171717"/>
				<stop  offset="1" style="stop-color:#000000"/>
			</linearGradient>
			<path class="st77" d="M106.2,239.6c-0.5,0-0.9-0.4-0.9-0.9V52.5c0-0.5,0.4-0.9,0.9-0.9s0.9,0.4,0.9,0.9v186.2
				C107.1,239.2,106.7,239.6,106.2,239.6z"/>
		</g>
	</mask>
	<linearGradient id="SVGID_65_" gradientUnits="userSpaceOnUse" x1="106.1547" y1="239.6185" x2="106.1547" y2="51.594">
		<stop  offset="0" style="stop-color:#42E8E0"/>
		<stop  offset="0.1507" style="stop-color:#43E3E0"/>
		<stop  offset="0.3285" style="stop-color:#45D5DF"/>
		<stop  offset="0.5199" style="stop-color:#49BDDD"/>
		<stop  offset="0.7209" style="stop-color:#4E9CDB"/>
		<stop  offset="0.9274" style="stop-color:#5472D8"/>
		<stop  offset="1" style="stop-color:#5761D7"/>
	</linearGradient>
	<path class="st78" d="M106.2,239.6c-0.5,0-0.9-0.4-0.9-0.9V52.5c0-0.5,0.4-0.9,0.9-0.9s0.9,0.4,0.9,0.9v186.2
		C107.1,239.2,106.7,239.6,106.2,239.6z"/>
</g>
<linearGradient id="SVGID_66_" gradientUnits="userSpaceOnUse" x1="-1216.9386" y1="555.5853" x2="-1165.3522" y2="442.9954" gradientTransform="matrix(0.866 0.5 -1 0.5774 1744.4163 628.0613)">
	<stop  offset="0" style="stop-color:#5761D7"/>
	<stop  offset="7.257640e-02" style="stop-color:#5472D8"/>
	<stop  offset="0.2791" style="stop-color:#4E9CDB"/>
	<stop  offset="0.4801" style="stop-color:#49BDDD"/>
	<stop  offset="0.6715" style="stop-color:#45D5DF"/>
	<stop  offset="0.8493" style="stop-color:#43E3E0"/>
	<stop  offset="1" style="stop-color:#42E8E0"/>
</linearGradient>
<path class="st79" d="M196.2,366.3c-1,0-2.1-0.3-3-0.8l-64.6-37.3c-0.3-0.2-0.5-0.5-0.5-0.8v-8.7l-3.9-2.1c-0.5-0.2-0.6-0.8-0.4-1.3
	c0.2-0.5,0.8-0.6,1.3-0.4l4.4,2.4c0.3,0.2,0.5,0.5,0.5,0.8v8.8l64.1,37c1.3,0.7,2.9,0.7,4.1,0l95-54.9c0.4-0.2,0.5-0.6,0.5-0.8
	c0-0.2,0-0.5-0.5-0.8l-55.9-32.2c-0.4-0.3-0.6-0.8-0.3-1.3c0.3-0.4,0.8-0.6,1.3-0.3l55.9,32.2c0.9,0.5,1.4,1.4,1.4,2.4
	c0,1-0.5,1.9-1.4,2.4l-95,54.9C198.3,366,197.2,366.3,196.2,366.3z"/>
<g>
	<polygon class="st80" points="159.2,150.5 162.5,152.3 162.5,150.2 159.2,148.3 	"/>
	<polygon class="st80" points="159.2,165.1 162.5,167 162.5,154.3 159.2,152.4 	"/>
	<polygon class="st80" points="159.2,172.1 162.5,174 162.5,168.9 159.2,167.1 	"/>
	<polygon class="st80" points="159.2,179.4 162.5,181.2 162.5,176.2 159.2,174.3 	"/>
	<polygon class="st80" points="154.4,154.7 157.7,156.5 157.7,151.5 154.4,149.7 	"/>
	<polygon class="st80" points="154.4,164.3 157.7,166.2 157.7,158.8 154.4,156.9 	"/>
	<polygon class="st80" points="154.4,173.1 157.7,175 157.7,168.7 154.4,166.8 	"/>
	<polygon class="st80" points="159.2,186.6 162.5,188.5 162.5,183.5 159.2,181.6 	"/>
	<polygon class="st80" points="154.4,147.7 157.7,149.5 157.7,147.4 154.4,145.5 	"/>
</g>
<polygon class="st80" points="156.8,192.3 162.5,195.5 162.5,193.4 156.8,190.2 "/>
<linearGradient id="SVGID_67_" gradientUnits="userSpaceOnUse" x1="285.1628" y1="271.2071" x2="380.6903" y2="271.2071">
	<stop  offset="0" style="stop-color:#5761D7"/>
	<stop  offset="7.257640e-02" style="stop-color:#5472D8"/>
	<stop  offset="0.2791" style="stop-color:#4E9CDB"/>
	<stop  offset="0.4801" style="stop-color:#49BDDD"/>
	<stop  offset="0.6715" style="stop-color:#45D5DF"/>
	<stop  offset="0.8493" style="stop-color:#43E3E0"/>
	<stop  offset="1" style="stop-color:#42E8E0"/>
</linearGradient>
<path class="st81" d="M286.2,315.2c-0.3,0-0.7-0.2-0.9-0.5c-0.3-0.5-0.1-1.1,0.4-1.4l92-53.1l-53.6-31c-0.5-0.3-0.6-0.9-0.4-1.4
	c0.3-0.5,0.9-0.6,1.4-0.4l55.1,31.9c0.3,0.2,0.5,0.5,0.5,0.9c0,0.4-0.2,0.7-0.5,0.9l-93.5,54C286.5,315.1,286.3,315.2,286.2,315.2z"
	/>
</svg>
