<?xml version="1.0" encoding="utf-8"?>
<!-- Generator: Adobe Illustrator 21.0.0, SVG Export Plug-In . SVG Version: 6.00 Build 0)  -->
<svg version="1.1" id="_x2014_лой_x5F_1" xmlns="http://www.w3.org/2000/svg" xmlns:xlink="http://www.w3.org/1999/xlink"
	 x="0px" y="0px" viewBox="0 0 700 400" style="enable-background:new 0 0 700 400;" xml:space="preserve">
<style type="text/css">
	.st0{display:none;fill:url(#SVGID_1_);}
	.st1{opacity:0.3;}
	.st2{fill:url(#SVGID_3_);}
	.st3{fill:url(#SVGID_4_);}
	.st4{fill:url(#SVGID_5_);}
	.st5{fill:url(#SVGID_6_);}
	.st6{fill:url(#SVGID_7_);}
	.st7{fill:url(#SVGID_8_);}
	.st8{fill:url(#SVGID_9_);}
	.st9{fill:url(#SVGID_10_);}
	.st10{fill:url(#SVGID_11_);}
	.st11{fill:url(#SVGID_12_);}
	.st12{fill:url(#SVGID_13_);}
	.st13{fill:url(#SVGID_14_);}
	.st14{fill:url(#SVGID_15_);}
	.st15{fill:url(#SVGID_16_);}
	.st16{fill:url(#SVGID_17_);}
	.st17{display:none;opacity:0.2;fill:#33ADFF;}
	.st18{display:none;opacity:0.31;fill:url(#SVGID_18_);}
	.st19{fill:url(#SVGID_19_);}
	.st20{display:none;opacity:0.5;}
	.st21{display:inline;fill:#242993;}
	.st22{fill:url(#SVGID_20_);}
	.st23{fill:url(#SVGID_21_);}
	.st24{fill:#242993;}
	.st25{opacity:0.51;}
	.st26{fill:#4553C7;}
	.st27{fill:url(#SVGID_22_);}
	.st28{fill:url(#SVGID_23_);}
	.st29{fill:#2859CB;}
	.st30{fill:#ADC8FF;}
	.st31{fill:#91AFFF;}
	.st32{fill:url(#SVGID_24_);}
	.st33{opacity:0.11;}
	.st34{clip-path:url(#SVGID_25_);}
	.st35{fill:url(#SVGID_26_);}
	.st36{fill:url(#SVGID_27_);}
	.st37{opacity:0.42;fill:url(#SVGID_28_);}
	.st38{opacity:0.42;fill:url(#SVGID_29_);}
	.st39{fill:url(#SVGID_30_);}
	.st40{fill:url(#SVGID_31_);}
	.st41{opacity:0.6;fill:#242993;}
	.st42{opacity:0.96;fill:url(#SVGID_32_);}
	.st43{opacity:0.8;fill:#4553C7;}
	.st44{fill:url(#SVGID_33_);}
	.st45{fill:url(#SVGID_34_);}
	.st46{fill:url(#SVGID_35_);}
	.st47{opacity:0.3;fill:url(#SVGID_36_);}
	.st48{opacity:0.5;fill:#FFFFFF;}
	.st49{fill:url(#SVGID_37_);}
	.st50{fill:url(#SVGID_38_);}
	.st51{fill:url(#SVGID_39_);}
	.st52{fill:url(#SVGID_40_);}
	.st53{fill:url(#SVGID_41_);}
	.st54{fill:url(#SVGID_42_);}
	.st55{fill:url(#SVGID_43_);}
	.st56{fill:url(#SVGID_44_);}
	.st57{fill:url(#SVGID_45_);}
	.st58{fill:url(#SVGID_46_);}
	.st59{fill:url(#SVGID_47_);}
	.st60{fill:url(#SVGID_48_);}
	.st61{fill:url(#SVGID_49_);}
	.st62{fill:url(#SVGID_50_);}
	.st63{fill:url(#SVGID_51_);}
	.st64{fill:#42FFFF;}
	.st65{opacity:0.2;fill:#242993;}
	.st66{fill:#DD821F;}
	.st67{fill:#FFD85A;}
	.st68{fill:#F9BF30;}
	.st69{fill:#F2B42A;}
	.st70{display:none;opacity:0.5;fill:#242993;}
	.st71{fill:url(#SVGID_52_);}
	.st72{fill:url(#SVGID_53_);}
	.st73{fill:url(#SVGID_54_);}
	.st74{fill:url(#SVGID_55_);}
	.st75{fill:#BCD5FF;}
	.st76{fill:#FFFFFF;}
	.st77{fill:url(#SVGID_56_);}
	.st78{filter:url(#Adobe_OpacityMaskFilter);}
	.st79{filter:url(#Adobe_OpacityMaskFilter_1_);}
	.st80{mask:url(#SVGID_57_);fill:url(#SVGID_58_);}
	.st81{opacity:0.78;fill:url(#SVGID_59_);}
	.st82{fill:url(#SVGID_60_);}
	.st83{fill:url(#SVGID_61_);}
	.st84{fill:url(#SVGID_62_);}
	.st85{fill:#3F38FC;}
	.st86{fill:url(#SVGID_63_);}
	.st87{fill:url(#SVGID_64_);}
	.st88{fill:url(#SVGID_65_);}
	.st89{fill:url(#SVGID_66_);}
	.st90{fill:url(#SVGID_67_);}
	.st91{fill:url(#SVGID_68_);}
	.st92{fill:url(#SVGID_69_);}
	.st93{fill:url(#SVGID_70_);}
	.st94{fill:url(#SVGID_71_);}
	.st95{fill:url(#SVGID_72_);}
	.st96{fill:url(#SVGID_73_);}
	.st97{fill:url(#SVGID_74_);}
</style>
<linearGradient id="SVGID_1_" gradientUnits="userSpaceOnUse" x1="621.123" y1="-17.4102" x2="-117.6245" y2="574.9824">
	<stop  offset="0" style="stop-color:#4482CC"/>
	<stop  offset="3.720858e-02" style="stop-color:#447ECC"/>
	<stop  offset="0.4677" style="stop-color:#4553C7"/>
	<stop  offset="0.5964" style="stop-color:#3B44BC"/>
	<stop  offset="0.8439" style="stop-color:#2B2DAB"/>
	<stop  offset="1" style="stop-color:#2525A5"/>
</linearGradient>
<rect x="0" class="st0" width="700" height="400"/>
<g class="st1">
	<linearGradient id="SVGID_3_" gradientUnits="userSpaceOnUse" x1="532.8152" y1="102.021" x2="330.4067" y2="264.33">
		<stop  offset="0" style="stop-color:#4482CC"/>
		<stop  offset="3.720858e-02" style="stop-color:#447ECC"/>
		<stop  offset="0.4677" style="stop-color:#4553C7"/>
		<stop  offset="0.5964" style="stop-color:#3B44BC"/>
		<stop  offset="0.8439" style="stop-color:#2B2DAB"/>
		<stop  offset="1" style="stop-color:#2525A5"/>
	</linearGradient>
	<path class="st2" d="M588.3,254.8c-0.1,0-0.2,0-0.3-0.1l-122.2-70.6c-2.3-1.3-3.5-3.1-3.5-5c0-1.9,1.2-3.7,3.5-5l79.6-46
		c1.8-1.1,2.9-2.4,2.9-3.9c0-1.4-1-2.8-2.9-3.9L410.5,42.7c-4.1-2.3-10.7-2.3-14.7,0l-45.2,26.1c-1.8,1.1-2.9,2.4-2.9,3.9
		c0,1.4,1,2.8,2.9,3.9l67.2,38.8c2.3,1.3,3.5,3.1,3.5,5c0,1.9-1.2,3.7-3.5,5l-100.5,58c-4.4,2.5-11.6,2.5-16,0l-66.7-38.5
		c-0.3-0.2-0.4-0.6-0.2-0.9c0.2-0.3,0.6-0.4,0.9-0.2l66.7,38.5c4.1,2.3,10.7,2.3,14.7,0l100.5-58c1.8-1.1,2.9-2.4,2.9-3.9
		c0-1.4-1-2.8-2.9-3.9L350,77.6c-2.3-1.3-3.5-3.1-3.5-5c0-1.9,1.2-3.7,3.5-5l45.2-26.1c4.4-2.5,11.6-2.5,16,0L546,119.4
		c2.3,1.3,3.5,3.1,3.5,5c0,1.9-1.2,3.7-3.5,5l-79.6,46c-1.8,1.1-2.9,2.4-2.9,3.9c0,1.4,1,2.8,2.9,3.9l122.2,70.6
		c0.3,0.2,0.4,0.6,0.2,0.9C588.7,254.7,588.5,254.8,588.3,254.8z"/>
	<linearGradient id="SVGID_4_" gradientUnits="userSpaceOnUse" x1="638.1166" y1="69.1684" x2="525.0824" y2="159.8091">
		<stop  offset="0" style="stop-color:#4482CC"/>
		<stop  offset="3.720858e-02" style="stop-color:#447ECC"/>
		<stop  offset="0.4677" style="stop-color:#4553C7"/>
		<stop  offset="0.5964" style="stop-color:#3B44BC"/>
		<stop  offset="0.8439" style="stop-color:#2B2DAB"/>
		<stop  offset="1" style="stop-color:#2525A5"/>
	</linearGradient>
	<path class="st3" d="M559.1,201.9c-0.2,0-0.4-0.1-0.5-0.3c-0.2-0.3-0.1-0.7,0.2-0.9l118.7-68.5c2.5-1.5,4-3.4,4-5.4
		c0-2-1.4-3.9-4-5.4L563.7,55.7c-5.5-3.2-14.5-3.2-20,0l-25.4,14.7c-0.3,0.2-0.7,0.1-0.9-0.2c-0.2-0.3-0.1-0.7,0.2-0.9l25.4-14.7
		c5.8-3.4,15.4-3.4,21.2,0l113.8,65.7c3,1.7,4.6,4,4.6,6.5c0,2.5-1.6,4.8-4.6,6.5l-118.7,68.5C559.4,201.9,559.3,201.9,559.1,201.9z
		"/>
	<linearGradient id="SVGID_5_" gradientUnits="userSpaceOnUse" x1="400.963" y1="148.255" x2="126.6078" y2="368.2571">
		<stop  offset="0" style="stop-color:#4482CC"/>
		<stop  offset="3.720858e-02" style="stop-color:#447ECC"/>
		<stop  offset="0.4677" style="stop-color:#4553C7"/>
		<stop  offset="0.5964" style="stop-color:#3B44BC"/>
		<stop  offset="0.8439" style="stop-color:#2B2DAB"/>
		<stop  offset="1" style="stop-color:#2525A5"/>
	</linearGradient>
	<path class="st4" d="M276.6,391.5c-3.3,0-6.5-0.7-9-2.1L105,295.5c-2.5-1.5-3.9-3.4-3.9-5.6s1.4-4.1,3.9-5.6l55.5-32
		c5-2.9,13-2.9,18,0L281,311.6c4.6,2.7,12.1,2.7,16.7,0l138.4-79.9c2.1-1.2,3.3-2.8,3.3-4.5c0-1.7-1.2-3.3-3.3-4.5l-40.9-23.6
		c-4.6-2.7-12.1-2.7-16.7,0l-80.1,46.2c-5,2.9-13,2.9-18,0l-111.9-64.6c-4.6-2.7-12.1-2.7-16.7,0l-119.5,69
		c-0.3,0.2-0.7,0.1-0.9-0.2c-0.2-0.3-0.1-0.7,0.2-0.9l119.5-69c5-2.9,13-2.9,18,0L281,244.3c4.6,2.7,12.1,2.7,16.7,0l80.1-46.2
		c5-2.9,13-2.9,18,0l40.9,23.6c2.5,1.5,3.9,3.4,3.9,5.6c0,2.1-1.4,4.1-3.9,5.6l-138.4,79.9c-5,2.9-13,2.9-18,0l-102.6-59.2
		c-4.6-2.7-12.1-2.7-16.7,0l-55.5,32c-2.1,1.2-3.3,2.8-3.3,4.5c0,1.7,1.2,3.2,3.3,4.5l162.6,93.9c4.6,2.7,12.1,2.7,16.7,0
		l210.4-121.5c0.3-0.2,0.7-0.1,0.9,0.2c0.2,0.3,0.1,0.7-0.2,0.9L285.6,389.3C283.1,390.8,279.8,391.5,276.6,391.5z"/>
	<linearGradient id="SVGID_6_" gradientUnits="userSpaceOnUse" x1="420.865" y1="329.2931" x2="408.4621" y2="339.2388">
		<stop  offset="0" style="stop-color:#4482CC"/>
		<stop  offset="3.720858e-02" style="stop-color:#447ECC"/>
		<stop  offset="0.4677" style="stop-color:#4553C7"/>
		<stop  offset="0.5964" style="stop-color:#3B44BC"/>
		<stop  offset="0.8439" style="stop-color:#2B2DAB"/>
		<stop  offset="1" style="stop-color:#2525A5"/>
	</linearGradient>
	<path class="st5" d="M432.1,345c-0.1,0-0.2,0-0.3-0.1l-35-20.2c-0.3-0.2-0.4-0.6-0.2-0.9c0.2-0.3,0.6-0.4,0.9-0.2l35,20.2
		c0.3,0.2,0.4,0.6,0.2,0.9C432.6,344.9,432.4,345,432.1,345z"/>
	<linearGradient id="SVGID_7_" gradientUnits="userSpaceOnUse" x1="380.5712" y1="92.212" x2="338.5941" y2="125.873">
		<stop  offset="0" style="stop-color:#4482CC"/>
		<stop  offset="3.720858e-02" style="stop-color:#447ECC"/>
		<stop  offset="0.4677" style="stop-color:#4553C7"/>
		<stop  offset="0.5964" style="stop-color:#3B44BC"/>
		<stop  offset="0.8439" style="stop-color:#2B2DAB"/>
		<stop  offset="1" style="stop-color:#2525A5"/>
	</linearGradient>
	<path class="st6" d="M336.6,123c-0.2,0-0.4-0.1-0.5-0.3c-0.2-0.3-0.1-0.7,0.2-0.9l46-26.6c0.3-0.2,0.7-0.1,0.9,0.2
		c0.2,0.3,0.1,0.7-0.2,0.9l-46,26.6C336.8,122.9,336.7,123,336.6,123z"/>
	<linearGradient id="SVGID_8_" gradientUnits="userSpaceOnUse" x1="661.0728" y1="174.987" x2="640.354" y2="191.6011">
		<stop  offset="0" style="stop-color:#4482CC"/>
		<stop  offset="3.720858e-02" style="stop-color:#447ECC"/>
		<stop  offset="0.4677" style="stop-color:#4553C7"/>
		<stop  offset="0.5964" style="stop-color:#3B44BC"/>
		<stop  offset="0.8439" style="stop-color:#2B2DAB"/>
		<stop  offset="1" style="stop-color:#2525A5"/>
	</linearGradient>
	<path class="st7" d="M680.9,201.4c-0.1,0-0.2,0-0.3-0.1l-60.4-34.9c-0.3-0.2-0.4-0.6-0.2-0.9c0.2-0.3,0.6-0.4,0.9-0.2l60.4,34.9
		c0.3,0.2,0.4,0.6,0.2,0.9C681.3,201.2,681.1,201.4,680.9,201.4z"/>
	<linearGradient id="SVGID_9_" gradientUnits="userSpaceOnUse" x1="336.3746" y1="120.2593" x2="316.9348" y2="135.8479">
		<stop  offset="0" style="stop-color:#4482CC"/>
		<stop  offset="3.720858e-02" style="stop-color:#447ECC"/>
		<stop  offset="0.4677" style="stop-color:#4553C7"/>
		<stop  offset="0.5964" style="stop-color:#3B44BC"/>
		<stop  offset="0.8439" style="stop-color:#2B2DAB"/>
		<stop  offset="1" style="stop-color:#2525A5"/>
	</linearGradient>
	<path class="st8" d="M337,134.7l-20.7,0c-0.3,0-0.6-0.3-0.6-0.6v-12c0-0.3,0.3-0.6,0.6-0.6H337c0.3,0,0.6,0.3,0.6,0.6l0,12
		c0,0.2-0.1,0.3-0.2,0.4C337.3,134.6,337.2,134.7,337,134.7z M316.9,133.4l19.5,0l0-10.7h-19.5V133.4z"/>
	<linearGradient id="SVGID_10_" gradientUnits="userSpaceOnUse" x1="586.3607" y1="103.0793" x2="566.9208" y2="118.6679">
		<stop  offset="0" style="stop-color:#4482CC"/>
		<stop  offset="3.720858e-02" style="stop-color:#447ECC"/>
		<stop  offset="0.4677" style="stop-color:#4553C7"/>
		<stop  offset="0.5964" style="stop-color:#3B44BC"/>
		<stop  offset="0.8439" style="stop-color:#2B2DAB"/>
		<stop  offset="1" style="stop-color:#2525A5"/>
	</linearGradient>
	<path class="st9" d="M587,117.5h-20.7c-0.3,0-0.6-0.3-0.6-0.6v-12c0-0.2,0.1-0.3,0.2-0.4c0.1-0.1,0.3-0.2,0.4-0.2l20.7,0
		c0.3,0,0.6,0.3,0.6,0.6l0,12c0,0.2-0.1,0.3-0.2,0.4C587.3,117.4,587.2,117.5,587,117.5z M566.9,116.2h19.5l0-10.7l-19.5,0V116.2z"
		/>
	<linearGradient id="SVGID_11_" gradientUnits="userSpaceOnUse" x1="292.2558" y1="345.685" x2="270.8211" y2="362.8732">
		<stop  offset="0" style="stop-color:#4482CC"/>
		<stop  offset="3.720858e-02" style="stop-color:#447ECC"/>
		<stop  offset="0.4677" style="stop-color:#4553C7"/>
		<stop  offset="0.5964" style="stop-color:#3B44BC"/>
		<stop  offset="0.8439" style="stop-color:#2B2DAB"/>
		<stop  offset="1" style="stop-color:#2525A5"/>
	</linearGradient>
	<path class="st10" d="M281.5,363.7c-4,0-8-0.9-11.1-2.6c-3.1-1.8-4.8-4.2-4.8-6.8c0-2.6,1.7-5,4.8-6.8c6.1-3.5,16.1-3.5,22.2,0l0,0
		c3.1,1.8,4.8,4.2,4.8,6.8c0,2.6-1.7,5-4.8,6.8C289.6,362.8,285.6,363.7,281.5,363.7z M281.5,346.1c-3.8,0-7.6,0.8-10.5,2.5
		c-2.7,1.5-4.2,3.6-4.2,5.7c0,2.1,1.5,4.1,4.2,5.7c5.8,3.3,15.2,3.3,20.9,0c2.7-1.5,4.2-3.6,4.2-5.7c0-2.1-1.5-4.1-4.2-5.7l0,0
		C289.1,346.9,285.3,346.1,281.5,346.1z"/>
	<linearGradient id="SVGID_12_" gradientUnits="userSpaceOnUse" x1="253.5117" y1="323.3157" x2="232.0769" y2="340.504">
		<stop  offset="0" style="stop-color:#4482CC"/>
		<stop  offset="3.720858e-02" style="stop-color:#447ECC"/>
		<stop  offset="0.4677" style="stop-color:#4553C7"/>
		<stop  offset="0.5964" style="stop-color:#3B44BC"/>
		<stop  offset="0.8439" style="stop-color:#2B2DAB"/>
		<stop  offset="1" style="stop-color:#2525A5"/>
	</linearGradient>
	<path class="st11" d="M242.8,341.3c-4,0-8-0.9-11.1-2.6c-3.1-1.8-4.8-4.2-4.8-6.8c0-2.6,1.7-5,4.8-6.8c6.1-3.5,16.1-3.5,22.2,0l0,0
		c3.1,1.8,4.8,4.2,4.8,6.8c0,2.6-1.7,5-4.8,6.8C250.8,340.4,246.8,341.3,242.8,341.3z M242.8,323.7c-3.8,0-7.6,0.8-10.5,2.5
		c-2.7,1.5-4.2,3.6-4.2,5.7c0,2.1,1.5,4.1,4.2,5.7c5.8,3.3,15.2,3.3,20.9,0c2.7-1.5,4.2-3.6,4.2-5.7c0-2.1-1.5-4.1-4.2-5.7l0,0
		C250.4,324.6,246.6,323.7,242.8,323.7z"/>
	<linearGradient id="SVGID_13_" gradientUnits="userSpaceOnUse" x1="214.7678" y1="300.947" x2="193.3331" y2="318.1353">
		<stop  offset="0" style="stop-color:#4482CC"/>
		<stop  offset="3.720858e-02" style="stop-color:#447ECC"/>
		<stop  offset="0.4677" style="stop-color:#4553C7"/>
		<stop  offset="0.5964" style="stop-color:#3B44BC"/>
		<stop  offset="0.8439" style="stop-color:#2B2DAB"/>
		<stop  offset="1" style="stop-color:#2525A5"/>
	</linearGradient>
	<path class="st12" d="M204.1,319c-4,0-8-0.9-11.1-2.6c-3.1-1.8-4.8-4.2-4.8-6.8c0-2.6,1.7-5,4.8-6.8c6.1-3.5,16.1-3.5,22.2,0h0
		c3.1,1.8,4.8,4.2,4.8,6.8c0,2.6-1.7,5-4.8,6.8C212.1,318.1,208.1,319,204.1,319z M204.1,301.4c-3.8,0-7.6,0.8-10.5,2.5
		c-2.7,1.5-4.2,3.6-4.2,5.7c0,2.1,1.5,4.1,4.2,5.7c5.8,3.3,15.2,3.3,20.9,0c2.7-1.5,4.2-3.6,4.2-5.7c0-2.1-1.5-4.1-4.2-5.7h0
		C211.6,302.2,207.8,301.4,204.1,301.4z"/>
	<linearGradient id="SVGID_14_" gradientUnits="userSpaceOnUse" x1="176.0241" y1="278.5778" x2="154.589" y2="295.7664">
		<stop  offset="0" style="stop-color:#4482CC"/>
		<stop  offset="3.720858e-02" style="stop-color:#447ECC"/>
		<stop  offset="0.4677" style="stop-color:#4553C7"/>
		<stop  offset="0.5964" style="stop-color:#3B44BC"/>
		<stop  offset="0.8439" style="stop-color:#2B2DAB"/>
		<stop  offset="1" style="stop-color:#2525A5"/>
	</linearGradient>
	<path class="st13" d="M165.3,296.6c-4,0-8-0.9-11.1-2.6c-3.1-1.8-4.8-4.2-4.8-6.8c0-2.6,1.7-5,4.8-6.8c6.1-3.5,16.1-3.5,22.2,0h0
		c3.1,1.8,4.8,4.2,4.8,6.8c0,2.6-1.7,5-4.8,6.8C173.3,295.7,169.3,296.6,165.3,296.6z M165.3,279c-3.8,0-7.6,0.8-10.5,2.5
		c-2.7,1.5-4.2,3.6-4.2,5.7c0,2.1,1.5,4.1,4.2,5.7c5.8,3.3,15.2,3.3,20.9,0c2.7-1.5,4.2-3.6,4.2-5.7c0-2.1-1.5-4.1-4.2-5.7h0
		C172.9,279.8,169.1,279,165.3,279z"/>
	<linearGradient id="SVGID_15_" gradientUnits="userSpaceOnUse" x1="200.5272" y1="264.1941" x2="176.9847" y2="283.0725">
		<stop  offset="0" style="stop-color:#4482CC"/>
		<stop  offset="3.720858e-02" style="stop-color:#447ECC"/>
		<stop  offset="0.4677" style="stop-color:#4553C7"/>
		<stop  offset="0.5964" style="stop-color:#3B44BC"/>
		<stop  offset="0.8439" style="stop-color:#2B2DAB"/>
		<stop  offset="1" style="stop-color:#2525A5"/>
	</linearGradient>
	<path class="st14" d="M176.1,281.6c-0.2,0-0.4-0.1-0.5-0.3c-0.2-0.3-0.1-0.7,0.2-0.9l25.3-14.6c0.3-0.2,0.7-0.1,0.9,0.2
		c0.2,0.3,0.1,0.7-0.2,0.9l-25.3,14.6C176.3,281.5,176.2,281.6,176.1,281.6z"/>
	<linearGradient id="SVGID_16_" gradientUnits="userSpaceOnUse" x1="308.3822" y1="362.3718" x2="300.6151" y2="368.6001">
		<stop  offset="0" style="stop-color:#4482CC"/>
		<stop  offset="3.720858e-02" style="stop-color:#447ECC"/>
		<stop  offset="0.4677" style="stop-color:#4553C7"/>
		<stop  offset="0.5964" style="stop-color:#3B44BC"/>
		<stop  offset="0.8439" style="stop-color:#2B2DAB"/>
		<stop  offset="1" style="stop-color:#2525A5"/>
	</linearGradient>
	<path class="st15" d="M315,372.3c-0.1,0-0.2,0-0.3-0.1l-21-12.3c-0.3-0.2-0.4-0.6-0.2-0.9c0.2-0.3,0.6-0.4,0.9-0.2l21,12.3
		c0.3,0.2,0.4,0.6,0.2,0.9C315.4,372.1,315.2,372.3,315,372.3z"/>
	<linearGradient id="SVGID_17_" gradientUnits="userSpaceOnUse" x1="452.2307" y1="342.5489" x2="432.7909" y2="358.1375">
		<stop  offset="0" style="stop-color:#4482CC"/>
		<stop  offset="3.720858e-02" style="stop-color:#447ECC"/>
		<stop  offset="0.4677" style="stop-color:#4553C7"/>
		<stop  offset="0.5964" style="stop-color:#3B44BC"/>
		<stop  offset="0.8439" style="stop-color:#2B2DAB"/>
		<stop  offset="1" style="stop-color:#2525A5"/>
	</linearGradient>
	<path class="st16" d="M452.9,357h-20.7c-0.3,0-0.6-0.3-0.6-0.6l0-12c0-0.2,0.1-0.3,0.2-0.4c0.1-0.1,0.3-0.2,0.4-0.2h20.7
		c0.3,0,0.6,0.3,0.6,0.6v12C453.5,356.7,453.2,357,452.9,357z M432.8,355.7h19.5V345h-19.5L432.8,355.7z"/>
</g>
<polygon class="st17" points="0,313.7 620.6,0 0,0 "/>
<linearGradient id="SVGID_18_" gradientUnits="userSpaceOnUse" x1="8.854375e-06" y1="159.8333" x2="632" y2="159.8333">
	<stop  offset="0" style="stop-color:#2525A5"/>
	<stop  offset="1" style="stop-color:#2525A5"/>
</linearGradient>
<polygon class="st18" points="0,319.7 632,0 620.6,0 0,313.7 "/>
<linearGradient id="SVGID_19_" gradientUnits="userSpaceOnUse" x1="203.4485" y1="295.0186" x2="407.999" y2="295.0186">
	<stop  offset="0" style="stop-color:#42FFFF"/>
	<stop  offset="0.1507" style="stop-color:#43FAFF"/>
	<stop  offset="0.3285" style="stop-color:#45ECFF"/>
	<stop  offset="0.5199" style="stop-color:#49D4FF"/>
	<stop  offset="0.7209" style="stop-color:#4EB3FF"/>
	<stop  offset="0.9274" style="stop-color:#5489FF"/>
	<stop  offset="1" style="stop-color:#5778FF"/>
</linearGradient>
<path class="st19" d="M339.7,320.3c-0.1,0-0.2,0-0.3-0.1L255,271.1l-50.7,28.5c-0.3,0.2-0.7,0.1-0.8-0.2c-0.2-0.3-0.1-0.7,0.2-0.8
	l51-28.7c0.2-0.1,0.4-0.1,0.6,0l84.4,49.1l67.4-38.5c0.3-0.2,0.7-0.1,0.8,0.2c0.2,0.3,0.1,0.7-0.2,0.8L340,320.2
	C339.9,320.2,339.8,320.3,339.7,320.3z"/>
<g>
	<g>
		<g>
			<g>
				<g class="st20">
					<path class="st21" d="M415.6,205.3l158.6,91.6c1.4,0.8,1.4,2.8,0,3.6L455.9,369c-4,2.3-8.9,2.3-12.9,0l-152.1-87.8
						c-1.4-0.8-1.4-2.8,0-3.6L415.6,205.3z"/>
				</g>
				<g>
					<g>
						
							<linearGradient id="SVGID_20_" gradientUnits="userSpaceOnUse" x1="-1529.401" y1="152.9207" x2="-1333.705" y2="152.9207" gradientTransform="matrix(-1 0 0 1 -913.2388 0)">
							<stop  offset="0" style="stop-color:#C0D6FF"/>
							<stop  offset="0.2978" style="stop-color:#C5DBFF"/>
							<stop  offset="0.6488" style="stop-color:#D3E9FF"/>
							<stop  offset="1" style="stop-color:#E9FFFF"/>
						</linearGradient>
						<path class="st22" d="M420.5,165.1l21.2-125.8l-1.7-0.7l2.6-1.5l0,0c0.5-0.3,1.2-0.3,2,0.1l169.4,97.8
							c1.4,0.8,2.4,2.9,2.2,4.3l-21.4,126.8c-0.1,0.7-0.4,1.1-0.9,1.3l0,0l-2.5,1.4l-0.4-2.3l0.1,0l-168.4-97.2
							C421.3,168.6,420.3,166.5,420.5,165.1z"/>
						
							<linearGradient id="SVGID_21_" gradientUnits="userSpaceOnUse" x1="-1529.3998" y1="203.1078" x2="-1495.7969" y2="203.1078" gradientTransform="matrix(-1 0 0 1 -913.2388 0)">
							<stop  offset="0" style="stop-color:#5778FF"/>
							<stop  offset="0.1779" style="stop-color:#5C7DFF"/>
							<stop  offset="0.3876" style="stop-color:#6A8AFF"/>
							<stop  offset="0.6134" style="stop-color:#82A0FF"/>
							<stop  offset="0.849" style="stop-color:#A3BEFF"/>
							<stop  offset="1" style="stop-color:#BCD5FF"/>
						</linearGradient>
						<path class="st23" d="M613,138.5l2.8-1.2c0.3,0.7,0.5,1.5,0.4,2.1l-21.4,126.8c-0.1,0.7-0.4,1.1-0.9,1.3l0,0l-2.5,1.4
							l-0.4-2.3l0.1,0l-8.5-4.9L613,138.5z"/>
						<path class="st24" d="M420,170.9l169.4,97.8c1.3,0.8,2.4,0.3,2.7-1l21.4-126.8c0.2-1.4-0.8-3.5-2.2-4.3L441.9,38.8
							c-1.3-0.8-2.4-0.3-2.7,1l-21.4,126.8C417.6,168.1,418.7,170.1,420,170.9z"/>
						<g class="st25">
							<polygon class="st26" points="444.1,46.9 607.4,141.2 587.1,260.6 423.9,166.4 							"/>
						</g>
					</g>
					<g>
						
							<linearGradient id="SVGID_22_" gradientUnits="userSpaceOnUse" x1="-1503.1823" y1="259.5241" x2="-1226.7954" y2="259.5241" gradientTransform="matrix(-1 0 0 1 -913.2388 0)">
							<stop  offset="0" style="stop-color:#5778FF"/>
							<stop  offset="0.1779" style="stop-color:#5C7DFF"/>
							<stop  offset="0.3876" style="stop-color:#6A8AFF"/>
							<stop  offset="0.6134" style="stop-color:#82A0FF"/>
							<stop  offset="0.849" style="stop-color:#A3BEFF"/>
							<stop  offset="1" style="stop-color:#BCD5FF"/>
						</linearGradient>
						<path class="st27" d="M313.6,230.9l9.2,4.8l92.7-53.5c1.6-0.9,4.3-0.8,6.1,0.3l159.9,92.3c1.5-0.9,8.5-4.2,8.5-4.2l-3.4,8.8
							c0,0,0,0,0,0c-0.1,0.4-0.4,0.8-0.9,1L488,336.8c-1.6,0.9-4.3,0.8-6.1-0.3l-163.6-94.5c-0.7-0.4-1.2-0.9-1.4-1.5l0,0
							L313.6,230.9z"/>
						
							<linearGradient id="SVGID_23_" gradientUnits="userSpaceOnUse" x1="-1410.3153" y1="250.3083" x2="-1133.7811" y2="250.3083" gradientTransform="matrix(-1 0 0 1 -913.2388 0)">
							<stop  offset="0" style="stop-color:#C0D6FF"/>
							<stop  offset="0.2978" style="stop-color:#C5DBFF"/>
							<stop  offset="0.6488" style="stop-color:#D3E9FF"/>
							<stop  offset="1" style="stop-color:#E9FFFF"/>
						</linearGradient>
						<path class="st28" d="M315,232.4l167.7,96.8c1.8,1.1,4.6,1.2,6.2,0.3l100.1-57.8c1.6-0.9,1.4-2.5-0.4-3.6l-167.7-96.8
							c-1.8-1.1-4.6-1.2-6.2-0.3l-100.1,57.8C313,229.8,313.2,231.4,315,232.4z"/>
						<path class="st29" d="M533.2,308.3v-1.8c0-0.2-0.1-0.3-0.2-0.2l-6.5,3.7c-0.1,0.1-0.2,0.3-0.2,0.5v1.8c0,0.2,0.1,0.3,0.2,0.2
							l6.5-3.7C533.1,308.7,533.2,308.5,533.2,308.3z"/>
						<path class="st29" d="M523.5,313.9v-1.8c0-0.2-0.1-0.3-0.2-0.2l-6.5,3.7c-0.1,0.1-0.2,0.3-0.2,0.5v1.8c0,0.2,0.1,0.3,0.2,0.2
							l6.5-3.7C523.4,314.3,523.5,314.1,523.5,313.9z"/>
						<path class="st30" d="M562.8,266.3l-139.3-80.4c-0.9-0.5-2.1-0.5-3,0l-49.6,28.7c-0.7,0.4-0.7,1.4,0,1.9l139.3,80.4
							c0.9,0.5,2.1,0.5,3,0l49.7-28.7C563.6,267.8,563.6,266.7,562.8,266.3z"/>
						<path class="st31" d="M562.8,268.2l-0.5,0.3l-138.8-80.2c-0.9-0.5-2.1-0.5-3,0l-49.1,28.4l-0.5-0.3c-0.7-0.4-0.7-1.4,0-1.9
							l49.6-28.7c0.9-0.5,2.1-0.5,3,0l139.3,80.4C563.6,266.7,563.6,267.8,562.8,268.2z"/>
						<g>
							<polygon class="st24" points="416.8,193.2 537.8,263 543.2,259.9 422.1,190.1 							"/>
							<polygon class="st24" points="403.6,200.8 517.1,266.3 522.5,263.2 408.9,197.7 							"/>
							<polygon class="st24" points="395,205.7 528.6,282.9 534,279.8 400.3,202.6 							"/>
							<polygon class="st24" points="386.4,210.7 520,287.9 525.4,284.8 391.8,207.6 							"/>
							<polygon class="st24" points="377.8,215.7 511.4,292.8 516.8,289.7 383.2,212.6 							"/>
							<polygon class="st24" points="545.1,267.3 550.5,270.4 555.9,267.3 550.5,264.2 							"/>
							<polygon class="st24" points="526.1,271.5 537.3,278 542.7,274.9 531.5,268.4 							"/>
						</g>
						
							<linearGradient id="SVGID_24_" gradientUnits="userSpaceOnUse" x1="-1363.4846" y1="266.0068" x2="-1292.6997" y2="266.0068" gradientTransform="matrix(-1 0 0 1 -913.2388 0)">
							<stop  offset="0" style="stop-color:#C0D6FF"/>
							<stop  offset="0.2978" style="stop-color:#C5DBFF"/>
							<stop  offset="0.6488" style="stop-color:#D3E9FF"/>
							<stop  offset="1" style="stop-color:#E9FFFF"/>
						</linearGradient>
						<path class="st32" d="M418.1,285.8l-37.6-21.7c-1.5-0.8-1.5-2.2,0-3.1l25.7-14.8c1.5-0.8,3.8-0.8,5.3,0l37.6,21.7
							c1.5,0.8,1.5,2.2,0,3.1l-25.7,14.8C422,286.7,419.6,286.7,418.1,285.8z"/>
						<path class="st31" d="M449.1,269.2l-37.6-21.7c-1.5-0.8-3.8-0.8-5.3,0l-25.7,14.8c-0.5,0.3-0.7,0.6-0.9,0.9
							c-0.4-0.7-0.1-1.6,0.9-2.2l25.7-14.8c1.5-0.8,3.8-0.8,5.3,0l37.6,21.7c1,0.6,1.3,1.4,0.9,2.2
							C449.9,269.7,449.6,269.4,449.1,269.2z"/>
					</g>
				</g>
				<g class="st33">
					<defs>
						<polygon id="SVGID_2_" class="st33" points="444.1,46.9 607.4,141.2 587.1,260.6 423.9,166.4 						"/>
					</defs>
					<clipPath id="SVGID_25_">
						<use xlink:href="#SVGID_2_"  style="overflow:visible;"/>
					</clipPath>
					<g class="st34">
						
							<linearGradient id="SVGID_26_" gradientUnits="userSpaceOnUse" x1="-1515.9673" y1="189.0155" x2="-1239.4331" y2="189.0155" gradientTransform="matrix(-1 0 0 1 -913.2388 0)">
							<stop  offset="0" style="stop-color:#C0D6FF"/>
							<stop  offset="0.2978" style="stop-color:#C5DBFF"/>
							<stop  offset="0.6488" style="stop-color:#D3E9FF"/>
							<stop  offset="1" style="stop-color:#E9FFFF"/>
						</linearGradient>
						<path class="st35" d="M420.6,171.2L588.3,268c1.8,1.1,4.6,1.2,6.2,0.3l100.1-57.8c1.6-0.9,1.4-2.5-0.4-3.6l-167.7-96.8
							c-1.8-1.1-4.6-1.2-6.2-0.3l-100.1,57.8C418.6,168.5,418.8,170.1,420.6,171.2z"/>
						
							<linearGradient id="SVGID_27_" gradientUnits="userSpaceOnUse" x1="-1534.1678" y1="168.7159" x2="-1463.3829" y2="168.7159" gradientTransform="matrix(-1 0 0 1 -913.2388 0)">
							<stop  offset="0" style="stop-color:#C0D6FF"/>
							<stop  offset="0.2978" style="stop-color:#C5DBFF"/>
							<stop  offset="0.6488" style="stop-color:#D3E9FF"/>
							<stop  offset="1" style="stop-color:#E9FFFF"/>
						</linearGradient>
						<path class="st36" d="M588.8,188.5l-37.6-21.7c-1.5-0.8-1.5-2.2,0-3.1l25.7-14.8c1.5-0.8,3.8-0.8,5.3,0l37.6,21.7
							c1.5,0.8,1.5,2.2,0,3.1l-25.7,14.8C592.7,189.4,590.3,189.4,588.8,188.5z"/>
						<path class="st31" d="M619.8,171.9l-37.6-21.7c-1.5-0.8-3.8-0.8-5.3,0L551.2,165c-0.5,0.3-0.7,0.6-0.9,0.9
							c-0.4-0.7-0.1-1.6,0.9-2.2l25.7-14.8c1.5-0.8,3.8-0.8,5.3,0l37.6,21.7c1,0.6,1.3,1.4,0.9,2.2
							C620.6,172.4,620.3,172.1,619.8,171.9z"/>
						<g>
							<path class="st30" d="M636.3,222.4L497,142c-0.9-0.5-2.1-0.5-3,0l-49.6,28.7c-0.7,0.4-0.7,1.4,0,1.9l139.3,80.4
								c0.9,0.5,2.1,0.5,3,0l49.7-28.7C637.1,223.9,637.1,222.8,636.3,222.4z"/>
							<path class="st31" d="M636.3,224.3l-0.5,0.3L497,144.4c-0.9-0.5-2.1-0.5-3,0l-49.1,28.4l-0.5-0.3c-0.7-0.4-0.7-1.4,0-1.9
								L494,142c0.9-0.5,2.1-0.5,3,0l139.3,80.4C637.1,222.8,637.1,223.9,636.3,224.3z"/>
							<g>
								<polygon class="st24" points="457.4,168.7 578.8,238.8 573.9,241.6 452.6,171.5 								"/>
								<polygon class="st24" points="470.2,161.3 585.5,227.9 580.7,230.7 465.3,164.1 								"/>
								<polygon class="st24" points="594.2,232.9 604.9,239.1 600.1,241.9 589.3,235.7 								"/>
								<polygon class="st24" points="584.6,242.2 592.1,246.5 587.3,249.3 579.8,245 								"/>
								<polygon class="st24" points="478.2,156.7 612.9,234.5 608.1,237.3 473.4,159.5 								"/>
								<polygon class="st24" points="486.2,152.1 621,229.9 616.1,232.7 481.4,154.9 								"/>
								<polygon class="st24" points="494.2,147.5 629,225.3 624.2,228 489.4,150.2 								"/>
							</g>
						</g>
					</g>
				</g>
			</g>
		</g>
		
			<radialGradient id="SVGID_28_" cx="-1422.6327" cy="224.6109" r="79.2766" gradientTransform="matrix(-1 0 0 1 -913.2388 0)" gradientUnits="userSpaceOnUse">
			<stop  offset="0" style="stop-color:#2B3AA5"/>
			<stop  offset="1" style="stop-color:#182484"/>
		</radialGradient>
		<polygon class="st37" points="498.3,259.2 534.4,236.9 453.2,190.1 414.9,215.8 		"/>
		
			<radialGradient id="SVGID_29_" cx="-1439.9713" cy="188.9477" r="60.6814" gradientTransform="matrix(-1 0 0 1 -913.2388 0)" gradientUnits="userSpaceOnUse">
			<stop  offset="0" style="stop-color:#2B3AA5"/>
			<stop  offset="1" style="stop-color:#182484"/>
		</radialGradient>
		<polygon class="st38" points="534.4,236.9 542.7,184.7 466.5,141 466.5,197.6 		"/>
		<g>
			<g>
				
					<linearGradient id="SVGID_30_" gradientUnits="userSpaceOnUse" x1="-1461.8185" y1="206.4659" x2="-1408.365" y2="110.215" gradientTransform="matrix(-1 0 0 1 -913.2388 0)">
					<stop  offset="0" style="stop-color:#5778FF"/>
					<stop  offset="3.979178e-02" style="stop-color:#5C7DFF"/>
					<stop  offset="8.669901e-02" style="stop-color:#6A8AFF"/>
					<stop  offset="0.1372" style="stop-color:#82A0FF"/>
					<stop  offset="0.1899" style="stop-color:#A3BEFF"/>
					<stop  offset="0.2237" style="stop-color:#BCD5FF"/>
				</linearGradient>
				<path class="st39" d="M458.5,115.6l8.1-4.6l0,0c0.1-0.1,0.2-0.1,0.4,0l101,58.3c0.3,0.2,0.6,0.7,0.6,1.1v19.1
					c0,0.2-0.1,0.4-0.2,0.4l0,0l0,0c0,0,0,0,0,0l-8.1,4.7l-0.1-9.2l-93.2-53.8c-0.3-0.2-0.6-0.7-0.6-1.1v-6.5L458.5,115.6z"/>
				
					<linearGradient id="SVGID_31_" gradientUnits="userSpaceOnUse" x1="-1396.1512" y1="206.8073" x2="-1431.73" y2="137.2549" gradientTransform="matrix(-1 0 0 1 -913.2388 0)">
					<stop  offset="0" style="stop-color:#C0D6FF"/>
					<stop  offset="0.2978" style="stop-color:#C5DBFF"/>
					<stop  offset="0.6488" style="stop-color:#D3E9FF"/>
					<stop  offset="1" style="stop-color:#E9FFFF"/>
				</linearGradient>
				<path class="st40" d="M458.8,136.3l101,58.3c0.3,0.2,0.6,0,0.6-0.5v-19.1c0-0.4-0.3-1-0.6-1.1l-101-58.3c-0.3-0.2-0.6,0-0.6,0.5
					v19.1C458.2,135.6,458.5,136.1,458.8,136.3z"/>
				<path class="st41" d="M472.8,132.4l78.7,46.3c-2.4,2.1-4.7,4.5-6.8,7.1L465.4,140C467.6,137.2,470.1,134.6,472.8,132.4z"/>
				<path class="st24" d="M461.7,130.5l95.3,55c0.2,0.1,0.4,0,0.4-0.3v-4.8c0-0.3-0.2-0.6-0.4-0.8l-95.3-55c-0.2-0.1-0.4,0-0.4,0.3
					v4.8C461.3,130.1,461.5,130.4,461.7,130.5z"/>
				<path class="st26" d="M461.7,124.7l1.9,1.1v2.6c0,0.3,0.2,0.6,0.4,0.8l93.3,53.9v2.2c0,0.3-0.2,0.4-0.4,0.3l-95.3-55
					c-0.2-0.1-0.4-0.5-0.4-0.8V125C461.3,124.7,461.5,124.5,461.7,124.7z"/>
			</g>
			
				<linearGradient id="SVGID_32_" gradientUnits="userSpaceOnUse" x1="-1299.9871" y1="331.831" x2="-1413.0641" y2="131.469" gradientTransform="matrix(-1 0 0 1 -913.2388 0)">
				<stop  offset="0" style="stop-color:#C0D6FF"/>
				<stop  offset="7.816905e-02" style="stop-color:#C3D9FF"/>
				<stop  offset="0.1341" style="stop-color:#CCE2FF"/>
				<stop  offset="0.1829" style="stop-color:#DCF2FF"/>
				<stop  offset="0.2117" style="stop-color:#E9FFFF"/>
				<stop  offset="0.256" style="stop-color:#D8EEFF"/>
				<stop  offset="0.3145" style="stop-color:#CBE1FF"/>
				<stop  offset="0.3869" style="stop-color:#C2D8FF"/>
				<stop  offset="0.5143" style="stop-color:#C0D6FF"/>
				<stop  offset="0.6239" style="stop-color:#D0E6FF"/>
				<stop  offset="0.755" style="stop-color:#E9FFFF"/>
				<stop  offset="1" style="stop-color:#C0D6FF"/>
			</linearGradient>
			<path class="st42" d="M408.2,336.9l-79.3-45.8l0,0c10.2-5.9,18.8-18.8,21.5-31.2c1.1-5,4.1-9.4,8.6-11.9l59.9-34.6
				c16.7-9.6,27.5-27,28.6-46.2c1-16.2,13.2-32.2,22.8-37.7h0l79.3,45.8h0c-9.4,5.4-19.7,20.6-20.9,36.5
				c-1.4,19.2-11.9,36.6-28.6,46.3l-61.8,35.7c-4.4,2.6-7.5,6.9-8.6,11.9C427,318.1,418.4,331,408.2,336.9L408.2,336.9z"/>
			<path class="st43" d="M470.3,129.6l79.3,45.8c-0.6,0.4-1.3,0.8-1.9,1.2l0,0l-79.2-45.8C469,130.4,469.6,130,470.3,129.6z"/>
		</g>
	</g>
	<g>
		<g>
			<g>
				
					<linearGradient id="SVGID_33_" gradientUnits="userSpaceOnUse" x1="2448.0042" y1="199.7581" x2="2473.1433" y2="199.7581" gradientTransform="matrix(-1 0 0 1 2867.6372 0)">
					<stop  offset="0" style="stop-color:#C0D6FF"/>
					<stop  offset="0.4983" style="stop-color:#D2E8FF"/>
					<stop  offset="1" style="stop-color:#E9FFFF"/>
				</linearGradient>
				<path class="st44" d="M394.3,169.1h25.3v54l0,0c0,1.9-1.2,3.7-3.7,5.2c-4.9,2.9-12.9,2.9-17.9,0c-2.5-1.4-3.7-3.3-3.7-5.2l0,0
					V169.1z"/>
				
					<linearGradient id="SVGID_34_" gradientUnits="userSpaceOnUse" x1="2419.8308" y1="199.7581" x2="2468.4116" y2="199.7581" gradientTransform="matrix(-1 0 0 1 2867.6372 0)">
					<stop  offset="0" style="stop-color:#5778FF"/>
					<stop  offset="0.1779" style="stop-color:#5C7DFF"/>
					<stop  offset="0.3876" style="stop-color:#6A8AFF"/>
					<stop  offset="0.6134" style="stop-color:#82A0FF"/>
					<stop  offset="0.849" style="stop-color:#A3BEFF"/>
					<stop  offset="1" style="stop-color:#BCD5FF"/>
				</linearGradient>
				<path class="st45" d="M394.3,169.1h25.3v54l0,0c0,1.9-1.2,3.7-3.7,5.2c-4.9,2.9-12.9,2.9-17.9,0c-2.5-1.4-3.7-3.3-3.7-5.2l0,0
					V169.1z"/>
				
					<linearGradient id="SVGID_35_" gradientUnits="userSpaceOnUse" x1="1129.0458" y1="-769.7421" x2="1149.6904" y2="-769.7421" gradientTransform="matrix(-0.866 0.5 0.866 0.5 2060.281 -15.7043)">
					<stop  offset="0" style="stop-color:#C0D6FF"/>
					<stop  offset="0.2978" style="stop-color:#C5DBFF"/>
					<stop  offset="0.6488" style="stop-color:#D3E9FF"/>
					<stop  offset="1" style="stop-color:#E9FFFF"/>
				</linearGradient>
				<path class="st46" d="M398.1,174.3c4.9,2.9,12.9,2.9,17.9,0c4.9-2.9,4.9-7.5,0-10.3c-4.9-2.9-12.9-2.9-17.9,0
					C393.1,166.8,393.1,171.4,398.1,174.3z"/>
				
					<linearGradient id="SVGID_36_" gradientUnits="userSpaceOnUse" x1="1132.7045" y1="-769.7422" x2="1146.0317" y2="-769.7422" gradientTransform="matrix(-0.866 0.5 0.866 0.5 2060.281 -15.7043)">
					<stop  offset="0" style="stop-color:#5778FF"/>
					<stop  offset="0.1779" style="stop-color:#5C7DFF"/>
					<stop  offset="0.3876" style="stop-color:#6A8AFF"/>
					<stop  offset="0.6134" style="stop-color:#82A0FF"/>
					<stop  offset="0.849" style="stop-color:#A3BEFF"/>
					<stop  offset="1" style="stop-color:#BCD5FF"/>
				</linearGradient>
				<path class="st47" d="M401.2,172.4c3.2,1.8,8.4,1.8,11.5,0c3.2-1.8,3.2-4.8,0-6.7c-3.2-1.8-8.4-1.8-11.5,0
					C398,167.6,398,170.6,401.2,172.4z"/>
				<path class="st48" d="M398.1,173.7c4.9,2.9,12.9,2.9,17.9,0c2.3-1.4,3.6-3.1,3.7-4.9c0.1,2-1.1,3.9-3.7,5.4
					c-4.9,2.9-12.9,2.9-17.9,0c-2.6-1.5-3.8-3.5-3.7-5.4C394.5,170.6,395.7,172.4,398.1,173.7z"/>
			</g>
			<g>
				
					<linearGradient id="SVGID_37_" gradientUnits="userSpaceOnUse" x1="2448.0042" y1="163.4912" x2="2473.1433" y2="163.4912" gradientTransform="matrix(-1 0 0 1 2867.6372 0)">
					<stop  offset="0" style="stop-color:#C0D6FF"/>
					<stop  offset="0.4983" style="stop-color:#D2E8FF"/>
					<stop  offset="1" style="stop-color:#E9FFFF"/>
				</linearGradient>
				<path class="st49" d="M394.3,157.4h25.3v4.9l0,0c0,1.9-1.2,3.7-3.7,5.2c-4.9,2.9-12.9,2.9-17.9,0c-2.5-1.4-3.7-3.3-3.7-5.2l0,0
					V157.4z"/>
				
					<linearGradient id="SVGID_38_" gradientUnits="userSpaceOnUse" x1="2419.8308" y1="163.4912" x2="2468.4116" y2="163.4912" gradientTransform="matrix(-1 0 0 1 2867.6372 0)">
					<stop  offset="0" style="stop-color:#5778FF"/>
					<stop  offset="0.1779" style="stop-color:#5C7DFF"/>
					<stop  offset="0.3876" style="stop-color:#6A8AFF"/>
					<stop  offset="0.6134" style="stop-color:#82A0FF"/>
					<stop  offset="0.849" style="stop-color:#A3BEFF"/>
					<stop  offset="1" style="stop-color:#BCD5FF"/>
				</linearGradient>
				<path class="st50" d="M394.3,157.4h25.3v4.9l0,0c0,1.9-1.2,3.7-3.7,5.2c-4.9,2.9-12.9,2.9-17.9,0c-2.5-1.4-3.7-3.3-3.7-5.2l0,0
					V157.4z"/>
				
					<linearGradient id="SVGID_39_" gradientUnits="userSpaceOnUse" x1="1117.313" y1="-781.475" x2="1137.9576" y2="-781.475" gradientTransform="matrix(-0.866 0.5 0.866 0.5 2060.281 -15.7043)">
					<stop  offset="0" style="stop-color:#C0D6FF"/>
					<stop  offset="0.2978" style="stop-color:#C5DBFF"/>
					<stop  offset="0.6488" style="stop-color:#D3E9FF"/>
					<stop  offset="1" style="stop-color:#E9FFFF"/>
				</linearGradient>
				<path class="st51" d="M398.1,162.5c4.9,2.9,12.9,2.9,17.9,0c4.9-2.9,4.9-7.5,0-10.3c-4.9-2.9-12.9-2.9-17.9,0
					C393.1,155.1,393.1,159.7,398.1,162.5z"/>
				<path class="st48" d="M398.1,162c4.9,2.9,12.9,2.9,17.9,0c2.3-1.4,3.6-3.1,3.7-4.9c0.1,2-1.1,3.9-3.7,5.4
					c-4.9,2.9-12.9,2.9-17.9,0c-2.6-1.5-3.8-3.5-3.7-5.4C394.5,158.9,395.7,160.6,398.1,162z"/>
			</g>
			<g>
				
					<linearGradient id="SVGID_40_" gradientUnits="userSpaceOnUse" x1="2427.0999" y1="220.8122" x2="2452.2393" y2="220.8122" gradientTransform="matrix(-1 0 0 1 2867.6372 0)">
					<stop  offset="0" style="stop-color:#C0D6FF"/>
					<stop  offset="0.4983" style="stop-color:#D2E8FF"/>
					<stop  offset="1" style="stop-color:#E9FFFF"/>
				</linearGradient>
				<path class="st52" d="M415.3,199.2h25.3v36l0,0c0,1.9-1.2,3.7-3.7,5.2c-4.9,2.9-12.9,2.9-17.9,0c-2.5-1.4-3.7-3.3-3.7-5.2l0,0
					V199.2z"/>
				
					<linearGradient id="SVGID_41_" gradientUnits="userSpaceOnUse" x1="2398.9268" y1="220.8122" x2="2447.5076" y2="220.8122" gradientTransform="matrix(-1 0 0 1 2867.6372 0)">
					<stop  offset="0" style="stop-color:#5778FF"/>
					<stop  offset="0.1779" style="stop-color:#5C7DFF"/>
					<stop  offset="0.3876" style="stop-color:#6A8AFF"/>
					<stop  offset="0.6134" style="stop-color:#82A0FF"/>
					<stop  offset="0.849" style="stop-color:#A3BEFF"/>
					<stop  offset="1" style="stop-color:#BCD5FF"/>
				</linearGradient>
				<path class="st53" d="M415.3,199.2h25.3v36l0,0c0,1.9-1.2,3.7-3.7,5.2c-4.9,2.9-12.9,2.9-17.9,0c-2.5-1.4-3.7-3.3-3.7-5.2l0,0
					V199.2z"/>
				
					<linearGradient id="SVGID_42_" gradientUnits="userSpaceOnUse" x1="1147.03" y1="-727.6194" x2="1167.6746" y2="-727.6194" gradientTransform="matrix(-0.866 0.5 0.866 0.5 2060.281 -15.7043)">
					<stop  offset="0" style="stop-color:#C0D6FF"/>
					<stop  offset="0.2978" style="stop-color:#C5DBFF"/>
					<stop  offset="0.6488" style="stop-color:#D3E9FF"/>
					<stop  offset="1" style="stop-color:#E9FFFF"/>
				</linearGradient>
				<path class="st54" d="M419,204.3c4.9,2.9,12.9,2.9,17.9,0c4.9-2.9,4.9-7.5,0-10.3c-4.9-2.9-12.9-2.9-17.9,0
					C414,196.9,414,201.5,419,204.3z"/>
				<path class="st48" d="M419,203.8c4.9,2.9,12.9,2.9,17.9,0c2.3-1.4,3.6-3.1,3.7-4.9c0.1,2-1.1,3.9-3.7,5.4
					c-4.9,2.9-12.9,2.9-17.9,0c-2.6-1.5-3.8-3.5-3.7-5.4C415.4,200.7,416.6,202.4,419,203.8z"/>
			</g>
			<g>
				
					<linearGradient id="SVGID_43_" gradientUnits="userSpaceOnUse" x1="2406.1958" y1="223.6491" x2="2431.3352" y2="223.6491" gradientTransform="matrix(-1 0 0 1 2867.6372 0)">
					<stop  offset="0" style="stop-color:#C0D6FF"/>
					<stop  offset="0.4983" style="stop-color:#D2E8FF"/>
					<stop  offset="1" style="stop-color:#E9FFFF"/>
				</linearGradient>
				<path class="st55" d="M436.2,192.8h25.3v54.4l0,0c0,1.9-1.2,3.7-3.7,5.2c-4.9,2.9-12.9,2.9-17.9,0c-2.5-1.4-3.7-3.3-3.7-5.2l0,0
					V192.8z"/>
				
					<linearGradient id="SVGID_44_" gradientUnits="userSpaceOnUse" x1="2378.0227" y1="223.6491" x2="2426.6035" y2="223.6491" gradientTransform="matrix(-1 0 0 1 2867.6372 0)">
					<stop  offset="0" style="stop-color:#5778FF"/>
					<stop  offset="0.1779" style="stop-color:#5C7DFF"/>
					<stop  offset="0.3876" style="stop-color:#6A8AFF"/>
					<stop  offset="0.6134" style="stop-color:#82A0FF"/>
					<stop  offset="0.849" style="stop-color:#A3BEFF"/>
					<stop  offset="1" style="stop-color:#BCD5FF"/>
				</linearGradient>
				<path class="st56" d="M436.2,192.8h25.3v54.4l0,0c0,1.9-1.2,3.7-3.7,5.2c-4.9,2.9-12.9,2.9-17.9,0c-2.5-1.4-3.7-3.3-3.7-5.2l0,0
					V192.8z"/>
				
					<linearGradient id="SVGID_45_" gradientUnits="userSpaceOnUse" x1="1128.5796" y1="-721.9312" x2="1149.2241" y2="-721.9312" gradientTransform="matrix(-0.866 0.5 0.866 0.5 2060.281 -15.7043)">
					<stop  offset="0" style="stop-color:#C0D6FF"/>
					<stop  offset="0.2978" style="stop-color:#C5DBFF"/>
					<stop  offset="0.6488" style="stop-color:#D3E9FF"/>
					<stop  offset="1" style="stop-color:#E9FFFF"/>
				</linearGradient>
				<path class="st57" d="M439.9,197.9c4.9,2.9,12.9,2.9,17.9,0c4.9-2.9,4.9-7.5,0-10.3c-4.9-2.9-12.9-2.9-17.9,0
					S434.9,195.1,439.9,197.9z"/>
				<path class="st48" d="M439.9,197.4c4.9,2.9,12.9,2.9,17.9,0c2.3-1.4,3.6-3.1,3.7-4.9c0.1,2-1.1,3.9-3.7,5.4
					c-4.9,2.9-12.9,2.9-17.9,0c-2.6-1.5-3.8-3.5-3.7-5.4C436.3,194.3,437.5,196,439.9,197.4z"/>
			</g>
			<g>
				
					<linearGradient id="SVGID_46_" gradientUnits="userSpaceOnUse" x1="2385.2917" y1="240.6109" x2="2410.4312" y2="240.6109" gradientTransform="matrix(-1 0 0 1 2867.6372 0)">
					<stop  offset="0" style="stop-color:#C0D6FF"/>
					<stop  offset="0.4983" style="stop-color:#D2E8FF"/>
					<stop  offset="1" style="stop-color:#E9FFFF"/>
				</linearGradient>
				<path class="st58" d="M457.1,214.6h25.3v44.6l0,0c0,1.9-1.2,3.7-3.7,5.2c-4.9,2.9-12.9,2.9-17.9,0c-2.5-1.4-3.7-3.3-3.7-5.2l0,0
					V214.6z"/>
				
					<linearGradient id="SVGID_47_" gradientUnits="userSpaceOnUse" x1="2357.1184" y1="240.6109" x2="2405.6995" y2="240.6109" gradientTransform="matrix(-1 0 0 1 2867.6372 0)">
					<stop  offset="0" style="stop-color:#5778FF"/>
					<stop  offset="0.1779" style="stop-color:#5C7DFF"/>
					<stop  offset="0.3876" style="stop-color:#6A8AFF"/>
					<stop  offset="0.6134" style="stop-color:#82A0FF"/>
					<stop  offset="0.849" style="stop-color:#A3BEFF"/>
					<stop  offset="1" style="stop-color:#BCD5FF"/>
				</linearGradient>
				<path class="st59" d="M457.1,214.6h25.3v44.6l0,0c0,1.9-1.2,3.7-3.7,5.2c-4.9,2.9-12.9,2.9-17.9,0c-2.5-1.4-3.7-3.3-3.7-5.2l0,0
					V214.6z"/>
				
					<linearGradient id="SVGID_48_" gradientUnits="userSpaceOnUse" x1="1138.379" y1="-687.993" x2="1159.0236" y2="-687.993" gradientTransform="matrix(-0.866 0.5 0.866 0.5 2060.281 -15.7043)">
					<stop  offset="0" style="stop-color:#C0D6FF"/>
					<stop  offset="0.2978" style="stop-color:#C5DBFF"/>
					<stop  offset="0.6488" style="stop-color:#D3E9FF"/>
					<stop  offset="1" style="stop-color:#E9FFFF"/>
				</linearGradient>
				<path class="st60" d="M460.8,219.8c4.9,2.9,12.9,2.9,17.9,0c4.9-2.9,4.9-7.5,0-10.3c-4.9-2.9-12.9-2.9-17.9,0
					C455.8,212.3,455.8,217,460.8,219.8z"/>
				<path class="st48" d="M460.8,219.3c4.9,2.9,12.9,2.9,17.9,0c2.3-1.4,3.6-3.1,3.7-4.9c0.1,2-1.1,3.9-3.7,5.4
					c-4.9,2.9-12.9,2.9-17.9,0c-2.6-1.5-3.8-3.5-3.7-5.4C457.2,216.2,458.4,217.9,460.8,219.3z"/>
			</g>
			<g>
				
					<linearGradient id="SVGID_49_" gradientUnits="userSpaceOnUse" x1="2364.3877" y1="258.1665" x2="2389.5269" y2="258.1665" gradientTransform="matrix(-1 0 0 1 2867.6372 0)">
					<stop  offset="0" style="stop-color:#C0D6FF"/>
					<stop  offset="0.4983" style="stop-color:#D2E8FF"/>
					<stop  offset="1" style="stop-color:#E9FFFF"/>
				</linearGradient>
				<path class="st61" d="M478,237.7h25.3v33.6l0,0c0,1.9-1.2,3.7-3.7,5.2c-4.9,2.9-12.9,2.9-17.9,0c-2.5-1.4-3.7-3.3-3.7-5.2l0,0
					V237.7z"/>
				
					<linearGradient id="SVGID_50_" gradientUnits="userSpaceOnUse" x1="2336.2144" y1="258.1665" x2="2384.7954" y2="258.1665" gradientTransform="matrix(-1 0 0 1 2867.6372 0)">
					<stop  offset="0" style="stop-color:#5778FF"/>
					<stop  offset="0.1779" style="stop-color:#5C7DFF"/>
					<stop  offset="0.3876" style="stop-color:#6A8AFF"/>
					<stop  offset="0.6134" style="stop-color:#82A0FF"/>
					<stop  offset="0.849" style="stop-color:#A3BEFF"/>
					<stop  offset="1" style="stop-color:#BCD5FF"/>
				</linearGradient>
				<path class="st62" d="M478,237.7h25.3v33.6l0,0c0,1.9-1.2,3.7-3.7,5.2c-4.9,2.9-12.9,2.9-17.9,0c-2.5-1.4-3.7-3.3-3.7-5.2l0,0
					V237.7z"/>
				
					<linearGradient id="SVGID_51_" gradientUnits="userSpaceOnUse" x1="1149.366" y1="-652.8674" x2="1170.0105" y2="-652.8674" gradientTransform="matrix(-0.866 0.5 0.866 0.5 2060.281 -15.7043)">
					<stop  offset="0" style="stop-color:#C0D6FF"/>
					<stop  offset="0.2978" style="stop-color:#C5DBFF"/>
					<stop  offset="0.6488" style="stop-color:#D3E9FF"/>
					<stop  offset="1" style="stop-color:#E9FFFF"/>
				</linearGradient>
				<path class="st63" d="M481.7,242.9c4.9,2.9,12.9,2.9,17.9,0c4.9-2.9,4.9-7.5,0-10.3c-4.9-2.9-12.9-2.9-17.9,0
					C476.7,235.4,476.7,240,481.7,242.9z"/>
				<path class="st48" d="M481.7,242.3c4.9,2.9,12.9,2.9,17.9,0c2.3-1.4,3.6-3.1,3.7-4.9c0.1,2-1.1,3.9-3.7,5.4
					c-4.9,2.9-12.9,2.9-17.9,0c-2.6-1.5-3.8-3.5-3.7-5.4C478.1,239.2,479.3,241,481.7,242.3z"/>
			</g>
		</g>
	</g>
	<g>
		<polygon class="st64" points="591.8,147.1 594.3,148.6 594.6,146.8 592.1,145.3 		"/>
		<polygon class="st64" points="589.9,159.3 592.3,160.8 594,150.3 591.6,148.7 		"/>
		<polygon class="st64" points="588.9,165.1 591.4,166.7 592.1,162.5 589.6,160.9 		"/>
		<polygon class="st64" points="588,171.2 590.4,172.7 591.1,168.5 588.7,167 		"/>
		<polygon class="st64" points="587.3,150.6 589.7,152.1 590.4,148 587.9,146.4 		"/>
		<polygon class="st64" points="586,158.6 588.4,160.2 589.4,154 587,152.4 		"/>
		<polygon class="st64" points="584.8,166 587.2,167.5 588.1,162.2 585.6,160.7 		"/>
		<polygon class="st64" points="587,177.2 589.5,178.8 590.1,174.6 587.7,173 		"/>
		<polygon class="st64" points="588.2,144.8 590.6,146.3 590.9,144.5 588.5,143 		"/>
	</g>
	<polygon class="st64" points="584.2,181.9 588.5,184.6 588.8,182.9 584.5,180.2 	"/>
</g>
<path class="st65" d="M413.1,160.6c-3.4,1.9-8.8,1.9-12.2,0c-3.4-1.9-3.4-5.1,0-7c3.4-1.9,8.8-1.9,12.2,0
	C416.4,155.5,416.4,158.7,413.1,160.6z"/>
<g>
	<g>
		<g>
			<polygon class="st66" points="390.9,150.4 388.7,145.2 389.5,145 390.7,146.3 			"/>
		</g>
		<g>
			<path class="st67" d="M425.8,135.4l-2.2-5.1c0,0-0.7,5.8-0.6,5.9C423,136.2,425.8,135.4,425.8,135.4z"/>
		</g>
		<g>
			<g>
				
					<ellipse transform="matrix(0.9216 -0.3881 0.3881 0.9216 -21.6432 168.4245)" class="st67" cx="406.2" cy="137.8" rx="19" ry="15.7"/>
			</g>
			<g>
				
					<ellipse transform="matrix(0.9216 -0.3881 0.3881 0.9216 -23.4847 169.6779)" class="st67" cx="408.4" cy="143" rx="19" ry="15.7"/>
			</g>
			<g>
				<path class="st66" d="M391.6,138.1c-2,3.9-2.4,8.3-0.7,12.3c3.4,8,13.9,11.2,23.6,7.1c4.8-2,8.4-5.4,10.5-9.3L391.6,138.1z"/>
			</g>
			<g>
				
					<ellipse transform="matrix(0.9216 -0.3881 0.3881 0.9216 -23.4846 169.679)" class="st68" cx="408.4" cy="143" rx="18.1" ry="15"/>
			</g>
			<g>
				
					<ellipse transform="matrix(0.9216 -0.3881 0.3881 0.9216 -23.4847 169.6779)" class="st69" cx="408.4" cy="143" rx="14.6" ry="12.1"/>
			</g>
			<g>
				<path class="st67" d="M421.8,137.3c-0.1-0.3-0.2-0.5-0.4-0.7c2,6-1.9,13-9,16c-7.1,3-14.8,0.9-17.8-4.7c0.1,0.3,0.2,0.5,0.3,0.8
					c2.6,6.1,10.7,8.6,18.1,5.5C420.5,151,424.4,143.5,421.8,137.3z"/>
			</g>
			<g>
				<g>
					<path class="st67" d="M411.3,142.8l-3.8-1.1c-2.4,1.7-6.8,5-10.3,7.6c2.2,2.3,5.6,3.5,9.2,3.3L411.3,142.8z"/>
				</g>
				<g>
					<path class="st67" d="M410.3,151.8c0.5-0.1,0.9-0.3,1.4-0.5c3.2-1.4,5.7-3.7,7.2-6.3l-6.2-1.9L410.3,151.8z"/>
				</g>
				<g>
					<path class="st67" d="M403.5,140.4l-7.1-2.2c-1.1,2.2-1.9,4.4-1.4,6.7L403.5,140.4z"/>
				</g>
			</g>
			<g>
				<path class="st66" d="M403.6,133.5c7.4-3.1,15.5-0.7,18.1,5.5c0.5,1.2,0.8,2.5,0.8,3.9c0.3-1.8,0.1-3.7-0.7-5.5
					c-2.6-6.1-10.7-8.6-18.1-5.5c-5.9,2.5-9.6,7.8-9.5,12.9C394.8,140.2,398.3,135.7,403.6,133.5z"/>
			</g>
		</g>
		<g>
			<path class="st66" d="M388.7,145.2c0.5,1.2,1.2,2.3,2,3.2c-0.1-1.3-0.4-3.3-0.4-3.3l0.1-3.4l0.7-1.3l1.3-2.1l-2.6-6.1
				C387.5,136.3,386.9,141,388.7,145.2z"/>
		</g>
	</g>
	<g>
		<g>
			<path class="st66" d="M422.9,131.8l-1.2-2.9c0-0.1,0-0.3,0.1-0.3l0.1,0c0.1,0,0.3,0,0.3,0.1l1.2,2.9c0,0.1,0,0.3-0.1,0.3l-0.1,0
				C423.1,132,423,131.9,422.9,131.8z"/>
		</g>
		<g>
			<path class="st66" d="M420,129.3l-1.5-3.5c-0.1-0.1,0-0.3,0.1-0.3l0.2-0.1c0.1-0.1,0.3,0,0.3,0.1l1.5,3.5c0.1,0.1,0,0.3-0.1,0.3
				l-0.2,0.1C420.2,129.5,420.1,129.5,420,129.3z"/>
		</g>
		<g>
			<path class="st66" d="M416.7,127.6l-1.5-3.5c-0.1-0.2,0-0.3,0.2-0.4l0.3-0.1c0.2-0.1,0.3,0,0.4,0.2l1.5,3.5
				c0.1,0.2,0,0.3-0.2,0.4l-0.3,0.1C416.9,127.8,416.7,127.7,416.7,127.6z"/>
		</g>
		<g>
			<path class="st66" d="M412.5,126.8l-1.6-3.8c-0.1-0.2,0-0.3,0.2-0.4l0.3-0.1c0.2-0.1,0.3,0,0.4,0.2l1.6,3.8
				c0.1,0.2,0,0.3-0.2,0.4l-0.3,0.1C412.8,127,412.6,126.9,412.5,126.8z"/>
		</g>
		<g>
			<path class="st66" d="M408.7,126.7l-1.7-4.1c-0.1-0.2,0-0.3,0.2-0.4l0.3-0.1c0.2-0.1,0.3,0,0.4,0.2l1.7,4.1
				c0.1,0.2,0,0.3-0.2,0.4l-0.3,0.1C408.9,127,408.7,126.9,408.7,126.7z"/>
		</g>
		<g>
			<path class="st66" d="M405.1,127.3l-1.7-4c-0.1-0.2,0-0.3,0.2-0.4l0.3-0.1c0.2-0.1,0.3,0,0.4,0.2l1.7,4c0.1,0.2,0,0.3-0.2,0.4
				l-0.3,0.1C405.3,127.5,405.2,127.4,405.1,127.3z"/>
		</g>
		<g>
			<path class="st66" d="M401.7,128.4l-1.7-4c-0.1-0.2,0-0.3,0.2-0.4l0.3-0.1c0.2-0.1,0.3,0,0.4,0.2l1.7,4c0.1,0.2,0,0.3-0.2,0.4
				l-0.3,0.1C402,128.6,401.8,128.6,401.7,128.4z"/>
		</g>
		<g>
			<path class="st66" d="M398.6,129.9l-1.6-3.9c-0.1-0.2,0-0.3,0.2-0.4l0.3-0.1c0.2-0.1,0.3,0,0.4,0.2l1.6,3.9
				c0.1,0.2,0,0.3-0.2,0.4l-0.3,0.1C398.8,130.2,398.6,130.1,398.6,129.9z"/>
		</g>
		<g>
			<path class="st66" d="M395.6,132l-1.6-3.8c-0.1-0.2,0-0.3,0.2-0.4l0.3-0.1c0.2-0.1,0.3,0,0.4,0.2l1.6,3.8c0.1,0.2,0,0.3-0.2,0.4
				l-0.3,0.1C395.9,132.3,395.7,132.2,395.6,132z"/>
		</g>
		<g>
			<path class="st66" d="M393,135l-1.7-4c-0.1-0.2,0-0.3,0.2-0.4l0.3-0.1c0.2-0.1,0.3,0,0.4,0.2l1.7,4c0.1,0.2,0,0.3-0.2,0.4
				l-0.3,0.1C393.3,135.2,393.1,135.1,393,135z"/>
		</g>
	</g>
</g>
<path class="st65" d="M454.9,195.7c-3.4,1.9-8.8,1.9-12.2,0c-3.4-1.9-3.4-5.1,0-7c3.4-1.9,8.8-1.9,12.2,0
	C458.3,190.6,458.3,193.7,454.9,195.7z"/>
<g>
	<g>
		<g>
			<polygon class="st66" points="441.3,192 436.5,189 437.2,188.4 438.9,188.8 			"/>
		</g>
		<g>
			<path class="st67" d="M461.5,159.9l-4.7-3c0,0,2.8,5.2,2.8,5.2S461.5,159.9,461.5,159.9z"/>
		</g>
		<g>
			<g>
				
					<ellipse transform="matrix(0.5381 -0.8429 0.8429 0.5381 60.5672 456.4225)" class="st67" cx="446.7" cy="172.9" rx="19" ry="15.7"/>
			</g>
			<g>
				
					<ellipse transform="matrix(0.5381 -0.8429 0.8429 0.5381 60.2047 461.8175)" class="st67" cx="451.5" cy="176" rx="19" ry="15.7"/>
			</g>
			<g>
				<path class="st66" d="M434.9,181.4c0.6,4.4,2.7,8.2,6.4,10.5c7.3,4.7,17.8,1.3,23.5-7.5c2.8-4.4,3.9-9.3,3.4-13.7L434.9,181.4z"
					/>
			</g>
			<g>
				
					<ellipse transform="matrix(0.5381 -0.8429 0.8429 0.5381 60.2045 461.8172)" class="st68" cx="451.5" cy="176" rx="18.1" ry="15"/>
			</g>
			<g>
				
					<ellipse transform="matrix(0.5381 -0.8429 0.8429 0.5381 60.2066 461.82)" class="st69" cx="451.5" cy="176" rx="14.6" ry="12.1"/>
			</g>
			<g>
				<path class="st67" d="M459.3,163.7c-0.2-0.1-0.5-0.3-0.7-0.4c5,3.8,5.8,11.8,1.7,18.3c-4.1,6.5-11.7,9.1-17.3,6.2
					c0.2,0.2,0.4,0.3,0.7,0.5c5.6,3.6,13.7,1,18-5.8C466,175.7,464.9,167.3,459.3,163.7z"/>
			</g>
			<g>
				<g>
					<path class="st67" d="M453.8,174.1l-3.8,1.2c-1,2.8-2.8,7.9-4.2,12.1c3.1,0.6,6.6-0.3,9.5-2.5L453.8,174.1z"/>
				</g>
				<g>
					<path class="st67" d="M458.1,182.2c0.3-0.4,0.6-0.8,0.8-1.2c1.9-3,2.6-6.3,2.3-9.3l-6.2,2L458.1,182.2z"/>
				</g>
				<g>
					<path class="st67" d="M446,176.6l-7.1,2.3c0.3,2.4,0.9,4.7,2.7,6.3L446,176.6z"/>
				</g>
			</g>
			<g>
				<path class="st66" d="M442.2,170.9c4.3-6.8,12.4-9.4,18-5.8c1.1,0.7,2.1,1.7,2.8,2.7c-0.8-1.7-2.1-3.1-3.7-4.1
					c-5.6-3.6-13.7-1-18,5.8c-3.5,5.4-3.5,11.8-0.5,16C438.7,181.4,439.1,175.7,442.2,170.9z"/>
			</g>
		</g>
		<g>
			<path class="st66" d="M436.5,189c1.1,0.7,2.3,1.2,3.5,1.6c-0.9-1-2.2-2.5-2.2-2.5l-1.8-2.8l-0.2-1.5l-0.1-2.5l-5.6-3.6
				C430.5,182.3,432.7,186.5,436.5,189z"/>
		</g>
	</g>
	<g>
		<g>
			<path class="st66" d="M457.1,158.5l-2.6-1.7c-0.1-0.1-0.1-0.2-0.1-0.3l0-0.1c0.1-0.1,0.2-0.1,0.3-0.1l2.6,1.7
				c0.1,0.1,0.1,0.2,0.1,0.3l0,0.1C457.4,158.5,457.2,158.5,457.1,158.5z"/>
		</g>
		<g>
			<path class="st66" d="M453.3,158.1l-3.2-2.1c-0.1-0.1-0.2-0.2-0.1-0.4l0.1-0.1c0.1-0.1,0.2-0.2,0.4-0.1l3.2,2.1
				c0.1,0.1,0.2,0.2,0.1,0.4l-0.1,0.1C453.6,158.2,453.4,158.2,453.3,158.1z"/>
		</g>
		<g>
			<path class="st66" d="M449.6,158.6l-3.2-2c-0.1-0.1-0.2-0.3-0.1-0.4l0.2-0.2c0.1-0.1,0.3-0.2,0.4-0.1l3.2,2
				c0.1,0.1,0.2,0.3,0.1,0.4l-0.2,0.2C449.9,158.6,449.7,158.6,449.6,158.6z"/>
		</g>
		<g>
			<path class="st66" d="M445.7,160.3l-3.5-2.2c-0.1-0.1-0.2-0.3-0.1-0.4l0.2-0.2c0.1-0.1,0.3-0.2,0.4-0.1l3.5,2.2
				c0.1,0.1,0.2,0.3,0.1,0.4l-0.2,0.2C446,160.3,445.8,160.4,445.7,160.3z"/>
		</g>
		<g>
			<path class="st66" d="M442.5,162.4l-3.7-2.4c-0.1-0.1-0.2-0.3-0.1-0.4l0.2-0.2c0.1-0.1,0.3-0.2,0.4-0.1l3.7,2.4
				c0.1,0.1,0.2,0.3,0.1,0.4l-0.2,0.2C442.9,162.5,442.7,162.5,442.5,162.4z"/>
		</g>
		<g>
			<path class="st66" d="M439.9,164.9l-3.6-2.3c-0.1-0.1-0.2-0.3-0.1-0.4l0.2-0.2c0.1-0.1,0.3-0.2,0.4-0.1l3.6,2.3
				c0.1,0.1,0.2,0.3,0.1,0.4l-0.2,0.2C440.2,165,440,165,439.9,164.9z"/>
		</g>
		<g>
			<path class="st66" d="M437.8,167.7l-3.7-2.3c-0.1-0.1-0.2-0.3-0.1-0.4l0.2-0.2c0.1-0.1,0.3-0.2,0.4-0.1l3.7,2.3
				c0.1,0.1,0.2,0.3,0.1,0.4l-0.2,0.2C438.1,167.8,437.9,167.8,437.8,167.7z"/>
		</g>
		<g>
			<path class="st66" d="M436,170.8l-3.6-2.3c-0.1-0.1-0.2-0.3-0.1-0.4l0.2-0.2c0.1-0.1,0.3-0.2,0.4-0.1l3.6,2.3
				c0.1,0.1,0.2,0.3,0.1,0.4l-0.2,0.2C436.3,170.8,436.1,170.9,436,170.8z"/>
		</g>
		<g>
			<path class="st66" d="M434.8,174.2l-3.5-2.2c-0.1-0.1-0.2-0.3-0.1-0.4l0.2-0.2c0.1-0.1,0.3-0.2,0.4-0.1l3.5,2.2
				c0.1,0.1,0.2,0.3,0.1,0.4l-0.2,0.2C435.1,174.2,434.9,174.3,434.8,174.2z"/>
		</g>
		<g>
			<path class="st66" d="M434.3,178.1l-3.6-2.3c-0.1-0.1-0.2-0.3-0.1-0.4l0.2-0.2c0.1-0.1,0.3-0.2,0.4-0.1l3.6,2.3
				c0.1,0.1,0.2,0.3,0.1,0.4l-0.2,0.2C434.7,178.1,434.5,178.2,434.3,178.1z"/>
		</g>
	</g>
</g>
<path class="st65" d="M496.8,240.5c-3.4,1.9-8.8,1.9-12.2,0c-3.4-1.9-3.4-5.1,0-7c3.4-1.9,8.8-1.9,12.2,0
	C500.2,235.4,500.2,238.5,496.8,240.5z"/>
<g>
	<g>
		<g>
			<polygon class="st66" points="482.9,236.9 478.1,233.9 478.8,233.3 480.5,233.7 			"/>
		</g>
		<g>
			<path class="st67" d="M503.2,204.8l-4.7-3c0,0,2.8,5.2,2.8,5.2C501.3,207,503.2,204.8,503.2,204.8z"/>
		</g>
		<g>
			<g>
				
					<ellipse transform="matrix(0.5381 -0.8429 0.8429 0.5381 41.9315 512.2523)" class="st67" cx="488.4" cy="217.9" rx="19" ry="15.7"/>
			</g>
			<g>
				
					<ellipse transform="matrix(0.5381 -0.8429 0.8429 0.5381 41.5703 517.6491)" class="st67" cx="493.1" cy="220.9" rx="19" ry="15.7"/>
			</g>
			<g>
				<path class="st66" d="M476.5,226.4c0.6,4.4,2.7,8.2,6.4,10.5c7.3,4.7,17.8,1.3,23.5-7.5c2.8-4.4,3.9-9.3,3.4-13.7L476.5,226.4z"
					/>
			</g>
			<g>
				
					<ellipse transform="matrix(0.5381 -0.8429 0.8429 0.5381 41.5701 517.6488)" class="st68" cx="493.1" cy="220.9" rx="18.1" ry="15"/>
			</g>
			<g>
				
					<ellipse transform="matrix(0.5381 -0.8429 0.8429 0.5381 41.5698 517.6482)" class="st69" cx="493.1" cy="220.9" rx="14.6" ry="12.1"/>
			</g>
			<g>
				<path class="st67" d="M501,208.6c-0.2-0.1-0.5-0.3-0.7-0.4c5,3.8,5.8,11.8,1.7,18.3c-4.1,6.5-11.7,9.1-17.3,6.2
					c0.2,0.2,0.4,0.3,0.7,0.5c5.6,3.6,13.7,1,18-5.8C507.6,220.6,506.6,212.2,501,208.6z"/>
			</g>
			<g>
				<g>
					<path class="st67" d="M495.4,219l-3.8,1.2c-1,2.8-2.8,7.9-4.2,12.1c3.1,0.6,6.6-0.3,9.5-2.5L495.4,219z"/>
				</g>
				<g>
					<path class="st67" d="M499.7,227.1c0.3-0.4,0.6-0.8,0.8-1.2c1.9-3,2.6-6.3,2.3-9.3l-6.2,2L499.7,227.1z"/>
				</g>
				<g>
					<path class="st67" d="M487.6,221.5l-7.1,2.3c0.3,2.4,0.9,4.7,2.7,6.3L487.6,221.5z"/>
				</g>
			</g>
			<g>
				<path class="st66" d="M483.8,215.8c4.3-6.8,12.4-9.4,18-5.8c1.1,0.7,2.1,1.7,2.8,2.7c-0.8-1.7-2.1-3.1-3.7-4.1
					c-5.6-3.6-13.7-1-18,5.8c-3.5,5.4-3.5,11.8-0.5,16C480.3,226.3,480.7,220.6,483.8,215.8z"/>
			</g>
		</g>
		<g>
			<path class="st66" d="M478.1,233.9c1.1,0.7,2.3,1.2,3.5,1.6c-0.9-1-2.2-2.5-2.2-2.5l-1.8-2.8l-0.2-1.5l-0.1-2.5l-5.6-3.6
				C472.1,227.3,474.3,231.4,478.1,233.9z"/>
		</g>
	</g>
	<g>
		<g>
			<path class="st66" d="M498.8,203.4l-2.6-1.7c-0.1-0.1-0.1-0.2-0.1-0.3l0-0.1c0.1-0.1,0.2-0.1,0.3-0.1l2.6,1.7
				c0.1,0.1,0.1,0.2,0.1,0.3l0,0.1C499,203.4,498.9,203.5,498.8,203.4z"/>
		</g>
		<g>
			<path class="st66" d="M494.9,203l-3.2-2.1c-0.1-0.1-0.2-0.2-0.1-0.4l0.1-0.1c0.1-0.1,0.2-0.2,0.4-0.1l3.2,2.1
				c0.1,0.1,0.2,0.2,0.1,0.4l-0.1,0.1C495.2,203.1,495.1,203.1,494.9,203z"/>
		</g>
		<g>
			<path class="st66" d="M491.2,203.5l-3.2-2c-0.1-0.1-0.2-0.3-0.1-0.4l0.2-0.2c0.1-0.1,0.3-0.2,0.4-0.1l3.2,2
				c0.1,0.1,0.2,0.3,0.1,0.4l-0.2,0.2C491.5,203.5,491.3,203.6,491.2,203.5z"/>
		</g>
		<g>
			<path class="st66" d="M487.3,205.2l-3.5-2.2c-0.1-0.1-0.2-0.3-0.1-0.4l0.2-0.2c0.1-0.1,0.3-0.2,0.4-0.1l3.5,2.2
				c0.1,0.1,0.2,0.3,0.1,0.4l-0.2,0.2C487.6,205.2,487.5,205.3,487.3,205.2z"/>
		</g>
		<g>
			<path class="st66" d="M484.2,207.3l-3.7-2.4c-0.1-0.1-0.2-0.3-0.1-0.4l0.2-0.2c0.1-0.1,0.3-0.2,0.4-0.1l3.7,2.4
				c0.1,0.1,0.2,0.3,0.1,0.4l-0.2,0.2C484.5,207.4,484.3,207.4,484.2,207.3z"/>
		</g>
		<g>
			<path class="st66" d="M481.5,209.8l-3.6-2.3c-0.1-0.1-0.2-0.3-0.1-0.4l0.2-0.2c0.1-0.1,0.3-0.2,0.4-0.1l3.6,2.3
				c0.1,0.1,0.2,0.3,0.1,0.4l-0.2,0.2C481.8,209.9,481.6,209.9,481.5,209.8z"/>
		</g>
		<g>
			<path class="st66" d="M479.4,212.7l-3.7-2.3c-0.1-0.1-0.2-0.3-0.1-0.4l0.2-0.2c0.1-0.1,0.3-0.2,0.4-0.1l3.7,2.3
				c0.1,0.1,0.2,0.3,0.1,0.4l-0.2,0.2C479.7,212.7,479.5,212.8,479.4,212.7z"/>
		</g>
		<g>
			<path class="st66" d="M477.6,215.7l-3.6-2.3c-0.1-0.1-0.2-0.3-0.1-0.4l0.2-0.2c0.1-0.1,0.3-0.2,0.4-0.1l3.6,2.3
				c0.1,0.1,0.2,0.3,0.1,0.4l-0.2,0.2C478,215.8,477.8,215.8,477.6,215.7z"/>
		</g>
		<g>
			<path class="st66" d="M476.4,219.1l-3.5-2.2c-0.1-0.1-0.2-0.3-0.1-0.4l0.2-0.2c0.1-0.1,0.3-0.2,0.4-0.1l3.5,2.2
				c0.1,0.1,0.2,0.3,0.1,0.4l-0.2,0.2C476.7,219.2,476.6,219.2,476.4,219.1z"/>
		</g>
		<g>
			<path class="st66" d="M476,223l-3.6-2.3c-0.1-0.1-0.2-0.3-0.1-0.4l0.2-0.2c0.1-0.1,0.3-0.2,0.4-0.1l3.6,2.3
				c0.1,0.1,0.2,0.3,0.1,0.4l-0.2,0.2C476.3,223.1,476.1,223.1,476,223z"/>
		</g>
	</g>
</g>
<g>
	<path class="st70" d="M270,386.7l-41.8-24.1c-0.9-0.5-0.8-1.4,0.3-2l12.3-7.1l45.1,26l-12.3,7.1C272.5,387.2,270.9,387.2,270,386.7
		z"/>
	<g>
		<linearGradient id="SVGID_52_" gradientUnits="userSpaceOnUse" x1="310.1955" y1="329.2204" x2="240.0178" y2="385.495">
			<stop  offset="0" style="stop-color:#BCD5FF"/>
			<stop  offset="0.151" style="stop-color:#A3BEFF"/>
			<stop  offset="0.3866" style="stop-color:#82A0FF"/>
			<stop  offset="0.6124" style="stop-color:#6A8AFF"/>
			<stop  offset="0.8221" style="stop-color:#5C7DFF"/>
			<stop  offset="1" style="stop-color:#5778FF"/>
		</linearGradient>
		<path class="st71" d="M329.4,353.9v-8.3l-13.6,0l-30.1-17.4c-0.7-0.4-2-0.4-2.9,0.1l-30,17.3l-13.5,0l0,8.4h0
			c0,0.3,0.2,0.5,0.5,0.7l43.2,24.9c0.7,0.4,2,0.4,2.9-0.1l42.8-24.7C329.2,354.5,329.4,354.2,329.4,353.9z"/>
		
			<linearGradient id="SVGID_53_" gradientUnits="userSpaceOnUse" x1="278.6272" y1="736.511" x2="214.834" y2="787.666" gradientTransform="matrix(0.866 0.5 -1 0.5774 818.6784 -218.187)">
			<stop  offset="0" style="stop-color:#C0D6FF"/>
			<stop  offset="0.2978" style="stop-color:#C5DBFF"/>
			<stop  offset="0.6488" style="stop-color:#D3E9FF"/>
			<stop  offset="1" style="stop-color:#E9FFFF"/>
		</linearGradient>
		<path class="st72" d="M283.1,371.2l-43.2-24.9c-0.7-0.4-0.6-1.2,0.2-1.7l42.8-24.7c0.9-0.5,2.1-0.5,2.9-0.1l43.2,24.9
			c0.7,0.4,0.6,1.2-0.2,1.7L286,371.1C285.1,371.6,283.8,371.7,283.1,371.2z"/>
		<path class="st24" d="M283.2,368.3l-38.3-22.1c-0.7-0.4-0.6-1,0.2-1.5l37.9-21.9c0.8-0.4,1.9-0.5,2.6-0.1l38.3,22.1
			c0.7,0.4,0.6,1-0.2,1.5l-37.9,21.9C285,368.6,283.9,368.7,283.2,368.3z"/>
		<path class="st26" d="M283.3,366.5l-35.2-20.3c-0.6-0.3-0.5-1,0.2-1.4l34.8-20.1c0.7-0.4,1.7-0.4,2.3-0.1l35.2,20.3
			c0.6,0.3,0.5,1-0.2,1.4l-34.8,20.1C285,366.8,283.9,366.8,283.3,366.5z"/>
	</g>
	<g>
		<polygon class="st64" points="283.6,344.2 279.5,341.8 281.7,340.5 285.8,342.9 		"/>
		<polygon class="st64" points="291.2,343.9 287.1,346.2 284.9,344.9 289,342.6 		"/>
		<polygon class="st64" points="282.7,344.7 280.4,346 278.2,344.7 280.4,343.4 		"/>
		<polygon class="st64" points="290.4,349.2 288.2,350.5 281.7,346.8 284,345.5 		"/>
	</g>
</g>
<g>
	<path class="st70" d="M603.2,122.4l-41.8-24.1c-0.9-0.5-0.8-1.4,0.3-2l12.3-7.1l45.1,26l-12.3,7.1
		C605.7,122.9,604.2,123,603.2,122.4z"/>
	<g>
		<linearGradient id="SVGID_54_" gradientUnits="userSpaceOnUse" x1="643.46" y1="64.9428" x2="573.2823" y2="121.2174">
			<stop  offset="0" style="stop-color:#BCD5FF"/>
			<stop  offset="0.151" style="stop-color:#A3BEFF"/>
			<stop  offset="0.3866" style="stop-color:#82A0FF"/>
			<stop  offset="0.6124" style="stop-color:#6A8AFF"/>
			<stop  offset="0.8221" style="stop-color:#5C7DFF"/>
			<stop  offset="1" style="stop-color:#5778FF"/>
		</linearGradient>
		<path class="st73" d="M662.7,89.6v-8.3l-13.6,0L619,63.9c-0.7-0.4-2-0.4-2.9,0.1l-30,17.3l-13.5,0l0,8.4h0c0,0.3,0.2,0.5,0.5,0.7
			l43.2,24.9c0.7,0.4,2,0.4,2.9-0.1L662,90.5C662.4,90.2,662.7,89.9,662.7,89.6z"/>
		
			<linearGradient id="SVGID_55_" gradientUnits="userSpaceOnUse" x1="206.7785" y1="341.0255" x2="142.9853" y2="392.1805" gradientTransform="matrix(0.866 0.5 -1 0.5774 818.6784 -218.187)">
			<stop  offset="0" style="stop-color:#C0D6FF"/>
			<stop  offset="0.2978" style="stop-color:#C5DBFF"/>
			<stop  offset="0.6488" style="stop-color:#D3E9FF"/>
			<stop  offset="1" style="stop-color:#E9FFFF"/>
		</linearGradient>
		<path class="st74" d="M616.3,107L573.1,82c-0.7-0.4-0.6-1.2,0.2-1.7l42.8-24.7c0.9-0.5,2.1-0.5,2.9-0.1l43.2,24.9
			c0.7,0.4,0.6,1.2-0.2,1.7l-42.8,24.7C618.4,107.3,617.1,107.4,616.3,107z"/>
		<path class="st24" d="M616.5,104l-38.3-22.1c-0.7-0.4-0.6-1,0.2-1.5l37.9-21.9c0.8-0.4,1.9-0.5,2.6-0.1l38.3,22.1
			c0.7,0.4,0.6,1-0.2,1.5L619,103.9C618.3,104.4,617.1,104.4,616.5,104z"/>
		<path class="st26" d="M616.6,102.2l-35.2-20.3c-0.6-0.3-0.5-1,0.2-1.4l34.8-20.1c0.7-0.4,1.7-0.4,2.3-0.1l35.2,20.3
			c0.6,0.3,0.5,1-0.2,1.4l-34.8,20.1C618.2,102.5,617.2,102.5,616.6,102.2z"/>
	</g>
	<g>
		<polygon class="st64" points="616.9,79.9 612.8,77.5 615,76.2 619.1,78.6 		"/>
		<polygon class="st64" points="624.5,79.6 620.4,82 618.2,80.7 622.3,78.3 		"/>
		<polygon class="st64" points="615.9,80.5 613.7,81.8 611.4,80.5 613.7,79.2 		"/>
		<polygon class="st64" points="623.7,84.9 621.4,86.2 615,82.5 617.2,81.2 		"/>
	</g>
</g>
<polygon class="st70" points="133.5,374 88,347.7 161.5,305.5 207,331.8 "/>
<g>
	<polygon class="st75" points="201.4,234.1 155.9,207.8 201.4,181.5 247,207.8 	"/>
	<polygon class="st76" points="201.4,335 155.9,308.7 201.4,282.4 247,308.7 	"/>
	<linearGradient id="SVGID_56_" gradientUnits="userSpaceOnUse" x1="224.1958" y1="306.5585" x2="224.1958" y2="210.4632">
		<stop  offset="0" style="stop-color:#C0D6FF"/>
		<stop  offset="0.2978" style="stop-color:#C5DBFF"/>
		<stop  offset="0.6488" style="stop-color:#D3E9FF"/>
		<stop  offset="1" style="stop-color:#E9FFFF"/>
	</linearGradient>
	<polygon class="st77" points="247,207.8 247,308.7 201.4,335 201.4,234.1 	"/>
	<polygon class="st24" points="155.9,207.8 155.9,308.7 201.4,335 201.4,234.1 	"/>
	<g class="st25">
		<polygon class="st26" points="159,214.5 159,305.2 198.3,327.9 198.3,237.2 		"/>
	</g>
	<polygon class="st26" points="240.1,232.1 240.1,234.8 208.3,253.2 208.3,250.6 	"/>
	<polygon class="st26" points="240.1,243.4 240.1,246.1 208.3,264.5 208.3,261.8 	"/>
	<polygon class="st26" points="240.1,254.7 240.1,257.4 208.3,275.8 208.3,273.1 	"/>
	<polygon class="st26" points="240.1,266 240.1,268.6 208.3,287.1 208.3,284.4 	"/>
	<polygon class="st26" points="240.1,277.3 240.1,279.9 208.3,298.3 208.3,295.7 	"/>
	<polygon class="st26" points="240.1,288.5 240.1,291.2 208.3,309.6 208.3,306.9 	"/>
	<defs>
		<filter id="Adobe_OpacityMaskFilter" filterUnits="userSpaceOnUse" x="155.9" y="186.7" width="45.5" height="40.5">
			<feFlood  style="flood-color:white;flood-opacity:1" result="back"/>
			<feBlend  in="SourceGraphic" in2="back" mode="normal"/>
		</filter>
	</defs>
	<mask maskUnits="userSpaceOnUse" x="155.9" y="186.7" width="45.5" height="40.5" id="SVGID_57_">
		<g class="st78">
			<defs>
				<filter id="Adobe_OpacityMaskFilter_1_" filterUnits="userSpaceOnUse" x="155.9" y="186.7" width="45.5" height="40.5">
					<feFlood  style="flood-color:white;flood-opacity:1" result="back"/>
					<feBlend  in="SourceGraphic" in2="back" mode="normal"/>
				</filter>
			</defs>
			<mask maskUnits="userSpaceOnUse" x="155.9" y="186.7" width="45.5" height="40.5" id="SVGID_57_">
				<g class="st79">
				</g>
			</mask>
			<linearGradient id="SVGID_58_" gradientUnits="userSpaceOnUse" x1="155.8913" y1="206.9104" x2="201.4279" y2="206.9104">
				<stop  offset="0" style="stop-color:#000000"/>
				<stop  offset="4.693538e-02" style="stop-color:#2F2F2F"/>
				<stop  offset="9.814870e-02" style="stop-color:#5A5A5A"/>
				<stop  offset="0.155" style="stop-color:#828282"/>
				<stop  offset="0.2161" style="stop-color:#A4A4A4"/>
				<stop  offset="0.2828" style="stop-color:#C0C0C0"/>
				<stop  offset="0.3571" style="stop-color:#D7D7D7"/>
				<stop  offset="0.442" style="stop-color:#E9E9E9"/>
				<stop  offset="0.5443" style="stop-color:#F6F6F6"/>
				<stop  offset="0.6813" style="stop-color:#FDFDFD"/>
				<stop  offset="1" style="stop-color:#FFFFFF"/>
			</linearGradient>
			<polygon class="st80" points="201.4,227.1 189.5,227.1 155.9,207.8 192.4,186.7 201.4,186.7 			"/>
		</g>
	</mask>
	<linearGradient id="SVGID_59_" gradientUnits="userSpaceOnUse" x1="155.8913" y1="206.9104" x2="201.4279" y2="206.9104">
		<stop  offset="0" style="stop-color:#E9FFFF"/>
		<stop  offset="3.739363e-02" style="stop-color:#D3EBFF"/>
		<stop  offset="0.1056" style="stop-color:#B2CCFF"/>
		<stop  offset="0.1817" style="stop-color:#96B2FF"/>
		<stop  offset="0.2663" style="stop-color:#7F9DFF"/>
		<stop  offset="0.3632" style="stop-color:#6D8CFF"/>
		<stop  offset="0.4798" style="stop-color:#6081FF"/>
		<stop  offset="0.6363" style="stop-color:#597AFF"/>
		<stop  offset="1" style="stop-color:#5778FF"/>
	</linearGradient>
	<polygon class="st81" points="201.4,227.1 189.5,227.1 155.9,207.8 192.4,186.7 201.4,186.7 	"/>
	<g>
		<linearGradient id="SVGID_60_" gradientUnits="userSpaceOnUse" x1="168.3872" y1="205.7504" x2="234.4677" y2="205.7504">
			<stop  offset="0" style="stop-color:#C0D6FF"/>
			<stop  offset="0.2978" style="stop-color:#C5DBFF"/>
			<stop  offset="0.6488" style="stop-color:#D3E9FF"/>
			<stop  offset="1" style="stop-color:#E9FFFF"/>
		</linearGradient>
		<polygon class="st82" points="201.4,224.8 168.4,205.8 201.4,186.7 234.5,205.8 		"/>
		<linearGradient id="SVGID_61_" gradientUnits="userSpaceOnUse" x1="222.2125" y1="223.8945" x2="214.1795" y2="209.869">
			<stop  offset="0" style="stop-color:#C0D6FF"/>
			<stop  offset="0.2978" style="stop-color:#C5DBFF"/>
			<stop  offset="0.6488" style="stop-color:#D3E9FF"/>
			<stop  offset="1" style="stop-color:#E9FFFF"/>
		</linearGradient>
		<polygon class="st83" points="234.5,205.8 234.5,208.1 201.4,227.1 201.4,224.8 		"/>
		<linearGradient id="SVGID_62_" gradientUnits="userSpaceOnUse" x1="184.9075" y1="217.2396" x2="184.9075" y2="195.8436">
			<stop  offset="0" style="stop-color:#5778FF"/>
			<stop  offset="0.1779" style="stop-color:#5C7DFF"/>
			<stop  offset="0.3876" style="stop-color:#6A8AFF"/>
			<stop  offset="0.6134" style="stop-color:#82A0FF"/>
			<stop  offset="0.849" style="stop-color:#A3BEFF"/>
			<stop  offset="1" style="stop-color:#BCD5FF"/>
		</linearGradient>
		<polygon class="st84" points="168.4,205.8 168.4,208.1 201.4,227.1 201.4,224.8 		"/>
	</g>
	<g>
		<g>
			<polygon class="st85" points="188.6,206.1 187.1,205.2 187.3,204.5 200.8,196.6 202.7,197.5 202.4,198.1 			"/>
			<linearGradient id="SVGID_63_" gradientUnits="userSpaceOnUse" x1="186.2093" y1="200.6944" x2="203.3206" y2="200.6944">
				<stop  offset="0" style="stop-color:#5778FF"/>
				<stop  offset="0.1779" style="stop-color:#5C7DFF"/>
				<stop  offset="0.3876" style="stop-color:#6A8AFF"/>
				<stop  offset="0.6134" style="stop-color:#82A0FF"/>
				<stop  offset="0.849" style="stop-color:#A3BEFF"/>
				<stop  offset="1" style="stop-color:#BCD5FF"/>
			</linearGradient>
			<polygon class="st86" points="200.9,197.3 202.4,198.1 203.3,197.6 200.9,196.2 186.2,204.7 187.2,205.2 			"/>
		</g>
		<g>
			<polygon class="st85" points="193.1,208.6 191.6,207.8 191.7,207.1 205.3,199.2 207.2,200.1 206.8,200.7 			"/>
			<linearGradient id="SVGID_64_" gradientUnits="userSpaceOnUse" x1="190.651" y1="203.2508" x2="207.7623" y2="203.2508">
				<stop  offset="0" style="stop-color:#5778FF"/>
				<stop  offset="0.1779" style="stop-color:#5C7DFF"/>
				<stop  offset="0.3876" style="stop-color:#6A8AFF"/>
				<stop  offset="0.6134" style="stop-color:#82A0FF"/>
				<stop  offset="0.849" style="stop-color:#A3BEFF"/>
				<stop  offset="1" style="stop-color:#BCD5FF"/>
			</linearGradient>
			<polygon class="st87" points="205.4,199.8 206.8,200.7 207.8,200.1 205.4,198.7 190.7,207.2 191.6,207.8 			"/>
		</g>
		<g>
			<polygon class="st85" points="197.5,211.2 196,210.3 196.2,209.6 209.7,201.7 211.6,202.6 211.3,203.2 			"/>
			<linearGradient id="SVGID_65_" gradientUnits="userSpaceOnUse" x1="195.0927" y1="205.8072" x2="212.2039" y2="205.8072">
				<stop  offset="0" style="stop-color:#5778FF"/>
				<stop  offset="0.1779" style="stop-color:#5C7DFF"/>
				<stop  offset="0.3876" style="stop-color:#6A8AFF"/>
				<stop  offset="0.6134" style="stop-color:#82A0FF"/>
				<stop  offset="0.849" style="stop-color:#A3BEFF"/>
				<stop  offset="1" style="stop-color:#BCD5FF"/>
			</linearGradient>
			<polygon class="st88" points="209.8,202.4 211.3,203.2 212.2,202.7 209.8,201.3 195.1,209.8 196,210.3 			"/>
		</g>
		<g>
			<polygon class="st85" points="201.9,213.7 200.5,212.9 200.6,212.2 214.2,204.3 216.1,205.2 215.7,205.8 			"/>
			<linearGradient id="SVGID_66_" gradientUnits="userSpaceOnUse" x1="199.5343" y1="208.3636" x2="216.6456" y2="208.3636">
				<stop  offset="0" style="stop-color:#5778FF"/>
				<stop  offset="0.1779" style="stop-color:#5C7DFF"/>
				<stop  offset="0.3876" style="stop-color:#6A8AFF"/>
				<stop  offset="0.6134" style="stop-color:#82A0FF"/>
				<stop  offset="0.849" style="stop-color:#A3BEFF"/>
				<stop  offset="1" style="stop-color:#BCD5FF"/>
			</linearGradient>
			<polygon class="st89" points="214.2,204.9 215.7,205.8 216.6,205.2 214.2,203.8 199.5,212.3 200.5,212.9 			"/>
		</g>
	</g>
	<g class="st25">
		<polygon class="st26" points="155.9,292.7 201.4,265.2 201.4,234.1 155.9,207.8 		"/>
	</g>
	<g>
		<linearGradient id="SVGID_67_" gradientUnits="userSpaceOnUse" x1="195.2423" y1="237.8563" x2="199.624" y2="237.8563">
			<stop  offset="0" style="stop-color:#C0D6FF"/>
			<stop  offset="0.2978" style="stop-color:#C5DBFF"/>
			<stop  offset="0.6488" style="stop-color:#D3E9FF"/>
			<stop  offset="1" style="stop-color:#E9FFFF"/>
		</linearGradient>
		<path class="st90" d="M199.6,238.6c0-1.2-0.8-2.6-1.8-3.1c-0.5-0.3-1-0.3-1.3-0.1l0,0l-1.3,0.8l0.8,0c0,0.1,0,0.3,0,0.4
			c0,1.2,0.8,2.6,1.8,3.1c0.1,0.1,0.3,0.1,0.4,0.2l-0.4,0.7l1.3-0.7l0,0C199.4,239.6,199.6,239.2,199.6,238.6z"/>
		<linearGradient id="SVGID_68_" gradientUnits="userSpaceOnUse" x1="194.709" y1="238.3027" x2="198.3326" y2="238.3027">
			<stop  offset="0" style="stop-color:#5778FF"/>
			<stop  offset="0.1779" style="stop-color:#5C7DFF"/>
			<stop  offset="0.3876" style="stop-color:#6A8AFF"/>
			<stop  offset="0.6134" style="stop-color:#82A0FF"/>
			<stop  offset="0.849" style="stop-color:#A3BEFF"/>
			<stop  offset="1" style="stop-color:#BCD5FF"/>
		</linearGradient>
		<path class="st91" d="M198.3,239.3c0,1.2-0.8,1.6-1.8,1c-1-0.6-1.8-2-1.8-3.1c0-1.2,0.8-1.6,1.8-1
			C197.5,236.8,198.3,238.2,198.3,239.3z"/>
		<path class="st85" d="M197.6,238.9c0,0.7-0.5,0.9-1,0.6c-0.6-0.3-1-1.1-1-1.8c0-0.7,0.5-0.9,1-0.6
			C197.1,237.4,197.6,238.2,197.6,238.9z"/>
	</g>
	<g>
		<linearGradient id="SVGID_69_" gradientUnits="userSpaceOnUse" x1="157.0518" y1="214.3911" x2="161.4335" y2="214.3911">
			<stop  offset="0" style="stop-color:#C0D6FF"/>
			<stop  offset="0.2978" style="stop-color:#C5DBFF"/>
			<stop  offset="0.6488" style="stop-color:#D3E9FF"/>
			<stop  offset="1" style="stop-color:#E9FFFF"/>
		</linearGradient>
		<path class="st92" d="M161.4,215.1c0-1.2-0.8-2.6-1.8-3.1c-0.5-0.3-1-0.3-1.3-0.1l0,0l-1.3,0.8l0.8,0c0,0.1,0,0.3,0,0.4
			c0,1.2,0.8,2.6,1.8,3.1c0.1,0.1,0.3,0.1,0.4,0.2l-0.4,0.7l1.3-0.7l0,0C161.2,216.1,161.4,215.7,161.4,215.1z"/>
		<linearGradient id="SVGID_70_" gradientUnits="userSpaceOnUse" x1="156.5184" y1="214.8374" x2="160.1421" y2="214.8374">
			<stop  offset="0" style="stop-color:#5778FF"/>
			<stop  offset="0.1779" style="stop-color:#5C7DFF"/>
			<stop  offset="0.3876" style="stop-color:#6A8AFF"/>
			<stop  offset="0.6134" style="stop-color:#82A0FF"/>
			<stop  offset="0.849" style="stop-color:#A3BEFF"/>
			<stop  offset="1" style="stop-color:#BCD5FF"/>
		</linearGradient>
		<path class="st93" d="M160.1,215.9c0,1.2-0.8,1.6-1.8,1c-1-0.6-1.8-2-1.8-3.1s0.8-1.6,1.8-1C159.3,213.3,160.1,214.7,160.1,215.9z
			"/>
		<path class="st85" d="M159.4,215.4c0,0.7-0.5,0.9-1,0.6c-0.6-0.3-1-1.1-1-1.8s0.5-0.9,1-0.6C158.9,214,159.4,214.8,159.4,215.4z"
			/>
	</g>
	<g>
		<linearGradient id="SVGID_71_" gradientUnits="userSpaceOnUse" x1="195.2423" y1="328.2348" x2="199.624" y2="328.2348">
			<stop  offset="0" style="stop-color:#C0D6FF"/>
			<stop  offset="0.2978" style="stop-color:#C5DBFF"/>
			<stop  offset="0.6488" style="stop-color:#D3E9FF"/>
			<stop  offset="1" style="stop-color:#E9FFFF"/>
		</linearGradient>
		<path class="st94" d="M199.6,329c0-1.2-0.8-2.6-1.8-3.1c-0.5-0.3-1-0.3-1.3-0.1l0,0l-1.3,0.8l0.8,0c0,0.1,0,0.3,0,0.4
			c0,1.2,0.8,2.6,1.8,3.1c0.1,0.1,0.3,0.1,0.4,0.2l-0.4,0.7l1.3-0.7l0,0C199.4,330,199.6,329.6,199.6,329z"/>
		<linearGradient id="SVGID_72_" gradientUnits="userSpaceOnUse" x1="194.709" y1="328.6812" x2="198.3326" y2="328.6812">
			<stop  offset="0" style="stop-color:#5778FF"/>
			<stop  offset="0.1779" style="stop-color:#5C7DFF"/>
			<stop  offset="0.3876" style="stop-color:#6A8AFF"/>
			<stop  offset="0.6134" style="stop-color:#82A0FF"/>
			<stop  offset="0.849" style="stop-color:#A3BEFF"/>
			<stop  offset="1" style="stop-color:#BCD5FF"/>
		</linearGradient>
		<path class="st95" d="M198.3,329.7c0,1.2-0.8,1.6-1.8,1c-1-0.6-1.8-2-1.8-3.1s0.8-1.6,1.8-1C197.5,327.2,198.3,328.6,198.3,329.7z
			"/>
		<path class="st85" d="M197.6,329.3c0,0.7-0.5,0.9-1,0.6c-0.6-0.3-1-1.1-1-1.8c0-0.7,0.5-0.9,1-0.6
			C197.1,327.8,197.6,328.6,197.6,329.3z"/>
	</g>
	<g>
		<linearGradient id="SVGID_73_" gradientUnits="userSpaceOnUse" x1="157.0518" y1="304.7696" x2="161.4335" y2="304.7696">
			<stop  offset="0" style="stop-color:#C0D6FF"/>
			<stop  offset="0.2978" style="stop-color:#C5DBFF"/>
			<stop  offset="0.6488" style="stop-color:#D3E9FF"/>
			<stop  offset="1" style="stop-color:#E9FFFF"/>
		</linearGradient>
		<path class="st96" d="M161.4,305.5c0-1.2-0.8-2.6-1.8-3.1c-0.5-0.3-1-0.3-1.3-0.1l0,0l-1.3,0.8l0.8,0c0,0.1,0,0.3,0,0.4
			c0,1.2,0.8,2.6,1.8,3.1c0.1,0.1,0.3,0.1,0.4,0.2l-0.4,0.7l1.3-0.7l0,0C161.2,306.5,161.4,306.1,161.4,305.5z"/>
		<linearGradient id="SVGID_74_" gradientUnits="userSpaceOnUse" x1="156.5184" y1="305.2159" x2="160.1421" y2="305.2159">
			<stop  offset="0" style="stop-color:#5778FF"/>
			<stop  offset="0.1779" style="stop-color:#5C7DFF"/>
			<stop  offset="0.3876" style="stop-color:#6A8AFF"/>
			<stop  offset="0.6134" style="stop-color:#82A0FF"/>
			<stop  offset="0.849" style="stop-color:#A3BEFF"/>
			<stop  offset="1" style="stop-color:#BCD5FF"/>
		</linearGradient>
		<path class="st97" d="M160.1,306.3c0,1.2-0.8,1.6-1.8,1c-1-0.6-1.8-2-1.8-3.1s0.8-1.6,1.8-1C159.3,303.7,160.1,305.1,160.1,306.3z
			"/>
		<path class="st85" d="M159.4,305.8c0,0.7-0.5,0.9-1,0.6c-0.6-0.3-1-1.1-1-1.8s0.5-0.9,1-0.6C158.9,304.3,159.4,305.2,159.4,305.8z
			"/>
	</g>
</g>
<g>
	<polygon class="st64" points="176.7,259.3 179,260.6 179,259.1 176.7,257.7 	"/>
	<polygon class="st64" points="176.7,269.8 179,271.1 179,262 176.7,260.7 	"/>
	<polygon class="st64" points="176.7,274.8 179,276.1 179,272.5 176.7,271.2 	"/>
	<polygon class="st64" points="176.7,280 179,281.3 179,277.7 176.7,276.4 	"/>
	<polygon class="st64" points="173.2,262.3 175.5,263.6 175.5,260 173.2,258.7 	"/>
	<polygon class="st64" points="173.2,269.2 175.5,270.5 175.5,265.2 173.2,263.9 	"/>
	<polygon class="st64" points="173.2,275.5 175.5,276.9 175.5,272.3 173.2,271 	"/>
	<polygon class="st64" points="176.7,285.2 179,286.5 179,282.9 176.7,281.6 	"/>
	<polygon class="st64" points="173.2,257.3 175.5,258.6 175.5,257.1 173.2,255.7 	"/>
</g>
</svg>
