<?xml version="1.0" encoding="utf-8"?>
<!-- Generator: Adobe Illustrator 21.0.0, SVG Export Plug-In . SVG Version: 6.00 Build 0)  -->
<svg version="1.1" id="_x2014_лой_x5F_1" xmlns="http://www.w3.org/2000/svg" xmlns:xlink="http://www.w3.org/1999/xlink"
	 x="0px" y="0px" viewBox="0 0 437.4 400" style="enable-background:new 0 0 437.4 400;" xml:space="preserve">
<style type="text/css">
	.st0{display:none;fill:url(#SVGID_1_);}
	.st1{opacity:0.2;fill:url(#SVGID_2_);}
	.st2{opacity:0.2;fill:url(#SVGID_3_);}
	.st3{opacity:0.2;fill:url(#SVGID_4_);}
	.st4{opacity:0.2;fill:url(#SVGID_5_);}
	.st5{opacity:0.2;fill:url(#SVGID_6_);}
	.st6{opacity:0.2;fill:url(#SVGID_7_);}
	.st7{opacity:0.2;fill:url(#SVGID_8_);}
	.st8{opacity:0.2;fill:url(#SVGID_9_);}
	.st9{opacity:0.2;fill:url(#SVGID_10_);}
	.st10{opacity:0.2;fill:url(#SVGID_11_);}
	.st11{opacity:0.2;fill:url(#SVGID_12_);}
	.st12{opacity:0.2;fill:url(#SVGID_13_);}
	.st13{opacity:0.2;fill:url(#SVGID_14_);}
	.st14{opacity:0.2;fill:url(#SVGID_15_);}
	.st15{opacity:0.2;fill:url(#SVGID_16_);}
	.st16{opacity:0.2;fill:url(#SVGID_17_);}
	.st17{opacity:0.2;fill:url(#SVGID_18_);}
	.st18{opacity:0.2;fill:url(#SVGID_19_);}
	.st19{opacity:0.2;fill:url(#SVGID_20_);}
	.st20{opacity:0.2;fill:url(#SVGID_21_);}
	.st21{opacity:0.2;fill:url(#SVGID_22_);}
	.st22{opacity:0.2;fill:url(#SVGID_23_);}
	.st23{opacity:0.2;fill:url(#SVGID_24_);}
	.st24{opacity:0.2;fill:url(#SVGID_25_);}
	.st25{opacity:0.2;fill:url(#SVGID_26_);}
	.st26{opacity:0.5;fill:#42FFFF;}
	.st27{fill:#42FFFF;}
	.st28{fill:url(#SVGID_27_);}
	.st29{opacity:0.67;}
	.st30{fill:#242993;}
	.st31{fill:url(#SVGID_28_);}
	.st32{fill:#BCD5FF;}
	.st33{opacity:0.51;}
	.st34{fill:#4553C7;}
	.st35{fill:#5368D8;}
	.st36{fill:url(#SVGID_29_);}
	.st37{fill:url(#SVGID_30_);}
	.st38{fill:url(#SVGID_31_);}
	.st39{fill:url(#SVGID_32_);}
	.st40{fill:#FFFFFF;}
	.st41{filter:url(#Adobe_OpacityMaskFilter);}
	.st42{filter:url(#Adobe_OpacityMaskFilter_1_);}
	.st43{mask:url(#SVGID_33_);fill:url(#SVGID_34_);}
	.st44{opacity:0.78;fill:url(#SVGID_35_);}
	.st45{fill:url(#SVGID_36_);}
	.st46{fill:url(#SVGID_37_);}
	.st47{fill:url(#SVGID_38_);}
	.st48{fill:#677EEA;}
	.st49{fill:url(#SVGID_39_);}
	.st50{fill:url(#SVGID_40_);}
	.st51{fill:url(#SVGID_41_);}
	.st52{fill:url(#SVGID_42_);}
	.st53{fill:url(#SVGID_43_);}
	.st54{fill:url(#SVGID_44_);}
</style>
<linearGradient id="SVGID_1_" gradientUnits="userSpaceOnUse" x1="358.4776" y1="-17.4102" x2="-380.27" y2="574.9824">
	<stop  offset="0" style="stop-color:#4482CC"/>
	<stop  offset="3.720858e-02" style="stop-color:#447ECC"/>
	<stop  offset="0.4677" style="stop-color:#4553C7"/>
	<stop  offset="0.5964" style="stop-color:#3B44BC"/>
	<stop  offset="0.8439" style="stop-color:#2B2DAB"/>
	<stop  offset="1" style="stop-color:#2525A5"/>
</linearGradient>
<rect x="-262.6" class="st0" width="700" height="400"/>
<g>
	<radialGradient id="SVGID_2_" cx="34.2065" cy="165.2162" r="11.9737" gradientUnits="userSpaceOnUse">
		<stop  offset="0" style="stop-color:#42FFFF"/>
		<stop  offset="8.020645e-02" style="stop-color:#3FEAF6"/>
		<stop  offset="0.417" style="stop-color:#3497D4"/>
		<stop  offset="0.693" style="stop-color:#2C59BB"/>
		<stop  offset="0.8943" style="stop-color:#2733AB"/>
		<stop  offset="1" style="stop-color:#2525A5"/>
	</radialGradient>
	<circle class="st1" cx="34.2" cy="165.2" r="12"/>
	<radialGradient id="SVGID_3_" cx="34.2064" cy="165.2162" r="10.4011" gradientUnits="userSpaceOnUse">
		<stop  offset="0" style="stop-color:#42FFFF"/>
		<stop  offset="8.020645e-02" style="stop-color:#3FEAF6"/>
		<stop  offset="0.417" style="stop-color:#3497D4"/>
		<stop  offset="0.693" style="stop-color:#2C59BB"/>
		<stop  offset="0.8943" style="stop-color:#2733AB"/>
		<stop  offset="1" style="stop-color:#2525A5"/>
	</radialGradient>
	<circle class="st2" cx="34.2" cy="165.2" r="10.4"/>
	<radialGradient id="SVGID_4_" cx="34.2064" cy="165.2162" r="8.1243" gradientUnits="userSpaceOnUse">
		<stop  offset="0" style="stop-color:#42FFFF"/>
		<stop  offset="8.020645e-02" style="stop-color:#3FEAF6"/>
		<stop  offset="0.417" style="stop-color:#3497D4"/>
		<stop  offset="0.693" style="stop-color:#2C59BB"/>
		<stop  offset="0.8943" style="stop-color:#2733AB"/>
		<stop  offset="1" style="stop-color:#2525A5"/>
	</radialGradient>
	<circle class="st3" cx="34.2" cy="165.2" r="8.1"/>
	<radialGradient id="SVGID_5_" cx="34.2064" cy="165.2162" r="5.8474" gradientUnits="userSpaceOnUse">
		<stop  offset="0" style="stop-color:#42FFFF"/>
		<stop  offset="8.020645e-02" style="stop-color:#3FEAF6"/>
		<stop  offset="0.417" style="stop-color:#3497D4"/>
		<stop  offset="0.693" style="stop-color:#2C59BB"/>
		<stop  offset="0.8943" style="stop-color:#2733AB"/>
		<stop  offset="1" style="stop-color:#2525A5"/>
	</radialGradient>
	<circle class="st4" cx="34.2" cy="165.2" r="5.8"/>
	<radialGradient id="SVGID_6_" cx="34.2064" cy="165.2162" r="3.1152" gradientUnits="userSpaceOnUse">
		<stop  offset="0" style="stop-color:#42FFFF"/>
		<stop  offset="8.020645e-02" style="stop-color:#3FEAF6"/>
		<stop  offset="0.417" style="stop-color:#3497D4"/>
		<stop  offset="0.693" style="stop-color:#2C59BB"/>
		<stop  offset="0.8943" style="stop-color:#2733AB"/>
		<stop  offset="1" style="stop-color:#2525A5"/>
	</radialGradient>
	<circle class="st5" cx="34.2" cy="165.2" r="3.1"/>
</g>
<g>
	<radialGradient id="SVGID_7_" cx="280.0958" cy="334.1251" r="19.0979" gradientUnits="userSpaceOnUse">
		<stop  offset="0" style="stop-color:#42FFFF"/>
		<stop  offset="8.020645e-02" style="stop-color:#3FEAF6"/>
		<stop  offset="0.417" style="stop-color:#3497D4"/>
		<stop  offset="0.693" style="stop-color:#2C59BB"/>
		<stop  offset="0.8943" style="stop-color:#2733AB"/>
		<stop  offset="1" style="stop-color:#2525A5"/>
	</radialGradient>
	<circle class="st6" cx="280.1" cy="334.1" r="19.1"/>
	<radialGradient id="SVGID_8_" cx="280.0958" cy="334.1251" r="16.5896" gradientUnits="userSpaceOnUse">
		<stop  offset="0" style="stop-color:#42FFFF"/>
		<stop  offset="8.020645e-02" style="stop-color:#3FEAF6"/>
		<stop  offset="0.417" style="stop-color:#3497D4"/>
		<stop  offset="0.693" style="stop-color:#2C59BB"/>
		<stop  offset="0.8943" style="stop-color:#2733AB"/>
		<stop  offset="1" style="stop-color:#2525A5"/>
	</radialGradient>
	<circle class="st7" cx="280.1" cy="334.1" r="16.6"/>
	<radialGradient id="SVGID_9_" cx="280.0958" cy="334.1251" r="12.9581" gradientUnits="userSpaceOnUse">
		<stop  offset="0" style="stop-color:#42FFFF"/>
		<stop  offset="8.020645e-02" style="stop-color:#3FEAF6"/>
		<stop  offset="0.417" style="stop-color:#3497D4"/>
		<stop  offset="0.693" style="stop-color:#2C59BB"/>
		<stop  offset="0.8943" style="stop-color:#2733AB"/>
		<stop  offset="1" style="stop-color:#2525A5"/>
	</radialGradient>
	<circle class="st8" cx="280.1" cy="334.1" r="13"/>
	<radialGradient id="SVGID_10_" cx="280.0958" cy="334.1251" r="9.3266" gradientUnits="userSpaceOnUse">
		<stop  offset="0" style="stop-color:#42FFFF"/>
		<stop  offset="8.020645e-02" style="stop-color:#3FEAF6"/>
		<stop  offset="0.417" style="stop-color:#3497D4"/>
		<stop  offset="0.693" style="stop-color:#2C59BB"/>
		<stop  offset="0.8943" style="stop-color:#2733AB"/>
		<stop  offset="1" style="stop-color:#2525A5"/>
	</radialGradient>
	<circle class="st9" cx="280.1" cy="334.1" r="9.3"/>
	<radialGradient id="SVGID_11_" cx="280.0958" cy="334.1251" r="4.9688" gradientUnits="userSpaceOnUse">
		<stop  offset="0" style="stop-color:#42FFFF"/>
		<stop  offset="8.020645e-02" style="stop-color:#3FEAF6"/>
		<stop  offset="0.417" style="stop-color:#3497D4"/>
		<stop  offset="0.693" style="stop-color:#2C59BB"/>
		<stop  offset="0.8943" style="stop-color:#2733AB"/>
		<stop  offset="1" style="stop-color:#2525A5"/>
	</radialGradient>
	<circle class="st10" cx="280.1" cy="334.1" r="5"/>
</g>
<g>
	<radialGradient id="SVGID_12_" cx="372.9536" cy="187.6886" r="21.9123" gradientUnits="userSpaceOnUse">
		<stop  offset="0" style="stop-color:#42FFFF"/>
		<stop  offset="8.020645e-02" style="stop-color:#3FEAF6"/>
		<stop  offset="0.417" style="stop-color:#3497D4"/>
		<stop  offset="0.693" style="stop-color:#2C59BB"/>
		<stop  offset="0.8943" style="stop-color:#2733AB"/>
		<stop  offset="1" style="stop-color:#2525A5"/>
	</radialGradient>
	<circle class="st11" cx="373" cy="187.7" r="21.9"/>
	<radialGradient id="SVGID_13_" cx="372.9536" cy="187.6886" r="19.0343" gradientUnits="userSpaceOnUse">
		<stop  offset="0" style="stop-color:#42FFFF"/>
		<stop  offset="8.020645e-02" style="stop-color:#3FEAF6"/>
		<stop  offset="0.417" style="stop-color:#3497D4"/>
		<stop  offset="0.693" style="stop-color:#2C59BB"/>
		<stop  offset="0.8943" style="stop-color:#2733AB"/>
		<stop  offset="1" style="stop-color:#2525A5"/>
	</radialGradient>
	<circle class="st12" cx="373" cy="187.7" r="19"/>
	<radialGradient id="SVGID_14_" cx="372.9536" cy="187.6886" r="14.8677" gradientUnits="userSpaceOnUse">
		<stop  offset="0" style="stop-color:#42FFFF"/>
		<stop  offset="8.020645e-02" style="stop-color:#3FEAF6"/>
		<stop  offset="0.417" style="stop-color:#3497D4"/>
		<stop  offset="0.693" style="stop-color:#2C59BB"/>
		<stop  offset="0.8943" style="stop-color:#2733AB"/>
		<stop  offset="1" style="stop-color:#2525A5"/>
	</radialGradient>
	<circle class="st13" cx="373" cy="187.7" r="14.9"/>
	<radialGradient id="SVGID_15_" cx="372.9536" cy="187.6886" r="10.701" gradientUnits="userSpaceOnUse">
		<stop  offset="0" style="stop-color:#42FFFF"/>
		<stop  offset="8.020645e-02" style="stop-color:#3FEAF6"/>
		<stop  offset="0.417" style="stop-color:#3497D4"/>
		<stop  offset="0.693" style="stop-color:#2C59BB"/>
		<stop  offset="0.8943" style="stop-color:#2733AB"/>
		<stop  offset="1" style="stop-color:#2525A5"/>
	</radialGradient>
	<circle class="st14" cx="373" cy="187.7" r="10.7"/>
	<radialGradient id="SVGID_16_" cx="372.9536" cy="187.6886" r="5.701" gradientUnits="userSpaceOnUse">
		<stop  offset="0" style="stop-color:#42FFFF"/>
		<stop  offset="8.020645e-02" style="stop-color:#3FEAF6"/>
		<stop  offset="0.417" style="stop-color:#3497D4"/>
		<stop  offset="0.693" style="stop-color:#2C59BB"/>
		<stop  offset="0.8943" style="stop-color:#2733AB"/>
		<stop  offset="1" style="stop-color:#2525A5"/>
	</radialGradient>
	<circle class="st15" cx="373" cy="187.7" r="5.7"/>
</g>
<g>
	<radialGradient id="SVGID_17_" cx="337.7329" cy="138.3309" r="8.3006" gradientUnits="userSpaceOnUse">
		<stop  offset="0" style="stop-color:#42FFFF"/>
		<stop  offset="8.020645e-02" style="stop-color:#3FEAF6"/>
		<stop  offset="0.417" style="stop-color:#3497D4"/>
		<stop  offset="0.693" style="stop-color:#2C59BB"/>
		<stop  offset="0.8943" style="stop-color:#2733AB"/>
		<stop  offset="1" style="stop-color:#2525A5"/>
	</radialGradient>
	<circle class="st16" cx="337.7" cy="138.3" r="8.3"/>
	<radialGradient id="SVGID_18_" cx="337.7329" cy="138.3309" r="7.2104" gradientUnits="userSpaceOnUse">
		<stop  offset="0" style="stop-color:#42FFFF"/>
		<stop  offset="8.020645e-02" style="stop-color:#3FEAF6"/>
		<stop  offset="0.417" style="stop-color:#3497D4"/>
		<stop  offset="0.693" style="stop-color:#2C59BB"/>
		<stop  offset="0.8943" style="stop-color:#2733AB"/>
		<stop  offset="1" style="stop-color:#2525A5"/>
	</radialGradient>
	<circle class="st17" cx="337.7" cy="138.3" r="7.2"/>
	<radialGradient id="SVGID_19_" cx="337.7329" cy="138.3309" r="5.6321" gradientUnits="userSpaceOnUse">
		<stop  offset="0" style="stop-color:#42FFFF"/>
		<stop  offset="8.020645e-02" style="stop-color:#3FEAF6"/>
		<stop  offset="0.417" style="stop-color:#3497D4"/>
		<stop  offset="0.693" style="stop-color:#2C59BB"/>
		<stop  offset="0.8943" style="stop-color:#2733AB"/>
		<stop  offset="1" style="stop-color:#2525A5"/>
	</radialGradient>
	<circle class="st18" cx="337.7" cy="138.3" r="5.6"/>
	<radialGradient id="SVGID_20_" cx="337.7329" cy="138.3309" r="4.0536" gradientUnits="userSpaceOnUse">
		<stop  offset="0" style="stop-color:#42FFFF"/>
		<stop  offset="8.020645e-02" style="stop-color:#3FEAF6"/>
		<stop  offset="0.417" style="stop-color:#3497D4"/>
		<stop  offset="0.693" style="stop-color:#2C59BB"/>
		<stop  offset="0.8943" style="stop-color:#2733AB"/>
		<stop  offset="1" style="stop-color:#2525A5"/>
	</radialGradient>
	<circle class="st19" cx="337.7" cy="138.3" r="4.1"/>
	<radialGradient id="SVGID_21_" cx="337.7329" cy="138.3309" r="2.1596" gradientUnits="userSpaceOnUse">
		<stop  offset="0" style="stop-color:#42FFFF"/>
		<stop  offset="8.020645e-02" style="stop-color:#3FEAF6"/>
		<stop  offset="0.417" style="stop-color:#3497D4"/>
		<stop  offset="0.693" style="stop-color:#2C59BB"/>
		<stop  offset="0.8943" style="stop-color:#2733AB"/>
		<stop  offset="1" style="stop-color:#2525A5"/>
	</radialGradient>
	<circle class="st20" cx="337.7" cy="138.3" r="2.2"/>
</g>
<g>
	<radialGradient id="SVGID_22_" cx="75.4845" cy="224.6" r="14.2356" gradientUnits="userSpaceOnUse">
		<stop  offset="0" style="stop-color:#42FFFF"/>
		<stop  offset="8.020645e-02" style="stop-color:#3FEAF6"/>
		<stop  offset="0.417" style="stop-color:#3497D4"/>
		<stop  offset="0.693" style="stop-color:#2C59BB"/>
		<stop  offset="0.8943" style="stop-color:#2733AB"/>
		<stop  offset="1" style="stop-color:#2525A5"/>
	</radialGradient>
	<circle class="st21" cx="75.5" cy="224.6" r="14.2"/>
	<radialGradient id="SVGID_23_" cx="75.4845" cy="224.6" r="12.3659" gradientUnits="userSpaceOnUse">
		<stop  offset="0" style="stop-color:#42FFFF"/>
		<stop  offset="8.020645e-02" style="stop-color:#3FEAF6"/>
		<stop  offset="0.417" style="stop-color:#3497D4"/>
		<stop  offset="0.693" style="stop-color:#2C59BB"/>
		<stop  offset="0.8943" style="stop-color:#2733AB"/>
		<stop  offset="1" style="stop-color:#2525A5"/>
	</radialGradient>
	<circle class="st22" cx="75.5" cy="224.6" r="12.4"/>
	<radialGradient id="SVGID_24_" cx="75.4844" cy="224.5999" r="9.6589" gradientUnits="userSpaceOnUse">
		<stop  offset="0" style="stop-color:#42FFFF"/>
		<stop  offset="8.020645e-02" style="stop-color:#3FEAF6"/>
		<stop  offset="0.417" style="stop-color:#3497D4"/>
		<stop  offset="0.693" style="stop-color:#2C59BB"/>
		<stop  offset="0.8943" style="stop-color:#2733AB"/>
		<stop  offset="1" style="stop-color:#2525A5"/>
	</radialGradient>
	<circle class="st23" cx="75.5" cy="224.6" r="9.7"/>
	<radialGradient id="SVGID_25_" cx="75.4844" cy="224.5999" r="6.9521" gradientUnits="userSpaceOnUse">
		<stop  offset="0" style="stop-color:#42FFFF"/>
		<stop  offset="8.020645e-02" style="stop-color:#3FEAF6"/>
		<stop  offset="0.417" style="stop-color:#3497D4"/>
		<stop  offset="0.693" style="stop-color:#2C59BB"/>
		<stop  offset="0.8943" style="stop-color:#2733AB"/>
		<stop  offset="1" style="stop-color:#2525A5"/>
	</radialGradient>
	<circle class="st24" cx="75.5" cy="224.6" r="7"/>
	<radialGradient id="SVGID_26_" cx="75.4844" cy="224.5999" r="3.7037" gradientUnits="userSpaceOnUse">
		<stop  offset="0" style="stop-color:#42FFFF"/>
		<stop  offset="8.020645e-02" style="stop-color:#3FEAF6"/>
		<stop  offset="0.417" style="stop-color:#3497D4"/>
		<stop  offset="0.693" style="stop-color:#2C59BB"/>
		<stop  offset="0.8943" style="stop-color:#2733AB"/>
		<stop  offset="1" style="stop-color:#2525A5"/>
	</radialGradient>
	<circle class="st25" cx="75.5" cy="224.6" r="3.7"/>
</g>
<g>
	<polygon class="st26" points="232.7,94.4 220,87.1 220,84.3 232.7,91.6 	"/>
	<polygon class="st26" points="239.3,98.2 234.7,95.6 234.7,92.8 239.3,95.4 	"/>
	<polygon class="st26" points="244.3,101.1 241.2,99.3 241.2,96.5 244.3,98.3 	"/>
	<polygon class="st26" points="226.9,97.5 220,93.5 220,90.7 226.9,94.7 	"/>
	<polygon class="st26" points="237.4,103.5 228.9,98.6 228.9,95.8 237.4,100.7 	"/>
	<polygon class="st26" points="242.5,106.5 239.3,104.7 239.3,101.9 242.5,103.7 	"/>
	<polygon class="st26" points="247.3,109.2 244.2,107.4 244.2,104.6 247.3,106.4 	"/>
	<polygon class="st27" points="225,102.8 220,99.9 220,97.1 225,100 	"/>
	<polygon class="st27" points="228.7,104.9 226.9,103.9 226.9,101.1 228.7,102.1 	"/>
	<polygon class="st26" points="233.7,107.8 230.6,106 230.6,103.2 233.7,105 	"/>
	<polygon class="st26" points="238.5,117 220,106.3 220,103.5 238.5,114.2 	"/>
	<polygon class="st26" points="245.1,120.8 240.5,118.1 240.5,115.3 245.1,118 	"/>
	<polygon class="st26" points="225,115.6 220,112.7 220,109.9 225,112.8 	"/>
	<polygon class="st26" points="236.8,122.4 226.9,116.7 226.9,113.9 236.8,119.6 	"/>
	<polygon class="st26" points="241.9,125.3 238.8,123.5 238.8,120.7 241.9,122.5 	"/>
	<polygon class="st26" points="230.3,125 220,119.1 220,116.3 230.3,122.2 	"/>
	<polygon class="st27" points="239.7,130.4 232.2,126.1 232.2,123.3 239.7,127.6 	"/>
	<polygon class="st26" points="246.6,134.5 241.6,131.6 241.6,128.8 246.6,131.7 	"/>
	<polygon class="st26" points="223.4,127.5 220,125.5 220,122.7 223.4,124.7 	"/>
	<polygon class="st26" points="230,131.3 225.4,128.6 225.4,125.8 230,128.5 	"/>
	<polygon class="st26" points="239.3,136.7 231.9,132.4 231.9,129.6 239.3,133.9 	"/>
	<polygon class="st26" points="230.6,138 220,131.9 220,129.1 230.6,135.2 	"/>
	<polygon class="st26" points="242.5,144.9 232.6,139.2 232.6,136.4 242.5,142.1 	"/>
	<polygon class="st27" points="247.6,147.8 244.5,146 244.5,143.2 247.6,145 	"/>
	<polygon class="st26" points="252.5,150.6 249.4,148.8 249.4,146 252.5,147.8 	"/>
	<polygon class="st26" points="226.3,142 220,138.3 220,135.5 226.3,139.2 	"/>
	<polygon class="st27" points="253,106.2 261.9,111.3 261.9,108.5 253,103.4 	"/>
	<polygon class="st26" points="254.9,113.7 261.9,117.7 261.9,114.9 254.9,110.9 	"/>
	<polygon class="st26" points="256.8,121.2 261.9,124.1 261.9,121.3 256.8,118.4 	"/>
	<polygon class="st26" points="254.6,126.2 261.9,130.5 261.9,127.7 254.6,123.4 	"/>
	<polygon class="st26" points="256.8,134 261.9,136.9 261.9,134.1 256.8,131.2 	"/>
	<polygon class="st26" points="255.5,139.6 261.9,143.3 261.9,140.5 255.5,136.8 	"/>
	<polygon class="st26" points="258.4,147.7 261.9,149.7 261.9,146.9 258.4,144.9 	"/>
	<polygon class="st26" points="255.1,152.2 261.9,156.1 261.9,153.3 255.1,149.4 	"/>
	<polygon class="st26" points="255.5,158.8 261.9,162.5 261.9,159.7 255.5,156 	"/>
	<polygon class="st26" points="231,144.7 228.3,143.1 228.3,140.3 231,141.9 	"/>
	<polygon class="st26" points="239.1,149.3 233,145.8 233,143 239.1,146.5 	"/>
	<polygon class="st26" points="282.2,122.9 269.4,115.5 269.4,112.7 282.2,120.1 	"/>
	<polygon class="st26" points="288.8,126.7 284.2,124 284.2,121.2 288.8,123.9 	"/>
	<polygon class="st27" points="293.8,129.6 290.7,127.8 290.7,125 293.8,126.8 	"/>
	<polygon class="st26" points="276.4,125.9 269.4,121.9 269.4,119.1 276.4,123.1 	"/>
	<polygon class="st26" points="286.9,132 278.3,127.1 278.3,124.3 286.9,129.2 	"/>
	<polygon class="st27" points="291.9,134.9 288.8,133.1 288.8,130.3 291.9,132.1 	"/>
	<polygon class="st26" points="296.8,137.7 293.6,135.9 293.6,133.1 296.8,134.9 	"/>
	<polygon class="st26" points="274.5,131.2 269.4,128.3 269.4,125.5 274.5,128.4 	"/>
	<polygon class="st26" points="278.1,133.4 276.4,132.4 276.4,129.6 278.1,130.6 	"/>
	<polygon class="st26" points="283.2,136.3 280.1,134.5 280.1,131.7 283.2,133.5 	"/>
	<polygon class="st26" points="288,145.5 269.4,134.7 269.4,131.9 288,142.6 	"/>
	<polygon class="st26" points="294.6,149.2 290,146.6 290,143.8 294.6,146.4 	"/>
	<polygon class="st26" points="274.5,144 269.4,141.1 269.4,138.3 274.5,141.2 	"/>
	<polygon class="st26" points="286.3,150.9 276.4,145.2 276.4,142.4 286.3,148.1 	"/>
	<polygon class="st26" points="291.4,153.8 288.2,152 288.2,149.2 291.4,151 	"/>
	<polygon class="st27" points="279.7,153.5 269.4,147.5 269.4,144.7 279.7,150.7 	"/>
	<polygon class="st26" points="289.1,158.9 281.7,154.6 281.7,151.8 289.1,156.1 	"/>
	<polygon class="st26" points="296.1,162.9 291.1,160 291.1,157.2 296.1,160.1 	"/>
	<polygon class="st26" points="272.9,155.9 269.4,153.9 269.4,151.1 272.9,153.1 	"/>
	<polygon class="st26" points="279.5,159.7 274.9,157.1 274.9,154.3 279.5,156.9 	"/>
	<polygon class="st27" points="288.8,165.1 281.4,160.8 281.4,158 288.8,162.3 	"/>
	<polygon class="st26" points="280.1,166.5 269.4,160.3 269.4,157.5 280.1,163.7 	"/>
	<polygon class="st26" points="292,173.4 282,167.6 282,164.8 292,170.6 	"/>
	<polygon class="st26" points="297.1,176.3 294,174.5 294,171.7 297.1,173.5 	"/>
	<polygon class="st26" points="302,179.1 298.8,177.3 298.8,174.5 302,176.3 	"/>
	<polygon class="st26" points="275.8,170.4 269.4,166.7 269.4,163.9 275.8,167.6 	"/>
	<polygon class="st27" points="302.5,134.6 311.4,139.7 311.4,136.9 302.5,131.8 	"/>
	<polygon class="st26" points="304.4,142.1 311.4,146.1 311.4,143.3 304.4,139.3 	"/>
	<polygon class="st26" points="306.3,149.6 311.4,152.5 311.4,149.7 306.3,146.8 	"/>
	<polygon class="st26" points="304,154.7 311.4,158.9 311.4,156.1 304,151.9 	"/>
	<polygon class="st26" points="306.3,162.4 311.4,165.3 311.4,162.5 306.3,159.6 	"/>
	<polygon class="st26" points="305,168 311.4,171.7 311.4,168.9 305,165.2 	"/>
	<polygon class="st26" points="307.9,176.1 311.4,178.1 311.4,175.3 307.9,173.3 	"/>
	<polygon class="st26" points="304.6,180.6 311.4,184.5 311.4,181.7 304.6,177.8 	"/>
	<polygon class="st26" points="305,187.2 311.4,190.9 311.4,188.1 305,184.4 	"/>
	<polygon class="st27" points="280.5,173.1 277.8,171.5 277.8,168.7 280.5,170.3 	"/>
	<polygon class="st26" points="288.5,177.8 282.4,174.2 282.4,171.4 288.5,175 	"/>
	<polygon class="st26" points="232.7,152.1 220,144.7 220,141.9 232.7,149.3 	"/>
	<polygon class="st26" points="239.3,155.9 234.7,153.2 234.7,150.4 239.3,153.1 	"/>
	<polygon class="st26" points="244.3,158.8 241.2,157 241.2,154.2 244.3,156 	"/>
	<polygon class="st26" points="226.9,155.1 220,151.1 220,148.3 226.9,152.3 	"/>
	<polygon class="st26" points="237.4,161.2 228.9,156.3 228.9,153.5 237.4,158.4 	"/>
	<polygon class="st26" points="242.5,164.1 239.3,162.3 239.3,159.5 242.5,161.3 	"/>
	<polygon class="st26" points="247.3,166.9 244.2,165.1 244.2,162.3 247.3,164.1 	"/>
	<polygon class="st26" points="225,160.4 220,157.5 220,154.7 225,157.6 	"/>
	<polygon class="st26" points="228.7,162.5 226.9,161.5 226.9,158.7 228.7,159.7 	"/>
	<polygon class="st26" points="233.7,165.5 230.6,163.7 230.6,160.9 233.7,162.7 	"/>
	<polygon class="st26" points="238.5,174.6 220,163.9 220,161.1 238.5,171.8 	"/>
	<polygon class="st26" points="245.1,178.4 240.5,175.8 240.5,173 245.1,175.6 	"/>
	<polygon class="st26" points="225,173.2 220,170.3 220,167.5 225,170.4 	"/>
	<polygon class="st26" points="236.8,180 226.9,174.4 226.9,171.5 236.8,177.2 	"/>
	<polygon class="st26" points="241.9,183 238.8,181.2 238.8,178.4 241.9,180.2 	"/>
	<polygon class="st26" points="230.3,182.7 220,176.7 220,173.9 230.3,179.9 	"/>
	<polygon class="st26" points="239.7,188.1 232.2,183.8 232.2,181 239.7,185.3 	"/>
	<polygon class="st26" points="246.6,192.1 241.6,189.2 241.6,186.4 246.6,189.3 	"/>
	<polygon class="st26" points="223.4,185.1 220,183.1 220,180.3 223.4,182.3 	"/>
	<polygon class="st26" points="230,188.9 225.4,186.3 225.4,183.5 230,186.1 	"/>
	<polygon class="st26" points="239.3,194.3 231.9,190 231.9,187.2 239.3,191.5 	"/>
	<polygon class="st26" points="230.6,195.7 220,189.5 220,186.7 230.6,192.9 	"/>
	<polygon class="st26" points="242.5,202.6 232.6,196.8 232.6,194 242.5,199.8 	"/>
	<polygon class="st26" points="247.6,205.5 244.5,203.7 244.5,200.9 247.6,202.7 	"/>
	<polygon class="st26" points="252.5,208.3 249.4,206.5 249.4,203.7 252.5,205.5 	"/>
	<polygon class="st26" points="226.3,199.6 220,195.9 220,193.1 226.3,196.8 	"/>
	<polygon class="st26" points="253,163.8 261.9,168.9 261.9,166.1 253,161 	"/>
	<polygon class="st26" points="254.9,171.3 261.9,175.3 261.9,172.5 254.9,168.5 	"/>
	<polygon class="st26" points="256.8,178.8 261.9,181.7 261.9,178.9 256.8,176 	"/>
	<polygon class="st26" points="254.6,183.9 261.9,188.1 261.9,185.3 254.6,181.1 	"/>
	<polygon class="st26" points="256.8,191.6 261.9,194.5 261.9,191.7 256.8,188.8 	"/>
	<polygon class="st26" points="255.5,197.2 261.9,200.9 261.9,198.1 255.5,194.4 	"/>
	<polygon class="st26" points="258.4,205.3 261.9,207.3 261.9,204.5 258.4,202.5 	"/>
	<polygon class="st26" points="255.1,209.8 261.9,213.7 261.9,210.9 255.1,207 	"/>
	<polygon class="st26" points="255.5,216.4 261.9,220.1 261.9,217.3 255.5,213.6 	"/>
	<polygon class="st26" points="231,202.3 228.3,200.7 228.3,197.9 231,199.5 	"/>
	<polygon class="st26" points="239.1,207 233,203.4 233,200.6 239.1,204.1 	"/>
	<polygon class="st26" points="244.1,228.5 233.8,222.5 233.8,219.7 244.1,225.7 	"/>
	<polygon class="st26" points="251.2,232.6 247.1,230.2 247.1,227.4 251.2,229.8 	"/>
	<polygon class="st26" points="282.2,180.5 269.4,173.2 269.4,170.4 282.2,177.7 	"/>
	<polygon class="st26" points="288.8,184.3 284.2,181.7 284.2,178.9 288.8,181.5 	"/>
	<polygon class="st26" points="293.8,187.2 290.7,185.4 290.7,182.6 293.8,184.4 	"/>
	<polygon class="st26" points="276.4,183.6 269.4,179.6 269.4,176.8 276.4,180.8 	"/>
	<polygon class="st26" points="286.9,189.6 278.3,184.7 278.3,181.9 286.9,186.8 	"/>
	<polygon class="st26" points="291.9,192.6 288.8,190.8 288.8,188 291.9,189.8 	"/>
	<polygon class="st26" points="296.8,195.3 293.6,193.5 293.6,190.7 296.8,192.5 	"/>
	<polygon class="st26" points="274.5,188.9 269.4,186 269.4,183.2 274.5,186.1 	"/>
	<polygon class="st26" points="278.1,191 276.4,190 276.4,187.2 278.1,188.2 	"/>
	<polygon class="st26" points="283.2,193.9 280.1,192.1 280.1,189.3 283.2,191.1 	"/>
	<polygon class="st26" points="288,203.1 269.4,192.4 269.4,189.6 288,200.3 	"/>
	<polygon class="st26" points="294.6,206.9 290,204.2 290,201.4 294.6,204.1 	"/>
	<polygon class="st26" points="274.5,201.7 269.4,198.8 269.4,196 274.5,198.9 	"/>
	<polygon class="st26" points="286.3,208.5 276.4,202.8 276.4,200 286.3,205.7 	"/>
	<polygon class="st26" points="291.4,211.4 288.2,209.6 288.2,206.8 291.4,208.6 	"/>
	<polygon class="st26" points="279.7,211.1 269.4,205.2 269.4,202.4 279.7,208.3 	"/>
	<polygon class="st26" points="289.1,216.5 281.7,212.2 281.7,209.4 289.1,213.7 	"/>
	<polygon class="st26" points="296.1,220.6 291.1,217.7 291.1,214.9 296.1,217.8 	"/>
	<polygon class="st26" points="272.9,213.6 269.4,211.6 269.4,208.8 272.9,210.8 	"/>
	<polygon class="st26" points="279.5,217.4 274.9,214.7 274.9,211.9 279.5,214.6 	"/>
	<polygon class="st26" points="288.8,222.8 281.4,218.5 281.4,215.7 288.8,220 	"/>
	<polygon class="st26" points="280.1,224.1 269.4,218 269.4,215.2 280.1,221.3 	"/>
	<polygon class="st26" points="292,231 282,225.3 282,222.5 292,228.2 	"/>
	<polygon class="st26" points="297.1,233.9 294,232.1 294,229.3 297.1,231.1 	"/>
	<polygon class="st26" points="302,236.7 298.8,234.9 298.8,232.1 302,233.9 	"/>
	<polygon class="st26" points="275.8,228.1 269.4,224.4 269.4,221.6 275.8,225.3 	"/>
	<polygon class="st26" points="302.5,192.3 311.4,197.4 311.4,194.6 302.5,189.5 	"/>
	<polygon class="st26" points="304.4,199.8 311.4,203.8 311.4,201 304.4,197 	"/>
	<polygon class="st26" points="306.3,207.3 311.4,210.2 311.4,207.4 306.3,204.5 	"/>
	<polygon class="st26" points="304,212.3 311.4,216.6 311.4,213.8 304,209.5 	"/>
	<polygon class="st26" points="306.3,220.1 311.4,223 311.4,220.2 306.3,217.3 	"/>
	<polygon class="st26" points="305,225.7 311.4,229.4 311.4,226.6 305,222.9 	"/>
	<polygon class="st26" points="307.9,233.8 311.4,235.8 311.4,233 307.9,231 	"/>
	<polygon class="st26" points="304.6,238.3 311.4,242.2 311.4,239.4 304.6,235.5 	"/>
	<polygon class="st26" points="305,244.9 311.4,248.6 311.4,245.8 305,242.1 	"/>
	<polygon class="st26" points="280.5,230.8 277.8,229.2 277.8,226.4 280.5,228 	"/>
	<polygon class="st26" points="288.5,235.4 282.4,231.9 282.4,229.1 288.5,232.6 	"/>
	<polygon class="st26" points="293.6,256.9 283.3,251 283.3,248.2 293.6,254.1 	"/>
	<polygon class="st26" points="300.7,261 296.6,258.7 296.6,255.9 300.7,258.2 	"/>
</g>
<g>
	<linearGradient id="SVGID_27_" gradientUnits="userSpaceOnUse" x1="101.2083" y1="262.115" x2="235.2298" y2="262.115">
		<stop  offset="0" style="stop-color:#42FFFF"/>
		<stop  offset="0.1507" style="stop-color:#43FAFF"/>
		<stop  offset="0.3285" style="stop-color:#45ECFF"/>
		<stop  offset="0.5199" style="stop-color:#49D4FF"/>
		<stop  offset="0.7209" style="stop-color:#4EB3FF"/>
		<stop  offset="0.9274" style="stop-color:#5489FF"/>
		<stop  offset="1" style="stop-color:#5778FF"/>
	</linearGradient>
	<path class="st28" d="M168.2,301.6c-17.8,0-34.4-4-47-11.2c-12.9-7.5-20-17.5-20-28.2c0-10.7,7.1-20.8,20-28.2
		c25.9-15,68.1-15,94,0c12.9,7.5,20,17.5,20,28.2c0,10.8-7.1,20.8-20,28.2C202.7,297.6,186,301.6,168.2,301.6z M168.2,225.1
		c-16.6,0-33.1,3.6-45.8,10.9c-12.1,7-18.8,16.3-18.8,26.1c0,9.8,6.7,19.1,18.8,26.1c12.2,7,28.4,10.9,45.8,10.9
		c17.3,0,33.6-3.9,45.8-10.9c12.1-7,18.8-16.3,18.8-26.1c0-9.8-6.7-19.1-18.8-26.1C201.4,228.7,184.8,225.1,168.2,225.1z"/>
	<g class="st29">
		<path class="st30" d="M202.8,282.1c-19.1,11-50,11-69.1,0c-19.1-11-19.1-28.9,0-39.9c19.1-11,50-11,69.1,0
			C221.9,253.2,221.9,271,202.8,282.1z"/>
	</g>
	<g>
		<g>
			<linearGradient id="SVGID_28_" gradientUnits="userSpaceOnUse" x1="108.3559" y1="240.8254" x2="228.0816" y2="240.8254">
				<stop  offset="0" style="stop-color:#5778FF"/>
				<stop  offset="0.1779" style="stop-color:#5C7DFF"/>
				<stop  offset="0.3876" style="stop-color:#6A8AFF"/>
				<stop  offset="0.6134" style="stop-color:#82A0FF"/>
				<stop  offset="0.849" style="stop-color:#A3BEFF"/>
				<stop  offset="1" style="stop-color:#BCD5FF"/>
			</linearGradient>
			<path class="st31" d="M228.1,240.8v-13.3h-4.6c-2.9-4.1-7.2-7.9-12.9-11.2c-23.4-13.5-61.3-13.5-84.7,0
				c-5.7,3.3-10,7.1-12.9,11.2h-4.6v13.3l0,0c0,8.8,5.8,17.7,17.5,24.4c23.4,13.5,61.3,13.5,84.7,0
				C222.2,258.5,228.1,249.7,228.1,240.8z"/>
			<path class="st32" d="M210.5,252c-23.4,13.5-61.3,13.5-84.7,0c-23.4-13.5-23.4-35.4,0-48.9c23.4-13.5,61.3-13.5,84.7,0
				C233.9,216.6,233.9,238.5,210.5,252z"/>
		</g>
		<g>
			<path class="st30" d="M223.5,227v-18.1h-4.2c-2.7-3.7-6.7-7.3-12-10.3c-21.6-12.5-56.6-12.5-78.2,0c-5.3,3-9.3,6.6-12,10.3h-4.2
				V227l0,0c0,8.2,5.4,16.3,16.2,22.6c21.6,12.5,56.6,12.5,78.2,0C218.1,243.4,223.5,235.2,223.5,227z"/>
			<g class="st33">
				<path class="st34" d="M223.5,222.7v-18.1h-4.2c-2.7-3.7-6.7-7.3-12-10.3c-21.6-12.5-56.6-12.5-78.2,0c-5.3,3-9.3,6.6-12,10.3
					h-4.2v18.1l0,0c0,8.2,5.4,16.3,16.2,22.6c21.6,12.5,56.6,12.5,78.2,0C218.1,239,223.5,230.8,223.5,222.7z"/>
			</g>
			<path class="st32" d="M207.3,231.5c-21.6,12.5-56.6,12.5-78.2,0c-21.6-12.5-21.6-32.7,0-45.1c21.6-12.5,56.6-12.5,78.2,0
				C228.9,198.8,228.9,219,207.3,231.5z"/>
		</g>
		<g>
			<g class="st33">
				<path class="st35" d="M206.3,232.4c-9.5,12.1-22,18.6-32.6,22c12.3-0.7,24.2-3.8,33.6-9.2c10.8-6.2,16.2-14.4,16.2-22.6v-5.4
					C217.9,220.4,212,225.2,206.3,232.4z"/>
			</g>
			<linearGradient id="SVGID_29_" gradientUnits="userSpaceOnUse" x1="108.3559" y1="208.6177" x2="228.0816" y2="208.6177">
				<stop  offset="0" style="stop-color:#5778FF"/>
				<stop  offset="0.1779" style="stop-color:#5C7DFF"/>
				<stop  offset="0.3876" style="stop-color:#6A8AFF"/>
				<stop  offset="0.6134" style="stop-color:#82A0FF"/>
				<stop  offset="0.849" style="stop-color:#A3BEFF"/>
				<stop  offset="1" style="stop-color:#BCD5FF"/>
			</linearGradient>
			<path class="st36" d="M228.1,208.6v-13.3h-4.6c-2.9-4.1-7.2-7.9-12.9-11.2c-23.4-13.5-61.3-13.5-84.7,0
				c-5.7,3.3-10,7.1-12.9,11.2h-4.6v13.3l0,0c0,8.8,5.8,17.7,17.5,24.4c23.4,13.5,61.3,13.5,84.7,0
				C222.2,226.3,228.1,217.5,228.1,208.6z"/>
			<path class="st32" d="M210.5,219.8c-23.4,13.5-61.3,13.5-84.7,0c-23.4-13.5-23.4-35.4,0-48.9c23.4-13.5,61.3-13.5,84.7,0
				C233.9,184.4,233.9,206.3,210.5,219.8z"/>
		</g>
		<g>
			<path class="st30" d="M223.5,194.2V176h-4.2c-2.7-3.7-6.7-7.3-12-10.3c-21.6-12.5-56.6-12.5-78.2,0c-5.3,3-9.3,6.6-12,10.3h-4.2
				v18.1l0,0c0,8.2,5.4,16.3,16.2,22.6c21.6,12.5,56.6,12.5,78.2,0C218.1,210.5,223.5,202.3,223.5,194.2z"/>
			<g class="st33">
				<path class="st34" d="M223.5,190v-18.1h-4.2c-2.7-3.7-6.7-7.3-12-10.3c-21.6-12.5-56.6-12.5-78.2,0c-5.3,3-9.3,6.6-12,10.3h-4.2
					V190l0,0c0,8.2,5.4,16.3,16.2,22.6c21.6,12.5,56.6,12.5,78.2,0C218.1,206.4,223.5,198.2,223.5,190z"/>
			</g>
			<path class="st32" d="M207.3,198.6c-21.6,12.5-56.6,12.5-78.2,0s-21.6-32.7,0-45.1c21.6-12.5,56.6-12.5,78.2,0
				C228.9,165.9,228.9,186.1,207.3,198.6z"/>
		</g>
		<g>
			<g class="st33">
				<path class="st35" d="M206.3,197.8c-11.8,15-28.3,21.4-40,24.1c14.8,0.3,29.7-2.8,41-9.3c10.8-6.2,16.2-14.4,16.2-22.6v-7.3
					C217.9,185.8,212,190.6,206.3,197.8z"/>
			</g>
			<linearGradient id="SVGID_30_" gradientUnits="userSpaceOnUse" x1="108.3559" y1="175.7413" x2="228.0816" y2="175.7413">
				<stop  offset="0" style="stop-color:#5778FF"/>
				<stop  offset="0.1779" style="stop-color:#5C7DFF"/>
				<stop  offset="0.3876" style="stop-color:#6A8AFF"/>
				<stop  offset="0.6134" style="stop-color:#82A0FF"/>
				<stop  offset="0.849" style="stop-color:#A3BEFF"/>
				<stop  offset="1" style="stop-color:#BCD5FF"/>
			</linearGradient>
			<path class="st37" d="M228.1,175.7v-13.3h-4.6c-2.9-4.1-7.2-7.9-12.9-11.2c-23.4-13.5-61.3-13.5-84.7,0
				c-5.7,3.3-10,7.1-12.9,11.2h-4.6v13.3l0,0c0,8.8,5.8,17.7,17.5,24.4c23.4,13.5,61.3,13.5,84.7,0
				C222.2,193.4,228.1,184.6,228.1,175.7z"/>
			<path class="st32" d="M210.5,186.9c-23.4,13.5-61.3,13.5-84.7,0c-23.4-13.5-23.4-35.4,0-48.9c23.4-13.5,61.3-13.5,84.7,0
				C233.9,151.5,233.9,173.4,210.5,186.9z"/>
		</g>
		<g>
			<path class="st30" d="M223.5,161.3v-18.1h-4.2c-2.7-3.7-6.7-7.3-12-10.3c-21.6-12.5-56.6-12.5-78.2,0c-5.3,3-9.3,6.6-12,10.3
				h-4.2v18.1l0,0c0,8.2,5.4,16.3,16.2,22.6c21.6,12.5,56.6,12.5,78.2,0C218.1,177.6,223.5,169.5,223.5,161.3z"/>
			<g class="st33">
				<path class="st34" d="M223.5,156.2v-18.1h-4.2c-2.7-3.7-6.7-7.3-12-10.3c-21.6-12.5-56.6-12.5-78.2,0c-5.3,3-9.3,6.6-12,10.3
					h-4.2v18.1l0,0c0,8.2,5.4,16.3,16.2,22.6c21.6,12.5,56.6,12.5,78.2,0C218.1,172.5,223.5,164.4,223.5,156.2z"/>
			</g>
			<path class="st32" d="M207.3,165.7c-21.6,12.5-56.6,12.5-78.2,0c-21.6-12.5-21.6-32.7,0-45.1c21.6-12.5,56.6-12.5,78.2,0
				S228.9,153.3,207.3,165.7z"/>
		</g>
		<g>
			<linearGradient id="SVGID_31_" gradientUnits="userSpaceOnUse" x1="108.3559" y1="142.8648" x2="228.0816" y2="142.8648">
				<stop  offset="0" style="stop-color:#5778FF"/>
				<stop  offset="0.1779" style="stop-color:#5C7DFF"/>
				<stop  offset="0.3876" style="stop-color:#6A8AFF"/>
				<stop  offset="0.6134" style="stop-color:#82A0FF"/>
				<stop  offset="0.849" style="stop-color:#A3BEFF"/>
				<stop  offset="1" style="stop-color:#BCD5FF"/>
			</linearGradient>
			<path class="st38" d="M228.1,142.9v-13.3h-4.6c-2.9-4.1-7.2-7.9-12.9-11.2c-23.4-13.5-61.3-13.5-84.7,0
				c-5.7,3.3-10,7.1-12.9,11.2h-4.6v13.3l0,0c0,8.8,5.8,17.7,17.5,24.4c23.4,13.5,61.3,13.5,84.7,0
				C222.2,160.6,228.1,151.7,228.1,142.9z"/>
			<path class="st32" d="M210.5,154c-23.4,13.5-61.3,13.5-84.7,0c-23.4-13.5-23.4-35.4,0-48.9c23.4-13.5,61.3-13.5,84.7,0
				C233.9,118.6,233.9,140.5,210.5,154z"/>
			<path class="st32" d="M210.5,154c-23.4,13.5-61.3,13.5-84.7,0c-23.4-13.5-23.4-35.4,0-48.9c23.4-13.5,61.3-13.5,84.7,0
				C233.9,118.6,233.9,140.5,210.5,154z"/>
		</g>
		<g>
			<g class="st33">
				<path class="st35" d="M206.3,163.2c-13,16.5-31.6,22.6-43.2,24.7c15.8,0.8,32.1-2.2,44.2-9.2c10.8-6.2,16.2-14.4,16.2-22.6v-8.1
					C217.9,151.2,212,156,206.3,163.2z"/>
			</g>
			<linearGradient id="SVGID_32_" gradientUnits="userSpaceOnUse" x1="108.3559" y1="142.8648" x2="228.0816" y2="142.8648">
				<stop  offset="0" style="stop-color:#5778FF"/>
				<stop  offset="0.1779" style="stop-color:#5C7DFF"/>
				<stop  offset="0.3876" style="stop-color:#6A8AFF"/>
				<stop  offset="0.6134" style="stop-color:#82A0FF"/>
				<stop  offset="0.849" style="stop-color:#A3BEFF"/>
				<stop  offset="1" style="stop-color:#BCD5FF"/>
			</linearGradient>
			<path class="st39" d="M228.1,142.9v-13.3h-4.6c-2.9-4.1-7.2-7.9-12.9-11.2c-23.4-13.5-61.3-13.5-84.7,0
				c-5.7,3.3-10,7.1-12.9,11.2h-4.6v13.3l0,0c0,8.8,5.8,17.7,17.5,24.4c23.4,13.5,61.3,13.5,84.7,0
				C222.2,160.6,228.1,151.7,228.1,142.9z"/>
			<path class="st32" d="M210.5,154c-23.4,13.5-61.3,13.5-84.7,0c-23.4-13.5-23.4-35.4,0-48.9c23.4-13.5,61.3-13.5,84.7,0
				C233.9,118.6,233.9,140.5,210.5,154z"/>
			<path class="st32" d="M210.5,154c-23.4,13.5-61.3,13.5-84.7,0c-23.4-13.5-23.4-35.4,0-48.9c23.4-13.5,61.3-13.5,84.7,0
				C233.9,118.6,233.9,140.5,210.5,154z"/>
			<path class="st40" d="M210.9,153c-23.4,13.5-61.3,13.5-84.7,0c-14.3-8.3-19.8-19.7-16.6-30.4c-3.9,11,1.5,22.9,16.3,31.4
				c23.4,13.5,61.3,13.5,84.7,0c9.1-5.2,14.6-11.7,16.6-18.5C224.9,141.9,219.5,148,210.9,153z"/>
			<path class="st40" d="M210.9,185.8c-23.4,13.5-61.3,13.5-84.7,0c-14.3-8.3-19.8-19.7-16.6-30.4c-3.9,11,1.5,22.9,16.3,31.4
				c23.4,13.5,61.3,13.5,84.7,0c9.1-5.2,14.6-11.7,16.6-18.5C224.9,174.8,219.5,180.9,210.9,185.8z"/>
			<path class="st40" d="M210.9,218.7c-23.4,13.5-61.3,13.5-84.7,0c-14.3-8.3-19.8-19.7-16.6-30.4c-3.9,11,1.5,22.9,16.3,31.4
				c23.4,13.5,61.3,13.5,84.7,0c9.1-5.2,14.6-11.7,16.6-18.5C224.9,207.7,219.5,213.8,210.9,218.7z"/>
			<path class="st40" d="M210.9,251.6c-23.4,13.5-61.3,13.5-84.7,0c-14.3-8.3-19.8-19.7-16.6-30.4c-3.9,11,1.5,22.9,16.3,31.4
				c23.4,13.5,61.3,13.5,84.7,0c9.1-5.2,14.6-11.7,16.6-18.5C224.9,240.5,219.5,246.6,210.9,251.6z"/>
		</g>
		<defs>
			<filter id="Adobe_OpacityMaskFilter" filterUnits="userSpaceOnUse" x="108.4" y="112" width="59.9" height="32">
				<feFlood  style="flood-color:white;flood-opacity:1" result="back"/>
				<feBlend  in="SourceGraphic" in2="back" mode="normal"/>
			</filter>
		</defs>
		<mask maskUnits="userSpaceOnUse" x="108.4" y="112" width="59.9" height="32" id="SVGID_33_">
			<g class="st41">
				<defs>
					<filter id="Adobe_OpacityMaskFilter_1_" filterUnits="userSpaceOnUse" x="108.4" y="112" width="59.9" height="32">
						<feFlood  style="flood-color:white;flood-opacity:1" result="back"/>
						<feBlend  in="SourceGraphic" in2="back" mode="normal"/>
					</filter>
				</defs>
				<mask maskUnits="userSpaceOnUse" x="108.4" y="112" width="59.9" height="32" id="SVGID_33_">
					<g class="st42">
					</g>
				</mask>
				<linearGradient id="SVGID_34_" gradientUnits="userSpaceOnUse" x1="108.3574" y1="128.0694" x2="168.2188" y2="128.0694">
					<stop  offset="0" style="stop-color:#000000"/>
					<stop  offset="4.693538e-02" style="stop-color:#2F2F2F"/>
					<stop  offset="9.814870e-02" style="stop-color:#5A5A5A"/>
					<stop  offset="0.155" style="stop-color:#828282"/>
					<stop  offset="0.2161" style="stop-color:#A4A4A4"/>
					<stop  offset="0.2828" style="stop-color:#C0C0C0"/>
					<stop  offset="0.3571" style="stop-color:#D7D7D7"/>
					<stop  offset="0.442" style="stop-color:#E9E9E9"/>
					<stop  offset="0.5443" style="stop-color:#F6F6F6"/>
					<stop  offset="0.6813" style="stop-color:#FDFDFD"/>
					<stop  offset="1" style="stop-color:#FFFFFF"/>
				</linearGradient>
				<path class="st43" d="M113.9,144.1h54.3v-32h-51.6C106.6,121.8,105.7,133.9,113.9,144.1z"/>
			</g>
		</mask>
		<linearGradient id="SVGID_35_" gradientUnits="userSpaceOnUse" x1="108.3574" y1="128.0694" x2="168.2188" y2="128.0694">
			<stop  offset="0" style="stop-color:#E9FFFF"/>
			<stop  offset="3.739363e-02" style="stop-color:#D3EBFF"/>
			<stop  offset="0.1056" style="stop-color:#B2CCFF"/>
			<stop  offset="0.1817" style="stop-color:#96B2FF"/>
			<stop  offset="0.2663" style="stop-color:#7F9DFF"/>
			<stop  offset="0.3632" style="stop-color:#6D8CFF"/>
			<stop  offset="0.4798" style="stop-color:#6081FF"/>
			<stop  offset="0.6363" style="stop-color:#597AFF"/>
			<stop  offset="1" style="stop-color:#5778FF"/>
		</linearGradient>
		<path class="st44" d="M113.9,144.1h54.3v-32h-51.6C106.6,121.8,105.7,133.9,113.9,144.1z"/>
		<g>
			<linearGradient id="SVGID_36_" gradientUnits="userSpaceOnUse" x1="137.4837" y1="126.3519" x2="198.9539" y2="126.3519">
				<stop  offset="0" style="stop-color:#5778FF"/>
				<stop  offset="0.1779" style="stop-color:#5C7DFF"/>
				<stop  offset="0.3876" style="stop-color:#6A8AFF"/>
				<stop  offset="0.6134" style="stop-color:#82A0FF"/>
				<stop  offset="0.849" style="stop-color:#A3BEFF"/>
				<stop  offset="1" style="stop-color:#BCD5FF"/>
			</linearGradient>
			<path class="st45" d="M199,126.4v-6.8h-2.4c-1.5-2.1-3.7-4-6.6-5.7c-12-6.9-31.5-6.9-43.5,0c-2.9,1.7-5.1,3.6-6.6,5.7h-2.4v6.8
				l0,0c0,4.5,3,9.1,9,12.5c12,6.9,31.5,6.9,43.5,0C196,135.4,199,130.9,199,126.4z"/>
			<path class="st32" d="M190,132.1c-12,6.9-31.5,6.9-43.5,0c-12-6.9-12-18.2,0-25.1c12-6.9,31.5-6.9,43.5,0
				C202,113.9,202,125.2,190,132.1z"/>
			<linearGradient id="SVGID_37_" gradientUnits="userSpaceOnUse" x1="137.4836" y1="119.5328" x2="198.9539" y2="119.5328">
				<stop  offset="0" style="stop-color:#C0D6FF"/>
				<stop  offset="0.2978" style="stop-color:#C5DBFF"/>
				<stop  offset="0.6488" style="stop-color:#D3E9FF"/>
				<stop  offset="1" style="stop-color:#E9FFFF"/>
			</linearGradient>
			<path class="st46" d="M190,132.1c-12,6.9-31.5,6.9-43.5,0c-12-6.9-12-18.2,0-25.1c12-6.9,31.5-6.9,43.5,0
				C202,113.9,202,125.2,190,132.1z"/>
			<path class="st30" d="M182.9,128c-8.1,4.7-21.2,4.7-29.3,0c-2.5-1.5-4.3-3.2-5.2-5c-2.1-4.1,3.1-7,8.7-10.2
				c8.1-4.7,13.8-5.8,21.9-1.2c5.6,3.2,11.2,7.3,9.1,11.4C187.1,124.8,185.4,126.5,182.9,128z"/>
			<linearGradient id="SVGID_38_" gradientUnits="userSpaceOnUse" x1="147.5248" y1="115.2637" x2="188.9127" y2="115.2637">
				<stop  offset="0" style="stop-color:#BCD5FF"/>
				<stop  offset="0.151" style="stop-color:#A3BEFF"/>
				<stop  offset="0.3866" style="stop-color:#82A0FF"/>
				<stop  offset="0.6124" style="stop-color:#6A8AFF"/>
				<stop  offset="0.8221" style="stop-color:#5C7DFF"/>
				<stop  offset="1" style="stop-color:#5778FF"/>
			</linearGradient>
			<path class="st47" d="M153.6,117.9c8.1-4.7,21.2-4.7,29.3,0c2.5,1.5,4.3,3.2,5.2,5c2.1-4.1,0.4-8.6-5.2-11.9
				c-8.1-4.7-21.2-4.7-29.3,0c-5.6,3.2-7.3,7.8-5.2,11.9C149.3,121.1,151.1,119.4,153.6,117.9z"/>
		</g>
	</g>
	<g>
		<g class="st33">
			<path class="st48" d="M201.9,180c-4,1.6-7,1.2-6.7-1c0.3-2.1,3.8-5.1,7.9-6.7c4-1.6,7-1.2,6.7,1
				C209.5,175.4,205.9,178.4,201.9,180z"/>
		</g>
		<g class="st33">
			<path class="st48" d="M201.9,213.4c-4,1.6-7,1.2-6.7-1c0.3-2.1,3.8-5.1,7.9-6.7c4-1.6,7-1.2,6.7,1
				C209.5,208.8,205.9,211.8,201.9,213.4z"/>
		</g>
		<g class="st33">
			<path class="st48" d="M202.1,246.9c-4,1.6-7,1.2-6.7-1c0.3-2.1,3.8-5.1,7.9-6.7c4-1.6,7-1.2,6.7,1
				C209.7,242.3,206.2,245.3,202.1,246.9z"/>
		</g>
		<g class="st33">
			
				<ellipse transform="matrix(0.8139 -0.5811 0.5811 0.8139 -59.4329 155.1642)" class="st48" cx="212.5" cy="170.3" rx="2.1" ry="1.6"/>
		</g>
		<g class="st33">
			
				<ellipse transform="matrix(0.8139 -0.581 0.581 0.8139 -78.8979 161.3946)" class="st48" cx="212.5" cy="203.8" rx="2.1" ry="1.6"/>
		</g>
		<g class="st33">
			
				<ellipse transform="matrix(0.8139 -0.581 0.581 0.8139 -98.2914 167.607)" class="st48" cx="212.5" cy="237.2" rx="2.1" ry="1.6"/>
		</g>
	</g>
</g>
<g>
	<linearGradient id="SVGID_39_" gradientUnits="userSpaceOnUse" x1="113.2829" y1="353.3421" x2="179.6962" y2="353.3421">
		<stop  offset="0" style="stop-color:#5778FF"/>
		<stop  offset="7.257640e-02" style="stop-color:#5489FF"/>
		<stop  offset="0.2791" style="stop-color:#4EB3FF"/>
		<stop  offset="0.4801" style="stop-color:#49D4FF"/>
		<stop  offset="0.6715" style="stop-color:#45ECFF"/>
		<stop  offset="0.8493" style="stop-color:#43FAFF"/>
		<stop  offset="1" style="stop-color:#42FFFF"/>
	</linearGradient>
	<path class="st49" d="M114.5,373.8c-0.4,0-0.8-0.2-1.1-0.6c-0.4-0.6-0.2-1.3,0.4-1.7l63.9-38.4c0.6-0.4,1.3-0.2,1.7,0.4
		c0.4,0.6,0.2,1.3-0.4,1.7l-63.9,38.4C115,373.7,114.7,373.8,114.5,373.8z"/>
	<linearGradient id="SVGID_40_" gradientUnits="userSpaceOnUse" x1="160.3314" y1="286.9874" x2="358.5237" y2="286.9874">
		<stop  offset="0" style="stop-color:#42FFFF"/>
		<stop  offset="0.1507" style="stop-color:#43FAFF"/>
		<stop  offset="0.3285" style="stop-color:#45ECFF"/>
		<stop  offset="0.5199" style="stop-color:#49D4FF"/>
		<stop  offset="0.7209" style="stop-color:#4EB3FF"/>
		<stop  offset="0.9274" style="stop-color:#5489FF"/>
		<stop  offset="1" style="stop-color:#5778FF"/>
	</linearGradient>
	<path class="st50" d="M199,344.7c-1.5,0-3.1-0.4-4.4-1.1l-32-18.5c-1.4-0.8-2.3-2-2.3-3.2c0-1.1,0.6-2.1,1.8-2.7l154.2-89
		c2.1-1.2,5.6-1.1,7.9,0.3l32,18.5c1.4,0.8,2.3,2,2.3,3.2c0,1.1-0.6,2.1-1.8,2.7l-154.2,89l0,0C201.6,344.4,200.3,344.7,199,344.7z
		 M201.9,342.8L201.9,342.8L201.9,342.8z M319.8,231.7c-0.9,0-1.7,0.2-2.3,0.5l-154.2,89c-0.3,0.2-0.5,0.4-0.5,0.6
		c0,0.3,0.3,0.7,1,1.1l32,18.5c1.6,0.9,4.1,1,5.4,0.3l154.2-89c0.3-0.2,0.5-0.4,0.5-0.6c0-0.3-0.3-0.7-1-1.1l-32-18.5
		C322.1,232,320.9,231.7,319.8,231.7z"/>
	<g>
		
			<linearGradient id="SVGID_41_" gradientUnits="userSpaceOnUse" x1="56.0882" y1="6.3111" x2="240.9992" y2="6.3111" gradientTransform="matrix(0.866 -0.5 0 1.1547 111.2956 292.7155)">
			<stop  offset="0" style="stop-color:#5778FF"/>
			<stop  offset="0.1779" style="stop-color:#5C7DFF"/>
			<stop  offset="0.3876" style="stop-color:#6A8AFF"/>
			<stop  offset="0.6134" style="stop-color:#82A0FF"/>
			<stop  offset="0.849" style="stop-color:#A3BEFF"/>
			<stop  offset="1" style="stop-color:#BCD5FF"/>
		</linearGradient>
		<path class="st51" d="M294.2,178.6c-4.1,2.3-7.9,5.6-11.3,9.5c-4.7-15.2-19.2-19.9-36.3-10.1c-14.1,8.2-26.5,24.2-33,41.2
			c-2.2,0.1-4.6,0.8-7.1,2.3c-9.2,5.3-16.7,18.3-16.7,28.9c0,0.2,0,0.4,0,0.7c-2.6,0.2-5.5,1.1-8.6,2.9c-11.8,6.8-21.4,23.4-21.4,37
			c0,13.6,9.6,19.2,21.4,12.3l113-65.2C308.5,230,320,210,320,193.5C320,177.1,308.5,170.4,294.2,178.6z"/>
		
			<radialGradient id="SVGID_42_" cx="197.5013" cy="223.8923" r="76.3863" fx="125.4658" fy="198.4805" gradientUnits="userSpaceOnUse">
			<stop  offset="0" style="stop-color:#2B3AA5"/>
			<stop  offset="1" style="stop-color:#182484"/>
		</radialGradient>
		<path class="st52" d="M294.2,178.6c-2.4,1.4-4.6,3-6.8,5l-12.6-7.3l0,0c-6.9-4.9-17-4.7-28.2,1.8c-14.1,8.2-26.5,24.2-33,41.2
			c-2.2,0.1-4.6,0.8-7.1,2.3c-9.2,5.3-16.7,18.3-16.7,28.9c0,0.2,0,0.4,0,0.7c-2.6,0.2-5.5,1.1-8.6,2.9c-11.8,6.8-21.4,23.4-21.4,37
			c0,6.8,2.4,11.5,6.2,13.8l0,0l0.1,0.1c0,0,0,0,0,0l30.9,18l6.8-32.5l90.4-52.2C308.5,230,320,210,320,193.5
			S308.5,170.4,294.2,178.6z"/>
		<linearGradient id="SVGID_43_" gradientUnits="userSpaceOnUse" x1="159.868" y1="247.8858" x2="343.9329" y2="247.8858">
			<stop  offset="0" style="stop-color:#5778FF"/>
			<stop  offset="0.1779" style="stop-color:#5C7DFF"/>
			<stop  offset="0.3876" style="stop-color:#6A8AFF"/>
			<stop  offset="0.6134" style="stop-color:#82A0FF"/>
			<stop  offset="0.849" style="stop-color:#A3BEFF"/>
			<stop  offset="1" style="stop-color:#BCD5FF"/>
		</linearGradient>
		<path class="st53" d="M343.9,195.1l-31.3-18.2l0,0c-4.7-2.8-11.2-2.4-18.4,1.7c-2.4,1.4-4.6,3-6.8,5l-12.6-7.3l0,0
			c-6.9-4.9-17-4.7-28.2,1.8c-14.1,8.2-26.5,24.2-33,41.2c-2.2,0.1-4.6,0.8-7.1,2.3c-9.2,5.3-16.7,18.3-16.7,28.9c0,0.2,0,0.4,0,0.7
			c-2.6,0.2-5.5,1.1-8.6,2.9c-11.8,6.8-21.4,23.4-21.4,37c0,6.8,2.4,11.5,6.2,13.8l0,0l0.1,0.1c0,0,0,0,0,0l30.9,18l6.8-32.5
			l90.4-52.2c11.5-6.7,21.3-21.1,24.6-35.1L343.9,195.1z"/>
		
			<linearGradient id="SVGID_44_" gradientUnits="userSpaceOnUse" x1="91.9316" y1="37.4349" x2="276.8426" y2="37.4349" gradientTransform="matrix(0.866 -0.5 0 1.1547 111.2956 292.7155)">
			<stop  offset="0" style="stop-color:#C0D6FF"/>
			<stop  offset="0.2978" style="stop-color:#C5DBFF"/>
			<stop  offset="0.6488" style="stop-color:#D3E9FF"/>
			<stop  offset="1" style="stop-color:#E9FFFF"/>
		</linearGradient>
		<path class="st54" d="M325.2,196.6c-4.1,2.3-7.9,5.6-11.3,9.5c-4.7-15.2-19.2-19.9-36.3-10.1c-14.1,8.2-26.5,24.2-33,41.2
			c-2.2,0.1-4.6,0.8-7.1,2.3c-9.2,5.3-16.7,18.3-16.7,28.9c0,0.2,0,0.4,0,0.7c-2.6,0.2-5.5,1.1-8.6,2.9c-11.8,6.8-21.4,23.4-21.4,37
			c0,13.6,9.6,19.2,21.4,12.3l113-65.2C339.5,248,351,228,351,211.5C351,195.1,339.5,188.4,325.2,196.6z"/>
		<g>
			<path class="st40" d="M313.9,206.2c3.4-3.9,7.2-7.2,11.3-9.5c8.7-5,16.4-4.5,21.1,0.5c-4.6-5.7-12.6-6.6-21.8-1.3
				c-3.9,2.3-7.6,5.4-11,9.2C313.7,205.3,313.8,205.7,313.9,206.2z"/>
			<path class="st40" d="M190.9,309.1c0-13.6,9.6-30.2,21.4-37c3.1-1.8,6-2.7,8.6-2.9c0-0.2,0-0.4,0-0.7c0-10.7,7.5-23.6,16.7-28.9
				c2.5-1.5,5-2.2,7.1-2.3c6.5-17,18.8-33.1,33-41.2c13-7.5,24.4-6.6,31.2,0.9c-6.7-8.3-18.5-9.5-32-1.8
				c-14.1,8.2-26.5,24.2-33,41.2c-2.2,0.1-4.6,0.8-7.1,2.3c-9.2,5.3-16.7,18.3-16.7,28.9c0,0.2,0,0.4,0,0.7
				c-2.6,0.2-5.5,1.1-8.6,2.9c-11.8,6.8-21.4,23.4-21.4,37c0,5.4,1.5,9.4,4,12C192.1,317.7,190.9,313.9,190.9,309.1z"/>
		</g>
	</g>
</g>
</svg>
