<?xml version="1.0" encoding="utf-8"?>
<!-- Generator: Adobe Illustrator 21.0.0, SVG Export Plug-In . SVG Version: 6.00 Build 0)  -->
<svg version="1.1" id="_x2014_лой_x5F_1" xmlns="http://www.w3.org/2000/svg" xmlns:xlink="http://www.w3.org/1999/xlink"
	 x="0px" y="0px" viewBox="0 0 530.6 450" style="enable-background:new 0 0 530.6 450;" xml:space="preserve">
<style type="text/css">
	.st0{display:none;fill:#170C2A;}
	.st1{opacity:0.15;}
	.st2{fill:url(#SVGID_1_);}
	.st3{fill:url(#SVGID_2_);}
	.st4{opacity:0.67;}
	.st5{fill:url(#SVGID_3_);}
	.st6{fill:url(#SVGID_4_);}
	.st7{fill:#FFFFFF;}
	.st8{opacity:0.6;fill:url(#SVGID_5_);}
	.st9{fill:url(#SVGID_6_);}
	.st10{fill:url(#SVGID_7_);}
	.st11{fill:url(#SVGID_8_);}
	.st12{display:none;fill:url(#SVGID_9_);}
	.st13{fill:url(#SVGID_10_);}
	.st14{fill:url(#SVGID_11_);}
	.st15{fill:url(#SVGID_12_);}
	.st16{opacity:0.39;fill:url(#SVGID_13_);}
	.st17{fill:url(#SVGID_14_);}
	.st18{fill:url(#SVGID_15_);}
	.st19{fill:url(#SVGID_16_);}
	.st20{fill:url(#SVGID_17_);}
	.st21{fill:url(#SVGID_18_);}
	.st22{fill:url(#SVGID_19_);}
	.st23{opacity:0.44;fill:url(#SVGID_20_);}
	.st24{fill:url(#SVGID_21_);}
	.st25{display:none;fill:url(#SVGID_22_);}
	.st26{display:none;fill:url(#SVGID_23_);}
	.st27{fill:url(#SVGID_24_);}
	.st28{display:none;fill:url(#SVGID_25_);}
	.st29{fill:url(#SVGID_26_);}
	.st30{display:none;opacity:0.67;}
	.st31{display:inline;fill:url(#SVGID_27_);}
	.st32{display:inline;fill:url(#SVGID_28_);}
	.st33{display:inline;fill:url(#SVGID_29_);}
	.st34{fill:url(#SVGID_30_);}
	.st35{display:inline;fill:url(#SVGID_31_);}
	.st36{fill:url(#SVGID_32_);}
	.st37{fill:url(#SVGID_33_);}
	.st38{fill:url(#SVGID_34_);}
	.st39{fill:url(#SVGID_35_);}
	.st40{fill:url(#SVGID_36_);}
	.st41{fill:url(#SVGID_37_);}
	.st42{fill:url(#SVGID_38_);}
	.st43{fill:url(#SVGID_39_);}
	.st44{fill:url(#SVGID_40_);}
	.st45{fill:url(#SVGID_41_);}
	.st46{fill:url(#SVGID_42_);}
	.st47{fill:url(#SVGID_43_);}
	.st48{fill:url(#SVGID_44_);}
	.st49{fill:url(#SVGID_45_);}
	.st50{fill:url(#SVGID_46_);}
	.st51{fill:url(#SVGID_47_);}
	.st52{fill:url(#SVGID_48_);}
	.st53{fill:url(#SVGID_49_);}
	.st54{fill:url(#SVGID_50_);}
	.st55{fill:url(#SVGID_51_);}
	.st56{fill:url(#SVGID_52_);}
	.st57{fill:url(#SVGID_53_);}
	.st58{fill:url(#SVGID_54_);}
	.st59{fill:url(#SVGID_55_);}
	.st60{fill:url(#SVGID_56_);}
	.st61{fill:url(#SVGID_57_);}
	.st62{fill:url(#SVGID_58_);}
	.st63{fill:url(#SVGID_59_);}
	.st64{fill:url(#SVGID_60_);}
	.st65{fill:url(#SVGID_61_);}
	.st66{fill:url(#SVGID_62_);}
	.st67{fill:url(#SVGID_63_);}
	.st68{fill:url(#SVGID_64_);}
	.st69{fill:url(#SVGID_65_);}
	.st70{display:none;fill:url(#SVGID_66_);}
	.st71{fill:url(#SVGID_67_);}
	.st72{fill:url(#SVGID_68_);}
	.st73{fill:url(#SVGID_69_);}
	.st74{fill:url(#SVGID_70_);}
	.st75{fill:url(#SVGID_71_);}
	.st76{fill:url(#SVGID_72_);}
	.st77{fill:url(#SVGID_73_);}
	.st78{fill:url(#SVGID_74_);}
	.st79{fill:url(#SVGID_75_);}
	.st80{fill:url(#SVGID_76_);}
	.st81{fill:url(#SVGID_77_);}
	.st82{fill:url(#SVGID_78_);}
	.st83{fill:url(#SVGID_79_);}
	.st84{fill:url(#SVGID_80_);}
	.st85{fill:url(#SVGID_81_);}
	.st86{fill:url(#SVGID_82_);}
	.st87{fill:url(#SVGID_83_);}
	.st88{fill:url(#SVGID_84_);}
	.st89{fill:url(#SVGID_85_);}
	.st90{fill:url(#SVGID_86_);}
	.st91{fill:url(#SVGID_87_);}
	.st92{fill:url(#SVGID_88_);}
	.st93{fill:url(#SVGID_89_);}
	.st94{fill:url(#SVGID_90_);}
	.st95{fill:url(#SVGID_91_);}
	.st96{display:none;fill:url(#SVGID_92_);}
	.st97{display:none;fill:url(#SVGID_93_);}
</style>
<g>
	<rect x="-88.8" y="0" class="st0" width="675" height="450"/>
	<g class="st1">
		<linearGradient id="SVGID_1_" gradientUnits="userSpaceOnUse" x1="253.3145" y1="122.8435" x2="253.3145" y2="254.6238">
			<stop  offset="0" style="stop-color:#14A4DB"/>
			<stop  offset="0.1958" style="stop-color:#1AABDC"/>
			<stop  offset="0.4773" style="stop-color:#2BBEE0"/>
			<stop  offset="0.809" style="stop-color:#46DDE5"/>
			<stop  offset="1" style="stop-color:#58F2E9"/>
		</linearGradient>
		<polygon class="st2" points="299.3,136.3 299.1,196.2 207.3,143.2 207.5,83.2 		"/>
	</g>
	<g class="st1">
		<linearGradient id="SVGID_2_" gradientUnits="userSpaceOnUse" x1="258.1355" y1="119.4518" x2="258.1355" y2="251.2321">
			<stop  offset="0" style="stop-color:#14A4DB"/>
			<stop  offset="0.1958" style="stop-color:#1AABDC"/>
			<stop  offset="0.4773" style="stop-color:#2BBEE0"/>
			<stop  offset="0.809" style="stop-color:#46DDE5"/>
			<stop  offset="1" style="stop-color:#58F2E9"/>
		</linearGradient>
		<polygon class="st3" points="304.1,132.9 304,192.9 212.1,139.8 212.3,79.9 		"/>
	</g>
	<g class="st4">
		
			<linearGradient id="SVGID_3_" gradientUnits="userSpaceOnUse" x1="-382.5614" y1="2889.0066" x2="-293.9549" y2="2889.0066" gradientTransform="matrix(0.866 0.5 0 1.1547 563.3273 -3003.4641)">
			<stop  offset="0.101" style="stop-color:#000000"/>
			<stop  offset="0.2423" style="stop-color:#001920"/>
			<stop  offset="0.5537" style="stop-color:#005A73"/>
			<stop  offset="1" style="stop-color:#00BDF2"/>
		</linearGradient>
		<polygon class="st5" points="234.3,141.9 234.3,143 306.9,185 306.9,183.9 		"/>
	</g>
	<g class="st4">
		
			<linearGradient id="SVGID_4_" gradientUnits="userSpaceOnUse" x1="-382.5614" y1="2891.8289" x2="-293.9549" y2="2891.8289" gradientTransform="matrix(0.866 0.5 0 1.1547 563.3273 -3003.4641)">
			<stop  offset="0.101" style="stop-color:#000000"/>
			<stop  offset="0.2423" style="stop-color:#001920"/>
			<stop  offset="0.5537" style="stop-color:#005A73"/>
			<stop  offset="1" style="stop-color:#00BDF2"/>
		</linearGradient>
		<polygon class="st6" points="234.3,145.2 234.3,146.3 306.9,188.3 306.9,187.2 		"/>
	</g>
	<g>
		<path class="st7" d="M220.7,106.3c-0.4-0.4-0.7-0.9-0.9-1.5c-0.2-0.5-0.3-1.1-0.3-1.6c0-0.5,0.1-0.9,0.3-1.2
			c0.2-0.3,0.5-0.4,0.9-0.5c0.4,0,0.8,0.1,1.3,0.4c0.4,0.2,0.7,0.5,1.1,0.9c0.3,0.3,0.6,0.7,0.8,1.1l-0.7,0.3
			c-0.3-0.6-0.7-1-1.1-1.3c-0.3-0.2-0.5-0.2-0.8-0.2c-0.2,0-0.4,0.1-0.5,0.3c-0.1,0.2-0.2,0.4-0.2,0.8c0,0.3,0.1,0.6,0.2,1
			c0.1,0.3,0.3,0.6,0.5,0.9c0.2,0.3,0.5,0.5,0.8,0.6c0.5,0.3,0.8,0.3,1.1,0l0.7,1.1c-0.2,0.2-0.5,0.3-0.8,0.2
			c-0.3,0-0.7-0.2-1.1-0.4C221.5,107.1,221.1,106.8,220.7,106.3z"/>
		<path class="st7" d="M225.9,105.7c0.2,0,0.4,0.1,0.7,0.3v1.1c-0.1-0.1-0.2-0.1-0.2-0.1c-0.3-0.2-0.5-0.2-0.7-0.1
			c-0.2,0.1-0.2,0.3-0.2,0.7v1.9l-1-0.6v-4l1,0.6v0.5C225.6,105.7,225.7,105.6,225.9,105.7z"/>
		<path class="st7" d="M230.8,108.4v3.3c0,0.7-0.2,1.2-0.5,1.4c-0.3,0.2-0.8,0.1-1.4-0.3c-0.3-0.2-0.6-0.4-0.9-0.7
			c-0.3-0.3-0.5-0.5-0.7-0.8l0.4-0.6c0.1,0.2,0.3,0.4,0.5,0.6c0.2,0.2,0.4,0.4,0.6,0.5c0.3,0.2,0.6,0.2,0.7,0.2
			c0.2-0.1,0.2-0.3,0.2-0.7v-0.1c-0.1,0.1-0.3,0.1-0.5,0.1c-0.2,0-0.4-0.1-0.6-0.2c-0.5-0.3-0.8-0.6-1.1-1.1c-0.3-0.5-0.4-1-0.4-1.6
			v-2l1,0.6v1.8c0,0.7,0.2,1.1,0.7,1.4c0.2,0.1,0.4,0.2,0.6,0.1c0.1-0.1,0.2-0.3,0.2-0.7v-1.7L230.8,108.4z"/>
		<path class="st7" d="M234.7,110.8c0.3,0.3,0.5,0.7,0.6,1.1c0.2,0.4,0.2,0.8,0.2,1.2c0,0.4-0.1,0.7-0.2,1c-0.2,0.2-0.4,0.3-0.6,0.4
			c-0.3,0-0.6-0.1-0.9-0.3c-0.4-0.3-0.8-0.6-1-1.1v1.9l-1-0.6v-5.5l1,0.6v0.5c0.3-0.2,0.6-0.2,1.1,0.1
			C234.1,110.2,234.4,110.5,234.7,110.8z M234.2,113.2c0.2-0.1,0.2-0.3,0.2-0.7c0-0.3-0.1-0.7-0.2-1c-0.2-0.3-0.4-0.5-0.6-0.7
			c-0.3-0.1-0.5-0.2-0.6-0.1c-0.2,0.1-0.2,0.3-0.2,0.7c0,0.3,0.1,0.7,0.2,1c0.2,0.3,0.4,0.5,0.6,0.7
			C233.9,113.3,234.1,113.3,234.2,113.2z"/>
		<path class="st7" d="M238.3,116.5c-0.1,0-0.2,0-0.4,0c-0.1,0-0.3-0.1-0.4-0.2c-0.4-0.2-0.7-0.5-1-0.9c-0.2-0.4-0.3-0.8-0.3-1.3
			v-3.5l1,0.6v1l0.9,0.5v0.9l-0.9-0.5v1.6c0,0.2,0,0.3,0.1,0.5c0.1,0.1,0.2,0.2,0.3,0.3c0.2,0.1,0.3,0.1,0.4,0.1L238.3,116.5z"/>
		<path class="st7" d="M239.4,117.2c-0.3-0.3-0.5-0.7-0.7-1.1c-0.2-0.4-0.2-0.8-0.2-1.2s0.1-0.7,0.2-0.9c0.2-0.2,0.4-0.3,0.7-0.3
			c0.3,0,0.6,0.1,1,0.3s0.7,0.5,1,0.8c0.3,0.3,0.5,0.7,0.7,1.1c0.2,0.4,0.2,0.8,0.2,1.2c0,0.4-0.1,0.7-0.2,0.9
			c-0.2,0.2-0.4,0.3-0.7,0.3c-0.3,0-0.6-0.1-1-0.3C240,117.8,239.7,117.5,239.4,117.2z M241,117.1c0.2-0.1,0.2-0.3,0.2-0.7
			c0-0.3-0.1-0.7-0.2-1c-0.2-0.3-0.4-0.5-0.6-0.7c-0.3-0.1-0.5-0.2-0.6-0.1c-0.2,0.1-0.3,0.3-0.3,0.7c0,0.3,0.1,0.7,0.3,1
			c0.2,0.3,0.4,0.5,0.6,0.7C240.7,117.2,240.9,117.2,241,117.1z"/>
		<path class="st7" d="M243.7,119.6c-0.3-0.3-0.5-0.7-0.7-1.1c-0.2-0.4-0.2-0.8-0.2-1.2c0-0.4,0.1-0.7,0.2-0.9
			c0.2-0.2,0.4-0.3,0.7-0.3c0.3,0,0.6,0.1,1,0.3c0.4,0.2,0.7,0.5,1,0.8c0.3,0.3,0.5,0.7,0.6,1.1l-0.8,0c-0.2-0.5-0.4-0.8-0.8-1
			c-0.3-0.2-0.5-0.2-0.7-0.1c-0.2,0.1-0.3,0.3-0.3,0.7c0,0.3,0.1,0.7,0.3,1c0.2,0.3,0.4,0.5,0.7,0.7c0.3,0.2,0.6,0.2,0.8-0.1
			l0.8,0.9c-0.1,0.2-0.3,0.4-0.6,0.4c-0.3,0-0.6-0.1-1-0.3C244.3,120.3,244,120,243.7,119.6z"/>
		<path class="st7" d="M250.3,119.7v4l-1-0.6v-0.5c-0.1,0.1-0.3,0.1-0.5,0.1c-0.2,0-0.4-0.1-0.6-0.2c-0.5-0.3-0.8-0.6-1.1-1.1
			c-0.3-0.5-0.4-1-0.4-1.6v-2.3l1,0.6v2.1c0,0.6,0.2,1.1,0.7,1.4c0.2,0.1,0.4,0.2,0.6,0.1c0.1-0.1,0.2-0.3,0.2-0.7v-2L250.3,119.7z"
			/>
		<path class="st7" d="M252.7,121.1c0.2,0,0.4,0.1,0.7,0.3v1.1c-0.1-0.1-0.2-0.1-0.2-0.1c-0.3-0.2-0.5-0.2-0.7-0.1
			c-0.2,0.1-0.2,0.3-0.2,0.7v1.9l-1-0.6v-4l1,0.6v0.5C252.3,121.2,252.5,121.1,252.7,121.1z"/>
		<path class="st7" d="M255.5,122.7c0.2,0,0.4,0.1,0.7,0.3v1.1c-0.1-0.1-0.2-0.1-0.2-0.1c-0.3-0.2-0.5-0.2-0.7-0.1
			c-0.2,0.1-0.2,0.3-0.2,0.7v1.9l-1-0.6v-4l1,0.6v0.5C255.1,122.8,255.3,122.7,255.5,122.7z"/>
		<path class="st7" d="M259,127.7c0.1,0,0.3,0,0.4-0.1l0.5,1c-0.3,0.2-0.8,0.2-1.4-0.2c-0.4-0.2-0.7-0.5-1-0.9
			c-0.3-0.4-0.5-0.7-0.7-1.1c-0.2-0.4-0.2-0.8-0.2-1.2c0-0.4,0.1-0.7,0.2-0.9c0.2-0.2,0.4-0.3,0.7-0.4c0.3,0,0.6,0.1,1,0.3
			c0.3,0.2,0.6,0.4,0.9,0.8c0.3,0.3,0.5,0.7,0.7,1.1c0.2,0.4,0.2,0.8,0.2,1.2l-2.6-0.9c0.1,0.2,0.2,0.5,0.3,0.6
			c0.2,0.2,0.4,0.4,0.6,0.5C258.7,127.6,258.8,127.7,259,127.7z M257.7,125c-0.2,0.1-0.2,0.3-0.3,0.6l1.7,0.6c0-0.2-0.1-0.5-0.3-0.7
			c-0.1-0.2-0.3-0.4-0.5-0.5C258.1,125,257.9,124.9,257.7,125z"/>
		<path class="st7" d="M264,127.9c0.3,0.5,0.4,1,0.4,1.6v2.3l-1-0.6v-2.1c0-0.3-0.1-0.6-0.2-0.8c-0.1-0.2-0.3-0.4-0.5-0.5
			c-0.3-0.1-0.5-0.2-0.6-0.1c-0.2,0.1-0.2,0.3-0.2,0.7v2l-1-0.6v-4l1,0.6v0.5c0.1-0.1,0.3-0.1,0.5-0.1c0.2,0,0.4,0.1,0.7,0.2
			C263.4,127.1,263.7,127.5,264,127.9z"/>
		<path class="st7" d="M266,132.5c-0.3-0.3-0.5-0.7-0.7-1.1c-0.2-0.4-0.2-0.8-0.2-1.2c0-0.4,0.1-0.7,0.2-0.9
			c0.2-0.2,0.4-0.3,0.7-0.3c0.3,0,0.6,0.1,1,0.3c0.4,0.2,0.7,0.5,1,0.8c0.3,0.3,0.5,0.7,0.6,1.1l-0.8,0c-0.2-0.5-0.4-0.8-0.8-1
			c-0.3-0.2-0.5-0.2-0.7-0.1c-0.2,0.1-0.3,0.3-0.3,0.7c0,0.3,0.1,0.7,0.3,1c0.2,0.3,0.4,0.5,0.7,0.7c0.3,0.2,0.6,0.2,0.8-0.1
			l0.8,0.9c-0.1,0.2-0.3,0.4-0.6,0.4c-0.3,0-0.6-0.1-1-0.3C266.7,133.2,266.3,132.9,266,132.5z"/>
		<path class="st7" d="M272.7,132.6v3.3c0,0.7-0.2,1.2-0.5,1.4c-0.3,0.2-0.8,0.1-1.4-0.3c-0.3-0.2-0.6-0.4-0.9-0.7
			c-0.3-0.3-0.5-0.5-0.7-0.8l0.4-0.6c0.1,0.2,0.3,0.4,0.5,0.6c0.2,0.2,0.4,0.4,0.6,0.5c0.3,0.2,0.6,0.2,0.7,0.2
			c0.2-0.1,0.2-0.3,0.2-0.7v-0.1c-0.1,0.1-0.3,0.1-0.5,0.1c-0.2,0-0.4-0.1-0.6-0.2c-0.5-0.3-0.8-0.6-1.1-1.1c-0.3-0.5-0.4-1-0.4-1.6
			v-2l1,0.6v1.8c0,0.7,0.2,1.1,0.7,1.4c0.2,0.1,0.4,0.2,0.6,0.1c0.1-0.1,0.2-0.3,0.2-0.7V132L272.7,132.6z"/>
		<path class="st7" d="M223.3,113v4l-1-0.6V116c-0.2,0.2-0.6,0.2-1.1-0.1c-0.3-0.2-0.6-0.4-0.9-0.8c-0.3-0.3-0.5-0.7-0.6-1.1
			c-0.2-0.4-0.2-0.8-0.2-1.2c0-0.4,0.1-0.7,0.2-1c0.2-0.2,0.4-0.3,0.6-0.4c0.3,0,0.6,0.1,0.9,0.3c0.4,0.3,0.8,0.6,1,1.1v-0.4
			L223.3,113z M222,115.1c0.2-0.1,0.3-0.3,0.3-0.7c0-0.3-0.1-0.7-0.3-1c-0.2-0.3-0.4-0.5-0.6-0.7c-0.3-0.2-0.5-0.2-0.6-0.1
			c-0.2,0.1-0.3,0.3-0.3,0.7c0,0.3,0.1,0.7,0.3,1c0.2,0.3,0.4,0.5,0.6,0.7C221.6,115.2,221.9,115.2,222,115.1z"/>
		<path class="st7" d="M227.4,115.8c0.3,0.5,0.4,1,0.4,1.6v2.3l-1-0.6v-2.1c0-0.3-0.1-0.6-0.2-0.8c-0.1-0.2-0.3-0.4-0.5-0.5
			c-0.3-0.1-0.5-0.2-0.6-0.1c-0.2,0.1-0.2,0.3-0.2,0.7v2l-1-0.6v-4l1,0.6v0.5c0.1-0.1,0.3-0.1,0.5-0.1c0.2,0,0.4,0.1,0.7,0.2
			C226.7,115,227.1,115.3,227.4,115.8z"/>
		<path class="st7" d="M232.3,116.7v5.5l-1-0.6v-0.5c-0.3,0.2-0.6,0.2-1.1-0.1c-0.3-0.2-0.6-0.4-0.9-0.8c-0.3-0.3-0.5-0.7-0.6-1.1
			c-0.2-0.4-0.2-0.8-0.2-1.2c0-0.4,0.1-0.7,0.2-1c0.2-0.2,0.4-0.3,0.6-0.4c0.3,0,0.6,0.1,0.9,0.3c0.4,0.3,0.8,0.6,1,1.1v-2
			L232.3,116.7z M231,120.3c0.2-0.1,0.3-0.3,0.3-0.7c0-0.3-0.1-0.7-0.3-1c-0.2-0.3-0.4-0.5-0.6-0.7c-0.3-0.2-0.5-0.2-0.6-0.1
			c-0.2,0.1-0.3,0.3-0.3,0.7c0,0.3,0.1,0.7,0.3,1c0.2,0.3,0.4,0.5,0.6,0.7C230.6,120.4,230.8,120.4,231,120.3z"/>
		<path class="st7" d="M238,121.7c0.3,0.3,0.5,0.7,0.6,1.1c0.2,0.4,0.2,0.8,0.2,1.2c0,0.4-0.1,0.7-0.2,1c-0.2,0.2-0.4,0.3-0.6,0.4
			c-0.3,0-0.6-0.1-0.9-0.3c-0.5-0.3-0.8-0.7-1.1-1.2v0.5l-1-0.6v-5.5l1,0.6v2c0.3-0.2,0.6-0.1,1,0.1
			C237.4,121.1,237.7,121.4,238,121.7z M237.5,124.1c0.2-0.1,0.2-0.3,0.2-0.7s-0.1-0.7-0.2-1c-0.2-0.3-0.4-0.5-0.6-0.7
			s-0.5-0.2-0.6-0.1c-0.2,0.1-0.2,0.3-0.2,0.7c0,0.3,0.1,0.7,0.2,1c0.2,0.3,0.4,0.5,0.6,0.7C237.2,124.2,237.4,124.2,237.5,124.1z"
			/>
		<path class="st7" d="M239.8,126.3c-0.2-0.4-0.3-0.8-0.3-1.2v-4.2l1,0.6v4.1c0,0.2,0,0.3,0.1,0.5c0.1,0.1,0.2,0.2,0.3,0.3
			c0.1,0,0.1,0.1,0.2,0.1c0.1,0,0.1,0,0.1,0l0,0.9c-0.2,0-0.3-0.1-0.5-0.2C240.3,126.9,240,126.7,239.8,126.3z"/>
		<path class="st7" d="M242.4,127.9c-0.3-0.3-0.5-0.7-0.7-1.1c-0.2-0.4-0.2-0.8-0.2-1.2c0-0.4,0.1-0.7,0.2-0.9
			c0.2-0.2,0.4-0.3,0.7-0.3c0.3,0,0.6,0.1,1,0.3c0.4,0.2,0.7,0.5,1,0.8c0.3,0.3,0.5,0.7,0.7,1.1c0.2,0.4,0.2,0.8,0.2,1.2
			c0,0.4-0.1,0.7-0.2,0.9c-0.2,0.2-0.4,0.3-0.7,0.3c-0.3,0-0.6-0.1-1-0.3C243,128.5,242.7,128.2,242.4,127.9z M244,127.8
			c0.2-0.1,0.2-0.3,0.2-0.7c0-0.3-0.1-0.7-0.2-1c-0.2-0.3-0.4-0.5-0.6-0.7c-0.3-0.1-0.5-0.2-0.6-0.1c-0.2,0.1-0.3,0.3-0.3,0.7
			c0,0.3,0.1,0.7,0.3,1c0.2,0.3,0.4,0.5,0.6,0.7C243.6,127.9,243.8,127.9,244,127.8z"/>
		<path class="st7" d="M246.6,130.3c-0.3-0.3-0.5-0.7-0.7-1.1c-0.2-0.4-0.2-0.8-0.2-1.2c0-0.4,0.1-0.7,0.2-0.9
			c0.2-0.2,0.4-0.3,0.7-0.3c0.3,0,0.6,0.1,1,0.3c0.4,0.2,0.7,0.5,1,0.8c0.3,0.3,0.5,0.7,0.6,1.1l-0.8,0c-0.2-0.5-0.4-0.8-0.8-1
			c-0.3-0.2-0.5-0.2-0.7-0.1c-0.2,0.1-0.3,0.3-0.3,0.7c0,0.3,0.1,0.7,0.3,1c0.2,0.3,0.4,0.5,0.7,0.7c0.3,0.2,0.6,0.2,0.8-0.1
			l0.8,0.9c-0.1,0.2-0.3,0.4-0.6,0.4c-0.3,0-0.6-0.1-1-0.3C247.3,130.9,246.9,130.7,246.6,130.3z"/>
		<path class="st7" d="M251.2,131.6l-0.5,0.3v1l-1-0.6v-5.5l1,0.6v3.1l1.5-0.8l1.2,0.7l-1.5,0.9l1.6,3.2l-1.2-0.7L251.2,131.6z"/>
		<path class="st7" d="M254.5,134.9c-0.3-0.3-0.5-0.7-0.7-1.1c-0.2-0.4-0.2-0.8-0.2-1.2c0-0.4,0.1-0.7,0.2-0.9
			c0.2-0.2,0.4-0.3,0.7-0.3c0.3,0,0.6,0.1,1,0.3c0.4,0.2,0.7,0.5,1,0.8c0.3,0.3,0.5,0.7,0.6,1.1l-0.8,0c-0.2-0.5-0.4-0.8-0.8-1
			c-0.3-0.2-0.5-0.2-0.7-0.1c-0.2,0.1-0.3,0.3-0.3,0.7c0,0.3,0.1,0.7,0.3,1c0.2,0.3,0.4,0.5,0.7,0.7c0.3,0.2,0.6,0.2,0.8-0.1
			l0.8,0.9c-0.1,0.2-0.3,0.4-0.6,0.4c-0.3,0-0.6-0.1-1-0.3C255.2,135.5,254.8,135.2,254.5,134.9z"/>
		<path class="st7" d="M260.8,135.1c0.3,0.5,0.4,1,0.4,1.6v2.3l-1-0.6v-2.1c0-0.3-0.1-0.6-0.2-0.8c-0.1-0.2-0.3-0.4-0.5-0.5
			c-0.3-0.1-0.5-0.2-0.6-0.1c-0.2,0.1-0.2,0.3-0.2,0.7v2l-1-0.6v-5.5l1,0.6v1.9c0.1-0.1,0.3-0.1,0.5-0.1c0.2,0,0.4,0.1,0.6,0.2
			C260.2,134.3,260.6,134.6,260.8,135.1z"/>
		<path class="st7" d="M265.7,137.5v4l-1-0.6v-0.5c-0.2,0.2-0.6,0.2-1.1-0.1c-0.3-0.2-0.6-0.4-0.9-0.8c-0.3-0.3-0.5-0.7-0.6-1.1
			c-0.2-0.4-0.2-0.8-0.2-1.2c0-0.4,0.1-0.7,0.2-1c0.2-0.2,0.4-0.3,0.6-0.4c0.3,0,0.6,0.1,0.9,0.3c0.4,0.3,0.8,0.6,1,1.1v-0.4
			L265.7,137.5z M264.5,139.6c0.2-0.1,0.3-0.3,0.3-0.7c0-0.3-0.1-0.7-0.3-1c-0.2-0.3-0.4-0.5-0.6-0.7c-0.3-0.1-0.5-0.2-0.6-0.1
			c-0.2,0.1-0.3,0.3-0.3,0.7c0,0.3,0.1,0.7,0.3,1s0.4,0.5,0.6,0.7C264.1,139.7,264.3,139.7,264.5,139.6z"/>
		<path class="st7" d="M266.7,137.3c-0.1-0.2-0.2-0.4-0.2-0.6c0-0.2,0.1-0.3,0.2-0.4c0.1-0.1,0.3,0,0.5,0.1c0.2,0.1,0.3,0.3,0.5,0.4
			c0.1,0.2,0.2,0.4,0.2,0.5c0,0.2-0.1,0.3-0.2,0.4c-0.1,0.1-0.3,0-0.5-0.1C267,137.7,266.8,137.5,266.7,137.3z M266.6,138l1,0.6v4
			l-1-0.6V138z"/>
		<path class="st7" d="M271.8,141.4c0.3,0.5,0.4,1,0.4,1.6v2.3l-1-0.6v-2.1c0-0.3-0.1-0.6-0.2-0.8c-0.1-0.2-0.3-0.4-0.5-0.5
			c-0.3-0.1-0.5-0.2-0.6-0.1c-0.2,0.1-0.2,0.3-0.2,0.7v2l-1-0.6v-4l1,0.6v0.5c0.1-0.1,0.3-0.1,0.5-0.1c0.2,0,0.4,0.1,0.7,0.2
			C271.1,140.6,271.5,140.9,271.8,141.4z"/>
	</g>
	<g>
		<path class="st7" d="M300.5,231.1C300.4,231.1,300.4,231.1,300.5,231.1l-81.3-46.9c0,0-0.1-0.1-0.1-0.1v-52.8
			c0-0.1,0.1-0.1,0.1-0.1c0.1,0,0.1,0.1,0.1,0.1V184l81.2,46.9c0.1,0,0.1,0.1,0,0.2C300.5,231.1,300.5,231.1,300.5,231.1z"/>
	</g>
	<g>
		<path class="st7" d="M303.8,228.9C303.8,228.9,303.8,228.8,303.8,228.9l-81.3-46.9c0,0-0.1-0.1-0.1-0.1v-48.5
			c0-0.1,0.1-0.1,0.1-0.1c0.1,0,0.1,0.1,0.1,0.1v48.5l81.2,46.9c0.1,0,0.1,0.1,0,0.2C303.9,228.8,303.8,228.9,303.8,228.9z"/>
	</g>
	<g>
		<path class="st7" d="M307.2,227.2C307.2,227.2,307.1,227.2,307.2,227.2l-81.3-46.9c0,0-0.1-0.1-0.1-0.1v-45c0-0.1,0.1-0.1,0.1-0.1
			c0.1,0,0.1,0.1,0.1,0.1v44.9l81.2,46.9c0.1,0,0.1,0.1,0,0.2C307.3,227.2,307.2,227.2,307.2,227.2z"/>
	</g>
	<path class="st7" d="M223.3,133.7c0,0.5-0.3,0.7-0.7,0.4c-0.4-0.2-0.7-0.8-0.7-1.3s0.3-0.7,0.7-0.4
		C223,132.7,223.3,133.2,223.3,133.7z"/>
	<path class="st7" d="M219.9,131.8c0,0.5-0.3,0.7-0.7,0.4c-0.4-0.2-0.7-0.8-0.7-1.3c0-0.5,0.3-0.7,0.7-0.4
		C219.6,130.7,219.9,131.3,219.9,131.8z"/>
	<path class="st7" d="M226.7,135.7c0,0.5-0.3,0.7-0.7,0.4c-0.4-0.2-0.7-0.8-0.7-1.3c0-0.5,0.3-0.7,0.7-0.4
		C226.3,134.6,226.7,135.2,226.7,135.7z"/>
	<linearGradient id="SVGID_5_" gradientUnits="userSpaceOnUse" x1="294.4017" y1="173.941" x2="301.5033" y2="141.5577">
		<stop  offset="0" style="stop-color:#14A4DB"/>
		<stop  offset="0.1958" style="stop-color:#1AABDC"/>
		<stop  offset="0.4773" style="stop-color:#2BBEE0"/>
		<stop  offset="0.809" style="stop-color:#46DDE5"/>
		<stop  offset="1" style="stop-color:#58F2E9"/>
	</linearGradient>
	<polygon class="st8" points="307.1,177.2 288.6,166.5 288.6,139.1 307.1,149.8 	"/>
	<g>
		<path class="st7" d="M208.7,388.7C208.6,388.7,208.6,388.7,208.7,388.7L87.9,318.9c0,0-0.1-0.1-0.1-0.1v-55.4
			c0-0.1,0.1-0.1,0.1-0.1c0.1,0,0.1,0.1,0.1,0.1v55.3l120.4,69.7v-31c0-0.1,0.1-0.1,0.1-0.1c0.1,0,0.1,0.1,0.1,0.1v31.2
			C208.8,388.6,208.8,388.7,208.7,388.7C208.7,388.7,208.7,388.7,208.7,388.7z"/>
	</g>
	<g>
		<path class="st7" d="M212.8,396.9C212.8,396.9,212.8,396.9,212.8,396.9L92.1,327.1c0,0-0.1-0.1-0.1-0.1v-61.3
			c0-0.1,0.1-0.1,0.1-0.1c0.1,0,0.1,0.1,0.1,0.1v61.2l120.4,69.7v-31c0-0.1,0.1-0.1,0.1-0.1c0.1,0,0.1,0.1,0.1,0.1v31.2
			C213,396.8,212.9,396.9,212.8,396.9C212.9,396.9,212.9,396.9,212.8,396.9z"/>
	</g>
	<g>
		<path class="st7" d="M217.5,405.7C217.5,405.7,217.4,405.7,217.5,405.7L96.7,335.8c0,0-0.1-0.1-0.1-0.1v-62.5
			c0-0.1,0.1-0.1,0.1-0.1c0.1,0,0.1,0.1,0.1,0.1v62.4l120.4,69.7v-31c0-0.1,0.1-0.1,0.1-0.1c0.1,0,0.1,0.1,0.1,0.1v31.2
			C217.6,405.6,217.6,405.6,217.5,405.7C217.5,405.7,217.5,405.7,217.5,405.7z"/>
	</g>
	<g>
		<path class="st7" d="M246.1,294.3C246.1,294.3,246.1,294.3,246.1,294.3L191,262.5c-0.1,0-0.1-0.1,0-0.2c0-0.1,0.1-0.1,0.2,0
			l55,31.8c0.1,0,0.1,0.1,0,0.2C246.2,294.3,246.2,294.3,246.1,294.3z"/>
	</g>
	<g>
		<path class="st7" d="M243.7,297C243.6,297,243.6,297,243.7,297l-55.1-31.8c-0.1,0-0.1-0.1,0-0.2c0-0.1,0.1-0.1,0.2,0l55,31.8
			c0.1,0,0.1,0.1,0,0.2C243.8,297,243.7,297,243.7,297z"/>
	</g>
	<g>
		<path class="st7" d="M240.9,299.4C240.9,299.4,240.8,299.4,240.9,299.4l-55.1-31.8c-0.1,0-0.1-0.1,0-0.2c0-0.1,0.1-0.1,0.2,0
			l55,31.8c0.1,0,0.1,0.1,0,0.2C241,299.4,240.9,299.4,240.9,299.4z"/>
	</g>
	<linearGradient id="SVGID_6_" gradientUnits="userSpaceOnUse" x1="369.1426" y1="286.0946" x2="369.1426" y2="174.7239">
		<stop  offset="0" style="stop-color:#14A4DB"/>
		<stop  offset="0.1958" style="stop-color:#1AABDC"/>
		<stop  offset="0.4773" style="stop-color:#2BBEE0"/>
		<stop  offset="0.809" style="stop-color:#46DDE5"/>
		<stop  offset="1" style="stop-color:#58F2E9"/>
	</linearGradient>
	<path class="st9" d="M470,235.6l-89-51.4c-3-1.7-6.9-2.5-11.1-2.5c-5,0-10.3,1.2-14.5,3.6l-85.3,49.2c-4,2.3-6.2,5.3-6.2,8.3
		c0.1,2.3,1.6,4.5,4.3,6l89,51.4c6.5,3.8,18,3.3,25.5-1.1l85.3-49.2c4.1-2.3,6.3-5.4,6.2-8.4C474.2,239.2,472.7,237.2,470,235.6z"/>
	<linearGradient id="SVGID_7_" gradientUnits="userSpaceOnUse" x1="337.3571" y1="237.7575" x2="522.2809" y2="237.7575">
		<stop  offset="0" style="stop-color:#3F51B5"/>
		<stop  offset="0.2126" style="stop-color:#3C58BB"/>
		<stop  offset="0.5181" style="stop-color:#346BCC"/>
		<stop  offset="0.8783" style="stop-color:#268AE8"/>
		<stop  offset="1" style="stop-color:#2196F3"/>
	</linearGradient>
	<path class="st10" d="M469.9,231.1l-89-51.4c-3-1.7-6.9-2.5-11.1-2.5c-5,0-10.3,1.2-14.5,3.6L270.1,230c-4,2.3-6.2,5.3-6.2,8.3
		c0.1,2.3,1.6,4.5,4.3,6l89,51.4c6.5,3.8,18,3.3,25.5-1.1l85.3-49.2c4.1-2.3,6.3-5.4,6.2-8.4C474.1,234.7,472.6,232.7,469.9,231.1z"
		/>
	<linearGradient id="SVGID_8_" gradientUnits="userSpaceOnUse" x1="309.0979" y1="262.9345" x2="478.8453" y2="184.8706">
		<stop  offset="0" style="stop-color:#14A4DB"/>
		<stop  offset="0.1958" style="stop-color:#1AABDC"/>
		<stop  offset="0.4773" style="stop-color:#2BBEE0"/>
		<stop  offset="0.809" style="stop-color:#46DDE5"/>
		<stop  offset="1" style="stop-color:#58F2E9"/>
	</linearGradient>
	<path class="st11" d="M470,228.7l-89-51.4c-3-1.7-6.9-2.5-11.1-2.5c-5,0-10.3,1.2-14.5,3.6l-85.3,49.2c-4,2.3-6.2,5.3-6.2,8.3
		c0.1,2.3,1.6,4.5,4.3,6l89,51.4c6.5,3.8,18,3.3,25.5-1.1l85.3-49.2c4.1-2.3,6.3-5.4,6.2-8.4C474.2,232.3,472.7,230.2,470,228.7z"/>
	<linearGradient id="SVGID_9_" gradientUnits="userSpaceOnUse" x1="455.0093" y1="190.6051" x2="455.0093" y2="247.1966">
		<stop  offset="0.2247" style="stop-color:#000000"/>
		<stop  offset="0.3104" style="stop-color:#000F13"/>
		<stop  offset="0.4842" style="stop-color:#003544"/>
		<stop  offset="0.7309" style="stop-color:#007494"/>
		<stop  offset="1" style="stop-color:#00BDF2"/>
	</linearGradient>
	<path class="st12" d="M461.7,189.4h-13.4v48.1c0,1,0.7,2,2,2.7c2.6,1.5,6.8,1.5,9.4,0c1.3-0.8,2-1.7,2-2.7l0,0V189.4z"/>
	<path class="st7" d="M450.3,240.2c2.6,1.5,6.8,1.5,9.5,0c2.6-1.5,2.6-4,0-5.5c-2.6-1.5-6.8-1.5-9.5,0
		C447.7,236.3,447.7,238.7,450.3,240.2z"/>
	<g>
		<linearGradient id="SVGID_10_" gradientUnits="userSpaceOnUse" x1="143.0402" y1="285.3927" x2="143.0402" y2="174.022">
			<stop  offset="0" style="stop-color:#14A4DB"/>
			<stop  offset="0.1958" style="stop-color:#1AABDC"/>
			<stop  offset="0.4773" style="stop-color:#2BBEE0"/>
			<stop  offset="0.809" style="stop-color:#46DDE5"/>
			<stop  offset="1" style="stop-color:#58F2E9"/>
		</linearGradient>
		<path class="st13" d="M243.9,234.9l-89-51.4c-3-1.7-6.9-2.5-11.1-2.5c-5,0-10.3,1.2-14.5,3.6l-85.3,49.2c-4,2.3-6.2,5.3-6.2,8.3
			c0.1,2.3,1.6,4.5,4.3,6l89,51.4c6.5,3.8,18,3.3,25.5-1.1l85.3-49.2c4.1-2.3,6.3-5.4,6.2-8.4C248.1,238.5,246.6,236.5,243.9,234.9z
			"/>
		<linearGradient id="SVGID_11_" gradientUnits="userSpaceOnUse" x1="111.2547" y1="238.0556" x2="296.1785" y2="238.0556">
			<stop  offset="0" style="stop-color:#3F51B5"/>
			<stop  offset="0.2126" style="stop-color:#3C58BB"/>
			<stop  offset="0.5181" style="stop-color:#346BCC"/>
			<stop  offset="0.8783" style="stop-color:#268AE8"/>
			<stop  offset="1" style="stop-color:#2196F3"/>
		</linearGradient>
		<path class="st14" d="M243.8,231.4l-89-51.4c-3-1.7-6.9-2.5-11.1-2.5c-5,0-10.3,1.2-14.5,3.6L44,230.3c-4,2.3-6.2,5.3-6.2,8.3
			c0.1,2.3,1.6,4.5,4.3,6l89,51.4c6.5,3.8,18,3.3,25.5-1.1l85.3-49.2c4.1-2.3,6.3-5.4,6.2-8.4C248,235,246.5,233,243.8,231.4z"/>
		<linearGradient id="SVGID_12_" gradientUnits="userSpaceOnUse" x1="143.0402" y1="279.4413" x2="143.0402" y2="168.0705">
			<stop  offset="0" style="stop-color:#14A4DB"/>
			<stop  offset="0.1958" style="stop-color:#1AABDC"/>
			<stop  offset="0.4773" style="stop-color:#2BBEE0"/>
			<stop  offset="0.809" style="stop-color:#46DDE5"/>
			<stop  offset="1" style="stop-color:#58F2E9"/>
		</linearGradient>
		<path class="st15" d="M243.9,229l-89-51.4c-3-1.7-6.9-2.5-11.1-2.5c-5,0-10.3,1.2-14.5,3.6l-85.3,49.2c-4,2.3-6.2,5.3-6.2,8.3
			c0.1,2.3,1.6,4.5,4.3,6l89,51.4c6.5,3.8,18,3.3,25.5-1.1l85.3-49.2c4.1-2.3,6.3-5.4,6.2-8.4C248.1,232.6,246.6,230.5,243.9,229z"
			/>
		<linearGradient id="SVGID_13_" gradientUnits="userSpaceOnUse" x1="53.5649" y1="232.0151" x2="199.6042" y2="232.0151">
			<stop  offset="0" style="stop-color:#3F51B5"/>
			<stop  offset="0.2126" style="stop-color:#3C58BB"/>
			<stop  offset="0.5181" style="stop-color:#346BCC"/>
			<stop  offset="0.8783" style="stop-color:#268AE8"/>
			<stop  offset="1" style="stop-color:#2196F3"/>
		</linearGradient>
		<path class="st16" d="M181.2,257.3c-24.5,14.1-67.9,10.7-94.8,1.6c-28.7-9.7-32.9-17.1-32.9-25.9c0-13.1,19.6-20.8,38.8-27.1
			c26.9-8.9,64.3-14.1,88.8,0.1C205.7,220.2,205.7,243.1,181.2,257.3z"/>
		<linearGradient id="SVGID_14_" gradientUnits="userSpaceOnUse" x1="84.2891" y1="228.2793" x2="201.7914" y2="228.2793">
			<stop  offset="0" style="stop-color:#14A4DB"/>
			<stop  offset="0.1958" style="stop-color:#1AABDC"/>
			<stop  offset="0.4773" style="stop-color:#2BBEE0"/>
			<stop  offset="0.809" style="stop-color:#46DDE5"/>
			<stop  offset="1" style="stop-color:#58F2E9"/>
		</linearGradient>
		<path class="st17" d="M184.6,252.3c-22.9,13.2-60.1,13.2-83.1,0c-22.9-13.2-22.9-34.7,0-48c22.9-13.2,60.1-13.2,83.1,0
			C207.5,217.5,207.5,239,184.6,252.3z"/>
		<linearGradient id="SVGID_15_" gradientUnits="userSpaceOnUse" x1="84.2891" y1="225.7756" x2="201.7914" y2="225.7756">
			<stop  offset="0" style="stop-color:#3F51B5"/>
			<stop  offset="0.2126" style="stop-color:#3C58BB"/>
			<stop  offset="0.5181" style="stop-color:#346BCC"/>
			<stop  offset="0.8783" style="stop-color:#268AE8"/>
			<stop  offset="1" style="stop-color:#2196F3"/>
		</linearGradient>
		<path class="st18" d="M184.6,249.8c-22.9,13.2-60.1,13.2-83.1,0c-22.9-13.2-22.9-34.7,0-48c22.9-13.2,60.1-13.2,83.1,0
			C207.5,215,207.5,236.5,184.6,249.8z"/>
		<linearGradient id="SVGID_16_" gradientUnits="userSpaceOnUse" x1="86.4763" y1="220.6247" x2="199.6042" y2="220.6247">
			<stop  offset="0" style="stop-color:#14A4DB"/>
			<stop  offset="0.1958" style="stop-color:#1AABDC"/>
			<stop  offset="0.4773" style="stop-color:#2BBEE0"/>
			<stop  offset="0.809" style="stop-color:#46DDE5"/>
			<stop  offset="1" style="stop-color:#58F2E9"/>
		</linearGradient>
		<path class="st19" d="M86.5,186.6v35.3h0c0,8.4,5.5,16.7,16.5,23.1c22.1,12.8,57.9,12.8,80,0c11-6.3,16.5-14.6,16.5-22.9h0v-35.5
			H86.5z"/>
		<linearGradient id="SVGID_17_" gradientUnits="userSpaceOnUse" x1="102.1998" y1="185.3524" x2="274.2911" y2="185.3524">
			<stop  offset="0" style="stop-color:#58F2E9"/>
			<stop  offset="0.248" style="stop-color:#40D4E4"/>
			<stop  offset="0.5563" style="stop-color:#28B5DF"/>
			<stop  offset="0.818" style="stop-color:#19A2DC"/>
			<stop  offset="1" style="stop-color:#149BDB"/>
		</linearGradient>
		<path class="st20" d="M183,208.4c-22.1,12.8-57.9,12.8-80,0C81,195.7,81,175,103,162.3c22.1-12.8,57.9-12.8,80,0
			C205.1,175,205.1,195.7,183,208.4z"/>
		<g>
			<path class="st7" d="M143,212.4c-13.4,0-26.8-2.9-37-8.8c-9.9-5.7-15.4-13.3-15.4-21.5c0-8.1,5.5-15.7,15.4-21.5
				c20.4-11.8,53.7-11.8,74.1,0c9.9,5.7,15.4,13.3,15.4,21.5c0,8.1-5.5,15.7-15.4,21.5C169.8,209.4,156.4,212.4,143,212.4z M143,152
				c-13.4,0-26.7,2.9-36.9,8.8c-9.8,5.7-15.3,13.2-15.3,21.2c0,8,5.4,15.6,15.3,21.2c20.4,11.8,53.5,11.8,73.8,0l0.1,0.1l-0.1-0.1
				c9.8-5.7,15.3-13.2,15.3-21.2c0-8-5.4-15.6-15.3-21.2C169.7,154.9,156.3,152,143,152z"/>
		</g>
		<linearGradient id="SVGID_18_" gradientUnits="userSpaceOnUse" x1="101.5659" y1="192.7144" x2="189.9465" y2="192.7144">
			<stop  offset="0" style="stop-color:#3F51B5"/>
			<stop  offset="0.2126" style="stop-color:#3C58BB"/>
			<stop  offset="0.5181" style="stop-color:#346BCC"/>
			<stop  offset="0.8783" style="stop-color:#268AE8"/>
			<stop  offset="1" style="stop-color:#2196F3"/>
		</linearGradient>
		<path class="st21" d="M94.5,177.2v3h0c0,7.2,4.7,14.4,14.2,19.8c18.9,10.9,49.7,10.9,68.6,0c9.4-5.4,14.1-12.5,14.2-19.7h0v-3.2
			H94.5z"/>
		<linearGradient id="SVGID_19_" gradientUnits="userSpaceOnUse" x1="143.0402" y1="126.5326" x2="143.0402" y2="188.8318">
			<stop  offset="0" style="stop-color:#14A4DB"/>
			<stop  offset="0.1958" style="stop-color:#1AABDC"/>
			<stop  offset="0.4773" style="stop-color:#2BBEE0"/>
			<stop  offset="0.809" style="stop-color:#46DDE5"/>
			<stop  offset="1" style="stop-color:#58F2E9"/>
		</linearGradient>
		<path class="st22" d="M177.3,197c-18.9,10.9-49.7,10.9-68.6,0c-18.9-10.9-18.9-28.7,0-39.6c18.9-10.9,49.7-10.9,68.6,0
			C196.3,168.3,196.3,186,177.3,197z"/>
		<linearGradient id="SVGID_20_" gradientUnits="userSpaceOnUse" x1="142.973" y1="156.1715" x2="142.973" y2="182.0135">
			<stop  offset="0" style="stop-color:#14A4DB"/>
			<stop  offset="0.1958" style="stop-color:#1AABDC"/>
			<stop  offset="0.4773" style="stop-color:#2BBEE0"/>
			<stop  offset="0.809" style="stop-color:#46DDE5"/>
			<stop  offset="1" style="stop-color:#58F2E9"/>
		</linearGradient>
		<path class="st23" d="M157.2,185.4c-7.9,4.5-20.6,4.5-28.5,0c-7.9-4.5-7.9-11.9,0-16.4c7.9-4.5,20.6-4.5,28.5,0
			C165.1,173.5,165.1,180.9,157.2,185.4z"/>
		<linearGradient id="SVGID_21_" gradientUnits="userSpaceOnUse" x1="143.3379" y1="161.1219" x2="143.3379" y2="180.4259">
			<stop  offset="0" style="stop-color:#14A4DB"/>
			<stop  offset="0.1958" style="stop-color:#1AABDC"/>
			<stop  offset="0.4773" style="stop-color:#2BBEE0"/>
			<stop  offset="0.809" style="stop-color:#46DDE5"/>
			<stop  offset="1" style="stop-color:#58F2E9"/>
		</linearGradient>
		<path class="st24" d="M154,183c-5.9,3.4-15.4,3.4-21.3,0c-5.9-3.4-5.9-8.9,0-12.3c5.9-3.4,15.4-3.4,21.3,0
			C159.8,174.1,159.8,179.6,154,183z"/>
		<g>
			<linearGradient id="SVGID_22_" gradientUnits="userSpaceOnUse" x1="143.0402" y1="45.8553" x2="143.0402" y2="223.2615">
				<stop  offset="0.2247" style="stop-color:#000000"/>
				<stop  offset="0.3104" style="stop-color:#000F13"/>
				<stop  offset="0.4842" style="stop-color:#003544"/>
				<stop  offset="0.7309" style="stop-color:#007494"/>
				<stop  offset="1" style="stop-color:#00BDF2"/>
			</linearGradient>
			<path class="st25" d="M191.5,42.1h-97v134.8c0,7.2,4.7,14.3,14.2,19.8c18.9,10.9,49.7,10.9,68.6,0c9.5-5.5,14.2-12.6,14.2-19.8
				l0,0V42.1z"/>
			<linearGradient id="SVGID_23_" gradientUnits="userSpaceOnUse" x1="160.1283" y1="45.8769" x2="160.1283" y2="223.2825">
				<stop  offset="0.2247" style="stop-color:#000000"/>
				<stop  offset="0.3104" style="stop-color:#000F13"/>
				<stop  offset="0.4842" style="stop-color:#003544"/>
				<stop  offset="0.7309" style="stop-color:#007494"/>
				<stop  offset="1" style="stop-color:#00BDF2"/>
			</linearGradient>
			<path class="st26" d="M176.3,42.2H144v162.8c11.7-0.1,23.2-2.6,32.3-7.6V42.2z"/>
		</g>
		<g>
			<path class="st7" d="M172.7,247.3l0.2-0.1c0.8-0.4,1.4-1.7,1.4-2.7v-27.6c0-1-0.6-1.5-1.4-1.1l-0.2,0.1c-0.8,0.4-1.4,1.7-1.4,2.7
				v27.6C171.3,247.3,171.9,247.8,172.7,247.3z"/>
			<linearGradient id="SVGID_24_" gradientUnits="userSpaceOnUse" x1="172.82" y1="255.5596" x2="172.82" y2="230.2937">
				<stop  offset="0" style="stop-color:#3F51B5"/>
				<stop  offset="0.2126" style="stop-color:#3C58BB"/>
				<stop  offset="0.5181" style="stop-color:#346BCC"/>
				<stop  offset="0.8783" style="stop-color:#268AE8"/>
				<stop  offset="1" style="stop-color:#2196F3"/>
			</linearGradient>
			<path class="st27" d="M172.7,247.3l0.2-0.1c0.8-0.4,1.4-1.7,1.4-2.7v-8.4c0-1-0.6-1.5-1.4-1.1l-0.2,0.1c-0.8,0.4-1.4,1.7-1.4,2.7
				v8.4C171.3,247.3,171.9,247.8,172.7,247.3z"/>
		</g>
		<path class="st7" d="M184.8,212.8c0,0.3,0.2,0.4,0.5,0.3c0.3-0.2,0.5-0.5,0.5-0.9c0-0.3-0.2-0.4-0.5-0.3
			C185,212.1,184.8,212.5,184.8,212.8z"/>
		<path class="st7" d="M181,215c0,0.3,0.2,0.4,0.5,0.3c0.3-0.2,0.5-0.5,0.5-0.9c0-0.3-0.2-0.4-0.5-0.3
			C181.2,214.3,181,214.7,181,215z"/>
		<path class="st7" d="M184.8,216.9c0,0.3,0.2,0.4,0.5,0.3c0.3-0.2,0.5-0.5,0.5-0.9c0-0.3-0.2-0.4-0.5-0.3
			C185,216.2,184.8,216.6,184.8,216.9z"/>
		<path class="st7" d="M181,219.1c0,0.3,0.2,0.4,0.5,0.3c0.3-0.2,0.5-0.5,0.5-0.9c0-0.3-0.2-0.4-0.5-0.3
			C181.2,218.4,181,218.8,181,219.1z"/>
		<linearGradient id="SVGID_25_" gradientUnits="userSpaceOnUse" x1="229.9476" y1="188.946" x2="229.9476" y2="245.5376">
			<stop  offset="0.2247" style="stop-color:#000000"/>
			<stop  offset="0.3104" style="stop-color:#000F13"/>
			<stop  offset="0.4842" style="stop-color:#003544"/>
			<stop  offset="0.7309" style="stop-color:#007494"/>
			<stop  offset="1" style="stop-color:#00BDF2"/>
		</linearGradient>
		<path class="st28" d="M236.6,187.8h-13.4v48.1c0,1,0.7,2,2,2.7c2.6,1.5,6.8,1.5,9.4,0c1.3-0.8,2-1.7,2-2.7l0,0V187.8z"/>
		<path class="st7" d="M225.2,238.6c2.6,1.5,6.8,1.5,9.5,0c2.6-1.5,2.6-4,0-5.5c-2.6-1.5-6.8-1.5-9.5,0
			C222.6,234.6,222.6,237,225.2,238.6z"/>
		<linearGradient id="SVGID_26_" gradientUnits="userSpaceOnUse" x1="111.3493" y1="309.8453" x2="183.7661" y2="264.4464">
			<stop  offset="0" style="stop-color:#14A4DB"/>
			<stop  offset="0.1958" style="stop-color:#1AABDC"/>
			<stop  offset="0.4773" style="stop-color:#2BBEE0"/>
			<stop  offset="0.809" style="stop-color:#46DDE5"/>
			<stop  offset="1" style="stop-color:#58F2E9"/>
		</linearGradient>
		<path class="st29" d="M154.3,278.7l17.5-10.1l2.7,1.5L157,280.2L154.3,278.7z M152.7,282.7l2.6-1.5l-2.6-1.5l-2.6,1.5L152.7,282.7
			z M148.3,285.2l2.6-1.5l-2.6-1.5l-2.6,1.5L148.3,285.2z M144.4,287.5l2.6-1.5l-2.6-1.5l-2.6,1.5L144.4,287.5z M161.1,282.6
			l17.5-10.1L176,271l-17.5,10.1L161.1,282.6z M156.9,285l2.6-1.5l-2.6-1.5l-2.6,1.5L156.9,285z M152.5,287.6l2.6-1.5l-2.6-1.5
			l-2.6,1.5L152.5,287.6z M148.5,289.9l2.6-1.5l-2.6-1.5l-2.6,1.5L148.5,289.9z"/>
		<g class="st30">
			
				<linearGradient id="SVGID_27_" gradientUnits="userSpaceOnUse" x1="-2393.2058" y1="10033.2314" x2="-2325.135" y2="10033.2314" gradientTransform="matrix(0 1 -1 0 10139.1162 2466.0906)">
				<stop  offset="0.101" style="stop-color:#000000"/>
				<stop  offset="0.1637" style="stop-color:#001920"/>
				<stop  offset="0.3019" style="stop-color:#005A73"/>
				<stop  offset="0.5" style="stop-color:#00BDF2"/>
				<stop  offset="1" style="stop-color:#000000"/>
			</linearGradient>
			<rect x="105.5" y="72.9" class="st31" width="0.8" height="68.1"/>
		</g>
		<g class="st30">
			
				<linearGradient id="SVGID_28_" gradientUnits="userSpaceOnUse" x1="-2408.3201" y1="9956.9941" x2="-2345.0173" y2="9956.9941" gradientTransform="matrix(0 1 -1 0 10139.1162 2466.0906)">
				<stop  offset="0.101" style="stop-color:#000000"/>
				<stop  offset="0.1637" style="stop-color:#001920"/>
				<stop  offset="0.3019" style="stop-color:#005A73"/>
				<stop  offset="0.5" style="stop-color:#00BDF2"/>
				<stop  offset="1" style="stop-color:#000000"/>
			</linearGradient>
			<rect x="181.7" y="57.8" class="st32" width="0.8" height="63.3"/>
		</g>
		<g class="st30">
			
				<linearGradient id="SVGID_29_" gradientUnits="userSpaceOnUse" x1="-2367.9875" y1="9972.1094" x2="-2285.9373" y2="9972.1094" gradientTransform="matrix(0 1 -1 0 10139.1162 2466.0906)">
				<stop  offset="0.101" style="stop-color:#000000"/>
				<stop  offset="0.1637" style="stop-color:#001920"/>
				<stop  offset="0.3019" style="stop-color:#005A73"/>
				<stop  offset="0.5" style="stop-color:#00BDF2"/>
				<stop  offset="1" style="stop-color:#000000"/>
			</linearGradient>
			<rect x="166.6" y="98.1" class="st33" width="0.8" height="82.1"/>
		</g>
		<g class="st4">
			
				<linearGradient id="SVGID_30_" gradientUnits="userSpaceOnUse" x1="-2343.2117" y1="10016.4561" x2="-2279.3459" y2="10016.4561" gradientTransform="matrix(0 1 -1 0 10139.1162 2466.0906)">
				<stop  offset="0.101" style="stop-color:#000000"/>
				<stop  offset="0.1637" style="stop-color:#001920"/>
				<stop  offset="0.3019" style="stop-color:#005A73"/>
				<stop  offset="0.5" style="stop-color:#00BDF2"/>
				<stop  offset="1" style="stop-color:#000000"/>
			</linearGradient>
			<rect x="122.3" y="122.9" class="st34" width="0.8" height="63.9"/>
		</g>
		<g class="st30">
			
				<linearGradient id="SVGID_31_" gradientUnits="userSpaceOnUse" x1="-2431.5574" y1="9987.7783" x2="-2349.5071" y2="9987.7783" gradientTransform="matrix(0 1 -1 0 10139.1162 2466.0906)">
				<stop  offset="0.101" style="stop-color:#000000"/>
				<stop  offset="0.1637" style="stop-color:#001920"/>
				<stop  offset="0.3019" style="stop-color:#005A73"/>
				<stop  offset="0.5" style="stop-color:#00BDF2"/>
				<stop  offset="1" style="stop-color:#000000"/>
			</linearGradient>
			<rect x="151" y="34.5" class="st35" width="0.8" height="82.1"/>
		</g>
		<linearGradient id="SVGID_32_" gradientUnits="userSpaceOnUse" x1="118.0803" y1="110.37" x2="118.0803" y2="108.4884">
			<stop  offset="0" style="stop-color:#14A4DB"/>
			<stop  offset="0.1958" style="stop-color:#1AABDC"/>
			<stop  offset="0.4773" style="stop-color:#2BBEE0"/>
			<stop  offset="0.809" style="stop-color:#46DDE5"/>
			<stop  offset="1" style="stop-color:#58F2E9"/>
		</linearGradient>
		<circle class="st36" cx="118.1" cy="109.2" r="0.8"/>
		<linearGradient id="SVGID_33_" gradientUnits="userSpaceOnUse" x1="163.0994" y1="87.6054" x2="163.0994" y2="85.7238">
			<stop  offset="0" style="stop-color:#14A4DB"/>
			<stop  offset="0.1958" style="stop-color:#1AABDC"/>
			<stop  offset="0.4773" style="stop-color:#2BBEE0"/>
			<stop  offset="0.809" style="stop-color:#46DDE5"/>
			<stop  offset="1" style="stop-color:#58F2E9"/>
		</linearGradient>
		<circle class="st37" cx="163.1" cy="86.4" r="0.8"/>
		<linearGradient id="SVGID_34_" gradientUnits="userSpaceOnUse" x1="176.2276" y1="62.5331" x2="176.2276" y2="60.6515">
			<stop  offset="0" style="stop-color:#14A4DB"/>
			<stop  offset="0.1958" style="stop-color:#1AABDC"/>
			<stop  offset="0.4773" style="stop-color:#2BBEE0"/>
			<stop  offset="0.809" style="stop-color:#46DDE5"/>
			<stop  offset="1" style="stop-color:#58F2E9"/>
		</linearGradient>
		<circle class="st38" cx="176.2" cy="61.3" r="0.8"/>
		<linearGradient id="SVGID_35_" gradientUnits="userSpaceOnUse" x1="130.4741" y1="54.3223" x2="130.4741" y2="52.4407">
			<stop  offset="0" style="stop-color:#14A4DB"/>
			<stop  offset="0.1958" style="stop-color:#1AABDC"/>
			<stop  offset="0.4773" style="stop-color:#2BBEE0"/>
			<stop  offset="0.809" style="stop-color:#46DDE5"/>
			<stop  offset="1" style="stop-color:#58F2E9"/>
		</linearGradient>
		<circle class="st39" cx="130.5" cy="53.1" r="0.8"/>
		<linearGradient id="SVGID_36_" gradientUnits="userSpaceOnUse" x1="100.4032" y1="70.378" x2="100.4032" y2="68.4964">
			<stop  offset="0" style="stop-color:#14A4DB"/>
			<stop  offset="0.1958" style="stop-color:#1AABDC"/>
			<stop  offset="0.4773" style="stop-color:#2BBEE0"/>
			<stop  offset="0.809" style="stop-color:#46DDE5"/>
			<stop  offset="1" style="stop-color:#58F2E9"/>
		</linearGradient>
		<circle class="st40" cx="100.4" cy="69.2" r="0.8"/>
		<linearGradient id="SVGID_37_" gradientUnits="userSpaceOnUse" x1="182.8801" y1="154.5161" x2="182.8801" y2="152.6345">
			<stop  offset="0" style="stop-color:#14A4DB"/>
			<stop  offset="0.1958" style="stop-color:#1AABDC"/>
			<stop  offset="0.4773" style="stop-color:#2BBEE0"/>
			<stop  offset="0.809" style="stop-color:#46DDE5"/>
			<stop  offset="1" style="stop-color:#58F2E9"/>
		</linearGradient>
		<circle class="st41" cx="182.9" cy="153.3" r="0.8"/>
		<circle class="st7" cx="111.2" cy="167.4" r="0.8"/>
		<circle class="st7" cx="156.4" cy="194.4" r="0.8"/>
		<g>
			
				<linearGradient id="SVGID_38_" gradientUnits="userSpaceOnUse" x1="-446.5625" y1="2878.8188" x2="-446.5625" y2="2852.906" gradientTransform="matrix(0.866 0.5 0 1.1547 497.5692 -2852.731)">
				<stop  offset="0" style="stop-color:#3F51B5"/>
				<stop  offset="0.2126" style="stop-color:#3C58BB"/>
				<stop  offset="0.5181" style="stop-color:#346BCC"/>
				<stop  offset="0.8783" style="stop-color:#268AE8"/>
				<stop  offset="1" style="stop-color:#2196F3"/>
			</linearGradient>
			<path class="st42" d="M110.9,240.8L110.9,240.8c-0.2-0.1-0.3-0.4-0.3-0.6v-23.3c0-0.2,0.1-0.3,0.3-0.2l0,0
				c0.2,0.1,0.3,0.3,0.3,0.6v23.3C111.2,240.8,111,240.9,110.9,240.8z"/>
			
				<linearGradient id="SVGID_39_" gradientUnits="userSpaceOnUse" x1="-444.1892" y1="2878.8188" x2="-444.1892" y2="2852.906" gradientTransform="matrix(0.866 0.5 0 1.1547 497.5692 -2852.731)">
				<stop  offset="0" style="stop-color:#3F51B5"/>
				<stop  offset="0.2126" style="stop-color:#3C58BB"/>
				<stop  offset="0.5181" style="stop-color:#346BCC"/>
				<stop  offset="0.8783" style="stop-color:#268AE8"/>
				<stop  offset="1" style="stop-color:#2196F3"/>
			</linearGradient>
			<path class="st43" d="M112.9,242L112.9,242c-0.2-0.1-0.3-0.4-0.3-0.6v-23.3c0-0.2,0.1-0.3,0.3-0.2l0,0c0.2,0.1,0.3,0.3,0.3,0.6
				v23.3C113.2,242,113.1,242.1,112.9,242z"/>
			
				<linearGradient id="SVGID_40_" gradientUnits="userSpaceOnUse" x1="-441.8159" y1="2878.8188" x2="-441.8159" y2="2852.906" gradientTransform="matrix(0.866 0.5 0 1.1547 497.5692 -2852.731)">
				<stop  offset="0" style="stop-color:#3F51B5"/>
				<stop  offset="0.2126" style="stop-color:#3C58BB"/>
				<stop  offset="0.5181" style="stop-color:#346BCC"/>
				<stop  offset="0.8783" style="stop-color:#268AE8"/>
				<stop  offset="1" style="stop-color:#2196F3"/>
			</linearGradient>
			<path class="st44" d="M115,243.2L115,243.2c-0.2-0.1-0.3-0.4-0.3-0.6v-23.3c0-0.2,0.1-0.3,0.3-0.2l0,0c0.2,0.1,0.3,0.3,0.3,0.6
				V243C115.3,243.2,115.1,243.3,115,243.2z"/>
			
				<linearGradient id="SVGID_41_" gradientUnits="userSpaceOnUse" x1="-439.4427" y1="2878.8186" x2="-439.4427" y2="2852.906" gradientTransform="matrix(0.866 0.5 0 1.1547 497.5692 -2852.731)">
				<stop  offset="0" style="stop-color:#3F51B5"/>
				<stop  offset="0.2126" style="stop-color:#3C58BB"/>
				<stop  offset="0.5181" style="stop-color:#346BCC"/>
				<stop  offset="0.8783" style="stop-color:#268AE8"/>
				<stop  offset="1" style="stop-color:#2196F3"/>
			</linearGradient>
			<path class="st45" d="M117,244.4L117,244.4c-0.2-0.1-0.3-0.4-0.3-0.6v-23.3c0-0.2,0.1-0.3,0.3-0.2l0,0c0.2,0.1,0.3,0.3,0.3,0.6
				v23.3C117.3,244.4,117.2,244.5,117,244.4z"/>
		</g>
		
			<linearGradient id="SVGID_42_" gradientUnits="userSpaceOnUse" x1="3172.2632" y1="-826.5153" x2="3205.7363" y2="-826.5153" gradientTransform="matrix(0.904 -0.4275 0.4275 0.904 -2397.4839 2248.364)">
			<stop  offset="0" style="stop-color:#14A4DB"/>
			<stop  offset="0.1958" style="stop-color:#1AABDC"/>
			<stop  offset="0.4773" style="stop-color:#2BBEE0"/>
			<stop  offset="0.809" style="stop-color:#46DDE5"/>
			<stop  offset="1" style="stop-color:#58F2E9"/>
		</linearGradient>
		<path class="st46" d="M146.3,133.3c-1.8-0.8-3.8-1-5.9-0.4c1.4-1.2,2.3-2.6,2.7-4.3c0.4-1.7,0.2-3.3-0.6-4.9
			c-1.1-2.4-3-3.8-5.6-4.2c-2.2-0.4-4.7,0-7.5,1.1l-2-4.2l-5.7,2.7l2,4.2l-3.1,1.5l-2-4.2L113,123l2,4.2l-5.3,2.5l2.7,5.7l4.1-1.9
			l9.2,19.4l-4.1,1.9l2.7,5.7l5.3-2.5l2,4.2l5.7-2.7l-2-4.2l3.1-1.5l2,4.2l5.7-2.7l-2-4.2c3-1.6,5.1-3.5,6.4-5.8
			c1.4-2.5,1.4-5.1,0.2-7.7C149.4,135.6,148.1,134.1,146.3,133.3z M123.4,130.2l6.8-3.2c1.3-0.7,2.5-0.9,3.5-0.6
			c1,0.2,1.8,0.9,2.3,1.9c0.5,1.1,0.5,2.1,0.1,3c-0.5,1-1.3,1.7-2.7,2.4l-6.8,3.2L123.4,130.2z M142.7,143.5c-0.6,1.1-1.8,2-3.4,2.8
			l-6.8,3.2l-3.4-7.3l6.8-3.2c1.6-0.8,3.1-1.1,4.3-0.9c1.2,0.2,2.1,0.9,2.6,2C143.4,141.2,143.4,142.4,142.7,143.5z"/>
		
			<linearGradient id="SVGID_43_" gradientUnits="userSpaceOnUse" x1="-1868.6188" y1="1860.2231" x2="-1854.8154" y2="1860.2231" gradientTransform="matrix(0.9331 0.3596 -0.3596 0.9331 2572.3596 -951.7428)">
			<stop  offset="0" style="stop-color:#14A4DB"/>
			<stop  offset="0.1958" style="stop-color:#1AABDC"/>
			<stop  offset="0.4773" style="stop-color:#2BBEE0"/>
			<stop  offset="0.809" style="stop-color:#46DDE5"/>
			<stop  offset="1" style="stop-color:#58F2E9"/>
		</linearGradient>
		<path class="st47" d="M171.7,117.5c-0.3-0.8-0.8-1.4-1.6-1.9c0.8,0.1,1.5-0.1,2.1-0.4c0.6-0.4,1-0.9,1.3-1.6c0.4-1,0.3-2-0.3-2.9
			c-0.5-0.8-1.3-1.4-2.4-1.9l0.7-1.8l-2.4-0.9l-0.7,1.8l-1.3-0.5l0.7-1.8l-2.4-0.9l-0.7,1.8l-2.3-0.9l-0.9,2.4l1.7,0.7l-3.2,8.2
			l-1.7-0.7l-0.9,2.4l2.3,0.9l-0.7,1.8l2.4,0.9l0.7-1.8l1.3,0.5l-0.7,1.8l2.4,0.9l0.7-1.8c1.3,0.4,2.5,0.5,3.5,0.3
			c1.1-0.3,1.9-1,2.3-2.1C171.9,119.1,171.9,118.3,171.7,117.5z M166.1,109.8l2.9,1.1c0.6,0.2,1,0.5,1.2,0.9
			c0.2,0.4,0.2,0.8,0.1,1.2c-0.2,0.5-0.5,0.8-0.9,0.9c-0.4,0.1-0.9,0.1-1.5-0.1l-2.9-1.1L166.1,109.8z M167.6,119.3
			c-0.5,0.1-1.1,0.1-1.8-0.2l-2.9-1.1l1.2-3.1l2.9,1.1c0.7,0.3,1.2,0.6,1.5,1c0.3,0.4,0.3,0.9,0.2,1.3
			C168.5,118.9,168.1,119.2,167.6,119.3z"/>
		
			<linearGradient id="SVGID_44_" gradientUnits="userSpaceOnUse" x1="1071.5573" y1="-358.2708" x2="1091.0062" y2="-358.2708" gradientTransform="matrix(0.9897 -0.1429 0.1429 0.9897 -878.9463 595.2421)">
			<stop  offset="0" style="stop-color:#14A4DB"/>
			<stop  offset="0.1958" style="stop-color:#1AABDC"/>
			<stop  offset="0.4773" style="stop-color:#2BBEE0"/>
			<stop  offset="0.809" style="stop-color:#46DDE5"/>
			<stop  offset="1" style="stop-color:#58F2E9"/>
		</linearGradient>
		<path class="st48" d="M148.7,86c-0.9-0.8-1.9-1.2-3.2-1.3c1-0.4,1.7-1.1,2.2-1.9c0.5-0.9,0.7-1.8,0.5-2.8c-0.2-1.5-1-2.6-2.4-3.3
			c-1.2-0.6-2.6-0.8-4.3-0.7l-0.4-2.7l-3.6,0.5l0.4,2.7l-2,0.3l-0.4-2.7l-3.6,0.5l0.4,2.7l-3.4,0.5l0.5,3.6l2.6-0.4l1.8,12.3
			l-2.6,0.4l0.5,3.6l3.4-0.5l0.4,2.7l3.6-0.5l-0.4-2.7l2-0.3l0.4,2.7l3.6-0.5l-0.4-2.7c1.9-0.4,3.5-1.1,4.5-2.1
			c1.2-1.2,1.6-2.6,1.4-4.2C150.1,87.8,149.6,86.8,148.7,86z M136.5,80.4l4.3-0.6c0.8-0.1,1.5-0.1,2,0.2c0.5,0.3,0.8,0.8,0.9,1.5
			c0.1,0.7-0.1,1.3-0.5,1.7c-0.4,0.4-1,0.7-1.9,0.9l-4.3,0.6L136.5,80.4z M145,91.1c-0.5,0.5-1.3,0.8-2.4,1l-4.3,0.6l-0.7-4.6
			l4.3-0.6c1-0.2,1.9-0.1,2.5,0.2c0.7,0.3,1,0.8,1.1,1.5C145.7,89.9,145.5,90.6,145,91.1z"/>
	</g>
	<g>
		<g>
			<linearGradient id="SVGID_45_" gradientUnits="userSpaceOnUse" x1="367.7871" y1="262.1245" x2="367.7871" y2="208.7151">
				<stop  offset="0" style="stop-color:#3F51B5"/>
				<stop  offset="0.2126" style="stop-color:#3C58BB"/>
				<stop  offset="0.5181" style="stop-color:#346BCC"/>
				<stop  offset="0.8783" style="stop-color:#268AE8"/>
				<stop  offset="1" style="stop-color:#2196F3"/>
			</linearGradient>
			<path class="st49" d="M317.4,229.9v11.5c0,1.1,0.8,2.1,2.1,2.9l42.7,24.6c3.1,1.8,8.6,1.6,12.3-0.5l40.9-23.6
				c1.7-1,2.7-2.2,2.9-3.4h0.1v-11.5H317.4z"/>
			<linearGradient id="SVGID_46_" gradientUnits="userSpaceOnUse" x1="367.7866" y1="251.1723" x2="367.7866" y2="197.7628">
				<stop  offset="0" style="stop-color:#14A4DB"/>
				<stop  offset="0.1958" style="stop-color:#1AABDC"/>
				<stop  offset="0.4773" style="stop-color:#2BBEE0"/>
				<stop  offset="0.809" style="stop-color:#46DDE5"/>
				<stop  offset="1" style="stop-color:#58F2E9"/>
			</linearGradient>
			<path class="st50" d="M416.1,227l-42.7-24.6c-1.4-0.8-3.3-1.2-5.3-1.2c-2.4,0-5,0.6-6.9,1.7l-40.9,23.6c-1.9,1.1-3,2.6-3,4
				c0,1.1,0.8,2.1,2.1,2.9l42.7,24.6c3.1,1.8,8.6,1.6,12.3-0.5l40.9-23.6c1.9-1.1,3-2.6,3-4C418.1,228.7,417.4,227.7,416.1,227z"/>
		</g>
		<g>
			<linearGradient id="SVGID_47_" gradientUnits="userSpaceOnUse" x1="367.7871" y1="246.0878" x2="367.7871" y2="192.6784">
				<stop  offset="0" style="stop-color:#3F51B5"/>
				<stop  offset="0.2126" style="stop-color:#3C58BB"/>
				<stop  offset="0.5181" style="stop-color:#346BCC"/>
				<stop  offset="0.8783" style="stop-color:#268AE8"/>
				<stop  offset="1" style="stop-color:#2196F3"/>
			</linearGradient>
			<path class="st51" d="M317.4,213.9v11.5c0,1.1,0.8,2.1,2.1,2.9l42.7,24.6c3.1,1.8,8.6,1.6,12.3-0.5l40.9-23.6
				c1.7-1,2.7-2.2,2.9-3.4h0.1v-11.5H317.4z"/>
			<linearGradient id="SVGID_48_" gradientUnits="userSpaceOnUse" x1="367.7866" y1="235.1356" x2="367.7866" y2="181.7262">
				<stop  offset="0" style="stop-color:#14A4DB"/>
				<stop  offset="0.1958" style="stop-color:#1AABDC"/>
				<stop  offset="0.4773" style="stop-color:#2BBEE0"/>
				<stop  offset="0.809" style="stop-color:#46DDE5"/>
				<stop  offset="1" style="stop-color:#58F2E9"/>
			</linearGradient>
			<path class="st52" d="M416.1,210.9l-42.7-24.6c-1.4-0.8-3.3-1.2-5.3-1.2c-2.4,0-5,0.6-6.9,1.7l-40.9,23.6c-1.9,1.1-3,2.6-3,4
				c0,1.1,0.8,2.1,2.1,2.9l42.7,24.6c3.1,1.8,8.6,1.6,12.3-0.5l40.9-23.6c1.9-1.1,3-2.6,3-4C418.1,212.7,417.4,211.7,416.1,210.9z"
				/>
		</g>
		<g>
			<linearGradient id="SVGID_49_" gradientUnits="userSpaceOnUse" x1="367.7871" y1="230.0511" x2="367.7871" y2="176.6417">
				<stop  offset="0" style="stop-color:#3F51B5"/>
				<stop  offset="0.2126" style="stop-color:#3C58BB"/>
				<stop  offset="0.5181" style="stop-color:#346BCC"/>
				<stop  offset="0.8783" style="stop-color:#268AE8"/>
				<stop  offset="1" style="stop-color:#2196F3"/>
			</linearGradient>
			<path class="st53" d="M317.4,197.8v11.5c0,1.1,0.8,2.1,2.1,2.9l42.7,24.6c3.1,1.8,8.6,1.6,12.3-0.5l40.9-23.6
				c1.7-1,2.7-2.2,2.9-3.4h0.1v-11.5H317.4z"/>
			<linearGradient id="SVGID_50_" gradientUnits="userSpaceOnUse" x1="367.7866" y1="219.0989" x2="367.7866" y2="165.6896">
				<stop  offset="0" style="stop-color:#14A4DB"/>
				<stop  offset="0.1958" style="stop-color:#1AABDC"/>
				<stop  offset="0.4773" style="stop-color:#2BBEE0"/>
				<stop  offset="0.809" style="stop-color:#46DDE5"/>
				<stop  offset="1" style="stop-color:#58F2E9"/>
			</linearGradient>
			<path class="st54" d="M416.1,194.9l-42.7-24.6c-1.4-0.8-3.3-1.2-5.3-1.2c-2.4,0-5,0.6-6.9,1.7l-40.9,23.6c-1.9,1.1-3,2.6-3,4
				c0,1.1,0.8,2.1,2.1,2.9l42.7,24.6c3.1,1.8,8.6,1.6,12.3-0.5l40.9-23.6c1.9-1.1,3-2.6,3-4C418.1,196.6,417.4,195.6,416.1,194.9z"
				/>
		</g>
		<g>
			<linearGradient id="SVGID_51_" gradientUnits="userSpaceOnUse" x1="367.787" y1="214.0144" x2="367.787" y2="160.605">
				<stop  offset="0" style="stop-color:#3F51B5"/>
				<stop  offset="0.2126" style="stop-color:#3C58BB"/>
				<stop  offset="0.5181" style="stop-color:#346BCC"/>
				<stop  offset="0.8783" style="stop-color:#268AE8"/>
				<stop  offset="1" style="stop-color:#2196F3"/>
			</linearGradient>
			<path class="st55" d="M317.4,181.8v11.5c0,1.1,0.8,2.1,2.1,2.9l42.7,24.6c3.1,1.8,8.6,1.6,12.3-0.5l40.9-23.6
				c1.7-1,2.7-2.2,2.9-3.4h0.1v-11.5H317.4z"/>
			<linearGradient id="SVGID_52_" gradientUnits="userSpaceOnUse" x1="342.2609" y1="206.7926" x2="392.9747" y2="157.6289">
				<stop  offset="0" style="stop-color:#14A4DB"/>
				<stop  offset="0.1958" style="stop-color:#1AABDC"/>
				<stop  offset="0.4773" style="stop-color:#2BBEE0"/>
				<stop  offset="0.809" style="stop-color:#46DDE5"/>
				<stop  offset="1" style="stop-color:#58F2E9"/>
			</linearGradient>
			<path class="st56" d="M416.1,178.9l-42.7-24.6c-1.4-0.8-3.3-1.2-5.3-1.2c-2.4,0-5,0.6-6.9,1.7l-40.9,23.6c-1.9,1.1-3,2.6-3,4
				c0,1.1,0.8,2.1,2.1,2.9l42.7,24.6c3.1,1.8,8.6,1.6,12.3-0.5l40.9-23.6c1.9-1.1,3-2.6,3-4C418.1,180.6,417.4,179.6,416.1,178.9z"
				/>
			<linearGradient id="SVGID_53_" gradientUnits="userSpaceOnUse" x1="367.7866" y1="197.4" x2="367.7866" y2="150.8562">
				<stop  offset="0" style="stop-color:#3F51B5"/>
				<stop  offset="0.2126" style="stop-color:#3C58BB"/>
				<stop  offset="0.5181" style="stop-color:#346BCC"/>
				<stop  offset="0.8783" style="stop-color:#268AE8"/>
				<stop  offset="1" style="stop-color:#2196F3"/>
			</linearGradient>
			<path class="st57" d="M397.2,181.5l-25.9-15c-0.9-0.5-2-0.7-3.2-0.7c-1.5,0-3,0.4-4.2,1.1l-24.9,14.4c-1.2,0.7-1.8,1.6-1.8,2.4
				c0,0.7,0.5,1.3,1.3,1.8l25.9,15c1.9,1.1,5.2,1,7.4-0.3l24.9-14.4c1.2-0.7,1.8-1.6,1.8-2.5C398.4,182.6,398,182,397.2,181.5z"/>
			<linearGradient id="SVGID_54_" gradientUnits="userSpaceOnUse" x1="367.7866" y1="195.7159" x2="367.7866" y2="149.1721">
				<stop  offset="0" style="stop-color:#148BDB"/>
				<stop  offset="0.1626" style="stop-color:#1992DC"/>
				<stop  offset="0.3964" style="stop-color:#25A5DF"/>
				<stop  offset="0.6733" style="stop-color:#3AC4E3"/>
				<stop  offset="0.9809" style="stop-color:#56EFE9"/>
				<stop  offset="1" style="stop-color:#58F2E9"/>
			</linearGradient>
			<path class="st58" d="M397.2,179.8l-25.9-15c-0.9-0.5-2-0.7-3.2-0.7c-1.5,0-3,0.4-4.2,1.1l-24.9,14.4c-1.2,0.7-1.8,1.6-1.8,2.4
				c0,0.7,0.5,1.3,1.3,1.8l25.9,15c1.9,1.1,5.2,1,7.4-0.3l24.9-14.4c1.2-0.7,1.8-1.6,1.8-2.5C398.4,180.9,398,180.3,397.2,179.8z"/>
		</g>
		<path class="st7" d="M369.6,171.6c-1,0.6-2.6,0.6-3.6,0c-1-0.6-1-1.5,0-2.1c1-0.6,2.6-0.6,3.6,0C370.6,170,370.6,171,369.6,171.6z
			"/>
		<g>
			<linearGradient id="SVGID_55_" gradientUnits="userSpaceOnUse" x1="390.2028" y1="201.0494" x2="406.5907" y2="201.0494">
				<stop  offset="0" style="stop-color:#14A4DB"/>
				<stop  offset="0.1958" style="stop-color:#1AABDC"/>
				<stop  offset="0.4773" style="stop-color:#2BBEE0"/>
				<stop  offset="0.809" style="stop-color:#46DDE5"/>
				<stop  offset="1" style="stop-color:#58F2E9"/>
			</linearGradient>
			<polygon class="st59" points="406.6,197.4 390.2,206.8 390.2,204.7 406.6,195.3 			"/>
			<linearGradient id="SVGID_56_" gradientUnits="userSpaceOnUse" x1="403.2685" y1="198.0428" x2="411.7393" y2="193.3922">
				<stop  offset="0" style="stop-color:#14A4DB"/>
				<stop  offset="0.1958" style="stop-color:#1AABDC"/>
				<stop  offset="0.4773" style="stop-color:#2BBEE0"/>
				<stop  offset="0.809" style="stop-color:#46DDE5"/>
				<stop  offset="1" style="stop-color:#58F2E9"/>
			</linearGradient>
			<polygon class="st60" points="412.2,194.1 408,196.5 408,194.4 412.2,192 			"/>
		</g>
		<g>
			<linearGradient id="SVGID_57_" gradientUnits="userSpaceOnUse" x1="390.2028" y1="217.3266" x2="406.5907" y2="217.3266">
				<stop  offset="0" style="stop-color:#14A4DB"/>
				<stop  offset="0.1958" style="stop-color:#1AABDC"/>
				<stop  offset="0.4773" style="stop-color:#2BBEE0"/>
				<stop  offset="0.809" style="stop-color:#46DDE5"/>
				<stop  offset="1" style="stop-color:#58F2E9"/>
			</linearGradient>
			<polygon class="st61" points="406.6,213.7 390.2,223.1 390.2,221 406.6,211.5 			"/>
			<linearGradient id="SVGID_58_" gradientUnits="userSpaceOnUse" x1="403.2685" y1="214.32" x2="411.7393" y2="209.6694">
				<stop  offset="0" style="stop-color:#14A4DB"/>
				<stop  offset="0.1958" style="stop-color:#1AABDC"/>
				<stop  offset="0.4773" style="stop-color:#2BBEE0"/>
				<stop  offset="0.809" style="stop-color:#46DDE5"/>
				<stop  offset="1" style="stop-color:#58F2E9"/>
			</linearGradient>
			<polygon class="st62" points="412.2,210.4 408,212.8 408,210.7 412.2,208.3 			"/>
		</g>
		<g>
			<linearGradient id="SVGID_59_" gradientUnits="userSpaceOnUse" x1="390.2028" y1="233.2258" x2="406.5907" y2="233.2258">
				<stop  offset="0" style="stop-color:#14A4DB"/>
				<stop  offset="0.1958" style="stop-color:#1AABDC"/>
				<stop  offset="0.4773" style="stop-color:#2BBEE0"/>
				<stop  offset="0.809" style="stop-color:#46DDE5"/>
				<stop  offset="1" style="stop-color:#58F2E9"/>
			</linearGradient>
			<polygon class="st63" points="406.6,229.6 390.2,239 390.2,236.9 406.6,227.4 			"/>
			<linearGradient id="SVGID_60_" gradientUnits="userSpaceOnUse" x1="403.2685" y1="230.2193" x2="411.7393" y2="225.5687">
				<stop  offset="0" style="stop-color:#14A4DB"/>
				<stop  offset="0.1958" style="stop-color:#1AABDC"/>
				<stop  offset="0.4773" style="stop-color:#2BBEE0"/>
				<stop  offset="0.809" style="stop-color:#46DDE5"/>
				<stop  offset="1" style="stop-color:#58F2E9"/>
			</linearGradient>
			<polygon class="st64" points="412.2,226.3 408,228.7 408,226.6 412.2,224.2 			"/>
		</g>
		<g>
			<linearGradient id="SVGID_61_" gradientUnits="userSpaceOnUse" x1="390.2028" y1="248.6192" x2="406.5907" y2="248.6192">
				<stop  offset="0" style="stop-color:#14A4DB"/>
				<stop  offset="0.1958" style="stop-color:#1AABDC"/>
				<stop  offset="0.4773" style="stop-color:#2BBEE0"/>
				<stop  offset="0.809" style="stop-color:#46DDE5"/>
				<stop  offset="1" style="stop-color:#58F2E9"/>
			</linearGradient>
			<polygon class="st65" points="406.6,244.9 390.2,254.4 390.2,252.3 406.6,242.8 			"/>
			<linearGradient id="SVGID_62_" gradientUnits="userSpaceOnUse" x1="403.2685" y1="245.6127" x2="411.7393" y2="240.9621">
				<stop  offset="0" style="stop-color:#14A4DB"/>
				<stop  offset="0.1958" style="stop-color:#1AABDC"/>
				<stop  offset="0.4773" style="stop-color:#2BBEE0"/>
				<stop  offset="0.809" style="stop-color:#46DDE5"/>
				<stop  offset="1" style="stop-color:#58F2E9"/>
			</linearGradient>
			<polygon class="st66" points="412.2,241.7 408,244.1 408,242 412.2,239.6 			"/>
		</g>
		<linearGradient id="SVGID_63_" gradientUnits="userSpaceOnUse" x1="327.1798" y1="230.5597" x2="337.6198" y2="230.5597">
			<stop  offset="0" style="stop-color:#14A4DB"/>
			<stop  offset="0.1958" style="stop-color:#1AABDC"/>
			<stop  offset="0.4773" style="stop-color:#2BBEE0"/>
			<stop  offset="0.809" style="stop-color:#46DDE5"/>
			<stop  offset="1" style="stop-color:#58F2E9"/>
		</linearGradient>
		<polygon class="st67" points="337.6,234.4 327.2,228.3 327.2,226.8 337.6,232.8 		"/>
		<linearGradient id="SVGID_64_" gradientUnits="userSpaceOnUse" x1="327.1798" y1="214.1203" x2="337.6198" y2="214.1203">
			<stop  offset="0" style="stop-color:#14A4DB"/>
			<stop  offset="0.1958" style="stop-color:#1AABDC"/>
			<stop  offset="0.4773" style="stop-color:#2BBEE0"/>
			<stop  offset="0.809" style="stop-color:#46DDE5"/>
			<stop  offset="1" style="stop-color:#58F2E9"/>
		</linearGradient>
		<polygon class="st68" points="337.6,217.9 327.2,211.9 327.2,210.3 337.6,216.3 		"/>
		<linearGradient id="SVGID_65_" gradientUnits="userSpaceOnUse" x1="349.9654" y1="206.4124" x2="385.5823" y2="184.0837">
			<stop  offset="0" style="stop-color:#14A4DB"/>
			<stop  offset="0.1958" style="stop-color:#1AABDC"/>
			<stop  offset="0.4773" style="stop-color:#2BBEE0"/>
			<stop  offset="0.809" style="stop-color:#46DDE5"/>
			<stop  offset="1" style="stop-color:#58F2E9"/>
		</linearGradient>
		<path class="st69" d="M371.1,191.1l8.6-5l1.3,0.8l-8.6,5L371.1,191.1z M370.3,193l1.3-0.7l-1.3-0.7l-1.3,0.7L370.3,193z
			 M368.2,194.3l1.3-0.7l-1.3-0.7l-1.3,0.7L368.2,194.3z M366.2,195.4l1.3-0.7l-1.3-0.7l-1.3,0.7L366.2,195.4z M374.5,193l8.6-5
			l-1.3-0.8l-8.6,5L374.5,193z M372.3,194.2l1.3-0.7l-1.3-0.7l-1.3,0.7L372.3,194.2z M370.2,195.5l1.3-0.7l-1.3-0.7l-1.3,0.7
			L370.2,195.5z M368.2,196.6l1.3-0.7l-1.3-0.7l-1.3,0.7L368.2,196.6z"/>
		<linearGradient id="SVGID_66_" gradientUnits="userSpaceOnUse" x1="367.7802" y1="142.3159" x2="367.7802" y2="175.4025">
			<stop  offset="0.2247" style="stop-color:#000000"/>
			<stop  offset="0.3104" style="stop-color:#000F13"/>
			<stop  offset="0.4842" style="stop-color:#003544"/>
			<stop  offset="0.7309" style="stop-color:#007494"/>
			<stop  offset="1" style="stop-color:#00BDF2"/>
		</linearGradient>
		<path class="st70" d="M370.3,141.6h-5.1v28.9c0,0.4,0.2,0.8,0.7,1c1,0.6,2.6,0.6,3.6,0c0.5-0.3,0.7-0.7,0.7-1l0,0V141.6z"/>
		<linearGradient id="SVGID_67_" gradientUnits="userSpaceOnUse" x1="327.0488" y1="240.9074" x2="328.8187" y2="240.9074">
			<stop  offset="0" style="stop-color:#14A4DB"/>
			<stop  offset="0.1958" style="stop-color:#1AABDC"/>
			<stop  offset="0.4773" style="stop-color:#2BBEE0"/>
			<stop  offset="0.809" style="stop-color:#46DDE5"/>
			<stop  offset="1" style="stop-color:#58F2E9"/>
		</linearGradient>
		<path class="st71" d="M328.8,241.4c0,0.6-0.4,0.8-0.9,0.5c-0.5-0.3-0.9-1-0.9-1.5c0-0.6,0.4-0.8,0.9-0.5
			C328.4,240.2,328.8,240.9,328.8,241.4z"/>
		<linearGradient id="SVGID_68_" gradientUnits="userSpaceOnUse" x1="331.0765" y1="243.5026" x2="332.8464" y2="243.5026">
			<stop  offset="0" style="stop-color:#14A4DB"/>
			<stop  offset="0.1958" style="stop-color:#1AABDC"/>
			<stop  offset="0.4773" style="stop-color:#2BBEE0"/>
			<stop  offset="0.809" style="stop-color:#46DDE5"/>
			<stop  offset="1" style="stop-color:#58F2E9"/>
		</linearGradient>
		<path class="st72" d="M332.8,244c0,0.6-0.4,0.8-0.9,0.5c-0.5-0.3-0.9-1-0.9-1.5c0-0.6,0.4-0.8,0.9-0.5
			C332.5,242.8,332.8,243.4,332.8,244z"/>
		<linearGradient id="SVGID_69_" gradientUnits="userSpaceOnUse" x1="335.1043" y1="246.0978" x2="336.8742" y2="246.0978">
			<stop  offset="0" style="stop-color:#14A4DB"/>
			<stop  offset="0.1958" style="stop-color:#1AABDC"/>
			<stop  offset="0.4773" style="stop-color:#2BBEE0"/>
			<stop  offset="0.809" style="stop-color:#46DDE5"/>
			<stop  offset="1" style="stop-color:#58F2E9"/>
		</linearGradient>
		<path class="st73" d="M336.9,246.6c0,0.6-0.4,0.8-0.9,0.5c-0.5-0.3-0.9-1-0.9-1.5s0.4-0.8,0.9-0.5
			C336.5,245.4,336.9,246,336.9,246.6z"/>
	</g>
	<g>
		<path class="st7" d="M312.1,309.1c-0.1,0-0.1-0.1-0.1-0.1v-49.1c0,0,0-0.1,0.1-0.1l24-13.8c0.1,0,0.1,0,0.2,0c0,0.1,0,0.1,0,0.2
			l-23.9,13.7v49C312.2,309,312.1,309.1,312.1,309.1z"/>
	</g>
	<g>
		<path class="st7" d="M308,306.7c-0.1,0-0.1-0.1-0.1-0.1v-49.1c0,0,0-0.1,0.1-0.1l24-13.8c0.1,0,0.1,0,0.2,0c0,0.1,0,0.1,0,0.2
			l-23.9,13.7v49C308.1,306.6,308.1,306.7,308,306.7z"/>
	</g>
	<g>
		<path class="st7" d="M304,303.9c-0.1,0-0.1-0.1-0.1-0.1v-49.1c0,0,0-0.1,0.1-0.1l24-13.8c0.1,0,0.1,0,0.2,0c0,0.1,0,0.1,0,0.2
			l-23.9,13.7v49C304.1,303.8,304,303.9,304,303.9z"/>
	</g>
	<linearGradient id="SVGID_70_" gradientUnits="userSpaceOnUse" x1="255.2923" y1="389.8501" x2="255.2923" y2="278.4794">
		<stop  offset="0" style="stop-color:#14A4DB"/>
		<stop  offset="0.1958" style="stop-color:#1AABDC"/>
		<stop  offset="0.4773" style="stop-color:#2BBEE0"/>
		<stop  offset="0.809" style="stop-color:#46DDE5"/>
		<stop  offset="1" style="stop-color:#58F2E9"/>
	</linearGradient>
	<path class="st74" d="M356.1,339.4l-89-51.4c-3-1.7-6.9-2.5-11.1-2.5c-5,0-10.3,1.2-14.5,3.6l-85.3,49.2c-4,2.3-6.2,5.3-6.2,8.3
		c0.1,2.3,1.6,4.5,4.3,6l89,51.4c6.5,3.8,18,3.3,25.5-1.1l85.3-49.2c4.1-2.3,6.3-5.4,6.2-8.4C360.3,343,358.8,340.9,356.1,339.4z"/>
	<linearGradient id="SVGID_71_" gradientUnits="userSpaceOnUse" x1="223.5068" y1="342.4411" x2="408.4307" y2="342.4411">
		<stop  offset="0" style="stop-color:#3F51B5"/>
		<stop  offset="0.2126" style="stop-color:#3C58BB"/>
		<stop  offset="0.5181" style="stop-color:#346BCC"/>
		<stop  offset="0.8783" style="stop-color:#268AE8"/>
		<stop  offset="1" style="stop-color:#2196F3"/>
	</linearGradient>
	<path class="st75" d="M356.1,335.8l-89-51.4c-3-1.7-6.9-2.5-11.1-2.5c-5,0-10.3,1.2-14.5,3.6l-85.3,49.2c-4,2.3-6.2,5.3-6.2,8.3
		c0.1,2.3,1.6,4.5,4.3,6l89,51.4c6.5,3.8,18,3.3,25.5-1.1l85.3-49.2c4.1-2.3,6.3-5.4,6.2-8.4C360.2,339.4,358.8,337.4,356.1,335.8z"
		/>
	<linearGradient id="SVGID_72_" gradientUnits="userSpaceOnUse" x1="195.2477" y1="367.6182" x2="364.9951" y2="289.5543">
		<stop  offset="0" style="stop-color:#14A4DB"/>
		<stop  offset="0.1958" style="stop-color:#1AABDC"/>
		<stop  offset="0.4773" style="stop-color:#2BBEE0"/>
		<stop  offset="0.809" style="stop-color:#46DDE5"/>
		<stop  offset="1" style="stop-color:#58F2E9"/>
	</linearGradient>
	<path class="st76" d="M356.1,333.4l-89-51.4c-3-1.7-6.9-2.5-11.1-2.5c-5,0-10.3,1.2-14.5,3.6l-85.3,49.2c-4,2.3-6.2,5.3-6.2,8.3
		c0.1,2.3,1.6,4.5,4.3,6l89,51.4c6.5,3.8,18,3.3,25.5-1.1l85.3-49.2c4.1-2.3,6.3-5.4,6.2-8.4C360.3,337,358.8,334.9,356.1,333.4z"/>
	<g>
		<g>
			<linearGradient id="SVGID_73_" gradientUnits="userSpaceOnUse" x1="257.8033" y1="368.9673" x2="257.8033" y2="315.558">
				<stop  offset="0" style="stop-color:#3F51B5"/>
				<stop  offset="0.2126" style="stop-color:#3C58BB"/>
				<stop  offset="0.5181" style="stop-color:#346BCC"/>
				<stop  offset="0.8783" style="stop-color:#268AE8"/>
				<stop  offset="1" style="stop-color:#2196F3"/>
			</linearGradient>
			<path class="st77" d="M207.4,336.7v11.5c0,1.1,0.8,2.1,2.1,2.9l42.7,24.6c3.1,1.8,8.6,1.6,12.3-0.5l40.9-23.6
				c1.7-1,2.7-2.2,2.9-3.4h0.1v-11.5H207.4z"/>
			<linearGradient id="SVGID_74_" gradientUnits="userSpaceOnUse" x1="257.8028" y1="358.0152" x2="257.8028" y2="304.6057">
				<stop  offset="0" style="stop-color:#14A4DB"/>
				<stop  offset="0.1958" style="stop-color:#1AABDC"/>
				<stop  offset="0.4773" style="stop-color:#2BBEE0"/>
				<stop  offset="0.809" style="stop-color:#46DDE5"/>
				<stop  offset="1" style="stop-color:#58F2E9"/>
			</linearGradient>
			<path class="st78" d="M306.2,333.8l-42.7-24.6c-1.4-0.8-3.3-1.2-5.3-1.2c-2.4,0-5,0.6-6.9,1.7l-40.9,23.6c-1.9,1.1-3,2.6-3,4
				c0,1.1,0.8,2.1,2.1,2.9l42.7,24.6c3.1,1.8,8.6,1.6,12.3-0.5l40.9-23.6c1.9-1.1,3-2.6,3-4C308.2,335.5,307.5,334.6,306.2,333.8z"
				/>
		</g>
		<g>
			<linearGradient id="SVGID_75_" gradientUnits="userSpaceOnUse" x1="257.8033" y1="355.7052" x2="257.8033" y2="317.2156">
				<stop  offset="0" style="stop-color:#3F51B5"/>
				<stop  offset="0.2126" style="stop-color:#3C58BB"/>
				<stop  offset="0.5181" style="stop-color:#346BCC"/>
				<stop  offset="0.8783" style="stop-color:#268AE8"/>
				<stop  offset="1" style="stop-color:#2196F3"/>
			</linearGradient>
			<path class="st79" d="M210.3,332.5v1.9c0,1.1,0.7,2,1.9,2.7l40.2,23.2c3,1.7,8.1,1.5,11.5-0.5l38.5-22.3c1.6-0.9,2.5-2.1,2.7-3.2
				h0v-1.9H210.3z"/>
			<linearGradient id="SVGID_76_" gradientUnits="userSpaceOnUse" x1="257.8028" y1="352.2816" x2="257.8028" y2="301.9402">
				<stop  offset="0" style="stop-color:#148BDB"/>
				<stop  offset="0.1626" style="stop-color:#1992DC"/>
				<stop  offset="0.3964" style="stop-color:#25A5DF"/>
				<stop  offset="0.6733" style="stop-color:#3AC4E3"/>
				<stop  offset="0.9809" style="stop-color:#56EFE9"/>
				<stop  offset="1" style="stop-color:#58F2E9"/>
			</linearGradient>
			<path class="st80" d="M303.4,329.5l-40.2-23.2c-1.3-0.8-3.1-1.1-5-1.1c-2.3,0-4.7,0.6-6.5,1.6L213.1,329c-1.8,1-2.8,2.4-2.8,3.8
				c0,1.1,0.7,2,1.9,2.7l40.2,23.2c3,1.7,8.1,1.5,11.5-0.5l38.5-22.3c1.8-1.1,2.8-2.4,2.8-3.8C305.3,331.1,304.6,330.2,303.4,329.5z
				"/>
		</g>
		<g>
			<linearGradient id="SVGID_77_" gradientUnits="userSpaceOnUse" x1="257.8033" y1="347.0984" x2="257.8033" y2="293.689">
				<stop  offset="0" style="stop-color:#3F51B5"/>
				<stop  offset="0.2126" style="stop-color:#3C58BB"/>
				<stop  offset="0.5181" style="stop-color:#346BCC"/>
				<stop  offset="0.8783" style="stop-color:#268AE8"/>
				<stop  offset="1" style="stop-color:#2196F3"/>
			</linearGradient>
			<path class="st81" d="M207.4,314.9v11.5c0,1.1,0.8,2.1,2.1,2.9l42.7,24.6c3.1,1.8,8.6,1.6,12.3-0.5l40.9-23.6
				c1.7-1,2.7-2.2,2.9-3.4h0.1v-11.5H207.4z"/>
			<linearGradient id="SVGID_78_" gradientUnits="userSpaceOnUse" x1="257.8028" y1="336.1462" x2="257.8028" y2="282.7368">
				<stop  offset="0" style="stop-color:#14A4DB"/>
				<stop  offset="0.1958" style="stop-color:#1AABDC"/>
				<stop  offset="0.4773" style="stop-color:#2BBEE0"/>
				<stop  offset="0.809" style="stop-color:#46DDE5"/>
				<stop  offset="1" style="stop-color:#58F2E9"/>
			</linearGradient>
			<path class="st82" d="M306.2,311.9l-42.7-24.6c-1.4-0.8-3.3-1.2-5.3-1.2c-2.4,0-5,0.6-6.9,1.7l-40.9,23.6c-1.9,1.1-3,2.6-3,4
				c0,1.1,0.8,2.1,2.1,2.9l42.7,24.6c3.1,1.8,8.6,1.6,12.3-0.5l40.9-23.6c1.9-1.1,3-2.6,3-4C308.2,313.7,307.5,312.7,306.2,311.9z"
				/>
		</g>
		<g>
			<linearGradient id="SVGID_79_" gradientUnits="userSpaceOnUse" x1="257.8033" y1="333.8363" x2="257.8033" y2="295.3466">
				<stop  offset="0" style="stop-color:#3F51B5"/>
				<stop  offset="0.2126" style="stop-color:#3C58BB"/>
				<stop  offset="0.5181" style="stop-color:#346BCC"/>
				<stop  offset="0.8783" style="stop-color:#268AE8"/>
				<stop  offset="1" style="stop-color:#2196F3"/>
			</linearGradient>
			<path class="st83" d="M210.3,310.6v1.9c0,1.1,0.7,2,1.9,2.7l40.2,23.2c3,1.7,8.1,1.5,11.5-0.5l38.5-22.3c1.6-0.9,2.5-2.1,2.7-3.2
				h0v-1.9H210.3z"/>
			<linearGradient id="SVGID_80_" gradientUnits="userSpaceOnUse" x1="257.8028" y1="323.4367" x2="257.8028" y2="273.0952">
				<stop  offset="0" style="stop-color:#148BDB"/>
				<stop  offset="0.1626" style="stop-color:#1992DC"/>
				<stop  offset="0.3964" style="stop-color:#25A5DF"/>
				<stop  offset="0.6733" style="stop-color:#3AC4E3"/>
				<stop  offset="0.9809" style="stop-color:#56EFE9"/>
				<stop  offset="1" style="stop-color:#58F2E9"/>
			</linearGradient>
			<path class="st84" d="M303.4,307.6l-40.2-23.2c-1.3-0.8-3.1-1.1-5-1.1c-2.3,0-4.7,0.6-6.5,1.6l-38.5,22.3c-1.8,1-2.8,2.4-2.8,3.8
				c0,1.1,0.7,2,1.9,2.7l40.2,23.2c3,1.7,8.1,1.5,11.5-0.5l38.5-22.3c1.8-1.1,2.8-2.4,2.8-3.8C305.3,309.2,304.6,308.3,303.4,307.6z
				"/>
		</g>
		<g>
			<linearGradient id="SVGID_81_" gradientUnits="userSpaceOnUse" x1="257.8033" y1="326.1706" x2="257.8033" y2="272.7612">
				<stop  offset="0" style="stop-color:#3F51B5"/>
				<stop  offset="0.2126" style="stop-color:#3C58BB"/>
				<stop  offset="0.5181" style="stop-color:#346BCC"/>
				<stop  offset="0.8783" style="stop-color:#268AE8"/>
				<stop  offset="1" style="stop-color:#2196F3"/>
			</linearGradient>
			<path class="st85" d="M207.4,293.9v11.5c0,1.1,0.8,2.1,2.1,2.9l42.7,24.6c3.1,1.8,8.6,1.6,12.3-0.5l40.9-23.6
				c1.7-1,2.7-2.2,2.9-3.4h0.1v-11.5H207.4z"/>
			<linearGradient id="SVGID_82_" gradientUnits="userSpaceOnUse" x1="257.8028" y1="315.2184" x2="257.8028" y2="261.8091">
				<stop  offset="0" style="stop-color:#14A4DB"/>
				<stop  offset="0.1958" style="stop-color:#1AABDC"/>
				<stop  offset="0.4773" style="stop-color:#2BBEE0"/>
				<stop  offset="0.809" style="stop-color:#46DDE5"/>
				<stop  offset="1" style="stop-color:#58F2E9"/>
			</linearGradient>
			<path class="st86" d="M306.2,291l-42.7-24.6c-1.4-0.8-3.3-1.2-5.3-1.2c-2.4,0-5,0.6-6.9,1.7l-40.9,23.6c-1.9,1.1-3,2.6-3,4
				c0,1.1,0.8,2.1,2.1,2.9l42.7,24.6c3.1,1.8,8.6,1.6,12.3-0.5l40.9-23.6c1.9-1.1,3-2.6,3-4C308.2,292.7,307.5,291.8,306.2,291z"/>
		</g>
		<linearGradient id="SVGID_83_" gradientUnits="userSpaceOnUse" x1="257.8034" y1="309.5446" x2="257.8034" y2="263.0008">
			<stop  offset="0" style="stop-color:#3F51B5"/>
			<stop  offset="0.2126" style="stop-color:#3C58BB"/>
			<stop  offset="0.5181" style="stop-color:#346BCC"/>
			<stop  offset="0.8783" style="stop-color:#268AE8"/>
			<stop  offset="1" style="stop-color:#2196F3"/>
		</linearGradient>
		<path class="st87" d="M287.2,293.7l-25.9-15c-0.9-0.5-2-0.7-3.2-0.7c-1.5,0-3,0.4-4.2,1.1l-24.9,14.4c-1.2,0.7-1.8,1.6-1.8,2.4
			c0,0.7,0.5,1.3,1.3,1.8l25.9,15c1.9,1.1,5.2,1,7.4-0.3l24.9-14.4c1.2-0.7,1.8-1.6,1.8-2.5C288.4,294.7,288,294.1,287.2,293.7z"/>
		<linearGradient id="SVGID_84_" gradientUnits="userSpaceOnUse" x1="257.8034" y1="307.8605" x2="257.8034" y2="261.3167">
			<stop  offset="0" style="stop-color:#148BDB"/>
			<stop  offset="0.1626" style="stop-color:#1992DC"/>
			<stop  offset="0.3964" style="stop-color:#25A5DF"/>
			<stop  offset="0.6733" style="stop-color:#3AC4E3"/>
			<stop  offset="0.9809" style="stop-color:#56EFE9"/>
			<stop  offset="1" style="stop-color:#58F2E9"/>
		</linearGradient>
		<path class="st88" d="M287.2,292l-25.9-15c-0.9-0.5-2-0.7-3.2-0.7c-1.5,0-3,0.4-4.2,1.1l-24.9,14.4c-1.2,0.7-1.8,1.6-1.8,2.4
			c0,0.7,0.5,1.3,1.3,1.8l25.9,15c1.9,1.1,5.2,1,7.4-0.3l24.9-14.4c1.2-0.7,1.8-1.6,1.8-2.5C288.4,293,288,292.4,287.2,292z"/>
		<path class="st7" d="M259.6,284.3c-1,0.6-2.6,0.6-3.6,0c-1-0.6-1-1.5,0-2.1c1-0.6,2.6-0.6,3.6,0
			C260.6,282.8,260.6,283.7,259.6,284.3z"/>
		<g>
			<linearGradient id="SVGID_85_" gradientUnits="userSpaceOnUse" x1="265.3348" y1="321.5908" x2="281.7228" y2="321.5908">
				<stop  offset="0" style="stop-color:#14A4DB"/>
				<stop  offset="0.1958" style="stop-color:#1AABDC"/>
				<stop  offset="0.4773" style="stop-color:#2BBEE0"/>
				<stop  offset="0.809" style="stop-color:#46DDE5"/>
				<stop  offset="1" style="stop-color:#58F2E9"/>
			</linearGradient>
			<polygon class="st89" points="281.7,317.9 265.3,327.4 265.3,325.3 281.7,315.8 			"/>
			<linearGradient id="SVGID_86_" gradientUnits="userSpaceOnUse" x1="278.4005" y1="318.5842" x2="286.8713" y2="313.9337">
				<stop  offset="0" style="stop-color:#14A4DB"/>
				<stop  offset="0.1958" style="stop-color:#1AABDC"/>
				<stop  offset="0.4773" style="stop-color:#2BBEE0"/>
				<stop  offset="0.809" style="stop-color:#46DDE5"/>
				<stop  offset="1" style="stop-color:#58F2E9"/>
			</linearGradient>
			<polygon class="st90" points="287.3,314.7 283.2,317.1 283.2,315 287.3,312.6 			"/>
		</g>
		<g>
			<linearGradient id="SVGID_87_" gradientUnits="userSpaceOnUse" x1="265.3348" y1="342.4217" x2="281.7228" y2="342.4217">
				<stop  offset="0" style="stop-color:#14A4DB"/>
				<stop  offset="0.1958" style="stop-color:#1AABDC"/>
				<stop  offset="0.4773" style="stop-color:#2BBEE0"/>
				<stop  offset="0.809" style="stop-color:#46DDE5"/>
				<stop  offset="1" style="stop-color:#58F2E9"/>
			</linearGradient>
			<polygon class="st91" points="281.7,338.7 265.3,348.2 265.3,346.1 281.7,336.6 			"/>
			<linearGradient id="SVGID_88_" gradientUnits="userSpaceOnUse" x1="278.4005" y1="339.4151" x2="286.8713" y2="334.7645">
				<stop  offset="0" style="stop-color:#14A4DB"/>
				<stop  offset="0.1958" style="stop-color:#1AABDC"/>
				<stop  offset="0.4773" style="stop-color:#2BBEE0"/>
				<stop  offset="0.809" style="stop-color:#46DDE5"/>
				<stop  offset="1" style="stop-color:#58F2E9"/>
			</linearGradient>
			<polygon class="st92" points="287.3,335.5 283.2,337.9 283.2,335.8 287.3,333.4 			"/>
		</g>
		<g>
			<linearGradient id="SVGID_89_" gradientUnits="userSpaceOnUse" x1="265.3348" y1="364.1442" x2="281.7228" y2="364.1442">
				<stop  offset="0" style="stop-color:#14A4DB"/>
				<stop  offset="0.1958" style="stop-color:#1AABDC"/>
				<stop  offset="0.4773" style="stop-color:#2BBEE0"/>
				<stop  offset="0.809" style="stop-color:#46DDE5"/>
				<stop  offset="1" style="stop-color:#58F2E9"/>
			</linearGradient>
			<polygon class="st93" points="281.7,360.5 265.3,369.9 265.3,367.8 281.7,358.4 			"/>
			<linearGradient id="SVGID_90_" gradientUnits="userSpaceOnUse" x1="278.4005" y1="361.1377" x2="286.8713" y2="356.4871">
				<stop  offset="0" style="stop-color:#14A4DB"/>
				<stop  offset="0.1958" style="stop-color:#1AABDC"/>
				<stop  offset="0.4773" style="stop-color:#2BBEE0"/>
				<stop  offset="0.809" style="stop-color:#46DDE5"/>
				<stop  offset="1" style="stop-color:#58F2E9"/>
			</linearGradient>
			<polygon class="st94" points="287.3,357.2 283.2,359.6 283.2,357.5 287.3,355.1 			"/>
		</g>
		<linearGradient id="SVGID_91_" gradientUnits="userSpaceOnUse" x1="240.893" y1="318.7561" x2="276.5099" y2="296.4274">
			<stop  offset="0" style="stop-color:#14A4DB"/>
			<stop  offset="0.1958" style="stop-color:#1AABDC"/>
			<stop  offset="0.4773" style="stop-color:#2BBEE0"/>
			<stop  offset="0.809" style="stop-color:#46DDE5"/>
			<stop  offset="1" style="stop-color:#58F2E9"/>
		</linearGradient>
		<path class="st95" d="M262,303.4l8.6-5l1.3,0.8l-8.6,5L262,303.4z M261.2,305.4l1.3-0.7l-1.3-0.7l-1.3,0.7L261.2,305.4z
			 M259.1,306.6l1.3-0.7l-1.3-0.7l-1.3,0.7L259.1,306.6z M257.1,307.8l1.3-0.7l-1.3-0.7l-1.3,0.7L257.1,307.8z M265.4,305.4l8.6-5
			l-1.3-0.8l-8.6,5L265.4,305.4z M263.3,306.6l1.3-0.7l-1.3-0.7l-1.3,0.7L263.3,306.6z M261.1,307.8l1.3-0.7l-1.3-0.7l-1.3,0.7
			L261.1,307.8z M259.2,308.9l1.3-0.7l-1.3-0.7l-1.3,0.7L259.2,308.9z"/>
		<linearGradient id="SVGID_92_" gradientUnits="userSpaceOnUse" x1="257.7983" y1="255.0358" x2="257.7983" y2="288.1224">
			<stop  offset="0.2247" style="stop-color:#000000"/>
			<stop  offset="0.3104" style="stop-color:#000F13"/>
			<stop  offset="0.4842" style="stop-color:#003544"/>
			<stop  offset="0.7309" style="stop-color:#007494"/>
			<stop  offset="1" style="stop-color:#00BDF2"/>
		</linearGradient>
		<path class="st96" d="M260.3,254.3h-5.1v28.9c0,0.4,0.2,0.8,0.7,1c1,0.6,2.6,0.6,3.6,0c0.5-0.3,0.7-0.7,0.7-1l0,0V254.3z"/>
	</g>
	<linearGradient id="SVGID_93_" gradientUnits="userSpaceOnUse" x1="341.159" y1="295.2888" x2="341.159" y2="351.8803">
		<stop  offset="0.2247" style="stop-color:#000000"/>
		<stop  offset="0.3104" style="stop-color:#000F13"/>
		<stop  offset="0.4842" style="stop-color:#003544"/>
		<stop  offset="0.7309" style="stop-color:#007494"/>
		<stop  offset="1" style="stop-color:#00BDF2"/>
	</linearGradient>
	<path class="st97" d="M347.8,294.1h-13.4v48.1c0,1,0.7,2,2,2.7c2.6,1.5,6.8,1.5,9.4,0c1.3-0.8,2-1.7,2-2.7l0,0V294.1z"/>
	<path class="st7" d="M336.4,344.9c2.6,1.5,6.8,1.5,9.5,0c2.6-1.5,2.6-4,0-5.5c-2.6-1.5-6.8-1.5-9.5,0
		C333.8,340.9,333.8,343.4,336.4,344.9z"/>
</g>
</svg>
