<svg xmlns="http://www.w3.org/2000/svg" width="81" height="72" viewBox="0 0 81 72">
  <defs>
    <linearGradient id="4-a" x1="100%" x2="8.062%" y1="100%" y2="3.923%">
      <stop offset="0%" stop-color="#2B1ECD" stop-opacity=".573"/>
      <stop offset="100%" stop-color="#26D0CE"/>
    </linearGradient>
  </defs>
  <g fill="none" fill-rule="evenodd" transform="translate(2)">
    <circle cx="35" cy="35" r="35" fill="#2B1ECD" fill-opacity=".04" fill-rule="nonzero" transform="translate(9)"/>
    <g stroke="url(#4-a)" stroke-linecap="round" stroke-linejoin="round" stroke-width="4" transform="translate(0 26)">
      <path d="M10 28L0 28M72 28L62 28M72 5L72 39.9C72 41.72 69.79 44 68 44L4 44C2.21 44 0 41.72 0 39.9L0 12M72 12L0 12"/>
      <path d="M0 4C.140903304 1.85192925 1.85192925.140903304 4 0L68.89 0C70.67 0 72 2.08 72 3.9L72 12M27.33 32.17C26.3053128 32.7167368 25.1614222 33.0018506 24 33 21.2385763 33 19 30.7614237 19 28 19 25.2385763 21.2385763 23 24 23 25.1614222 22.9981494 26.3053128 23.2832632 27.33 23.83"/>
      <polyline points="32 23 37 33 42 23"/>
      <polyline points="46 23 51 33 56 23"/>
    </g>
  </g>
</svg>
