<?xml version="1.0" encoding="UTF-8"?>
<svg width="182px" height="79px" viewBox="0 0 182 79" version="1.1" xmlns="http://www.w3.org/2000/svg" xmlns:xlink="http://www.w3.org/1999/xlink">
    <!-- Generator: Sketch 50.2 (55047) - http://www.bohemiancoding.com/sketch -->
    <title>Cartel_logo</title>
    <desc>Created with Sketch.</desc>
    <defs></defs>
    <g id="Page-1" stroke="none" stroke-width="1" fill="none" fill-rule="evenodd">
        <g id="Cartel_logo" fill="#FFFFFF">
            <path d="M74.7661651,60.433137 L67.0050776,60.433137 L65.3670305,52.991903 L56.3195821,52.991903 L54.6816057,60.433137 L46.4854841,60.433137 C49.8940639,46.5330752 53.3048098,32.6334615 56.7152732,18.7338478 L64.9713865,18.7338478 C68.3795661,32.634051 71.7911832,46.5334054 75.2011757,60.433137 L74.7661651,60.433137 Z M43.3147992,60.4626618 C42.9975118,60.4811973 38.0117948,60.4799239 37.1721226,60.4796881 L37.1721226,60.481103 L37.0657951,60.481103 C35.7387961,60.481103 34.4403332,60.3409782 33.1828616,60.0737931 C31.8977485,59.8007125 30.6544978,59.3929075 29.4665534,58.8646922 C28.257207,58.3269734 27.1099948,57.6657552 26.038926,56.8960122 C24.9555433,56.117426 23.9496696,55.2285463 23.0359025,54.2449373 C22.1368272,53.2771519 21.3256204,52.2165003 20.6165032,51.0781928 C19.9157915,49.9533036 19.3137552,48.7501925 18.8241211,47.4836457 C18.3449643,46.2442182 17.9744189,44.9454346 17.7254815,43.6014442 C17.4824303,42.2890537 17.354889,40.9371869 17.354889,39.5591675 C17.354889,38.1810537 17.4824303,36.8292104 17.7254815,35.51682 C17.9744189,34.172806 18.3449172,32.874046 18.824074,31.6345713 C19.3137082,30.3680245 19.9157444,29.1648663 20.6165032,28.0400242 C21.3256204,26.9017167 22.1368272,25.8409707 23.0359025,24.873209 C23.9497167,23.8895764 24.9555904,23.0006967 26.0390673,22.2220633 C27.110089,21.4522967 28.2573483,20.7910785 29.4666476,20.2533833 C30.6545449,19.7251916 31.8978427,19.317363 33.1829558,19.0442824 C34.4403803,18.7771209 35.7388432,18.6369725 37.0657951,18.6369725 C37.3031956,18.6369725 39.4608492,18.63768 41.6434129,18.6435991 C42.5908489,18.646146 43.3184016,18.6519472 43.3695169,18.6634081 L43.6378316,18.7235424 L43.6378316,26.5664501 L43.2800709,26.5483863 C43.2126626,26.5449904 42.491985,26.5421842 41.5653389,26.539991 C40.1473635,26.5366896 37.2649827,26.5349681 37.0657951,26.5349681 C36.2852435,26.5349681 35.5239749,26.6175525 34.7890528,26.7749866 C34.0320223,26.9371606 33.3019739,27.1781224 32.6070305,27.4892881 C31.8945229,27.8083066 31.2167201,28.2013257 30.5821451,28.6594078 C29.9417076,29.121711 29.3434621,29.652143 28.7960965,30.2413415 C28.2331444,30.847354 27.7259224,31.5125812 27.2836365,32.2274251 C26.8458476,32.9348642 26.4688745,33.6953866 26.1615229,34.4997009 C25.8595865,35.2897952 25.6267772,36.1160173 25.4713356,36.9692173 C25.3198023,37.8011934 25.2402921,38.6670806 25.2402921,39.5591675 C25.2402921,40.4512307 25.3198023,41.3170707 25.4713356,42.1489997 C25.6267772,43.0021997 25.8595865,43.8283746 26.1615229,44.6185161 C26.4688745,45.4227833 26.8458005,46.1833057 27.2836365,46.8907448 C27.7259695,47.6056358 28.2331444,48.2708158 28.7960965,48.8767812 C29.3435092,49.4659797 29.9417547,49.9964352 30.5822393,50.4587857 C31.2167671,50.9168442 31.89457,51.3098633 32.6070305,51.6288582 C33.3020445,51.9400239 34.0319752,52.1809149 34.7890528,52.3431361 C35.5239749,52.5005701 36.2852435,52.5831782 37.0657951,52.5831782 L37.0657951,52.5845931 L43.6378316,52.6036475 L43.6378316,60.4439612 L43.3147992,60.4626618 Z M59.4805195,38.2481684 L57.931377,45.4520722 L63.7552592,45.4520722 L62.2061167,38.2468006 C61.7316453,35.9656107 61.2219982,32.5953057 60.8276021,29.9305531 C60.6592815,31.1630003 60.4599291,32.5456182 60.2476507,33.9001499 C59.9992078,35.4853379 59.733742,37.0292337 59.4805195,38.2468006 L59.4805195,38.2481684 Z M104.542401,60.433137 L96.4377032,60.433137 L89.1252823,46.136566 L86.3982724,46.136566 L86.3982724,60.433137 L78.5194383,60.433137 L78.5194383,18.7338478 L90.0930373,18.7338478 C94.1944649,18.7338478 97.4359956,19.9856087 99.6594564,22.3157078 C101.880798,24.6435666 103.070603,28.0355907 103.070603,32.318051 C103.070603,35.3490806 102.491358,37.9423794 101.384689,40.0383084 C100.316257,42.0618875 98.7587801,43.618046 96.7586401,44.6541958 L105.109332,60.433137 L104.542401,60.433137 Z M90.0345288,26.2736549 L86.3982724,26.2736549 L86.3982724,38.5967588 L90.0345288,38.5967588 C91.6551529,38.5967588 92.8983094,38.0671994 93.7298352,37.0421331 C94.5759821,35.9990737 95.0162668,34.4324448 95.0162668,32.3766525 C95.0162668,30.3542054 94.5774419,28.8187519 93.7340261,27.797671 C92.9024062,26.7907866 91.6577428,26.2736549 90.0345288,26.2736549 Z M106.121869,18.7338478 L130.331354,18.7338478 L130.331354,26.2736549 L122.082939,26.2736549 L122.082939,60.433137 L114.028604,60.433137 L114.028604,26.2736549 L105.780166,26.2736549 L105.780166,18.7338478 L106.121869,18.7338478 Z M141.855744,42.9139791 L141.855744,52.9519313 L155.837112,52.9519313 L155.837112,60.433137 L133.97691,60.433137 L133.97691,18.7338478 L155.252122,18.7338478 L155.252122,26.215077 L141.855744,26.215077 L141.855744,35.6671322 L154.140627,35.6671322 L154.140627,42.9139791 L141.855744,42.9139791 Z M169.057987,19.0760946 L169.057987,52.8933299 L181.869351,52.8933299 L181.869351,60.433137 L161.179153,60.433137 L161.179153,18.7338478 L169.057987,18.7338478 L169.057987,19.0760946 Z" id="path2"></path>
            <path d="M38.6085571,12.977554 C38.7902981,12.977554 38.971215,12.9807376 39.1520849,12.9843928 L39.1520849,0.19603791 C38.915273,0.193373134 38.6780843,0.19332597 38.4406132,0.19603791 C36.9635643,0.203654925 35.5216675,0.293125373 34.099407,0.447281493 L34.2052401,0.550193731 L32.5730085,8.20394955 L25.1372843,10.6224815 L19.3263281,5.38291851 L19.355594,5.24119015 C16.7003247,6.74888746 14.2307283,8.53664567 11.9991446,10.5914475 L12.1439912,10.6062334 L15.3271783,17.7571248 L10.7304657,24.0979478 L2.96066675,23.2796021 L2.90229961,23.1412931 C1.64989004,25.8801406 0.688562743,28.7795349 0.0933309185,31.8046454 L0.222072962,31.7352197 L6.996711,35.6423475 L7.00017206,43.4718842 L0.240202329,47.4003301 L0.103125485,47.3244901 C0.724279948,50.3455681 1.67760207,53.2400101 2.92139431,55.9792585 L2.99433558,55.8477412 L10.7664184,55.011426 L15.3706652,61.3383591 L12.1969666,68.5022913 L12.0736398,68.5136107 C14.3015741,70.5576119 16.767215,72.3531051 19.4258983,73.8433045 L19.3933596,73.7153952 L25.1917195,68.4581693 L32.6352841,70.8574582 L34.2733547,78.5124403 L34.1650965,78.6149045 C35.692319,78.7808988 37.2262988,78.8663839 38.7875198,78.8546872 C38.9091984,78.8542155 39.0307123,78.8532722 39.1520849,78.8515036 L39.1520849,70.8099639 L114.025543,70.8099639 L114.025543,66.0654597 L39.1520849,66.0654597 C38.971215,66.0691149 38.7902981,66.0722985 38.6085571,66.0722985 C23.9701063,66.0722985 12.1033532,54.186666 12.1033532,39.5249263 C12.1033532,24.8632101 23.9701063,12.977554 38.6085571,12.977554 Z M116.872701,70.6982791 L118.031332,70.6982791 L118.031332,66.2103481 L116.187788,66.2103481 L116.187788,67.2425597 L116.872701,67.2425597 L116.872701,70.6982791 Z M122.50573,70.8265185 C122.947381,70.8265185 124.208408,70.7239364 124.208408,68.4543018 C124.208408,66.1847143 122.947381,66.0821322 122.50573,66.0821322 C122.064033,66.0821322 120.803006,66.1847143 120.803006,68.4543018 C120.803006,70.7239364 122.064033,70.8265185 122.50573,70.8265185 Z M122.50573,69.8840603 C121.955233,69.8840603 121.942425,69.0377463 121.942425,68.4543018 C121.942425,67.8708809 121.955233,67.0245669 122.50573,67.0245669 C123.056227,67.0245669 123.069036,67.8708809 123.069036,68.4543018 C123.069036,69.0377463 123.056227,69.8840603 122.50573,69.8840603 Z M127.485797,70.6982791 L128.644428,70.6982791 L128.644428,66.2103481 L126.800883,66.2103481 L126.800883,67.2425597 L127.485797,67.2425597 L127.485797,70.6982791 Z M133.118826,70.8265185 C133.560476,70.8265185 134.821503,70.7239364 134.821503,68.4543018 C134.821503,66.1847143 133.560476,66.0821322 133.118826,66.0821322 C132.677105,66.0821322 131.416102,66.1847143 131.416102,68.4543018 C131.416102,70.7239364 132.677105,70.8265185 133.118826,70.8265185 Z M133.118826,69.8840603 C132.568306,69.8840603 132.555521,69.0377463 132.555521,68.4543018 C132.555521,67.8708809 132.568306,67.0245669 133.118826,67.0245669 C133.669323,67.0245669 133.682131,67.8708809 133.682131,68.4543018 C133.682131,69.0377463 133.669323,69.8840603 133.118826,69.8840603 Z M138.098892,70.6982791 L139.257524,70.6982791 L139.257524,66.2103481 L137.413979,66.2103481 L137.413979,67.2425597 L138.098892,67.2425597 L138.098892,70.6982791 Z M143.731922,70.8265185 C144.173572,70.8265185 145.434599,70.7239364 145.434599,68.4543018 C145.434599,66.1847143 144.173572,66.0821322 143.731922,66.0821322 C143.290201,66.0821322 142.029198,66.1847143 142.029198,68.4543018 C142.029198,70.7239364 143.290201,70.8265185 143.731922,70.8265185 Z M143.731922,69.8840603 C143.181401,69.8840603 143.168617,69.0377463 143.168617,68.4543018 C143.168617,67.8708809 143.181401,67.0245669 143.731922,67.0245669 C144.282419,67.0245669 144.295227,67.8708809 144.295227,68.4543018 C144.295227,69.0377463 144.282419,69.8840603 143.731922,69.8840603 Z M148.711965,70.6982791 L149.870619,70.6982791 L149.870619,66.2103481 L148.027075,66.2103481 L148.027075,67.2425597 L148.711965,67.2425597 L148.711965,70.6982791 Z M154.345018,70.8265185 C154.786668,70.8265185 156.047695,70.7239364 156.047695,68.4543018 C156.047695,66.1847143 154.786668,66.0821322 154.345018,66.0821322 C153.903297,66.0821322 152.64227,66.1847143 152.64227,68.4543018 C152.64227,70.7239364 153.903297,70.8265185 154.345018,70.8265185 Z M154.345018,69.8840603 C153.794497,69.8840603 153.781689,69.0377463 153.781689,68.4543018 C153.781689,67.8708809 153.794497,67.0245669 154.345018,67.0245669 C154.895515,67.0245669 154.908323,67.8708809 154.908323,68.4543018 C154.908323,69.0377463 154.895515,69.8840603 154.345018,69.8840603 Z M159.32506,70.6982791 L160.483715,70.6982791 L160.483715,66.2103481 L158.640171,66.2103481 L158.640171,67.2425597 L159.32506,67.2425597 L159.32506,70.6982791 Z M164.95809,70.8265185 C165.399764,70.8265185 166.66079,70.7239364 166.66079,68.4543018 C166.66079,66.1847143 165.399764,66.0821322 164.95809,66.0821322 C164.516392,66.0821322 163.255366,66.1847143 163.255366,68.4543018 C163.255366,70.7239364 164.516392,70.8265185 164.95809,70.8265185 Z M164.95809,69.8840603 C164.407593,69.8840603 164.394784,69.0377463 164.394784,68.4543018 C164.394784,67.8708809 164.407593,67.0245669 164.95809,67.0245669 C165.50861,67.0245669 165.521395,67.8708809 165.521395,68.4543018 C165.521395,69.0377463 165.50861,69.8840603 164.95809,69.8840603 Z M169.938156,70.6982791 L171.096811,70.6982791 L171.096811,66.2103481 L169.253243,66.2103481 L169.253243,67.2425597 L169.938156,67.2425597 L169.938156,70.6982791 Z M175.571186,70.8265185 C176.012859,70.8265185 177.273863,70.7239364 177.273863,68.4543018 C177.273863,66.1847143 176.012859,66.0821322 175.571186,66.0821322 C175.129488,66.0821322 173.868461,66.1847143 173.868461,68.4543018 C173.868461,70.7239364 175.129488,70.8265185 175.571186,70.8265185 Z M175.571186,69.8840603 C175.020688,69.8840603 175.00788,69.0377463 175.00788,68.4543018 C175.00788,67.8708809 175.020688,67.0245669 175.571186,67.0245669 C176.121706,67.0245669 176.134491,67.8708809 176.134491,68.4543018 C176.134491,69.0377463 176.121706,69.8840603 175.571186,69.8840603 Z M180.551252,70.6982791 L181.709907,70.6982791 L181.709907,66.2103481 L179.866338,66.2103481 L179.866338,67.2425597 L180.551252,67.2425597 L180.551252,70.6982791 Z" id="path4"></path>
        </g>
    </g>
</svg>