<?xml version="1.0" encoding="UTF-8"?>
<svg width="965px" height="929px" viewBox="0 0 965 929" version="1.1" xmlns="http://www.w3.org/2000/svg" xmlns:xlink="http://www.w3.org/1999/xlink">
    <!-- Generator: Sketch 50.2 (55047) - http://www.bohemiancoding.com/sketch -->
    <title>Group 156</title>
    <desc>Created with Sketch.</desc>
    <defs>
        <linearGradient x1="99.522444%" y1="49.522444%" x2="0.477555997%" y2="49.522444%" id="linearGradient-1">
            <stop stop-color="#3943CF" stop-opacity="0.05" offset="0%"></stop>
            <stop stop-color="#4D68F3" stop-opacity="0.05" offset="100%"></stop>
        </linearGradient>
    </defs>
    <g id="Page-1" stroke="none" stroke-width="1" fill="none" fill-rule="evenodd">
        <g id="Group-156" transform="translate(-104.000000, -377.000000)" stroke="url(#linearGradient-1)" stroke-width="106">
            <path d="M1092.67238,1071.13058 C1092.83074,1070.55028 1092.96314,1069.71668 1093.02158,1068.59299 C1093.27375,1063.74418 1091.9868,1056.87162 1088.61173,1048.39035 L781.027544,275.457481 C777.69815,267.090997 774.008037,261.381384 770.662984,258.225794 C770.212051,257.800401 769.825266,257.475725 769.504184,257.23529 C769.133068,257.376619 768.677014,257.579719 768.133114,257.860445 C764.08721,259.948682 759.019998,264.364098 753.576682,271.390271 L574.601553,504.180134 C558.018862,525.742805 544.85287,542.82283 500.779749,599.97004 C500.756282,600.00047 500.756282,600.00047 500.732814,600.030899 C463.063191,648.87505 444.160123,673.405091 427.123003,695.575047 L247.985043,928.431298 C242.513658,935.529528 239.457351,941.675221 238.398896,946.332641 C238.133547,947.50023 238.039989,948.375656 238.049871,948.987335 C238.392649,949.335123 238.935177,949.779721 239.733669,950.305481 C243.447999,952.751149 249.592969,954.91607 258.140199,956.113479 L258.281045,956.133403 L546.41363,997.287634 L546.576956,997.311221 C574.600919,1001.40298 610.699144,1006.5726 662.494594,1013.93297 C663.619981,1014.09289 663.619981,1014.09289 664.745443,1014.2528 C679.357843,1016.32899 730.539283,1023.59211 728.064555,1023.24079 C752.24515,1026.67353 769.013959,1029.0595 783.51311,1031.1329 L1071.60589,1072.25728 C1080.18649,1073.48949 1086.69956,1073.12057 1090.92148,1071.81142 C1091.70466,1071.56857 1092.27653,1071.33448 1092.67238,1071.13058 Z" id="Fill-5-Copy" transform="translate(665.550298, 665.000000) rotate(42.000000) translate(-665.550298, -665.000000) "></path>
        </g>
    </g>
</svg>